<svg width="40" height="40" viewBox="0 0 40 40" fill="none" xmlns="http://www.w3.org/2000/svg">
<path d="M33.3329 24.1665V10.8332C33.3329 7.69047 33.3329 6.11913 32.3566 5.14281C31.3803 4.1665 29.809 4.1665 26.6663 4.1665H13.3329C10.1902 4.1665 8.61888 4.1665 7.64257 5.14281C6.66626 6.11913 6.66626 7.69047 6.66626 10.8332V24.1665" stroke="#EB4042" stroke-width="3.125" stroke-linecap="round" stroke-linejoin="round"/>
<path d="M5.82904 25.8589L6.69889 24.1665H33.2527L34.1702 25.8589C36.575 30.2948 37.174 32.5127 36.2599 34.1729C35.3458 35.8332 32.9223 35.8332 28.0753 35.8332L11.924 35.8332C7.07703 35.8332 4.65353 35.8332 3.73946 34.1729C2.82539 32.5127 3.42425 30.2948 5.82904 25.8589Z" stroke="#EB4042" stroke-width="3.125" stroke-linecap="round" stroke-linejoin="round"/>
<g opacity="0.5">
<path d="M15.3125 10.6611L12.1081 12.8812C11.3906 13.3783 11.3906 14.439 12.1081 14.9361L15.3125 17.1562" stroke="#EB4042" stroke-width="2.5" stroke-linecap="round"/>
<path d="M24.6562 17.1563L27.8607 14.9362C28.5782 14.4391 28.5782 13.3783 27.8607 12.8812L24.6562 10.6611" stroke="#EB4042" stroke-width="2.5" stroke-linecap="round"/>
<path d="M21.7188 9.375L18.2525 18.755" stroke="#EB4042" stroke-width="2.5" stroke-linecap="round" stroke-linejoin="round"/>
</g>
</svg>
