<svg width="40" height="40" viewBox="0 0 40 40" fill="none" xmlns="http://www.w3.org/2000/svg">
<path d="M20.0009 7.50001C20.0009 6.95284 19.8932 6.41102 19.6838 5.9055C19.4744 5.39997 19.1675 4.94065 18.7806 4.55373C18.3936 4.16682 17.9343 3.85991 17.4288 3.65051C16.9233 3.44112 16.3815 3.33335 15.8343 3.33335C14.8615 3.3323 13.9189 3.67169 13.1701 4.29269C12.4212 4.91368 11.9133 5.77712 11.7343 6.73335C11.1849 6.83628 10.6618 7.04871 10.1962 7.35798C9.73056 7.66726 9.33193 8.06706 9.02403 8.53358C8.71613 9.0001 8.50524 9.52381 8.40392 10.0735C8.3026 10.6232 8.31293 11.1877 8.43428 11.7333C7.68205 11.8669 6.98102 12.2047 6.40783 12.7098C5.83463 13.2149 5.41135 13.8679 5.18425 14.5973C4.95716 15.3268 4.93499 16.1046 5.12018 16.8459C5.30537 17.5871 5.69078 18.2631 6.23428 18.8C5.32017 19.222 4.55476 19.9102 4.03822 20.7744C3.52169 21.6387 3.2781 22.6387 3.33934 23.6437C3.40057 24.6486 3.76378 25.6117 4.38142 26.4068C4.99906 27.202 5.84236 27.7921 6.80095 28.1C6.61792 28.7914 6.61597 29.5183 6.79526 30.2107C6.97455 30.9031 7.32906 31.5377 7.82467 32.0534C8.32027 32.5691 8.94027 32.9485 9.62501 33.1552C10.3097 33.3619 11.0361 33.3888 11.7343 33.2333C11.9195 34.2565 12.4806 35.1734 13.3074 35.804C14.1341 36.4346 15.1668 36.7333 16.2025 36.6414C17.2382 36.5495 18.2021 36.0737 18.905 35.3074C19.6078 34.5412 19.9987 33.5398 20.0009 32.5M20.0009 7.50001V32.5M20.0009 7.50001C20.0009 6.39494 20.4398 5.33514 21.2212 4.55373C22.0026 3.77233 23.0624 3.33335 24.1675 3.33335C25.1403 3.3323 26.0828 3.67169 26.8317 4.29269C27.5805 4.91368 28.0885 5.77712 28.2675 6.73335C28.8169 6.83628 29.34 7.04871 29.8056 7.35798C30.2712 7.66726 30.6698 8.06706 30.9777 8.53358C31.2856 9.0001 31.4965 9.52381 31.5978 10.0735C31.6992 10.6232 31.6888 11.1877 31.5675 11.7333C32.3197 11.8669 33.0207 12.2047 33.5939 12.7098C34.1671 13.2149 34.5904 13.8679 34.8175 14.5973C35.0446 15.3268 35.0668 16.1046 34.8816 16.8459C34.6964 17.5871 34.311 18.2631 33.7675 18.8C34.6816 19.222 35.447 19.9102 35.9635 20.7744C36.4801 21.6387 36.7237 22.6387 36.6624 23.6437C36.6012 24.6486 36.238 25.6117 35.6203 26.4068C35.0027 27.202 34.1594 27.7921 33.2008 28.1C33.3838 28.7914 33.3858 29.5183 33.2065 30.2107C33.0272 30.9031 32.6727 31.5377 32.1771 32.0534C31.6815 32.5691 31.0615 32.9485 30.3768 33.1552C29.692 33.3619 28.9656 33.3888 28.2675 33.2333C28.0822 34.2565 27.5211 35.1734 26.6944 35.804C25.8676 36.4346 24.835 36.7333 23.7993 36.6414C22.7636 36.5495 21.7996 36.0737 21.0968 35.3074C20.394 34.5412 20.0032 33.5398 20.0009 32.5" stroke="#EB4042" stroke-width="3" stroke-linecap="round" stroke-linejoin="round"/>
</svg>
