<svg width="40" height="40" viewBox="0 0 40 40" fill="none" xmlns="http://www.w3.org/2000/svg">
<path d="M19.6667 36.3333C28.8714 36.3333 36.3333 28.8714 36.3333 19.6667C36.3333 10.4619 28.8714 3 19.6667 3C10.4619 3 3 10.4619 3 19.6667C3 28.8714 10.4619 36.3333 19.6667 36.3333Z" stroke="#EB4042" stroke-width="3" stroke-linecap="round" stroke-linejoin="round"/>
<path d="M19.6667 29.6667C25.1895 29.6667 29.6667 25.1895 29.6667 19.6667C29.6667 14.1438 25.1895 9.66667 19.6667 9.66667C14.1438 9.66667 9.66667 14.1438 9.66667 19.6667C9.66667 25.1895 14.1438 29.6667 19.6667 29.6667Z" stroke="#EB4042" stroke-width="3" stroke-linecap="round" stroke-linejoin="round"/>
<path d="M19.7332 23.1667C21.5742 23.1667 23.0666 21.6743 23.0666 19.8333C23.0666 17.9924 21.5742 16.5 19.7332 16.5C17.8923 16.5 16.3999 17.9924 16.3999 19.8333C16.3999 21.6743 17.8923 23.1667 19.7332 23.1667Z" stroke="#F49E9F" stroke-width="3" stroke-linecap="round" stroke-linejoin="round"/>
</svg>
