<svg width="40" height="40" viewBox="0 0 40 40" fill="none" xmlns="http://www.w3.org/2000/svg">
<path d="M26.667 6.66659H30.0003C30.8844 6.66659 31.7322 7.01777 32.3573 7.6429C32.9825 8.26802 33.3337 9.11586 33.3337 9.99992V33.3333C33.3337 34.2173 32.9825 35.0652 32.3573 35.6903C31.7322 36.3154 30.8844 36.6666 30.0003 36.6666H10.0003C9.11627 36.6666 8.26842 36.3154 7.6433 35.6903C7.01818 35.0652 6.66699 34.2173 6.66699 33.3333V9.99992C6.66699 9.11586 7.01818 8.26802 7.6433 7.6429C8.26842 7.01777 9.11627 6.66659 10.0003 6.66659H13.3337M15.0003 3.33325H25.0003C25.9208 3.33325 26.667 4.07944 26.667 4.99992V8.33325C26.667 9.25373 25.9208 9.99992 25.0003 9.99992H15.0003C14.0799 9.99992 13.3337 9.25373 13.3337 8.33325V4.99992C13.3337 4.07944 14.0799 3.33325 15.0003 3.33325Z" stroke="#EB4042" stroke-width="3" stroke-linecap="round" stroke-linejoin="round"/>
</svg>
