<svg width="40" height="40" viewBox="0 0 40 40" fill="none" xmlns="http://www.w3.org/2000/svg">
<path d="M31.6667 32.1667V33C31.6667 33.8841 31.3155 34.7319 30.6904 35.357C30.0652 35.9821 29.2174 36.3333 28.3333 36.3333H8.33333C7.44928 36.3333 6.60143 35.9821 5.97631 35.357C5.35119 34.7319 5 33.8841 5 33V6.33333C5 5.44928 5.35119 4.60143 5.97631 3.97631C6.60143 3.35119 7.44928 3 8.33333 3H22.5L28.3333 8.83333" stroke="#EB4042" stroke-width="3" stroke-linecap="round" stroke-linejoin="round"/>
<path d="M12.3335 29.6667H14.0002M29.7002 15.6834C30.0252 15.3584 30.411 15.1005 30.8357 14.9246C31.2604 14.7487 31.7155 14.6582 32.1752 14.6582C32.6348 14.6582 33.09 14.7487 33.5146 14.9246C33.9393 15.1005 34.3251 15.3584 34.6502 15.6834C34.9752 16.0084 35.233 16.3943 35.4089 16.8189C35.5848 17.2436 35.6753 17.6987 35.6753 18.1584C35.6753 18.618 35.5848 19.0732 35.4089 19.4978C35.233 19.9225 34.9752 20.3084 34.6502 20.6334L27.2502 28L20.6668 29.6667L22.3168 23.0834L29.7002 15.6834Z" stroke="#F49E9F" stroke-width="3" stroke-linecap="round" stroke-linejoin="round"/>
</svg>
