<svg width="40" height="40" viewBox="0 0 40 40" fill="none" xmlns="http://www.w3.org/2000/svg">
<path d="M34 8C34 10.7614 27.2843 13 19 13C10.7157 13 4 10.7614 4 8M34 8C34 5.23858 27.2843 3 19 3C10.7157 3 4 5.23858 4 8M34 8V13M4 8L4.00011 31.3333C3.99083 32.1349 4.55978 32.9254 5.659 33.6383C6.75822 34.3512 8.35549 34.9655 10.3162 35.4296C12.2769 35.8936 14.5435 36.1937 16.925 36.3046C19.3065 36.4154 21.733 36.3339 24.0001 36.0667M4 19.6667C4.00241 20.4459 4.55114 21.2141 5.60243 21.9101C6.65371 22.6061 8.17843 23.2105 10.0549 23.6752C11.9315 24.1399 14.1078 24.4519 16.4104 24.5864C18.7129 24.721 21.0779 24.6742 23.3167 24.45" stroke="#EB4042" stroke-width="3" stroke-linecap="round" stroke-linejoin="round"/>
<path d="M34 19.6667L29 28.0001H35.6667L30.6667 36.3334" stroke="#F49E9F" stroke-width="3" stroke-linecap="round" stroke-linejoin="round"/>
</svg>
