<svg width="40" height="40" viewBox="0 0 40 40" fill="none" xmlns="http://www.w3.org/2000/svg">
<path d="M31.6666 17.5001C31.6666 19.8013 26.4432 21.6667 19.9999 21.6667C13.5566 21.6667 8.33325 19.8013 8.33325 17.5001M31.6666 10.8334C31.6666 8.53223 26.4432 6.66675 19.9999 6.66675C13.5566 6.66675 8.33325 8.53223 8.33325 10.8334V30.8334C8.33325 33.1346 13.5566 35.0001 19.9999 35.0001C26.4432 35.0001 31.6666 33.1346 31.6666 30.8334V10.8334Z" stroke="#EB4042" stroke-width="2.5"/>
<path opacity="0.5" d="M31.6666 10.8335C31.6666 13.1347 26.4432 15.0002 19.9999 15.0002C13.5566 15.0002 8.33325 13.1347 8.33325 10.8335M31.6666 24.1668C31.6666 26.468 26.4432 28.3335 19.9999 28.3335C13.5566 28.3335 8.33325 26.468 8.33325 24.1668" stroke="#EB4042" stroke-width="2.5"/>
</svg>
