<svg width="40" height="40" viewBox="0 0 40 40" fill="none" xmlns="http://www.w3.org/2000/svg">
<path d="M26.6667 3.33325V11.6666H35M11.6667 13.3333V27.9999C11.6667 28.4999 12 28.9999 12.3333 29.3333C12.6667 29.6666 13.1667 29.9999 13.6667 29.9999H25M5 19.9999V34.6666C5 35.1666 5.33333 35.6666 5.66667 35.9999C6 36.3333 6.5 36.6666 7 36.6666H18.3333M35 9.99992V20.8333C35 22.1666 33.8333 23.3333 32.5 23.3333H20.8333C19.5 23.3333 18.3333 22.1666 18.3333 20.8333V5.83325C18.3333 4.49992 19.5 3.33325 20.8333 3.33325H28.3333L35 9.99992Z" stroke="#EB4042" stroke-width="3" stroke-linecap="round" stroke-linejoin="round"/>
</svg>
