<svg width="40" height="40" viewBox="0 0 40 40" fill="none" xmlns="http://www.w3.org/2000/svg">
<path d="M10.0002 18.3333H16.6668M13.3335 14.9999V21.6666M25.0002 19.9999H25.0168M30.0002 16.6666H30.0168M28.8668 8.33325H11.1335C9.48396 8.33364 7.89314 8.94555 6.66855 10.0507C5.44396 11.1558 4.67257 12.6757 4.5035 14.3166C4.4935 14.4033 4.48683 14.4849 4.47516 14.5699C4.34016 15.6933 3.3335 24.0933 3.3335 26.6666C3.3335 27.9927 3.86028 29.2644 4.79796 30.2021C5.73564 31.1398 7.00741 31.6666 8.3335 31.6666C10.0002 31.6666 10.8335 30.8333 11.6668 29.9999L14.0235 27.6433C14.6485 27.0181 15.4962 26.6668 16.3802 26.6666H23.6202C24.5041 26.6668 25.3519 27.0181 25.9768 27.6433L28.3335 29.9999C29.1668 30.8333 30.0002 31.6666 31.6668 31.6666C32.9929 31.6666 34.2647 31.1398 35.2024 30.2021C36.14 29.2644 36.6668 27.9927 36.6668 26.6666C36.6668 24.0916 35.6602 15.6933 35.5252 14.5699C35.5135 14.4866 35.5068 14.4033 35.4968 14.3183C35.3281 12.6771 34.5569 11.1568 33.3323 10.0513C32.1077 8.94582 30.5166 8.33368 28.8668 8.33325Z" stroke="#EB4042" stroke-width="3" stroke-linecap="round" stroke-linejoin="round"/>
</svg>
