<svg width="40" height="40" viewBox="0 0 40 40" fill="none" xmlns="http://www.w3.org/2000/svg">
<path d="M30.0007 20.8333V16.6667C30.0007 15.7826 29.6495 14.9348 29.0243 14.3096C28.3992 13.6845 27.5514 13.3333 26.6673 13.3333C25.7833 13.3333 24.9354 13.6845 24.3103 14.3096C23.6852 14.9348 23.334 15.7826 23.334 16.6667V19M23.334 18.3333V15C23.334 14.1159 22.9828 13.2681 22.3577 12.643C21.7326 12.0179 20.8847 11.6667 20.0007 11.6667C19.1166 11.6667 18.2688 12.0179 17.6436 12.643C17.0185 13.2681 16.6673 14.1159 16.6673 15V18.3333M16.6673 17.5V8.33333C16.6673 7.44928 16.3161 6.60143 15.691 5.97631C15.0659 5.35119 14.218 5 13.334 5C12.4499 5 11.6021 5.35119 10.977 5.97631C10.3518 6.60143 10.0007 7.44928 10.0007 8.33333V23.3333M11.6675 25L8.73416 22.0667C8.1011 21.491 7.27089 21.1808 6.41544 21.2003C5.55999 21.2199 4.74481 21.5676 4.13869 22.1716C3.53257 22.7756 3.18192 23.5895 3.15936 24.4449C3.1368 25.3003 3.44405 26.1316 4.01749 26.7667L10.0175 32.7667C12.5008 35.2333 15.3342 36.6667 20.0008 36.6667H23.3342C26.8704 36.6667 30.2618 35.2619 32.7622 32.7614C35.2627 30.2609 36.6675 26.8696 36.6675 23.3333V11.6667C36.6675 10.7826 36.3163 9.93477 35.6912 9.30964C35.0661 8.68452 34.2182 8.33333 33.3342 8.33333C32.4501 8.33333 31.6023 8.68452 30.9771 9.30964C30.352 9.93477 30.0008 10.7826 30.0008 11.6667V20" stroke="#EB4042" stroke-width="3" stroke-linecap="round" stroke-linejoin="round"/>
</svg>
