<svg width="40" height="40" viewBox="0 0 40 40" fill="none" xmlns="http://www.w3.org/2000/svg">
<path d="M20.0007 8.33333C22.5007 5.83333 24.5673 5 27.5007 5C29.9318 5 32.2634 5.96577 33.9825 7.68485C35.7015 9.40394 36.6673 11.7355 36.6673 14.1667C36.6673 17.9833 34.1507 20.9 31.6673 23.3333L20.0007 35L8.33398 23.3333C5.83398 20.9167 3.33398 18 3.33398 14.1667C3.33398 11.7355 4.29976 9.40394 6.01884 7.68485C7.73792 5.96577 10.0695 5 12.5007 5C15.434 5 17.5007 5.83333 20.0007 8.33333ZM20.0007 8.33333L15.0675 13.2667C14.7289 13.6028 14.4601 14.0027 14.2767 14.4432C14.0933 14.8837 13.9989 15.3562 13.9989 15.8333C13.9989 16.3105 14.0933 16.7829 14.2767 17.2235C14.4601 17.664 14.7289 18.0638 15.0675 18.4C16.4342 19.7667 18.6175 19.8167 20.0675 18.5167L23.5175 15.35C24.3822 14.5653 25.5081 14.1307 26.6758 14.1307C27.8435 14.1307 28.9694 14.5653 29.8342 15.35L34.7675 19.7833M30.0007 25L26.6673 21.6667M25.0007 30L21.6673 26.6667" stroke="#EB4042" stroke-width="3" stroke-linecap="round" stroke-linejoin="round"/>
</svg>
