<svg width="40" height="40" viewBox="0 0 40 40" fill="none" xmlns="http://www.w3.org/2000/svg">
<path d="M11 15C13.7614 15 16 12.7614 16 10C16 7.23858 13.7614 5 11 5C8.23858 5 6 7.23858 6 10C6 12.7614 8.23858 15 11 15ZM11 15V35" stroke="#EB4042" stroke-width="3" stroke-linecap="round" stroke-linejoin="round"/>
<path d="M30.0003 25C27.2389 25 25.0003 27.2386 25.0003 30C25.0003 32.7614 27.2389 35 30.0003 35C32.7617 35 35.0003 32.7614 35.0003 30C35.0003 27.2386 32.7617 25 30.0003 25ZM30.0003 25V13.3333C30.0003 12.4493 29.6491 11.6014 29.024 10.9763C28.3989 10.3512 27.551 10 26.667 10H21.667" stroke="#F49E9F" stroke-width="3" stroke-linecap="round" stroke-linejoin="round"/>
</svg>
