<svg width="40" height="40" viewBox="0 0 40 40" fill="none" xmlns="http://www.w3.org/2000/svg">
<path d="M3.33301 19.9999H8.33301M8.33301 19.9999C8.33301 26.4432 13.5564 31.6666 19.9997 31.6666M8.33301 19.9999C8.33301 13.5566 13.5564 8.33325 19.9997 8.33325M31.6663 19.9999H36.6663M31.6663 19.9999C31.6663 26.4432 26.443 31.6666 19.9997 31.6666M31.6663 19.9999C31.6663 13.5566 26.443 8.33325 19.9997 8.33325M19.9997 3.33325V8.33325M19.9997 31.6666V36.6666M24.9997 19.9999C24.9997 22.7613 22.7611 24.9999 19.9997 24.9999C17.2383 24.9999 14.9997 22.7613 14.9997 19.9999C14.9997 17.2385 17.2383 14.9999 19.9997 14.9999C22.7611 14.9999 24.9997 17.2385 24.9997 19.9999Z" stroke="#EB4042" stroke-width="3" stroke-linecap="round" stroke-linejoin="round"/>
</svg>
