<svg width="40" height="40" viewBox="0 0 40 40" fill="none" xmlns="http://www.w3.org/2000/svg">
<path d="M19.3337 28C19.1586 28.6347 18.8602 29.2288 18.4555 29.7482C18.0509 30.2676 17.5479 30.7022 16.9752 31.0272C16.4026 31.3522 15.7716 31.5612 15.1182 31.6424C14.4647 31.7235 13.8017 31.6751 13.167 31.5C12.5323 31.3249 11.9383 31.0265 11.4189 30.6219C10.8995 30.2172 10.4649 29.7142 10.1399 29.1416C9.81486 28.5689 9.60583 27.9379 9.5247 27.2845C9.44357 26.6311 9.49193 25.9681 9.66703 25.3334M5 18.3333L35 10V30L5 23.3333V18.3333Z" stroke="#EB4042" stroke-width="3" stroke-linecap="round" stroke-linejoin="round"/>
</svg>
