<svg width="40" height="40" viewBox="0 0 40 40" fill="none" xmlns="http://www.w3.org/2000/svg">
<path d="M8.33325 26.6666V21.6666C8.33325 21.2246 8.50885 20.8006 8.82141 20.4881C9.13397 20.1755 9.55789 19.9999 9.99992 19.9999H29.9999C30.4419 19.9999 30.8659 20.1755 31.1784 20.4881C31.491 20.8006 31.6666 21.2246 31.6666 21.6666V26.6666M19.9999 19.9999V13.3333M28.3333 26.6666H34.9999C35.9204 26.6666 36.6666 27.4128 36.6666 28.3333V34.9999C36.6666 35.9204 35.9204 36.6666 34.9999 36.6666H28.3333C27.4128 36.6666 26.6666 35.9204 26.6666 34.9999V28.3333C26.6666 27.4128 27.4128 26.6666 28.3333 26.6666ZM4.99992 26.6666H11.6666C12.5871 26.6666 13.3333 27.4128 13.3333 28.3333V34.9999C13.3333 35.9204 12.5871 36.6666 11.6666 36.6666H4.99992C4.07944 36.6666 3.33325 35.9204 3.33325 34.9999V28.3333C3.33325 27.4128 4.07944 26.6666 4.99992 26.6666ZM16.6666 3.33325H23.3333C24.2537 3.33325 24.9999 4.07944 24.9999 4.99992V11.6666C24.9999 12.5871 24.2537 13.3333 23.3333 13.3333H16.6666C15.7461 13.3333 14.9999 12.5871 14.9999 11.6666V4.99992C14.9999 4.07944 15.7461 3.33325 16.6666 3.33325Z" stroke="#EB4042" stroke-width="3" stroke-linecap="round" stroke-linejoin="round"/>
</svg>
