<svg width="40" height="40" viewBox="0 0 40 40" fill="none" xmlns="http://www.w3.org/2000/svg">
<path d="M17.3325 36.5C20.5371 37.0266 23.8257 36.6054 26.7942 35.2883C29.7627 33.9712 32.2817 31.8155 34.0417 29.0862C35.8017 26.3569 36.726 23.1729 36.701 19.9254C36.676 16.678 35.7027 13.5085 33.9008 10.8067M22.499 3.50003C19.3075 3.01266 16.0432 3.46272 13.1027 4.79553C10.1621 6.12833 7.67195 8.2865 5.93478 11.0078C4.19761 13.7291 3.28821 16.8963 3.31707 20.1247C3.34594 23.3531 4.31183 26.5036 6.09738 29.1934M24.9993 20C24.9993 22.7614 22.7608 25 19.9993 25C17.2379 25 14.9993 22.7614 14.9993 20C14.9993 17.2386 17.2379 15 19.9993 15C22.7608 15 24.9993 17.2386 24.9993 20ZM34.9993 8.33333C34.9993 10.1743 33.507 11.6667 31.666 11.6667C29.8251 11.6667 28.3327 10.1743 28.3327 8.33333C28.3327 6.49238 29.8251 5 31.666 5C33.507 5 34.9993 6.49238 34.9993 8.33333ZM11.666 31.6667C11.666 33.5076 10.1736 35 8.33268 35C6.49173 35 4.99935 33.5076 4.99935 31.6667C4.99935 29.8257 6.49173 28.3333 8.33268 28.3333C10.1736 28.3333 11.666 29.8257 11.666 31.6667Z" stroke="#EB4042" stroke-width="3" stroke-linecap="round" stroke-linejoin="round"/>
</svg>
