<svg width="40" height="40" viewBox="0 0 40 40" fill="none" xmlns="http://www.w3.org/2000/svg">
<path d="M32.3984 13.0834C32.3167 13.6201 32.4967 14.1634 32.8801 14.5467L35.4934 17.1601C36.2767 17.9434 36.6701 18.9717 36.6701 20.0001C36.6701 21.0284 36.2784 22.0551 35.4934 22.8401L32.8084 25.5251C32.628 25.7054 32.4078 25.8409 32.1655 25.9207C31.9233 26.0006 31.6657 26.0227 31.4134 25.9851C30.6301 25.8684 30.0767 25.1851 29.8001 24.4434C29.5573 23.7881 29.1537 23.2042 28.6263 22.7457C28.0989 22.2871 27.4647 21.9685 26.7819 21.8192C26.0992 21.6699 25.3899 21.6946 24.7192 21.8911C24.0485 22.0877 23.438 22.4497 22.9438 22.9438C22.4497 23.438 22.0877 24.0485 21.8911 24.7192C21.6946 25.3899 21.6699 26.0992 21.8192 26.7819C21.9685 27.4647 22.2871 28.0989 22.7457 28.6263C23.2042 29.1537 23.7881 29.5573 24.4434 29.8001C25.1867 30.0767 25.8684 30.6284 25.9851 31.4134C26.0228 31.6657 26.0008 31.9233 25.9209 32.1656C25.841 32.4079 25.7055 32.628 25.5251 32.8084L22.8417 35.4917C22.4691 35.8657 22.0262 36.1623 21.5385 36.3645C21.0508 36.5667 20.528 36.6706 20.0001 36.6701C19.4725 36.6708 18.95 36.5671 18.4626 36.3652C17.9752 36.1633 17.5326 35.867 17.1601 35.4934L14.5467 32.8801C14.3579 32.6909 14.1272 32.5486 13.8734 32.4646C13.6195 32.3807 13.3495 32.3574 13.0851 32.3967C12.2634 32.5201 11.6851 33.2367 11.3851 34.0101C11.1336 34.6555 10.7252 35.2281 10.1968 35.676C9.66842 36.1239 9.0367 36.4329 8.35879 36.5753C7.68089 36.7176 6.97819 36.6887 6.31428 36.4911C5.65037 36.2935 5.04618 35.9336 4.55638 35.4438C4.06658 34.954 3.70661 34.3498 3.50905 33.6859C3.31149 33.022 3.28257 32.3193 3.42489 31.6414C3.56722 30.9635 3.87631 30.3317 4.3242 29.8033C4.77209 29.2749 5.34465 28.8665 5.99008 28.6151C6.76341 28.3151 7.48008 27.7367 7.60175 26.9151C7.64127 26.6508 7.61829 26.3808 7.53464 26.127C7.45099 25.8732 7.30901 25.6425 7.12008 25.4534L4.50675 22.8401C4.13316 22.4676 3.83689 22.0249 3.63495 21.5375C3.43302 21.0501 3.32941 20.5276 3.33008 20.0001C3.33008 18.9717 3.72341 17.9434 4.50675 17.1601L7.05008 14.6167C7.45008 14.2167 8.01841 14.0284 8.57841 14.1117C9.43675 14.2401 10.0401 14.9917 10.3667 15.7951C10.6262 16.4313 11.0391 16.9935 11.5684 17.4316C12.0978 17.8697 12.7273 18.17 13.4009 18.3059C14.0744 18.4418 14.7711 18.409 15.429 18.2104C16.0868 18.0119 16.6853 17.6537 17.1711 17.1678C17.657 16.6819 18.0152 16.0834 18.2138 15.4256C18.4123 14.7678 18.4451 14.0711 18.3092 13.3975C18.1734 12.724 17.873 12.0945 17.4349 11.5651C16.9969 11.0357 16.4347 10.6229 15.7984 10.3634C14.9951 10.0367 14.2434 9.43341 14.1151 8.57508C14.0317 8.01508 14.2184 7.44841 14.6201 7.04675L17.1617 4.50508C17.5342 4.132 17.9766 3.83614 18.4637 3.6345C18.9508 3.43286 19.4729 3.32941 20.0001 3.33008C21.0284 3.33008 22.0567 3.72341 22.8401 4.50675L25.4534 7.12008C25.8367 7.50341 26.3801 7.68341 26.9151 7.60341C27.7367 7.48008 28.3151 6.76341 28.6151 5.99008C28.8665 5.34465 29.2749 4.77209 29.8033 4.3242C30.3317 3.87631 30.9635 3.56722 31.6414 3.42489C32.3193 3.28257 33.022 3.31149 33.6859 3.50905C34.3498 3.70661 34.954 4.06658 35.4438 4.55638C35.9336 5.04618 36.2935 5.65037 36.4911 6.31428C36.6887 6.97819 36.7176 7.68089 36.5753 8.35879C36.4329 9.0367 36.1239 9.66842 35.676 10.1968C35.2281 10.7252 34.6555 11.1336 34.0101 11.3851C33.2367 11.6851 32.5201 12.2617 32.3984 13.0834Z" stroke="#EB4042" stroke-width="3" stroke-linecap="round" stroke-linejoin="round"/>
</svg>
