<svg width="40" height="40" viewBox="0 0 40 40" fill="none" xmlns="http://www.w3.org/2000/svg">
<path d="M19.9998 25.6671L14.9998 20.6671M19.9998 25.6671C22.3279 24.7816 24.5613 23.6649 26.6665 22.3337M19.9998 25.6671V34.0004C19.9998 34.0004 25.0498 33.0837 26.6665 30.6671C28.4665 27.9671 26.6665 22.3337 26.6665 22.3337M14.9998 20.6671C15.8867 18.3661 17.0035 16.1605 18.3332 14.0837C20.2751 10.9787 22.9792 8.42216 26.1882 6.65723C29.3971 4.8923 33.0043 3.9777 36.6665 4.00041C36.6665 8.53375 35.3665 16.5004 26.6665 22.3337M14.9998 20.6671L6.6665 20.6671C6.6665 20.6671 7.58317 15.6171 9.99984 14.0004C12.6998 12.2004 18.3332 14.0004 18.3332 14.0004" stroke="#EB4042" stroke-width="3" stroke-linecap="round" stroke-linejoin="round"/>
<path d="M7.33333 28.167C4.83333 30.267 4 36.5004 4 36.5004C4 36.5004 10.2333 35.667 12.3333 33.167C13.5167 31.767 13.5 29.617 12.1833 28.317C11.5355 27.6987 10.6822 27.3414 9.78704 27.3137C8.89193 27.2861 8.01813 27.5899 7.33333 28.167Z" stroke="#F49E9F" stroke-width="3" stroke-linecap="round" stroke-linejoin="round"/>
</svg>
