<svg width="40" height="40" viewBox="0 0 40 40" fill="none" xmlns="http://www.w3.org/2000/svg">
<path d="M13.3333 29.6667H13.35M8.33333 13H18.3333C20.1743 13 21.6667 14.4924 21.6667 16.3333V33C21.6667 34.841 20.1743 36.3333 18.3333 36.3333H8.33333C6.49238 36.3333 5 34.841 5 33V16.3333C5 14.4924 6.49238 13 8.33333 13Z" stroke="#F49E9F" stroke-width="3" stroke-linecap="round" stroke-linejoin="round"/>
<path d="M8 6.33333C8 5.44928 8.35119 4.60143 8.97631 3.97631C9.60143 3.35119 10.4493 3 11.3333 3H31.3333C32.2174 3 33.0652 3.35119 33.6904 3.97631C34.3155 4.60143 34.6667 5.44928 34.6667 6.33333V33C34.6667 33.8841 34.3155 34.7319 33.6904 35.357C33.0652 35.9821 32.2174 36.3333 31.3333 36.3333H27.3333" stroke="#EB4042" stroke-width="3" stroke-linecap="round" stroke-linejoin="round"/>
</svg>
