<svg width="40" height="40" viewBox="0 0 40 40" fill="none" xmlns="http://www.w3.org/2000/svg">
<path d="M19.6667 21.6666C20.1087 21.6666 20.5326 21.491 20.8452 21.1784C21.1577 20.8659 21.3333 20.4419 21.3333 19.9999C21.3333 19.5579 21.1577 19.134 20.8452 18.8214C20.5326 18.5088 20.1087 18.3333 19.6667 18.3333C19.2246 18.3333 18.8007 18.5088 18.4882 18.8214C18.1756 19.134 18 19.5579 18 19.9999C18 20.4419 18.1756 20.8659 18.4882 21.1784C18.8007 21.491 19.2246 21.6666 19.6667 21.6666Z" stroke="#F49E9F" stroke-width="3" stroke-linecap="round" stroke-linejoin="round"/>
<path d="M35 28.3333V31.6667C35 32.5507 34.6488 33.3986 34.0237 34.0237C33.3986 34.6488 32.5507 35 31.6667 35H8.33333C7.44928 35 6.60143 34.6488 5.97631 34.0237C5.35119 33.3986 5 32.5507 5 31.6667V28.3333M35 11.6667V8.33333C35 7.44928 34.6488 6.60143 34.0237 5.97631C33.3986 5.35119 32.5507 5 31.6667 5H8.33333C7.44928 5 6.60143 5.35119 5.97631 5.97631C5.35119 6.60143 5 7.44928 5 8.33333V11.6667M8.33333 20C8.33333 20 12.575 11.6667 20 11.6667C27.4233 11.6667 31.6667 20 31.6667 20C31.6667 20 27.4233 28.3333 20 28.3333C12.575 28.3333 8.33333 20 8.33333 20Z" stroke="#EB4042" stroke-width="3" stroke-linecap="round" stroke-linejoin="round"/>
</svg>
