<svg width="40" height="40" viewBox="0 0 40 40" fill="none" xmlns="http://www.w3.org/2000/svg">
<path d="M11.6663 23.3333V24.9999C11.6663 25.884 12.0175 26.7318 12.6427 27.3569C13.2678 27.9821 14.1156 28.3333 14.9997 28.3333H16.6663M23.333 11.6666H24.9997C25.8837 11.6666 26.7316 12.0178 27.3567 12.6429C27.9818 13.268 28.333 14.1159 28.333 14.9999V16.6666M26.6663 23.3333H33.333C35.174 23.3333 36.6663 24.8256 36.6663 26.6666V33.3333C36.6663 35.1742 35.174 36.6666 33.333 36.6666H26.6663C24.8254 36.6666 23.333 35.1742 23.333 33.3333V26.6666C23.333 24.8256 24.8254 23.3333 26.6663 23.3333ZM6.66634 3.33325H13.333C15.174 3.33325 16.6663 4.82564 16.6663 6.66659V13.3333C16.6663 15.1742 15.174 16.6666 13.333 16.6666H6.66634C4.82539 16.6666 3.33301 15.1742 3.33301 13.3333V6.66659C3.33301 4.82564 4.82539 3.33325 6.66634 3.33325Z" stroke="#EB4042" stroke-width="3" stroke-linecap="round" stroke-linejoin="round"/>
</svg>
