<svg width="40" height="40" viewBox="0 0 40 40" fill="none" xmlns="http://www.w3.org/2000/svg">
<circle opacity="0.5" cx="5" cy="5" r="5" transform="matrix(-1 0 0 1 25 15)" stroke="#EB4042" stroke-width="2.5"/>
<path d="M27.5006 8.22908L26.8756 9.31161L26.8756 9.31161L27.5006 8.22908ZM27.5005 31.7702L26.8755 30.6876V30.6876L27.5005 31.7702ZM12.5005 31.7702L11.8755 32.8527H11.8755L12.5005 31.7702ZM12.5005 8.22908L11.8755 7.14655V7.14655L12.5005 8.22908ZM4.84436 16.139L5.63918 15.1742L4.84436 16.139ZM4.26075 14.5045L3.0806 14.0925L4.26075 14.5045ZM8.85341 31.2336L8.56641 30.017L8.85341 31.2336ZM7.33856 30.8383L8.28779 30.025L7.33856 30.8383ZM15.8992 36.1583L15.5926 37.3701L15.8992 36.1583ZM14.8722 34.9747L16.09 34.693L14.8722 34.9747ZM25.1289 34.9746L26.3467 35.2563L25.1289 34.9746ZM24.1019 36.1581L23.7952 34.9463L24.1019 36.1581ZM32.6619 30.8382L31.7127 30.0249L32.6619 30.8382ZM31.1472 31.2335L31.4341 30.0169L31.1472 31.2335ZM35.7397 14.5047L34.5595 14.9167L35.7397 14.5047ZM35.1561 16.1391L34.3613 15.1744L35.1561 16.1391ZM4.26075 25.4953L3.0806 25.9073L4.26075 25.4953ZM4.84435 23.8608L4.04953 22.8961L4.84435 23.8608ZM31.1469 8.76579L31.4337 9.98244L31.1469 8.76579ZM8.85372 8.76568L8.56679 9.9823L8.85372 8.76568ZM35.1561 23.8607L34.3613 24.8254L35.1561 23.8607ZM35.7397 25.4951L36.9198 25.9071L35.7397 25.4951ZM24.1021 3.8418L23.7954 5.05359L24.1021 3.8418ZM23.9112 5.30695C24.2876 6.93337 25.3136 8.40979 26.8756 9.31161L28.1256 7.14655C27.1883 6.60541 26.5736 5.72294 26.3469 4.74333L23.9112 5.30695ZM26.8756 9.31161C28.3104 10.14 29.94 10.3346 31.4337 9.98244L30.8601 7.54913C29.9616 7.76096 28.9873 7.64406 28.1256 7.14655L26.8756 9.31161ZM36.9198 14.0927C36.1772 11.9655 35.0455 10.0222 33.6107 8.34781L31.7123 9.97448C32.9481 11.4167 33.9214 13.0887 34.5595 14.9167L36.9198 14.0927ZM34.5835 19.9999C34.5835 18.8343 35.1138 17.7936 35.951 17.1038L34.3613 15.1744C32.9724 16.3187 32.0835 18.056 32.0835 19.9999H34.5835ZM35.951 22.896C35.1138 22.2062 34.5835 21.1655 34.5835 19.9999H32.0835C32.0835 21.9438 32.9724 23.6811 34.3613 24.8254L35.951 22.896ZM33.6112 31.6515C35.0457 29.9772 36.1773 28.0341 36.9198 25.9071L34.5595 25.0831C33.9215 26.9109 32.9483 28.5828 31.7127 30.0249L33.6112 31.6515ZM28.1255 32.8527C28.9873 32.3551 29.9617 32.2383 30.8603 32.4502L31.4341 30.0169C29.9403 29.6646 28.3105 29.8591 26.8755 30.6876L28.1255 32.8527ZM26.3467 35.2563C26.5733 34.2765 27.1881 33.3939 28.1255 32.8527L26.8755 30.6876C25.3133 31.5896 24.2873 33.0662 23.911 34.6929L26.3467 35.2563ZM20.0002 37.9166C21.5198 37.9166 22.997 37.7271 24.4085 37.3699L23.7952 34.9463C22.5825 35.2532 21.3113 35.4166 20.0002 35.4166V37.9166ZM15.5926 37.3701C17.004 37.7272 18.4809 37.9166 20.0002 37.9166V35.4166C18.6893 35.4166 17.4184 35.2533 16.2059 34.9465L15.5926 37.3701ZM11.8755 32.8527C12.8129 33.3939 13.4277 34.2766 13.6543 35.2564L16.09 34.693C15.7138 33.0663 14.6877 31.5896 13.1255 30.6876L11.8755 32.8527ZM9.14041 32.4502C10.0391 32.2382 11.0136 32.3551 11.8755 32.8527L13.1255 30.6876C11.6904 29.8591 10.0604 29.6646 8.56641 30.017L9.14041 32.4502ZM3.0806 25.9073C3.82315 28.0342 4.95479 29.9773 6.38933 31.6516L8.28779 30.025C7.0522 28.5829 6.079 26.911 5.44089 25.0833L3.0806 25.9073ZM5.41715 19.9999C5.41715 21.1656 4.88679 22.2063 4.04953 22.8961L5.63918 24.8256C7.02814 23.6813 7.91715 21.9439 7.91715 19.9999H5.41715ZM4.04953 17.1037C4.88679 17.7935 5.41715 18.8343 5.41715 19.9999H7.91715C7.91715 18.0559 7.02814 16.3185 5.63918 15.1742L4.04953 17.1037ZM6.38982 8.34763C4.95505 10.022 3.82324 11.9654 3.0806 14.0925L5.4409 14.9165C6.07907 13.0886 7.05243 11.4165 8.28821 9.97433L6.38982 8.34763ZM11.8755 7.14655C11.0137 7.64412 10.0393 7.76099 9.14064 7.54905L8.56679 9.9823C10.0607 10.3346 11.6905 10.1401 13.1255 9.31161L11.8755 7.14655ZM13.6542 4.74323C13.4276 5.72288 12.8128 6.60539 11.8755 7.14655L13.1255 9.31161C14.6876 8.40976 15.7136 6.93326 16.0899 5.30678L13.6542 4.74323ZM20.0002 2.08325C18.4808 2.08325 17.0039 2.27266 15.5925 2.62977L16.2057 5.0534C17.4183 4.74659 18.6893 4.58325 20.0002 4.58325V2.08325ZM24.4088 2.63C22.9971 2.27274 21.5199 2.08325 20.0002 2.08325V4.58325C21.3114 4.58325 22.5826 4.74666 23.7954 5.05359L24.4088 2.63ZM16.0899 5.30678C16.1159 5.19433 16.16 5.11501 16.1942 5.07341C16.2236 5.03767 16.2288 5.04755 16.2057 5.0534L15.5925 2.62977C14.4405 2.92127 13.8456 3.91619 13.6542 4.74323L16.0899 5.30678ZM5.63918 15.1742C5.5377 15.0906 5.47871 15.0002 5.45504 14.9397C5.43514 14.8888 5.44979 14.8911 5.4409 14.9165L3.0806 14.0925C2.63721 15.3626 3.3242 16.5062 4.04953 17.1037L5.63918 15.1742ZM8.56641 30.017C8.45435 30.0435 8.3639 30.0391 8.31146 30.0269C8.26636 30.0164 8.27256 30.0072 8.28779 30.025L6.38933 31.6516C7.16112 32.5524 8.31444 32.6451 9.14041 32.4502L8.56641 30.017ZM16.2059 34.9465C16.2289 34.9523 16.2237 34.9622 16.1943 34.9265C16.1601 34.8848 16.116 34.8055 16.09 34.693L13.6543 35.2564C13.8456 36.0835 14.4405 37.0786 15.5926 37.3701L16.2059 34.9465ZM23.911 34.6929C23.885 34.8053 23.8409 34.8847 23.8067 34.9263C23.7774 34.962 23.7721 34.9521 23.7952 34.9463L24.4085 37.3699C25.5606 37.0783 26.1554 36.0833 26.3467 35.2563L23.911 34.6929ZM31.7127 30.0249C31.7279 30.0071 31.7341 30.0163 31.689 30.0268C31.6366 30.039 31.5462 30.0433 31.4341 30.0169L30.8603 32.4502C31.6862 32.6449 32.8395 32.5522 33.6112 31.6515L31.7127 30.0249ZM34.5595 14.9167C34.5506 14.8912 34.5653 14.889 34.5454 14.9398C34.5217 15.0003 34.4628 15.0908 34.3613 15.1744L35.951 17.1038C36.6763 16.5063 37.3632 15.3627 36.9198 14.0927L34.5595 14.9167ZM5.44089 25.0833C5.44979 25.1088 5.43514 25.111 5.45504 25.0602C5.47871 24.9997 5.5377 24.9092 5.63918 24.8256L4.04953 22.8961C3.3242 23.4937 2.63721 24.6373 3.0806 25.9073L5.44089 25.0833ZM31.4337 9.98244C31.5458 9.95602 31.6362 9.96037 31.6886 9.97258C31.7337 9.98308 31.7275 9.99225 31.7123 9.97448L33.6107 8.34781C32.839 7.44724 31.686 7.35445 30.8601 7.54913L31.4337 9.98244ZM8.28821 9.97433C8.27298 9.99209 8.26678 9.98293 8.31188 9.97243C8.36431 9.96022 8.45475 9.95588 8.56679 9.9823L9.14064 7.54905C8.31474 7.35428 7.16156 7.447 6.38982 8.34763L8.28821 9.97433ZM34.3613 24.8254C34.4628 24.909 34.5217 24.9995 34.5454 25.06C34.5653 25.1109 34.5506 25.1086 34.5595 25.0831L36.9198 25.9071C37.3632 24.6371 36.6763 23.4936 35.951 22.896L34.3613 24.8254ZM26.3469 4.74333C26.1555 3.91636 25.5607 2.92153 24.4088 2.63L23.7954 5.05359C23.7723 5.04775 23.7776 5.03787 23.8069 5.0736C23.8412 5.1152 23.8852 5.19451 23.9112 5.30695L26.3469 4.74333Z" fill="#EB4042"/>
</svg>
