<svg width="40" height="40" viewBox="0 0 40 40" fill="none" xmlns="http://www.w3.org/2000/svg">
<path d="M36.6671 18.3332V19.9999C36.6503 23.3638 35.6159 26.6438 33.7 29.4088C31.7841 32.1738 29.0763 34.2943 25.9327 35.4916C22.7891 36.6889 19.3567 36.907 16.0869 36.117C12.817 35.3271 9.86277 33.5662 7.61243 31.0658C5.36209 28.5654 3.92104 25.4426 3.47871 22.1079C3.03638 18.7732 3.61349 15.3827 5.13417 12.3821C6.65484 9.38156 9.0479 6.91137 11.9987 5.2963C14.9496 3.68124 18.3201 2.9969 21.6671 3.33324M13.334 23.3333C13.334 23.3333 15.834 26.6667 20.0007 26.6667C24.1673 26.6667 26.6673 23.3333 26.6673 23.3333M15.0007 15H15.0173M25.0007 15H25.0173M26.6673 8.33333H36.6673M31.6673 3.33333V13.3333" stroke="#EB4042" stroke-width="3" stroke-linecap="round" stroke-linejoin="round"/>
</svg>
