<svg width="40" height="40" viewBox="0 0 40 40" fill="none" xmlns="http://www.w3.org/2000/svg">
<path d="M20 5L16.8133 14.6883C16.6502 15.1842 16.373 15.6348 16.0039 16.0039C15.6348 16.373 15.1842 16.6502 14.6883 16.8133L5 20L14.6883 23.1867C15.1842 23.3498 15.6348 23.627 16.0039 23.9961C16.373 24.3652 16.6502 24.8158 16.8133 25.3117L20 35L23.1867 25.3117C23.3498 24.8158 23.627 24.3652 23.9961 23.9961C24.3652 23.627 24.8158 23.3498 25.3117 23.1867L35 20L25.3117 16.8133C24.8158 16.6502 24.3652 16.373 23.9961 16.0039C23.627 15.6348 23.3498 15.1842 23.1867 14.6883L20 5Z" stroke="#EB4042" stroke-width="3" stroke-linecap="round" stroke-linejoin="round"/>
<path d="M8.33333 5V11.6667M31.6667 28.3333V35M5 8.33333H11.6667M28.3333 31.6667H35" stroke="#F49E9F" stroke-width="3" stroke-linecap="round" stroke-linejoin="round"/>
</svg>
