<svg width="40" height="40" viewBox="0 0 40 40" fill="none" xmlns="http://www.w3.org/2000/svg">
<path d="M23.333 31.6666C23.333 29.0144 22.2794 26.4709 20.4041 24.5955C18.5287 22.7202 15.9852 21.6666 13.333 21.6666M13.333 21.6666C10.6808 21.6666 8.1373 22.7202 6.26194 24.5955C4.38658 26.4709 3.33301 29.0144 3.33301 31.6666M13.333 21.6666C17.0149 21.6666 19.9997 18.6818 19.9997 14.9999C19.9997 11.318 17.0149 8.33325 13.333 8.33325C9.65111 8.33325 6.66634 11.318 6.66634 14.9999C6.66634 18.6818 9.65111 21.6666 13.333 21.6666ZM36.6663 31.6666C36.6663 29.0144 35.6128 26.4709 33.7374 24.5955C31.862 22.7202 29.3185 21.6666 26.6663 21.6666C28.4345 21.6666 30.1301 20.9642 31.3804 19.714C32.6306 18.4637 33.333 16.768 33.333 14.9999C33.333 13.2318 32.6306 11.5361 31.3804 10.2859C30.1301 9.03563 28.4345 8.33325 26.6663 8.33325" stroke="#EB4042" stroke-width="3" stroke-linecap="round" stroke-linejoin="round"/>
</svg>
