<svg width="40" height="40" viewBox="0 0 40 40" fill="none" xmlns="http://www.w3.org/2000/svg">
<path d="M16.6666 25H9.99992C8.23181 25 6.53612 25.7024 5.28587 26.9526C4.03563 28.2029 3.33325 29.8986 3.33325 31.6667V35M36.1663 27.3333L34.6663 26.8333M25.3329 23.1666L23.8329 22.6666M27.6667 31.1667L28.1667 29.6667M31.8334 20.3334L32.3334 18.8334M32.6669 31.1666L32.0002 29.4999M27.9998 20.5001L27.3331 18.8334M23.8329 27.6666L25.4996 26.9999M34.5002 23L36.1669 22.3334M34.9999 25C34.9999 27.7614 32.7613 30 29.9999 30C27.2385 30 24.9999 27.7614 24.9999 25C24.9999 22.2386 27.2385 20 29.9999 20C32.7613 20 34.9999 22.2386 34.9999 25ZM21.6666 11.6667C21.6666 15.3486 18.6818 18.3333 14.9999 18.3333C11.318 18.3333 8.33325 15.3486 8.33325 11.6667C8.33325 7.98477 11.318 5 14.9999 5C18.6818 5 21.6666 7.98477 21.6666 11.6667Z" stroke="#EB4042" stroke-width="3" stroke-linecap="round" stroke-linejoin="round"/>
</svg>
