<svg width="41" height="40" viewBox="0 0 41 40" fill="none" xmlns="http://www.w3.org/2000/svg">
<path d="M29.2865 23.3333H29.3031M12.6198 11.6667H32.6198C33.5038 11.6667 34.3517 12.0179 34.9768 12.643C35.6019 13.2681 35.9531 14.1159 35.9531 15V31.6667C35.9531 32.5507 35.6019 33.3986 34.9768 34.0237C34.3517 34.6488 33.5038 35 32.6198 35H9.28646C8.4024 35 7.55456 34.6488 6.92944 34.0237C6.30431 33.3986 5.95313 32.5507 5.95312 31.6667V8.33333C5.95312 7.44928 6.30431 6.60143 6.92944 5.97631C7.55456 5.35119 8.4024 5 9.28646 5H32.6198" stroke="#EB4042" stroke-width="3" stroke-linecap="round" stroke-linejoin="round"/>
</svg>
