<svg width="32" height="32" viewBox="0 0 32 32" fill="none" xmlns="http://www.w3.org/2000/svg">
<path d="M24.0001 10.6667V8.00004C24.0001 7.2928 23.7191 6.61452 23.219 6.11442C22.7189 5.61433 22.0407 5.33337 21.3334 5.33337H5.33341C4.62617 5.33337 3.94789 5.61433 3.4478 6.11442C2.9477 6.61452 2.66675 7.2928 2.66675 8.00004V17.3334C2.66675 18.0406 2.9477 18.7189 3.4478 19.219C3.94789 19.7191 4.62617 20 5.33341 20H16.0001M13.3334 25.3333V20.0533V24.2533M9.33341 25.3334H16.0001" stroke="#EB4042" stroke-width="2.66667" stroke-linecap="round" stroke-linejoin="round"/>
<path opacity="0.5" d="M17.25 11.9167L26.1995 14.077C26.7104 14.2003 27.1034 14.6091 27.2065 15.1245L28.0499 19.3417L24.6749 22.7167L20.4578 21.8733C19.9423 21.7702 19.5336 21.3773 19.4102 20.8663L17.25 11.9167ZM17.25 11.9167L22.3705 17.0373M24.6749 17.9917C24.6749 18.7373 24.0705 19.3417 23.3249 19.3417C22.5794 19.3417 21.975 18.7373 21.975 17.9917C21.975 17.2462 22.5794 16.6417 23.3249 16.6417C24.0705 16.6417 24.6749 17.2462 24.6749 17.9917ZM26.9795 24.4621L29.7953 21.6463C30.3225 21.1191 30.3225 20.2644 29.7953 19.7372L29.6795 19.6214C29.1523 19.0941 28.2975 19.0941 27.7703 19.6214L24.9545 22.4372C24.4273 22.9644 24.4273 23.8191 24.9545 24.3463L25.0703 24.4621C25.5975 24.9894 26.4523 24.9894 26.9795 24.4621Z" stroke="#EB4042" stroke-width="1.92374" stroke-linecap="round" stroke-linejoin="round"/>
</svg>
