<svg width="40" height="40" viewBox="0 0 40 40" fill="none" xmlns="http://www.w3.org/2000/svg">
<path d="M38.5962 31.6855C38.2229 33.5314 36.8544 34.4788 35.2925 35.2239C33.4407 36.1082 31.4599 36.5464 29.4281 36.7815C29.1095 36.8187 28.7899 36.8568 28.4713 36.895C27.8233 36.9713 27.2495 36.5357 27.1717 35.9086C27.0956 35.2975 27.5288 34.7262 28.167 34.6606C29.7673 34.4947 31.3596 34.2747 32.8821 33.7434C33.6626 33.4711 34.4315 33.1332 35.1493 32.7278C36.2207 32.122 36.3836 31.6811 36.2959 30.214C36.252 30.2202 36.2037 30.214 36.1697 30.2344C34.6275 31.1525 32.9296 31.6306 31.1842 31.9783C30.7967 32.0554 30.4198 32.1512 30.0448 31.9224C29.6268 31.6669 29.3896 31.2456 29.4648 30.7985C29.5472 30.3124 29.8309 29.9789 30.316 29.8547C31.041 29.6702 31.7803 29.5372 32.4982 29.3314C33.6447 29.0032 34.751 28.5792 35.6855 27.8049C36.1267 27.4394 36.3755 27.0083 36.3147 26.4211C36.2896 26.1798 36.3102 25.9333 36.3102 25.6556C35.8287 25.8933 35.3928 26.1248 34.9435 26.3271C33.6349 26.9143 32.2511 27.2549 30.8459 27.5113C30.1826 27.6328 29.6009 27.2425 29.472 26.6304C29.3449 26.0255 29.7423 25.4764 30.4073 25.299C31.519 25.0019 32.6512 24.7553 33.7262 24.3597C34.436 24.0989 35.0804 23.6403 35.7213 23.2216C36.1643 22.9325 36.3666 22.4836 36.3138 21.9355C36.2896 21.68 36.3093 21.4201 36.3093 21.1363C36.2422 21.1531 36.1939 21.154 36.158 21.1753C34.5317 22.1475 32.7309 22.6185 30.8915 22.9724C30.2032 23.1046 29.6107 22.7302 29.4729 22.1093C29.3359 21.4937 29.7396 20.9438 30.4288 20.7602C31.5297 20.4675 32.6494 20.2226 33.7136 19.8306C34.4243 19.5689 35.0688 19.1139 35.7114 18.6979C36.1697 18.4016 36.3648 17.9377 36.3129 17.3798C36.2887 17.1225 36.3084 16.8617 36.3084 16.5708C36.2261 16.5974 36.1607 16.6072 36.107 16.6382C34.2041 17.7381 32.1169 18.2668 29.9625 18.5852C29.4684 18.6579 28.9707 18.7094 28.4749 18.7662C27.8206 18.8407 27.2522 18.4105 27.1708 17.7842C27.0902 17.1616 27.5324 16.5948 28.1956 16.5273C29.7969 16.3632 31.3883 16.1362 32.9099 15.6057C33.6787 15.3379 34.4565 15.0283 35.1395 14.5963C36.4498 13.7687 36.3702 13.4494 36.269 12.0639C33.0674 13.8193 29.5794 14.3231 26.0036 14.3213C22.4395 14.3196 18.9631 13.8157 15.7266 12.0417C15.7266 12.432 15.731 12.7797 15.7266 13.1274C15.7167 13.8273 15.2441 14.3275 14.5943 14.3329C13.9311 14.3391 13.4451 13.8317 13.4424 13.1123C13.437 11.7791 13.4853 10.4433 13.429 9.11189C13.3627 7.56582 14.0949 6.47656 15.288 5.61971C16.7308 4.58279 18.3885 4.03638 20.1025 3.65053C23.4375 2.90012 26.7993 2.81319 30.1773 3.31613C31.9477 3.58046 33.6778 4.00002 35.3006 4.77349C36.4847 5.33764 37.5749 6.02862 38.214 7.22521C38.3841 7.54276 38.4718 7.90377 38.598 8.24439V31.6864L38.5962 31.6855ZM26.0716 5.2649C23.7391 5.28353 21.4845 5.50617 19.2969 6.1874C18.2041 6.52801 17.1372 6.93604 16.2743 7.72016C15.5547 8.37389 15.5574 8.95223 16.2681 9.61039C16.951 10.2428 17.7852 10.6189 18.6489 10.9303C20.5429 11.6124 22.5111 11.9157 24.5169 12.0204C27.3059 12.1659 30.0573 11.9636 32.7407 11.1467C33.8363 10.8132 34.9005 10.3989 35.7642 9.61483C36.4839 8.96109 36.4812 8.38276 35.7705 7.7246C35.0876 7.09215 34.2534 6.71517 33.3896 6.40472C31.0106 5.55052 28.5348 5.28885 26.0734 5.26401L26.0716 5.2649Z" fill="#EB4042"/>
<path d="M27.1602 26.8345C27.1602 28.1916 27.1163 29.5505 27.1718 30.905C27.2345 32.4369 26.5086 33.5182 25.3298 34.3697C23.8897 35.4102 22.2329 35.9601 20.5198 36.346C17.1624 37.1017 13.7782 37.1904 10.377 36.675C8.61819 36.4089 6.90057 35.9903 5.29036 35.2221C4.13036 34.6686 3.03839 34.0025 2.42796 32.8218C2.20241 32.3854 2.03056 31.8656 2.02429 31.3822C1.98849 28.3264 2.00013 25.2698 2.00997 22.214C2.01355 21.1922 2.52195 20.3912 3.24694 19.7153C4.33891 18.6961 5.67613 18.1071 7.08137 17.6769C10.5793 16.6072 14.155 16.3819 17.78 16.7908C19.8816 17.0276 21.9349 17.4641 23.8583 18.3697C25.021 18.9179 26.0808 19.6009 26.7458 20.7522C27.0313 21.2472 27.162 21.7741 27.1611 22.34C27.1593 23.8382 27.1611 25.3372 27.1611 26.8354L27.1602 26.8345ZM14.513 25.669C16.8447 25.6503 19.0993 25.4312 21.2886 24.75C22.394 24.4058 23.4717 23.996 24.3417 23.1995C25.0425 22.5582 25.0389 21.9799 24.3452 21.3341C23.6552 20.691 22.8093 20.3132 21.934 19.9983C20.0391 19.3161 18.0709 19.0172 16.0651 18.9126C13.2761 18.7671 10.5238 18.9738 7.84217 19.7925C6.74751 20.1269 5.68329 20.5429 4.82314 21.3323C4.1232 21.9745 4.12589 22.552 4.81956 23.1986C5.50965 23.8417 6.35548 24.2205 7.23085 24.5345C9.59917 25.3833 12.0633 25.6415 14.5121 25.6698L14.513 25.669ZM4.35323 25.6716C4.00148 27.0066 4.61638 27.8634 5.74684 28.3814C6.68039 28.809 7.63899 29.2268 8.63072 29.4813C12.2244 30.4021 15.8583 30.4198 19.4958 29.7333C20.9619 29.4565 22.3967 29.0538 23.665 28.2431C24.9825 27.4013 24.9503 27.0447 24.8304 25.6619C21.6413 27.411 18.1658 27.9149 14.6025 27.9175C11.0268 27.9193 7.53964 27.4164 4.35413 25.6716H4.35323ZM4.35323 30.2043C4.00416 31.5348 4.6128 32.3943 5.74415 32.9123C6.6777 33.3399 7.63631 33.7585 8.62714 34.0131C12.2208 34.9347 15.8538 34.9516 19.4922 34.2668C20.9583 33.9909 22.3931 33.5882 23.6614 32.7775C24.9897 31.9295 24.9431 31.5782 24.8322 30.1936C21.6422 31.9428 18.1676 32.4484 14.6043 32.4502C11.0286 32.4528 7.54054 31.9499 4.35323 30.2043Z" fill="#F49E9F"/>
</svg>
