<svg width="40" height="40" viewBox="0 0 40 40" fill="none" xmlns="http://www.w3.org/2000/svg">
<path d="M19.9998 29.9997C27.3636 29.9997 33.3332 24.0301 33.3332 16.6663C33.3332 9.30254 27.3636 3.33301 19.9998 3.33301C12.636 3.33301 6.6665 9.30254 6.6665 16.6663C6.6665 24.0301 12.636 29.9997 19.9998 29.9997ZM19.9998 29.9997V36.6663M11.6665 36.6663H28.3332M24.9998 16.6663C24.9998 19.4278 22.7613 21.6663 19.9998 21.6663C17.2384 21.6663 14.9998 19.4278 14.9998 16.6663C14.9998 13.9049 17.2384 11.6663 19.9998 11.6663C22.7613 11.6663 24.9998 13.9049 24.9998 16.6663Z" stroke="#EC4042" stroke-width="3" stroke-linecap="round" stroke-linejoin="round"/>
</svg>
