<?xml version="1.0" encoding="utf-8"?>
<!-- Generator: Adobe Illustrator 24.1.1, SVG Export Plug-In . SVG Version: 6.00 Build 0)  -->
<svg version="1.1" id="Layer_1" xmlns="http://www.w3.org/2000/svg" xmlns:xlink="http://www.w3.org/1999/xlink" x="0px" y="0px"
	 viewBox="0 0 50 50" style="enable-background:new 0 0 50 50;" xml:space="preserve">
<style type="text/css">
	.st0{fill:#071631;}
	.st1{fill:#FFFFFF;}
</style>
<path class="st0" d="M45.5,50h-41C2,50,0,48,0,45.5v-41C0,2,2,0,4.5,0h41C48,0,50,2,50,4.5v41C50,48,48,50,45.5,50z"/>
<g>
	<path class="st1" d="M26.1,16.8H11.8c-1,0-1.8-0.8-1.8-1.8v0c0-1,0.8-1.8,1.8-1.8h14.3c1,0,1.8,0.8,1.8,1.8v0
		C27.9,16,27.1,16.8,26.1,16.8z"/>
	<path class="st1" d="M33.2,26.8H11.8c-1,0-1.8-0.8-1.8-1.8v0c0-1,0.8-1.8,1.8-1.8h21.4c1,0,1.8,0.8,1.8,1.8v0
		C35,26,34.2,26.8,33.2,26.8z"/>
	<path class="st1" d="M38.2,36.9H11.8c-1,0-1.8-0.8-1.8-1.8v0c0-1,0.8-1.8,1.8-1.8h26.4c1,0,1.8,0.8,1.8,1.8v0
		C40,36,39.2,36.9,38.2,36.9z"/>
</g>
</svg>
