<svg width="62" height="62" viewBox="0 0 62 62" fill="none" xmlns="http://www.w3.org/2000/svg">
<rect x="7.4917" y="7" width="46.7432" height="47" fill="#8C1F21"/>
<path d="M43.6584 26.9102V25.7253H48.3664V26.9102H46.7371V31.1421H45.2877V26.9102H43.6584Z" fill="white"/>
<path d="M42.0223 27.7566H40.5306C40.52 27.6332 40.4918 27.5212 40.446 27.4207C40.4019 27.3202 40.3402 27.2338 40.2608 27.1615C40.1832 27.0874 40.0889 27.031 39.9778 26.9922C39.8667 26.9517 39.7407 26.9314 39.5996 26.9314C39.3527 26.9314 39.1438 26.9913 38.9727 27.1112C38.8035 27.2311 38.6748 27.4031 38.5866 27.627C38.5002 27.8509 38.457 28.1198 38.457 28.4337C38.457 28.7652 38.5011 29.0429 38.5892 29.2668C38.6792 29.489 38.8088 29.6565 38.978 29.7694C39.1473 29.8805 39.351 29.936 39.589 29.936C39.7248 29.936 39.8464 29.9193 39.954 29.8857C40.0616 29.8505 40.155 29.8002 40.2344 29.735C40.3137 29.6697 40.3781 29.5913 40.4274 29.4996C40.4786 29.4061 40.513 29.3012 40.5306 29.1848L42.0223 29.1954C42.0047 29.4247 41.9403 29.6583 41.8293 29.8963C41.7182 30.1326 41.5604 30.3513 41.3558 30.5523C41.153 30.7515 40.9018 30.912 40.602 31.0336C40.3023 31.1553 39.954 31.2161 39.5573 31.2161C39.06 31.2161 38.6139 31.1095 38.2189 30.8961C37.8257 30.6828 37.5145 30.3689 37.2853 29.9545C37.0578 29.5401 36.9441 29.0332 36.9441 28.4337C36.9441 27.8306 37.0605 27.3228 37.2932 26.9102C37.526 26.4958 37.8398 26.1829 38.2348 25.9713C38.6298 25.7579 39.0706 25.6512 39.5573 25.6512C39.8993 25.6512 40.2141 25.698 40.5015 25.7914C40.7889 25.8849 41.0411 26.0215 41.258 26.2014C41.4748 26.3795 41.6494 26.599 41.7816 26.86C41.9139 27.1209 41.9941 27.4198 42.0223 27.7566Z" fill="white"/>
<path d="M31.5818 31.1421H29.9949L31.7828 25.7253H33.793L35.5809 31.1421H33.994L32.8091 27.217H32.7667L31.5818 31.1421ZM31.2856 29.005H34.2691V30.1053H31.2856V29.005Z" fill="white"/>
<path d="M24.8459 31.1421V25.7253H27.1841C27.5861 25.7253 27.9379 25.8046 28.2394 25.9633C28.5409 26.122 28.7754 26.3451 28.9429 26.6325C29.1104 26.9199 29.1942 27.2558 29.1942 27.6402C29.1942 28.0281 29.1078 28.364 28.935 28.6479C28.764 28.9318 28.5233 29.1505 28.2129 29.3039C27.9044 29.4573 27.5438 29.534 27.1312 29.534H25.7346V28.3914H26.8349C27.0077 28.3914 27.155 28.3614 27.2766 28.3014C27.4001 28.2397 27.4944 28.1524 27.5596 28.0396C27.6266 27.9267 27.6601 27.7936 27.6601 27.6402C27.6601 27.485 27.6266 27.3528 27.5596 27.2435C27.4944 27.1324 27.4001 27.0477 27.2766 26.9896C27.155 26.9296 27.0077 26.8996 26.8349 26.8996H26.3165V31.1421H24.8459Z" fill="white"/>
<path d="M16.7898 25.7253H18.6201L19.8791 28.7934H19.9425L21.2015 25.7253H23.0318V31.1421H21.593V28.0105H21.5506L20.3446 31.0998H19.477L18.2709 27.9893H18.2286V31.1421H16.7898V25.7253Z" fill="white"/>
<path d="M14.9757 25.7253V31.1421H13.5051V25.7253H14.9757Z" fill="white"/>
<path d="M37.9702 46.0382V33.3194H43.485C44.4538 33.3194 45.2674 33.4498 45.9257 33.7107C46.5881 33.9715 47.087 34.34 47.4224 34.8161C47.7619 35.2922 47.9316 35.8533 47.9316 36.4991C47.9316 36.967 47.8281 37.3934 47.6211 37.7785C47.4182 38.1635 47.1326 38.4864 46.7641 38.7473C46.3956 39.004 45.965 39.182 45.4723 39.2814V39.4056C46.0188 39.4263 46.5157 39.565 46.9628 39.8217C47.41 40.0742 47.766 40.4241 48.031 40.8712C48.296 41.3142 48.4285 41.8359 48.4285 42.4362C48.4285 43.1318 48.2463 43.7508 47.8819 44.2931C47.5217 44.8355 47.0084 45.2619 46.3418 45.5725C45.6752 45.883 44.8803 46.0382 43.957 46.0382H37.9702ZM41.4232 43.2808H43.0379C43.6175 43.2808 44.0522 43.1732 44.342 42.9579C44.6319 42.7385 44.7768 42.4155 44.7768 41.9891C44.7768 41.691 44.7085 41.4384 44.5718 41.2314C44.4352 41.0244 44.2406 40.8671 43.9881 40.7594C43.7396 40.6518 43.4395 40.598 43.0875 40.598H41.4232V43.2808ZM41.4232 38.4616H42.8391C43.1414 38.4616 43.4084 38.414 43.6403 38.3188C43.8721 38.2235 44.0522 38.0869 44.1806 37.9089C44.3131 37.7267 44.3793 37.5052 44.3793 37.2444C44.3793 36.851 44.2385 36.5509 43.957 36.3439C43.6755 36.1327 43.3194 36.0271 42.8888 36.0271H41.4232V38.4616Z" fill="white"/>
<path d="M33.4884 33.3194H36.9413V41.4674C36.9413 42.4362 36.7095 43.2746 36.2458 43.9826C35.7862 44.6865 35.1445 45.2309 34.3206 45.6159C33.4967 45.9968 32.5403 46.1873 31.4514 46.1873C30.3542 46.1873 29.3937 45.9968 28.5698 45.6159C27.7459 45.2309 27.1041 44.6865 26.6446 43.9826C26.1891 43.2746 25.9614 42.4362 25.9614 41.4674V33.3194H29.4144V41.1693C29.4144 41.5626 29.5013 41.9146 29.6752 42.2251C29.8491 42.5315 30.0892 42.7716 30.3956 42.9455C30.7061 43.1194 31.0581 43.2063 31.4514 43.2063C31.8488 43.2063 32.2008 43.1194 32.5071 42.9455C32.8135 42.7716 33.0537 42.5315 33.2275 42.2251C33.4014 41.9146 33.4884 41.5626 33.4884 41.1693V33.3194Z" fill="white"/>
<path d="M13.4573 46.0382V33.3194H16.9102V38.2877H21.4811V33.3194H24.934V46.0382H21.4811V41.07H16.9102V46.0382H13.4573Z" fill="white"/>
</svg>
