<svg width="62" height="62" viewBox="0 0 62 62" fill="none" xmlns="http://www.w3.org/2000/svg">
<g clip-path="url(#clip0_2272_6105)">
<path d="M2.99995 24.8218C3.10336 24.5418 3.30193 24.4417 3.59099 24.4417C6.51207 24.4405 9.43316 24.4284 12.3542 24.4248C12.5857 24.4248 12.7855 24.3041 13.0099 24.2848C13.1321 24.274 13.2543 24.2619 13.3753 24.2776C13.6303 24.3126 13.7419 24.502 13.8148 24.7289C13.8336 24.7868 13.8195 24.8942 13.9111 24.8736C13.9993 24.8543 14.1109 24.899 14.172 24.7614C14.286 24.508 14.555 24.4187 14.803 24.5346C15.0039 24.6287 15.1943 24.7361 15.3682 24.8821C15.7583 25.2103 16.2741 25.2356 16.6936 24.969C16.8933 24.8423 17.0214 24.6637 17.0378 24.42C17.0696 23.9687 17.0907 23.5162 17.1189 23.0637C17.1224 23.0058 17.0978 22.9635 17.0731 22.9165C16.8933 22.5738 17.0085 22.2094 17.3516 22.0441C17.5572 21.9451 17.7675 21.8933 17.9978 22.0236C17.9931 21.9343 17.9908 21.8631 17.9849 21.7919C17.972 21.6254 18.0143 21.4842 18.1635 21.3985C18.234 21.3575 18.2375 21.2924 18.2387 21.2248C18.2387 21.0559 18.2387 20.8881 18.2352 20.7192C18.2317 20.5756 18.2622 20.4549 18.3915 20.3729C18.5125 20.2957 18.4596 20.1641 18.462 20.0556C18.4643 19.9687 18.3691 19.9964 18.3221 19.9651C18.3186 19.9626 18.3127 19.9651 18.308 19.9614C18.2552 19.9313 18.1541 19.959 18.1518 19.877C18.1494 19.7901 18.2117 19.7177 18.2928 19.6743C18.3785 19.6296 18.4725 19.6151 18.5654 19.6163C18.6429 19.6175 18.6711 19.5934 18.6711 19.5089C18.6676 18.931 18.6676 18.3518 18.6711 17.7738C18.6711 17.6942 18.6429 17.6749 18.5724 17.6809C18.3644 17.699 18.1882 17.6471 18.0484 17.4685C17.9508 17.343 17.8075 17.3382 17.6606 17.3732C17.3727 17.4408 17.0848 17.5059 16.7958 17.5699C16.3575 17.6652 16.079 17.4649 16.0262 17.0136C16.0074 16.8495 16.0179 16.6854 16.0567 16.5261C16.1296 16.2329 16.381 16.0616 16.6736 16.1038C17.0085 16.1521 17.3328 16.2486 17.6618 16.3258C17.8474 16.3693 17.9967 16.3234 18.1071 16.1641C18.1647 16.0809 18.254 16.0507 18.3315 16.0013H20.107C20.228 16.0555 20.3326 16.1292 20.4231 16.2305C20.5147 16.3343 20.6334 16.362 20.7697 16.3295C21.1034 16.251 21.4359 16.1702 21.7732 16.1098C22.1163 16.0495 22.3407 16.2148 22.4041 16.5648C22.4417 16.7735 22.4441 16.9883 22.3936 17.1958C22.3254 17.483 22.0834 17.6507 21.8002 17.5964C21.4688 17.5337 21.1398 17.4552 20.8108 17.3804C20.6534 17.3442 20.5265 17.3539 20.4148 17.5047C20.2915 17.6724 20.0976 17.7026 19.9037 17.6845C19.7921 17.6736 19.7721 17.7111 19.7721 17.8172C19.7768 18.3663 19.7768 18.9165 19.7721 19.4655C19.7721 19.5657 19.7874 19.6236 19.9002 19.6139C20.1046 19.5958 20.2445 19.708 20.3631 19.8649C20.2997 19.9132 20.2327 19.947 20.1599 19.9675C20.0858 19.988 20.0118 19.9904 20.0071 20.1074C20.0024 20.2281 19.9824 20.3512 20.1023 20.4139C20.2151 20.473 20.2362 20.5635 20.2433 20.6733C20.2468 20.7264 20.2492 20.7795 20.2456 20.8326C20.2221 21.1222 20.2586 21.3985 20.4195 21.6471C20.5112 21.7883 20.4607 21.9427 20.4466 22.1213C20.7086 21.8836 20.9671 21.9331 21.2209 22.0743C21.5534 22.2589 21.6404 22.645 21.4171 22.9611C21.3525 23.0528 21.3313 23.1421 21.3501 23.2423C21.4101 23.5657 21.5417 23.842 21.8343 24.0169C22.2314 24.2546 22.6109 24.5213 22.9834 24.7976C23.8447 25.4384 24.33 26.3289 24.6143 27.3569C24.8106 28.0688 24.8987 28.8 24.9574 29.5337C24.9986 30.0344 24.7048 30.3735 24.216 30.3844C23.625 30.3976 23.0328 30.3952 22.4406 30.3819C21.9847 30.3711 21.7144 30.0465 21.6839 29.5301C21.6486 28.9412 21.5147 28.3801 21.2115 27.8709C20.9988 27.5126 20.9271 27.4981 20.6111 27.7623C20.1775 28.1243 19.738 28.4779 19.2234 28.7144C18.7534 28.9304 18.2599 29.0197 17.7464 29.0245C17.24 29.0293 16.7335 28.9654 16.2259 29.0172C16.0485 29.0353 15.8711 29.0571 15.6948 29.0776C15.6208 29.086 15.5656 29.1331 15.5103 29.1777C15.3059 29.3418 15.085 29.4758 14.8476 29.5832C14.5821 29.7038 14.3224 29.6181 14.1943 29.3527C14.1591 29.2803 14.125 29.2779 14.0545 29.2815C13.9029 29.2887 13.8289 29.3479 13.7748 29.5047C13.6703 29.8076 13.4082 29.9295 13.0628 29.8752C12.8959 29.8486 12.7291 29.8209 12.5763 29.74C12.5563 29.7292 12.5317 29.7207 12.5093 29.7195C11.9853 29.7074 11.4612 29.7147 10.9113 29.7364C11.1616 29.9813 11.3931 30.2106 11.6081 30.4568C12.3719 31.3292 12.9617 32.3102 13.3812 33.401C13.4599 33.6049 13.44 33.7907 13.2919 33.9488C13.1533 34.0984 12.9793 34.1406 12.789 34.0718C12.6374 34.0175 12.5481 33.9005 12.4894 33.7485C12.104 32.7494 11.5611 31.8492 10.8502 31.0589C10.3708 30.5255 9.83384 30.0646 9.24045 29.6652C8.24052 28.9919 7.15128 28.566 5.97627 28.3669C5.21721 28.239 4.45345 28.2209 3.68969 28.315C3.31368 28.3608 3.18913 28.3065 2.99995 27.9759V27.7153C3.04578 27.4752 3.19501 27.3545 3.42413 27.3219C4.04924 27.2338 4.67552 27.2169 5.30651 27.2628C6.14077 27.3231 6.95153 27.4921 7.74231 27.7744C8.34862 27.9904 8.92438 28.2703 9.47546 28.6058C9.60118 28.683 9.72809 28.7192 9.87496 28.718C10.3685 28.7132 10.8608 28.7156 11.3543 28.7156C11.5611 28.7156 11.7656 28.683 11.9724 28.6842C12.2356 28.6854 12.4976 28.6975 12.7584 28.7289C12.8442 28.7397 12.8724 28.7168 12.8865 28.6299C12.9394 28.3017 13.091 28.1629 13.4129 28.1376C13.4317 28.1364 13.4529 28.14 13.4693 28.1316C13.6996 28.023 13.9405 28.0978 14.1767 28.0905C14.2237 28.0893 14.2707 28.0905 14.3165 28.0773C14.5351 28.0169 14.7266 28.0543 14.8782 28.2365C14.9287 28.2981 14.9816 28.3114 15.0497 28.2643C15.3141 28.0833 15.6196 28.0531 15.9239 28.0218C16.5185 27.9614 17.1166 27.9844 17.7111 27.9976C18.348 28.0121 18.8979 27.801 19.4055 27.4305C19.6358 27.2628 19.8508 27.077 20.0729 26.8984C20.2527 26.7548 20.4477 26.645 20.671 26.5871C21.067 26.4857 21.4054 26.6016 21.6968 26.8755C22.034 27.1928 22.2326 27.6031 22.39 28.035C22.531 28.4212 22.6192 28.8194 22.6544 29.2296C22.6638 29.3406 22.7143 29.3792 22.8166 29.3792C23.1456 29.3768 23.4746 29.3792 23.8024 29.3792C23.8847 29.3792 23.9399 29.3587 23.9305 29.2562C23.8377 28.2908 23.6837 27.3424 23.1867 26.493C23.001 26.1756 22.7625 25.9065 22.4746 25.6821C22.108 25.3961 21.7262 25.1331 21.3302 24.8905C20.691 24.4984 20.3937 23.9023 20.3502 23.1554C20.3408 22.9961 20.3373 22.9841 20.1787 22.9829C19.5489 22.9829 18.9202 22.9841 18.2904 22.9804C18.1776 22.9804 18.1212 23.0094 18.1106 23.1385C18.0871 23.4365 18.0777 23.7346 18.0636 24.0326C18.0542 24.2209 18.0448 24.4091 18.0166 24.5937C17.9085 25.3117 17.482 25.7678 16.8416 26.0212C16.2059 26.2733 15.5879 26.2009 14.998 25.8571C14.8171 25.7509 14.8135 25.746 14.6537 25.8824C14.508 26.0055 14.3518 26.0622 14.1602 26.0465C13.9981 26.0332 13.8336 26.0429 13.6714 26.0875C13.4118 26.1587 13.1709 26.0296 13.0593 25.7774C13.0181 25.6845 12.9993 25.5844 12.9758 25.4866C12.9558 25.4046 12.9147 25.3696 12.8336 25.4009C12.7208 25.4444 12.6033 25.4408 12.4858 25.4408C10.7104 25.4408 8.93495 25.4203 7.1595 25.448C5.99507 25.4661 4.83063 25.4589 3.66619 25.4697C3.60509 25.4697 3.54399 25.4721 3.48289 25.4673C3.21498 25.448 3.06106 25.3153 2.99878 25.0522V24.8206L2.99995 24.8218Z" fill="#B8D700"/>
<path d="M3 39.2821C3.09518 39.054 3.23853 38.8947 3.50526 38.9044C3.60396 38.908 3.68738 38.9478 3.76728 38.9997C4.58744 39.5234 5.49338 39.7587 6.44514 39.8335C7.95151 39.9517 9.40735 39.6718 10.8432 39.2398C11.8114 38.9478 12.7432 38.5557 13.6727 38.1575C15.0192 37.5819 16.4104 37.1584 17.8569 36.9508C19.65 36.6938 21.4242 36.7578 23.1574 37.3478C23.7155 37.5373 24.2525 37.775 24.7436 38.1116C24.9293 38.2395 25.0021 38.4422 24.9504 38.6534C24.9034 38.8404 24.7472 38.9804 24.5486 39.0106C24.437 39.0275 24.3336 38.9997 24.2396 38.9406C23.3454 38.3747 22.3584 38.0814 21.3302 37.927C19.093 37.5903 16.9392 37.9801 14.8324 38.7463C13.9535 39.0661 13.1122 39.4836 12.2321 39.8021C11.0136 40.2437 9.77161 40.5949 8.48497 40.7481C7.0961 40.9146 5.72133 40.8712 4.38534 40.3849C4.02226 40.2522 3.67681 40.0821 3.3431 39.8842C3.18213 39.7888 3.05758 39.6694 3 39.4848L3 39.2821Z" fill="#B8D700"/>
<path d="M3 36.5635C3.13865 36.2679 3.28435 36.1653 3.52993 36.1846C3.62746 36.1931 3.70853 36.2401 3.78843 36.2908C4.61094 36.8097 5.51806 37.0413 6.46982 37.1125C8.00086 37.2271 9.47785 36.9351 10.9337 36.4875C11.8866 36.1955 12.8031 35.8021 13.722 35.4124C15.0474 34.8489 16.4175 34.4362 17.8404 34.2287C19.5513 33.9789 21.248 34.0284 22.9141 34.5436C23.5404 34.7367 24.1409 34.9925 24.6966 35.352C24.8576 35.4558 24.9634 35.5922 24.9634 35.7973C24.9634 36.1713 24.578 36.4223 24.2678 36.2281C23.3959 35.6839 22.4418 35.3894 21.4442 35.2193C20.5124 35.0612 19.5759 35.0468 18.6359 35.1324C16.7888 35.2989 15.0521 35.8769 13.3589 36.6238C12.0335 37.209 10.6634 37.6543 9.23933 37.9101C8.02084 38.1297 6.79647 38.1961 5.56976 37.9789C4.7825 37.8401 4.03636 37.5819 3.34545 37.162C3.18565 37.0655 3.05993 36.9484 3 36.765V36.5623L3 36.5635Z" fill="#B8D700"/>
<path d="M3 30.4036C3.12808 30.0646 3.42066 30.0368 3.71323 30.003C6.71892 29.6555 9.65058 31.4522 10.7739 34.33C10.8221 34.4519 10.8573 34.575 10.8185 34.7089C10.7598 34.9128 10.6035 35.0504 10.4049 35.0673C10.1864 35.0854 10.0066 34.9816 9.91966 34.7728C9.81743 34.5243 9.71638 34.2757 9.58478 34.0428C8.61892 32.3379 7.18775 31.3231 5.2901 31.0081C4.73902 30.9164 4.18676 30.9237 3.63451 31.0069C3.31725 31.0552 3.18448 30.9828 3 30.6655V30.4048L3 30.4036Z" fill="#B8D700"/>
<path d="M3 33.5843C3.08225 33.3707 3.24323 33.2634 3.45003 33.191C5.11385 32.6081 6.99975 33.2609 7.96326 34.7572C8.07959 34.9382 8.10661 35.1228 7.99616 35.3122C7.89628 35.4848 7.74118 35.5644 7.54613 35.5487C7.37458 35.5342 7.25708 35.4341 7.1619 35.2893C6.75182 34.6727 6.19369 34.2637 5.49338 34.0658C4.90705 33.8992 4.32542 33.9198 3.74966 34.1237C3.35955 34.2624 3.17508 34.1864 3 33.816L3 33.5843Z" fill="#B8D700"/>
<path d="M26.1173 41.5119C26.1161 41.4588 26.1137 41.4057 26.1137 41.3526C26.1137 35.4232 26.1137 29.495 26.1137 23.5656C26.1137 23.3593 26.0891 23.3798 26.2935 23.3798C37.1342 23.3798 47.9749 23.3798 58.8167 23.3798C59.0282 23.3798 59 23.352 59 23.5753C59 30.3192 59 37.0631 59 43.8057C59 44.0253 59.0306 43.9952 58.8132 43.9952C48.8973 43.9952 38.9825 43.9952 29.0665 43.9952C29.0101 43.9952 28.9537 43.9928 28.8973 43.9904C28.8456 43.9662 28.801 43.9312 28.7634 43.8878C28.009 43.0166 27.156 42.2624 26.2148 41.6109C26.176 41.5843 26.1349 41.5602 26.1173 41.5107V41.5119Z" fill="#B8D700"/>
<path d="M3.195 42.0271C3.52988 42.2419 3.85653 42.4157 4.20433 42.5484C5.0856 42.8851 6.00093 43.0142 6.93742 43.0154C8.54131 43.0178 10.0829 42.6655 11.5975 42.1611C12.4941 41.863 13.3565 41.4721 14.2296 41.1125C15.5303 40.5768 16.871 40.1834 18.2622 39.9891C20.0905 39.7345 21.8942 39.8106 23.6543 40.4356C24.1032 40.5949 24.5344 40.7928 24.9433 41.0413C25.0291 41.0932 25.0655 41.1499 25.0655 41.2573C25.0608 42.1201 25.0597 42.9828 25.0655 43.8455C25.0667 43.9819 25.0221 43.9988 24.9069 43.9988C20.812 43.9964 16.7159 43.9964 12.621 43.9964C9.53067 43.9964 6.44039 43.9964 3.3501 44C3.22202 44 3.18795 43.9686 3.1903 43.8359C3.19735 43.2434 3.19382 42.651 3.19382 42.0271H3.195Z" fill="#B8D700"/>
<path d="M26.1172 41.5119C26.6354 41.8437 27.1148 42.2287 27.5754 42.6377C28.0466 43.0564 28.4919 43.5029 28.8973 43.9916C27.9972 43.9928 27.0983 43.994 26.1983 43.9976C26.1301 43.9976 26.1113 43.9747 26.1113 43.9071C26.1149 43.1083 26.116 42.3107 26.1172 41.5119Z" fill="#2A49A1"/>
<path d="M46.8573 30.1454C46.8573 28.9207 46.8596 27.6971 46.8538 26.4724C46.8538 26.3385 46.8773 26.2938 47.0194 26.295C48.4612 26.3011 49.9029 26.2974 51.3447 26.2998C52.0332 26.2998 52.7006 26.4084 53.3116 26.7608C54.2563 27.3062 54.6582 28.2836 54.5924 29.1439C54.4984 30.3698 53.8181 31.0914 52.7136 31.4498C52.2165 31.6115 51.703 31.6609 51.186 31.6682C50.6878 31.6754 50.1908 31.673 49.6926 31.6682C49.588 31.6682 49.5575 31.6959 49.5586 31.8057C49.5633 32.4899 49.5586 33.1741 49.5633 33.8594C49.5633 33.968 49.5351 33.9958 49.4306 33.9946C48.6175 33.9897 47.8055 33.9897 46.9924 33.9946C46.8784 33.9946 46.8538 33.9596 46.8538 33.8486C46.8573 32.6142 46.8561 31.381 46.8561 30.1466L46.8573 30.1454Z" fill="#2A49A1"/>
<path d="M45.8141 33.9897H43.5252C43.3936 33.9897 43.262 33.9837 43.1304 33.9922C43.0364 33.9982 42.9999 33.9584 42.9729 33.8727C42.8801 33.5795 42.7767 33.2911 42.6839 32.9979C42.658 32.9158 42.6204 32.8881 42.5358 32.8881C41.6816 32.8917 40.8262 32.8917 39.9719 32.8881C39.8861 32.8881 39.8497 32.9158 39.8215 32.9979C39.7193 33.2971 39.6077 33.594 39.5043 33.8932C39.4796 33.9632 39.449 33.991 39.375 33.991C38.5255 33.9885 37.6748 33.9898 36.8241 33.9885C36.8064 33.9885 36.79 33.9837 36.7571 33.9789C36.9063 33.6217 37.052 33.2742 37.1989 32.9267C38.106 30.7668 39.0143 28.6069 39.9179 26.4447C39.9672 26.3276 40.0236 26.2938 40.1446 26.295C40.9296 26.3011 41.7133 26.2999 42.4982 26.2962C42.5816 26.2962 42.6322 26.3107 42.6686 26.4C43.7002 28.8929 44.7366 31.3846 45.7706 33.8751C45.7835 33.9053 45.7941 33.9367 45.8141 33.9885V33.9897Z" fill="#2A49A1"/>
<path d="M33.2201 26.2986C34.4362 26.2986 35.6535 26.3011 36.8697 26.295C36.9954 26.295 37.0248 26.3288 37.0236 26.4555C37.0166 27.0094 37.0177 27.5644 37.0236 28.1183C37.0248 28.2365 36.9978 28.2727 36.8779 28.2715C36.1635 28.2655 35.4503 28.2715 34.7359 28.2655C34.6043 28.2643 34.5631 28.292 34.5631 28.4368C34.569 30.2299 34.5643 32.0229 34.5702 33.816C34.5702 33.968 34.5279 33.9946 34.3916 33.9934C33.6067 33.9861 32.8229 33.991 32.038 33.9897C31.8359 33.9897 31.8618 34.0163 31.8618 33.8027C31.8618 32.0145 31.8594 30.2263 31.8653 28.438C31.8653 28.2944 31.8254 28.2655 31.6926 28.2667C30.9735 28.2739 30.2555 28.2667 29.5364 28.2727C29.4295 28.2727 29.4036 28.2425 29.4048 28.1351C29.4095 27.5717 29.4119 27.0069 29.4048 26.4434C29.4036 26.3155 29.4459 26.2974 29.5564 26.2974C30.7772 26.3011 31.9993 26.2999 33.2201 26.2999V26.2986Z" fill="#2A49A1"/>
<path d="M29.4074 38.1792C29.4074 37.302 29.4097 36.4247 29.405 35.5475C29.405 35.4341 29.4332 35.4039 29.5437 35.4039C30.6376 35.4087 31.7327 35.4075 32.8267 35.4039C32.9289 35.4039 32.9653 35.4256 32.9606 35.5379C32.9512 35.7587 32.9524 35.9819 32.9606 36.2027C32.9641 36.3053 32.9324 36.3318 32.8349 36.3306C32.1722 36.3258 31.5107 36.3318 30.8479 36.3258C30.7234 36.3246 30.6881 36.3572 30.6928 36.4851C30.7022 36.8169 30.7011 37.1499 30.6928 37.483C30.6905 37.6012 30.7175 37.6386 30.8385 37.6374C31.4543 37.6314 32.0688 37.6374 32.6845 37.6314C32.7961 37.6314 32.829 37.6603 32.8243 37.775C32.8161 37.9958 32.8173 38.219 32.8243 38.4398C32.8267 38.5351 32.7973 38.5617 32.7056 38.5605C32.0852 38.5569 31.466 38.5629 30.8456 38.5545C30.7163 38.5532 30.6905 38.5931 30.6928 38.7161C30.6999 39.1107 30.6999 39.5065 30.6928 39.9023C30.6905 40.0205 30.721 40.0579 30.8409 40.0567C31.5271 40.0507 32.2121 40.0567 32.8983 40.0519C33.0123 40.0519 33.0546 40.076 33.0487 40.2015C33.0382 40.4175 33.0429 40.6347 33.0476 40.8519C33.0487 40.9351 33.0323 40.9713 32.9395 40.9713C31.7985 40.9677 30.6564 40.9677 29.5155 40.9713C29.3945 40.9713 29.4062 40.905 29.4074 40.8253C29.4074 39.9433 29.4074 39.0612 29.4074 38.1792Z" fill="#2A49A1"/>
<path d="M42.8788 38.1913C42.8788 37.3092 42.8812 36.4272 42.8765 35.5451C42.8765 35.4293 42.9094 35.4027 43.0175 35.4039C44.1067 35.4075 45.196 35.4088 46.2852 35.4039C46.4004 35.4039 46.4391 35.4305 46.4333 35.5535C46.4227 35.7695 46.425 35.9867 46.4333 36.2039C46.4368 36.3077 46.4027 36.3318 46.3064 36.3318C45.6448 36.3282 44.9821 36.3318 44.3206 36.327C44.1984 36.327 44.149 36.3499 44.1537 36.4899C44.1643 36.8265 44.162 37.1644 44.1537 37.5023C44.1514 37.6133 44.1855 37.6374 44.2889 37.6374C44.9128 37.6326 45.5379 37.6374 46.163 37.6326C46.2688 37.6326 46.2993 37.6615 46.2958 37.7689C46.2876 37.9897 46.2887 38.2118 46.2958 38.4338C46.2993 38.5351 46.2688 38.5629 46.1701 38.5617C45.5508 38.5569 44.9304 38.5629 44.31 38.5569C44.1878 38.5557 44.1502 38.5846 44.1537 38.7149C44.1631 39.1095 44.1631 39.5053 44.1537 39.8999C44.1502 40.0326 44.1949 40.0591 44.3147 40.0579C44.9997 40.0519 45.6859 40.0579 46.371 40.0519C46.4885 40.0519 46.5237 40.0833 46.519 40.2039C46.5096 40.4103 46.5085 40.619 46.519 40.8253C46.5261 40.9545 46.4767 40.9726 46.3663 40.9713C45.6107 40.9665 44.854 40.9689 44.0985 40.9689C43.746 40.9689 43.3935 40.9641 43.0422 40.9713C42.9188 40.9738 42.8753 40.946 42.8765 40.8084C42.8835 39.9361 42.88 39.0637 42.88 38.1913H42.8788Z" fill="#2A49A1"/>
<path d="M48.6282 38.2033C48.6259 38.6896 48.6247 39.1771 48.7422 39.6537C48.8691 40.1689 49.1558 40.3306 49.6728 40.2268C50.0042 40.1605 50.1123 39.8781 50.1757 39.5801C50.2192 39.3774 50.2439 39.171 50.2345 38.9635C50.2298 38.867 50.265 38.8428 50.3555 38.844C50.708 38.8489 51.0605 38.8453 51.4119 38.8465C51.4589 38.8465 51.5258 38.8247 51.5235 38.9128C51.5059 39.4558 51.4577 39.9928 51.1193 40.4465C50.8878 40.7566 50.5694 40.9243 50.2086 41.0063C49.721 41.1161 49.2299 41.1101 48.7422 41.0003C48.056 40.8471 47.6307 40.403 47.4838 39.7128C47.2699 38.7089 47.2711 37.6929 47.4791 36.6878C47.6307 35.9578 48.0807 35.5077 48.8033 35.3641C49.3074 35.264 49.8115 35.2603 50.3097 35.3979C50.99 35.5861 51.3907 36.0857 51.4459 36.8072C51.4553 36.9364 51.4612 37.0667 51.4718 37.1958C51.4777 37.2658 51.4495 37.2875 51.3825 37.2875C51.0112 37.2851 50.6399 37.2839 50.2697 37.2875C50.1863 37.2875 50.1804 37.244 50.1816 37.1789C50.1851 37.0003 50.1663 36.8229 50.1229 36.6492C50.0406 36.3258 49.8444 36.1508 49.5436 36.1291C49.1488 36.1002 48.9302 36.2208 48.8021 36.5587C48.6541 36.9472 48.6482 37.3587 48.6306 37.7677C48.6247 37.9125 48.6306 38.0573 48.6306 38.2009L48.6282 38.2033Z" fill="#2A49A1"/>
<path d="M34.0028 38.1888C34.0028 37.3068 34.004 36.4247 34.0005 35.5439C34.0005 35.4401 34.0193 35.4039 34.1297 35.4051C35.2284 35.41 36.327 35.41 37.4256 35.4051C37.5349 35.4051 37.5596 35.4389 37.5561 35.5439C37.5478 35.7599 37.5455 35.9783 37.5561 36.1943C37.5619 36.3186 37.5138 36.333 37.4104 36.333C36.7582 36.3294 36.1049 36.333 35.4528 36.3282C35.3306 36.3282 35.2812 36.3499 35.2859 36.4911C35.2965 36.8278 35.2942 37.1656 35.2859 37.5023C35.2836 37.6121 35.3165 37.6386 35.4199 37.6374C36.0391 37.6326 36.6595 37.6374 37.2788 37.6326C37.3927 37.6326 37.4221 37.6664 37.4174 37.7786C37.4092 37.9994 37.4104 38.2214 37.4174 38.4434C37.4209 38.5412 37.3857 38.5629 37.2964 38.5629C36.6772 38.5593 36.0567 38.5653 35.4375 38.5581C35.3083 38.5569 35.2848 38.5979 35.2859 38.7198C35.2918 39.4184 35.2859 40.117 35.2918 40.8157C35.293 40.9472 35.253 40.9762 35.1332 40.9738C34.7995 40.9653 34.467 40.9665 34.1332 40.9738C34.0287 40.9762 33.9981 40.946 33.9993 40.8374C34.004 39.9554 34.0016 39.0733 34.0016 38.1925L34.0028 38.1888Z" fill="#2A49A1"/>
<path d="M38.4454 38.1744C38.4454 37.2971 38.4466 36.4199 38.4431 35.5439C38.4431 35.4401 38.463 35.4039 38.5735 35.4039C39.6721 35.4087 40.7708 35.4075 41.8694 35.4039C41.9669 35.4039 41.9998 35.4293 41.9963 35.5318C41.9881 35.7526 41.9892 35.9747 41.9939 36.1967C41.9963 36.3041 41.9563 36.3318 41.8529 36.3306C41.1914 36.3258 40.5287 36.3306 39.8672 36.3258C39.7508 36.3258 39.7168 36.356 39.7203 36.4766C39.7285 36.8133 39.7297 37.1511 39.7203 37.489C39.7168 37.6145 39.7567 37.6374 39.8695 37.6362C40.4887 37.6302 41.1092 37.6362 41.7284 37.6314C41.8306 37.6314 41.8682 37.6531 41.8635 37.7653C41.8541 37.9813 41.8553 38.1997 41.8635 38.4157C41.867 38.5267 41.84 38.5629 41.7249 38.5617C41.1056 38.5557 40.4852 38.5617 39.866 38.5557C39.7485 38.5557 39.7191 38.587 39.7191 38.7065C39.725 39.4148 39.7191 40.1231 39.7238 40.8314C39.7238 40.9364 39.7015 40.9726 39.5922 40.9701C39.2632 40.9629 38.9342 40.9617 38.6064 40.9701C38.4806 40.9738 38.4395 40.9412 38.4407 40.8048C38.4466 39.9276 38.4442 39.0504 38.4442 38.1744H38.4454Z" fill="#2A49A1"/>
<path d="M53.6173 38.6317C53.6173 37.9089 53.6149 37.1861 53.6196 36.4621C53.6196 36.3535 53.5914 36.3246 53.4868 36.3258C53.1108 36.333 52.7348 36.3258 52.36 36.3306C52.2648 36.3318 52.2284 36.3089 52.2319 36.2039C52.239 35.9722 52.2378 35.7418 52.2319 35.5101C52.2307 35.4268 52.2566 35.4039 52.3365 35.4051C53.6184 35.4075 54.9016 35.4075 56.1835 35.4051C56.2563 35.4051 56.2951 35.416 56.2928 35.5053C56.2869 35.7466 56.2881 35.9879 56.2928 36.2281C56.2951 36.3173 56.2552 36.3294 56.1823 36.3294C55.8016 36.327 55.4209 36.333 55.0414 36.3258C54.9286 36.3234 54.9016 36.3608 54.9016 36.4718C54.9051 37.8787 54.9039 39.2869 54.9039 40.6938C54.9039 40.8764 54.8177 40.9677 54.6454 40.9677C54.354 40.9677 54.0626 40.9617 53.7724 40.9701C53.6525 40.9738 53.6137 40.946 53.6149 40.8133C53.622 40.0857 53.6184 39.3581 53.6184 38.6293L53.6173 38.6317Z" fill="#2A49A1"/>
<path d="M50.359 29.8293C50.1334 29.8293 49.9078 29.8268 49.6834 29.8305C49.5988 29.8317 49.5577 29.8172 49.5589 29.7134C49.5647 29.2706 49.5624 28.8265 49.5589 28.3837C49.5589 28.2992 49.5777 28.2643 49.6681 28.2667C50.1934 28.2775 50.7198 28.2486 51.245 28.292C51.3237 28.298 51.4036 28.3101 51.4812 28.327C51.8266 28.4054 52.0217 28.6154 52.0381 28.9231C52.0616 29.3466 51.9042 29.6072 51.5458 29.7291C51.3625 29.7919 51.171 29.8196 50.9783 29.8232C50.7715 29.8268 50.5647 29.8232 50.359 29.8232V29.8268V29.8293Z" fill="#B8D700"/>
<path d="M40.4523 31.2422C40.739 30.4422 41.0175 29.6627 41.3101 28.8434C41.3841 29.0679 41.4452 29.2513 41.5063 29.4347C41.692 29.9946 41.8753 30.5544 42.0645 31.1131C42.0985 31.2133 42.0903 31.2446 41.9775 31.2434C41.4758 31.2386 40.9729 31.241 40.4512 31.241L40.4523 31.2422Z" fill="#B8D700"/>
</g>
<defs>
<clipPath id="clip0_2272_6105">
<rect width="56" height="28" fill="white" transform="translate(3 16)"/>
</clipPath>
</defs>
</svg>
