<svg width="62" height="62" viewBox="0 0 62 62" fill="none" xmlns="http://www.w3.org/2000/svg">
<path fill-rule="evenodd" clip-rule="evenodd" d="M6.11108 29.2778L7.86786 34.2778H8.70868L9.86487 30.4332L11.0135 34.2778H11.8543L13.6111 29.2778H12.8528L11.4339 33.2913L10.2252 29.2778H9.50446L8.29578 33.3048L6.86932 29.2778H6.11108ZM16.2185 34.3333C16.5478 34.4815 16.9286 34.5555 17.3611 34.5555C17.7935 34.5555 18.1743 34.4815 18.5036 34.3333C18.8328 34.1805 19.108 33.9792 19.3292 33.7292C19.5503 33.4745 19.7174 33.1898 19.8304 32.875C19.9434 32.5602 19.9999 32.2384 19.9999 31.9097C19.9999 31.581 19.9434 31.2616 19.8304 30.9514C19.7174 30.6366 19.5503 30.3542 19.3292 30.1042C19.108 29.8542 18.8328 29.6551 18.5036 29.5069C18.1743 29.3542 17.7935 29.2778 17.3611 29.2778C16.9286 29.2778 16.5478 29.3542 16.2185 29.5069C15.8893 29.6551 15.6141 29.8542 15.3929 30.1042C15.1718 30.3542 15.0048 30.6366 14.8917 30.9514C14.7787 31.2616 14.7222 31.581 14.7222 31.9097C14.7222 32.2384 14.7787 32.5602 14.8917 32.875C15.0048 33.1898 15.1718 33.4745 15.3929 33.7292C15.6141 33.9792 15.8893 34.1805 16.2185 34.3333ZM18.1793 33.7569C17.9434 33.868 17.6707 33.9236 17.3611 33.9236C17.0515 33.9236 16.7787 33.868 16.5428 33.7569C16.3069 33.6458 16.108 33.4954 15.9458 33.3055C15.7885 33.1157 15.6682 32.9005 15.5846 32.6597C15.501 32.419 15.4593 32.169 15.4593 31.9097C15.4593 31.6551 15.501 31.4097 15.5846 31.1736C15.6682 30.9329 15.7885 30.7176 15.9458 30.5278C16.108 30.338 16.3069 30.1875 16.5428 30.0764C16.7787 29.9653 17.0515 29.9097 17.3611 29.9097C17.6707 29.9097 17.9434 29.9653 18.1793 30.0764C18.4152 30.1875 18.6117 30.338 18.769 30.5278C18.9312 30.7176 19.054 30.9329 19.1375 31.1736C19.2211 31.4097 19.2628 31.6551 19.2628 31.9097C19.2628 32.169 19.2211 32.419 19.1375 32.6597C19.054 32.9005 18.9312 33.1157 18.769 33.3055C18.6117 33.4954 18.4152 33.6458 18.1793 33.7569ZM21.6665 34.2778V29.2778H22.3076L25.1193 33.0818V29.2778H25.8332V34.2778H25.1921L22.3804 30.4805V34.2778H21.6665ZM27.7778 29.2778V34.2778H29.5766C30.0213 34.2778 30.4085 34.2079 30.7383 34.0683C31.0681 33.9242 31.3429 33.7327 31.5627 33.494C31.7826 33.2552 31.9474 32.9872 32.0574 32.6899C32.1673 32.3926 32.2223 32.0886 32.2223 31.7778C32.2223 31.467 32.1673 31.1629 32.0574 30.8656C31.9474 30.5683 31.7826 30.3003 31.5627 30.0616C31.3429 29.8228 31.0681 29.6336 30.7383 29.494C30.4085 29.3498 30.0213 29.2778 29.5766 29.2778H27.7778ZM28.5123 29.8589H29.5466C29.8714 29.8589 30.1537 29.9129 30.3936 30.021C30.6384 30.1291 30.8407 30.2755 31.0006 30.4602C31.1655 30.6404 31.2879 30.8453 31.3679 31.0751C31.4478 31.3048 31.4878 31.539 31.4878 31.7778C31.4878 32.0165 31.4478 32.2507 31.3679 32.4805C31.2879 32.7102 31.1655 32.9174 31.0006 33.1021C30.8407 33.2823 30.6384 33.4264 30.3936 33.5345C30.1537 33.6426 29.8714 33.6967 29.5466 33.6967H28.5123V29.8589ZM34.1667 29.2778H37.7399V29.8589H34.9118V31.4399H37.3901V32.021H34.9118V33.6967H37.7778V34.2778H34.1667V29.2778ZM41.5317 29.2778H39.4443V34.2778H40.2251V32.1764H41.3006L42.7267 34.2778H43.611L42.1212 32.1156C42.408 32.0526 42.6443 31.9512 42.8303 31.8116C43.0215 31.6674 43.1649 31.5007 43.2604 31.3116C43.3561 31.1224 43.4039 30.9264 43.4039 30.7237C43.4039 30.4805 43.3348 30.2485 43.1967 30.0278C43.0587 29.8071 42.8515 29.6269 42.5753 29.4872C42.2991 29.3476 41.9512 29.2778 41.5317 29.2778ZM40.2251 29.8589H41.5237C41.768 29.8589 41.9698 29.9016 42.1292 29.9872C42.2885 30.0728 42.408 30.1832 42.4877 30.3183C42.5673 30.4489 42.6072 30.5886 42.6072 30.7372C42.6072 30.8814 42.5673 31.021 42.4877 31.1561C42.408 31.2868 42.2885 31.3949 42.1292 31.4805C41.9698 31.5661 41.768 31.6089 41.5237 31.6089H40.2251V29.8589ZM48.6111 29.2778H49.7222V34.2778H48.6111V30.3889L47.6389 30.6667L47.5 29.6944L48.6111 29.2778ZM53.75 29.2778H54.7222V32.3333H55.4166V33.3055H54.7222V34.2778H53.6111V33.3055H51.25L51.1111 32.4722L52.2222 31.0833L53.75 29.2778ZM52.7776 31.7778L53.611 30.9444V32.3333H52.222L52.7776 31.7778Z" fill="url(#paint0_linear_2272_6149)"/>
<path fill-rule="evenodd" clip-rule="evenodd" d="M61.9444 24H0V39H61.9444V24ZM61.3888 24.5556H0.555464V38.4444H61.3888V24.5556Z" fill="url(#paint1_linear_2272_6149)"/>
<defs>
<linearGradient id="paint0_linear_2272_6149" x1="6" y1="28.5" x2="56" y2="34.5" gradientUnits="userSpaceOnUse">
<stop stop-color="#CF3C4B"/>
<stop offset="0.987716" stop-color="#FF7770"/>
</linearGradient>
<linearGradient id="paint1_linear_2272_6149" x1="-1.73161e-07" y1="24.5" x2="62.5" y2="39.5" gradientUnits="userSpaceOnUse">
<stop stop-color="#AA2E3F"/>
<stop offset="1" stop-color="#FF9380"/>
</linearGradient>
</defs>
</svg>
