<svg width="63" height="62" viewBox="0 0 63 62" fill="none" xmlns="http://www.w3.org/2000/svg">
<path d="M30.2434 48.0241C36.2818 46.9399 41.2692 46.0428 41.3264 46.0304L41.4306 46.008L35.7297 39.116C32.5943 35.3254 30.0289 32.2093 30.0289 32.1914C30.0289 32.1574 35.9155 15.6816 35.9486 15.623C35.9597 15.6034 39.9657 22.6329 45.6594 32.6629C50.99 42.0532 55.3849 49.7955 55.4257 49.8681L55.5 50L37.3822 49.9976L19.2644 49.9953L30.2434 48.0241ZM8.5 45.9223C8.5 45.9126 11.1862 41.1733 14.4694 35.3904L20.4387 24.8761L27.3953 18.9425C31.2215 15.6791 34.3622 13.005 34.3748 13.0001C34.3874 12.9953 34.3371 13.124 34.263 13.2863C34.1889 13.4485 30.7896 20.8589 26.7091 29.7537L19.2899 45.9262L13.895 45.9331C10.9277 45.9369 8.5 45.932 8.5 45.9223Z" fill="#0089D6"/>
</svg>
