<svg width="63" height="62" viewBox="0 0 63 62" fill="none" xmlns="http://www.w3.org/2000/svg">
<g clip-path="url(#clip0_2267_5748)">
<path d="M19.8474 26.6747C19.8474 27.3253 19.9185 27.8527 20.0428 28.2396C20.1849 28.6264 20.3625 29.0484 20.6112 29.5055C20.7 29.6462 20.7356 29.7868 20.7356 29.9099C20.7356 30.0857 20.629 30.2615 20.3981 30.4374L19.279 31.1758C19.1191 31.2813 18.9592 31.3341 18.8171 31.3341C18.6395 31.3341 18.4619 31.2462 18.2842 31.0879C18.0356 30.8242 17.8224 30.5429 17.6448 30.2615C17.4671 29.9626 17.2895 29.6286 17.0941 29.2242C15.7086 30.8418 13.9678 31.6505 11.8717 31.6505C10.3796 31.6505 9.18951 31.2286 8.31911 30.3846C7.44872 29.5407 7.00464 28.4154 7.00464 27.0088C7.00464 25.5143 7.53753 24.3011 8.62109 23.3868C9.70464 22.4725 11.1435 22.0154 12.9731 22.0154C13.577 22.0154 14.1987 22.0681 14.856 22.156C15.5132 22.244 16.1882 22.3846 16.8987 22.5429V21.2593C16.8987 19.9231 16.6145 18.9912 16.0638 18.4462C15.4954 17.9011 14.5362 17.6374 13.1685 17.6374C12.5467 17.6374 11.9073 17.7077 11.25 17.8659C10.5928 18.0242 9.95332 18.2176 9.33161 18.4637C9.0474 18.5868 8.83424 18.6571 8.7099 18.6923C8.58556 18.7275 8.49674 18.7451 8.42569 18.7451C8.17701 18.7451 8.05266 18.5692 8.05266 18.2V17.3385C8.05266 17.0571 8.08819 16.8462 8.17701 16.7231C8.26582 16.6 8.42569 16.4769 8.67438 16.3538C9.29609 16.0374 10.0421 15.7736 10.9125 15.5626C11.7829 15.3341 12.7066 15.2286 13.6836 15.2286C15.7974 15.2286 17.3428 15.7033 18.3375 16.6527C19.3145 17.6022 19.8119 19.044 19.8119 20.978V26.6747H19.8474ZM12.6356 29.3473C13.2217 29.3473 13.8257 29.2418 14.4652 29.0308C15.1046 28.8198 15.6731 28.433 16.1527 27.9055C16.4369 27.5714 16.65 27.2022 16.7566 26.7802C16.8632 26.3582 16.9342 25.8484 16.9342 25.2505V24.5121C16.4191 24.389 15.8685 24.2835 15.3 24.2132C14.7316 24.1429 14.181 24.1077 13.6303 24.1077C12.4402 24.1077 11.5698 24.3363 10.9836 24.811C10.3974 25.2857 10.1132 25.9538 10.1132 26.833C10.1132 27.6593 10.3263 28.2747 10.7704 28.6967C11.1967 29.1363 11.8185 29.3473 12.6356 29.3473ZM26.8994 31.2462C26.5796 31.2462 26.3665 31.1934 26.2244 31.0703C26.0823 30.9648 25.9579 30.7187 25.8513 30.3846L21.677 16.7934C21.5704 16.4418 21.5171 16.2132 21.5171 16.0901C21.5171 15.8088 21.6592 15.6505 21.9435 15.6505H23.6842C24.0217 15.6505 24.2527 15.7033 24.377 15.8264C24.5191 15.9319 24.6257 16.178 24.7323 16.5121L27.7165 28.1516L30.4875 16.5121C30.5763 16.1604 30.6829 15.9319 30.825 15.8264C30.9671 15.7209 31.2158 15.6505 31.5356 15.6505H32.9566C33.2941 15.6505 33.525 15.7033 33.6671 15.8264C33.8092 15.9319 33.9336 16.178 34.0046 16.5121L36.8112 28.2923L39.8842 16.5121C39.9908 16.1604 40.1152 15.9319 40.2395 15.8264C40.3816 15.7209 40.6125 15.6505 40.9323 15.6505H42.5842C42.8685 15.6505 43.0283 15.7912 43.0283 16.0901C43.0283 16.178 43.0106 16.2659 42.9928 16.3714C42.975 16.4769 42.9395 16.6176 42.8685 16.811L38.5875 30.4022C38.481 30.7538 38.3566 30.9824 38.2145 31.0879C38.0724 31.1934 37.8415 31.2637 37.5395 31.2637H36.0119C35.6744 31.2637 35.4435 31.211 35.3013 31.0879C35.1592 30.9648 35.0349 30.7363 34.9639 30.3846L32.2106 19.044L29.475 30.367C29.3862 30.7187 29.2796 30.9473 29.1375 31.0703C28.9954 31.1934 28.7467 31.2462 28.427 31.2462H26.8994ZM49.725 31.7209C48.8013 31.7209 47.8777 31.6154 46.9895 31.4044C46.1013 31.1934 45.4086 30.9648 44.9467 30.7011C44.6625 30.5429 44.4671 30.367 44.3961 30.2088C44.325 30.0505 44.2895 29.8747 44.2895 29.7165V28.8198C44.2895 28.4505 44.4316 28.2747 44.6981 28.2747C44.8046 28.2747 44.9112 28.2923 45.0178 28.3275C45.1244 28.3626 45.2842 28.433 45.4619 28.5033C46.0658 28.767 46.7231 28.978 47.4158 29.1187C48.1264 29.2593 48.8191 29.3297 49.5296 29.3297C50.6487 29.3297 51.5191 29.1363 52.1231 28.7494C52.727 28.3626 53.0467 27.8 53.0467 27.0791C53.0467 26.5868 52.8869 26.1824 52.5671 25.8484C52.2474 25.5143 51.6435 25.2154 50.7731 24.9341L48.1974 24.1429C46.9007 23.7385 45.9415 23.1407 45.3553 22.3494C44.7691 21.5758 44.4671 20.7143 44.4671 19.8C44.4671 19.0615 44.627 18.411 44.9467 17.8484C45.2665 17.2857 45.6928 16.7934 46.2257 16.4066C46.7586 16.0022 47.3625 15.7033 48.0731 15.4923C48.7836 15.2813 49.5296 15.1934 50.3112 15.1934C50.702 15.1934 51.1106 15.211 51.5014 15.2637C51.9099 15.3165 52.2829 15.3868 52.656 15.4571C53.0112 15.5451 53.3487 15.633 53.6685 15.7385C53.9882 15.844 54.2369 15.9494 54.4145 16.0549C54.6632 16.1956 54.8408 16.3363 54.9474 16.4945C55.054 16.6352 55.1073 16.8286 55.1073 17.0747V17.9011C55.1073 18.2703 54.9652 18.4637 54.6987 18.4637C54.5566 18.4637 54.3257 18.3934 54.0237 18.2527C53.0112 17.7956 51.8744 17.567 50.6132 17.567C49.6007 17.567 48.8013 17.7253 48.2507 18.0593C47.7 18.3934 47.4158 18.9033 47.4158 19.6242C47.4158 20.1165 47.5935 20.5385 47.9487 20.8725C48.304 21.2066 48.9612 21.5407 49.9027 21.8396L52.425 22.6308C53.704 23.0352 54.6277 23.5978 55.1783 24.3187C55.729 25.0396 55.9954 25.8659 55.9954 26.7802C55.9954 27.5363 55.8356 28.222 55.5336 28.8198C55.2138 29.4176 54.7875 29.9451 54.2369 30.367C53.6862 30.8066 53.029 31.1231 52.2652 31.3516C51.4658 31.5978 50.631 31.7209 49.725 31.7209Z" fill="#252F3E"/>
<path fill-rule="evenodd" clip-rule="evenodd" d="M53.0823 40.2659C47.2383 44.5385 38.7475 46.8066 31.4468 46.8066C21.2152 46.8066 11.9962 43.0615 5.033 36.8374C4.48234 36.3451 4.97971 35.6769 5.63694 36.0637C13.1685 40.389 22.4587 43.0088 32.0685 43.0088C38.5521 43.0088 45.6751 41.6725 52.2297 38.9297C53.2067 38.4901 54.0416 39.5626 53.0823 40.2659Z" fill="#FF9900"/>
<path fill-rule="evenodd" clip-rule="evenodd" d="M55.5159 37.5231C54.7698 36.5736 50.5777 37.0659 48.677 37.2945C48.1086 37.3648 48.0198 36.8725 48.5349 36.5033C51.8744 34.1824 57.3632 34.8505 58.0027 35.6242C58.6422 36.4154 57.8251 41.8483 54.6988 44.4505C54.2192 44.8549 53.7573 44.644 53.9705 44.1165C54.681 42.3758 56.2619 38.4549 55.5159 37.5231Z" fill="#FF9900"/>
</g>
<defs>
<clipPath id="clip0_2267_5748">
<rect width="54" height="32" fill="white" transform="translate(4.5 15)"/>
</clipPath>
</defs>
</svg>
