<svg width="63" height="62" viewBox="0 0 63 62" fill="none" xmlns="http://www.w3.org/2000/svg">
<path d="M51.7355 39.9529C51.5037 39.6669 51.3856 39.3089 51.4028 38.9448V36.1881H52.316V38.8908C52.3011 38.9955 52.3097 39.1021 52.3413 39.2032C52.373 39.3043 52.4269 39.3975 52.4992 39.4763C52.5716 39.555 52.6607 39.6174 52.7604 39.6591C52.86 39.7008 52.9678 39.7208 53.0762 39.7178C53.6861 39.7178 53.9378 39.4297 53.9378 38.9248V36.1843H54.851V38.8902C54.851 39.9859 54.1718 40.4578 53.0923 40.4578C52.8427 40.4684 52.5936 40.429 52.3603 40.3422C52.127 40.2554 51.9143 40.1229 51.7355 39.9529ZM46.4493 38.2681C46.4493 36.3162 47.9364 36.0783 48.5008 36.0783C49.0653 36.0783 50.5567 36.3162 50.5567 38.2681C50.5567 40.22 49.0697 40.4589 48.5008 40.4589C47.9319 40.4589 46.4493 40.2216 46.4493 38.2681ZM47.3414 38.2681C47.3414 39.4318 48.0229 39.72 48.5019 39.72C48.981 39.72 49.6663 39.4318 49.6663 38.2681C49.6663 37.1043 48.986 36.814 48.5019 36.814C48.0179 36.814 47.3414 37.1059 47.3414 38.2681ZM37.323 38.2751C37.323 37.1432 37.9728 36.0708 39.4183 36.0767C40.7334 36.0767 41.253 36.9054 41.299 37.4778H40.4096C40.3543 37.2781 40.2315 37.1024 40.0611 36.9792C39.8906 36.856 39.6825 36.7925 39.4704 36.7989C38.83 36.7989 38.2378 37.2264 38.2378 38.2897C38.2378 39.4248 38.8782 39.7227 39.4892 39.7227C39.7474 39.7194 39.9953 39.6241 40.1863 39.4548C40.3774 39.2855 40.4982 39.0539 40.5261 38.8037H39.5314V38.1032H41.3195V40.3491H40.7224L40.6331 39.8259C40.4814 40.0307 40.28 40.1957 40.0469 40.3062C39.8139 40.4167 39.5563 40.4691 39.2974 40.4589C38.2611 40.4589 37.323 39.7394 37.323 38.2751ZM25.1205 39.0691H25.9805C25.9866 39.3021 26.1041 39.741 26.8892 39.741C27.3123 39.741 27.7847 39.6448 27.7847 39.2037C27.7847 38.8794 27.462 38.7913 27.0046 38.6875L26.5455 38.5832C25.8535 38.4275 25.1876 38.2767 25.1876 37.3594C25.1876 36.8956 25.4438 36.0783 26.8321 36.0783C28.1462 36.0783 28.4955 36.9146 28.5044 37.4232H27.6439C27.6211 37.2373 27.5496 36.7978 26.7673 36.7978C26.4268 36.7978 26.0176 36.9178 26.0176 37.2962C26.0176 37.6205 26.2949 37.6902 26.4751 37.7313L27.5208 37.9794C28.1052 38.12 28.6441 38.3518 28.6441 39.0989C28.6441 40.3502 27.33 40.4605 26.9547 40.4605C25.3906 40.4589 25.1205 39.5837 25.1205 39.0691ZM8.84006 39.9529C8.60732 39.6674 8.48907 39.3091 8.50739 38.9448V36.1881H9.41836V38.8908C9.40339 38.9955 9.41204 39.1022 9.44372 39.2034C9.47539 39.3045 9.52933 39.3977 9.60176 39.4765C9.67419 39.5552 9.76337 39.6176 9.86308 39.6593C9.96279 39.701 10.0706 39.7209 10.1791 39.7178C10.794 39.7178 11.0435 39.4297 11.0435 38.9248V36.1843H11.9567V38.8902C11.9567 39.9859 11.2769 40.4578 10.199 40.4578C9.94914 40.4687 9.69962 40.4295 9.46588 40.3426C9.23214 40.2558 9.01915 40.1232 8.84006 39.9529ZM55.8717 40.3491V36.187H57.8312C58.0125 36.1745 58.1943 36.2007 58.3641 36.2638C58.5339 36.327 58.6875 36.4254 58.8142 36.5524C58.941 36.6794 59.0377 36.8318 59.0978 36.999C59.1578 37.1662 59.1797 37.3442 59.1619 37.5205C59.1693 37.6972 59.1389 37.8734 59.0729 38.0381C59.0068 38.2028 58.9063 38.3523 58.7779 38.4772C58.6495 38.6021 58.4959 38.6996 58.3269 38.7636C58.1578 38.8276 57.9769 38.8568 57.7957 38.8491H56.7639V40.3497L55.8717 40.3491ZM56.7639 38.1297H57.5955C58.2675 38.1297 58.2675 37.6637 58.2675 37.481C58.2675 37.074 58.0347 36.9054 57.4758 36.9054H56.7639V38.1297ZM44.9029 40.3491C44.8278 40.0747 44.7961 39.7907 44.8087 39.507C44.8087 38.9383 44.7721 38.7189 44.1084 38.7189H43.1808V40.3491H42.3053V36.187H44.4755C44.6454 36.1672 44.8177 36.183 44.9809 36.2333C45.144 36.2836 45.2943 36.3671 45.4218 36.4785C45.5492 36.5898 45.6508 36.7264 45.7199 36.879C45.7889 37.0317 45.8238 37.1969 45.8222 37.3637C45.8356 37.576 45.7787 37.7868 45.6599 37.9652C45.5411 38.1436 45.3667 38.2801 45.1624 38.3546C45.5106 38.5043 45.7019 38.6313 45.7019 39.4091C45.7019 40.0194 45.7019 40.1697 45.8938 40.2383V40.3464L44.9029 40.3491ZM43.1808 38.0178H44.2343C44.7017 38.0178 44.9296 37.8621 44.9296 37.4508C44.9296 37.2302 44.8281 36.9048 44.3008 36.9048H43.1808V38.0178ZM33.8477 40.3491V36.187H34.7409V40.3491H33.8477ZM32.1643 40.3491L30.8409 38.5232L30.4217 38.9421V40.3475H29.5296V36.1854H30.4217V37.88L32.0573 36.1864H33.2145L31.4663 37.8897L33.3165 40.3497L32.1643 40.3491ZM21.551 40.3491V36.187H22.4442V39.5989H24.5738V40.3502L21.551 40.3491ZM17.428 40.3491V36.187H20.5807V36.9232H18.3052V37.7983H20.3955V38.5346H18.3052V39.6124H20.6799V40.3486L17.428 40.3491ZM12.978 40.3491V36.187H14.8675C16.3125 36.187 16.6108 37.3821 16.6108 38.1697C16.6108 39.0632 16.2487 40.3502 14.8321 40.3502L12.978 40.3491ZM13.8562 39.6302H14.7267C15.4553 39.6302 15.6992 38.9173 15.6992 38.2335C15.6992 37.0037 15.0965 36.9048 14.714 36.9048H13.8568L13.8562 39.6302ZM6.77582 40.3491L5.45234 38.5232L5.03539 38.9421V40.3475H4.14327V36.1854H5.03539V37.88L6.66937 36.1864H7.82596L6.07832 37.8891L7.92854 40.3491H6.77582ZM26.1263 31.0518L27.2275 33.5016H10.2722L8.03887 28.7373L8.04275 33.5016H4.05566V23.0578H7.31254L10.2722 27.5232V23.0578H14.3475V31.1583L17.825 23.0578H22.519L25.5857 29.8616C25.1515 28.4518 25.2887 26.9333 25.9691 25.6193C26.6494 24.3052 27.821 23.2957 29.2423 22.799C30.6636 22.3022 32.2262 22.3561 33.608 22.9495C34.9897 23.5428 36.0853 24.6305 36.6687 25.9881H32.207C31.8736 25.8449 31.5116 25.776 31.1474 25.7864C30.7832 25.7969 30.426 25.8864 30.1018 26.0484C29.7776 26.2105 29.4945 26.441 29.2733 26.7232C29.052 27.0054 28.8981 27.3322 28.8228 27.6798C28.7474 28.0273 28.7526 28.3868 28.8378 28.7322C28.923 29.0775 29.0862 29.4 29.3155 29.6761C29.5447 29.9522 29.8342 30.1749 30.163 30.3281C30.4917 30.4813 30.8513 30.5611 31.2157 30.5616C31.6992 30.5587 32.1712 30.4174 32.573 30.1552C32.9749 29.8931 33.2889 29.5216 33.4762 29.087H30.4699V27.087H42.6524C42.7259 27.0872 42.7987 27.0733 42.8667 27.0461C42.9346 27.0188 42.9964 26.9788 43.0485 26.9282C43.1006 26.8776 43.1419 26.8176 43.1701 26.7514C43.1983 26.6853 43.2129 26.6143 43.213 26.5427C43.2181 26.4731 43.2086 26.4031 43.1852 26.3372C43.1618 26.2712 43.1248 26.2105 43.0766 26.1589C43.0283 26.1073 42.9699 26.0658 42.9047 26.0369C42.8395 26.008 42.7689 25.9923 42.6973 25.9908H36.7647V23.0578H43.9249C44.3451 23.0631 44.7601 23.1496 45.1457 23.3125C45.5313 23.4754 45.8799 23.7113 46.1712 24.0066C46.4625 24.3019 46.6907 24.6507 46.8426 25.0327C46.9944 25.4147 47.067 25.8223 47.0559 26.2319C47.0622 26.7988 46.9174 27.3575 46.6355 27.8534C46.3536 28.3493 45.9444 28.7653 45.448 29.0605L46.563 30.6573L49.8271 23.0578H54.5222L59.2301 33.5016H48.5502L43.9437 33.5129L40.9186 28.9989V33.5016H36.8428V29.8605C36.5026 30.9244 35.8526 31.869 34.9718 32.5793C34.0911 33.2897 33.0176 33.7352 31.8819 33.8617C30.7462 33.9882 29.5972 33.7903 28.5748 33.2919C27.5524 32.7935 26.7006 32.0162 26.123 31.0546L26.1263 31.0518ZM50.6111 30.5589H53.8702L52.2861 27.2854L50.6111 30.5589ZM18.6096 30.5589H21.8687L20.2851 27.2854L18.6096 30.5589Z" fill="#67737A"/>
<path d="M4 35.281V34.3789H59.4456V35.281H4ZM4 21.9022V21H59.4456V21.9022H4Z" fill="#ED3E33"/>
</svg>
