<svg width="63" height="62" viewBox="0 0 63 62" fill="none" xmlns="http://www.w3.org/2000/svg">
<path d="M44.4641 40.5126C44.684 41.3247 45.8486 41.3247 46.0685 40.5126L52.3997 17.1335C52.6912 16.0571 51.8714 15 50.7451 15H46.8416C46.0663 15 45.3876 15.5152 45.187 16.2562L41.6167 29.44C41.5672 29.6229 41.5672 29.8155 41.6167 29.9983L44.4641 40.5126Z" fill="black"/>
<path d="M22.3376 29.4229C22.3871 29.6058 22.3871 29.7984 22.3376 29.9812L19.4903 40.4955C19.2704 41.3076 18.1058 41.3076 17.8858 40.4955L11.5593 17.1335C11.2678 16.0571 12.0876 15 13.2139 15H17.1174C17.8927 15 18.5713 15.5152 18.772 16.2562L22.3376 29.4229Z" fill="black"/>
<path d="M27.6744 45.6516C27.4807 46.3693 26.8253 46.8684 26.0766 46.8684H22.0819C20.9942 46.8684 20.2025 45.8445 20.484 44.8017L28.171 16.3309C28.383 15.5459 29.0998 15 29.9187 15H34.5648C35.3837 15 36.1006 15.5459 36.3125 16.3309L43.9995 44.8017C44.281 45.8445 43.4894 46.8684 42.4016 46.8684H38.407C37.6583 46.8684 37.0029 46.3693 36.8091 45.6516L33.0158 31.602C32.8036 30.8161 31.68 30.8161 31.4678 31.602L27.6744 45.6516Z" fill="black"/>
<path d="M30.839 42.6889C30.5531 42.6889 30.3451 42.4337 30.4191 42.1738L31.822 37.2455C31.9371 36.8411 32.5467 36.8411 32.6619 37.2455L34.0648 42.1738C34.1388 42.4337 33.9307 42.6889 33.6448 42.6889H30.839Z" fill="black"/>
</svg>
