<svg width="30" height="30" viewBox="0 0 30 30" fill="none" xmlns="http://www.w3.org/2000/svg">
<path d="M15 25C17.6522 25 20.1957 23.9464 22.0711 22.0711C23.9464 20.1957 25 17.6522 25 15C25 12.3478 23.9464 9.8043 22.0711 7.92893C20.1957 6.05357 17.6522 5 15 5M15 25C12.3478 25 9.8043 23.9464 7.92893 22.0711C6.05357 20.1957 5 17.6522 5 15M15 25V27.5M15 5C12.3478 5 9.8043 6.05357 7.92893 7.92893C6.05357 9.8043 5 12.3478 5 15M15 5V2.5M5 15H2.5M17.5 15C17.5 15.663 17.2366 16.2989 16.7678 16.7678C16.2989 17.2366 15.663 17.5 15 17.5C14.337 17.5 13.7011 17.2366 13.2322 16.7678C12.7634 16.2989 12.5 15.663 12.5 15C12.5 14.337 12.7634 13.7011 13.2322 13.2322C13.7011 12.7634 14.337 12.5 15 12.5C15.663 12.5 16.2989 12.7634 16.7678 13.2322C17.2366 13.7011 17.5 14.337 17.5 15ZM17.5 15H27.5M21.25 25.825L20 23.6625M13.75 12.8375L8.75 4.175M25.8252 21.25L23.6627 20M4.1748 8.75L6.33731 10M25.8252 8.75L23.6627 10M4.1748 21.25L6.33731 20M21.25 4.175L20 6.3375M13.75 17.1625L8.75 25.825" stroke="#EB4042" stroke-width="3" stroke-linecap="round" stroke-linejoin="round"/>
</svg>
