<svg width="40" height="40" viewBox="0 0 40 40" fill="none" xmlns="http://www.w3.org/2000/svg">
<path opacity="0.5" d="M34.9996 31.6665V19.9998C34.9996 11.7156 28.2839 4.99985 19.9996 4.99985V4.99985C11.7154 4.99985 4.99963 11.7156 4.99963 19.9998V31.6665" stroke="#EB4042" stroke-width="2.5" stroke-linecap="round"/>
<path d="M26.6665 24.9997C26.6665 23.1587 28.1589 21.6664 29.9998 21.6664H31.6665C33.5075 21.6664 34.9998 23.1587 34.9998 24.9997V31.6664C34.9998 33.5073 33.5075 34.9997 31.6665 34.9997H29.9998C28.1589 34.9997 26.6665 33.5073 26.6665 31.6664V24.9997Z" stroke="#EB4042" stroke-width="2.5"/>
<path d="M13.3331 24.9997C13.3331 23.1587 11.8407 21.6664 9.9998 21.6664H8.33313C6.49218 21.6664 4.9998 23.1587 4.9998 24.9997V31.6664C4.9998 33.5073 6.49218 34.9997 8.33313 34.9997H9.9998C11.8407 34.9997 13.3331 33.5073 13.3331 31.6664V24.9997Z" stroke="#EB4042" stroke-width="2.5"/>
</svg>
