<svg width="40" height="40" viewBox="0 0 40 40" fill="none" xmlns="http://www.w3.org/2000/svg">
<circle opacity="0.5" cx="5" cy="5" r="5" transform="matrix(-1 0 0 1 25 15)" stroke="#EB4042" stroke-width="2.5"/>
<path d="M27.5004 8.22917L26.8754 9.3117L26.8754 9.3117L27.5004 8.22917ZM27.5003 31.7703L26.8753 30.6877V30.6877L27.5003 31.7703ZM12.5002 31.7703L11.8752 32.8528H11.8752L12.5002 31.7703ZM12.5003 8.22917L11.8753 7.14664V7.14664L12.5003 8.22917ZM4.84411 16.1391L5.63894 15.1743L4.84411 16.1391ZM4.26051 14.5046L3.08036 14.0926L4.26051 14.5046ZM8.85316 31.2337L8.56616 30.0171L8.85316 31.2337ZM7.33832 30.8384L8.28754 30.0251L7.33832 30.8384ZM15.899 36.1584L15.5924 37.3702L15.899 36.1584ZM14.8719 34.9748L16.0898 34.6931L14.8719 34.9748ZM25.1286 34.9747L26.3465 35.2564L25.1286 34.9747ZM24.1016 36.1582L23.795 34.9464L24.1016 36.1582ZM32.6617 30.8383L31.7125 30.025L32.6617 30.8383ZM31.147 31.2336L31.4339 30.017L31.147 31.2336ZM35.7395 14.5048L34.5593 14.9168L35.7395 14.5048ZM35.1559 16.1392L34.361 15.1745L35.1559 16.1392ZM4.2605 25.4954L3.08035 25.9074L4.2605 25.4954ZM4.84411 23.8609L4.04928 22.8962L4.84411 23.8609ZM31.1467 8.76588L31.4335 9.98253L31.1467 8.76588ZM8.85347 8.76577L8.56655 9.98239L8.85347 8.76577ZM35.1559 23.8608L34.361 24.8255L35.1559 23.8608ZM35.7395 25.4952L36.9196 25.9072L35.7395 25.4952ZM24.1019 3.84189L23.7952 5.05368L24.1019 3.84189ZM23.911 5.30704C24.2874 6.93346 25.3134 8.40988 26.8754 9.3117L28.1254 7.14664C27.1881 6.6055 26.5733 5.72304 26.3466 4.74343L23.911 5.30704ZM26.8754 9.3117C28.3102 10.1401 29.9398 10.3347 31.4335 9.98253L30.8599 7.54923C29.9613 7.76105 28.9871 7.64415 28.1254 7.14664L26.8754 9.3117ZM36.9196 14.0928C36.177 11.9656 35.0452 10.0223 33.6105 8.34791L31.7121 9.97457C32.9478 11.4168 33.9211 13.0888 34.5593 14.9168L36.9196 14.0928ZM34.5833 20C34.5833 18.8344 35.1136 17.7937 35.9508 17.1039L34.361 15.1745C32.9722 16.3188 32.0833 18.0561 32.0833 20H34.5833ZM35.9508 22.8961C35.1136 22.2063 34.5833 21.1656 34.5833 20H32.0833C32.0833 21.9439 32.9722 23.6812 34.361 24.8255L35.9508 22.8961ZM33.6109 31.6516C35.0455 29.9773 36.1771 28.0341 36.9196 25.9072L34.5593 25.0832C33.9212 26.911 32.948 28.5829 31.7125 30.025L33.6109 31.6516ZM28.1253 32.8528C28.9871 32.3552 29.9614 32.2383 30.8601 32.4503L31.4339 30.017C29.94 29.6647 28.3102 29.8592 26.8753 30.6877L28.1253 32.8528ZM26.3465 35.2564C26.5731 34.2766 27.1879 33.394 28.1253 32.8528L26.8753 30.6877C25.3131 31.5896 24.287 33.0663 23.9108 34.693L26.3465 35.2564ZM19.9999 37.9167C21.5196 37.9167 22.9967 37.7272 24.4083 37.37L23.795 34.9464C22.5822 35.2533 21.3111 35.4167 19.9999 35.4167V37.9167ZM15.5924 37.3702C17.0037 37.7273 18.4806 37.9167 19.9999 37.9167V35.4167C18.6891 35.4167 17.4181 35.2533 16.2056 34.9466L15.5924 37.3702ZM11.8752 32.8528C12.8127 33.394 13.4275 34.2767 13.6541 35.2565L16.0898 34.6931C15.7136 33.0664 14.6875 31.5897 13.1252 30.6877L11.8752 32.8528ZM9.14016 32.4503C10.0389 32.2383 11.0134 32.3552 11.8752 32.8528L13.1252 30.6877C11.6901 29.8591 10.0601 29.6647 8.56616 30.0171L9.14016 32.4503ZM3.08035 25.9074C3.8229 28.0343 4.95455 29.9774 6.38909 31.6517L8.28754 30.0251C7.05196 28.583 6.07875 26.9111 5.44065 25.0834L3.08035 25.9074ZM5.4169 20C5.4169 21.1657 4.88654 22.2064 4.04928 22.8962L5.63893 24.8257C7.02789 23.6814 7.9169 21.944 7.9169 20H5.4169ZM4.04929 17.1038C4.88654 17.7936 5.4169 18.8343 5.4169 20H7.9169C7.9169 18.056 7.0279 16.3186 5.63894 15.1743L4.04929 17.1038ZM6.38958 8.34773C4.95481 10.0221 3.82299 11.9654 3.08036 14.0926L5.44065 14.9166C6.07883 13.0887 7.05218 11.4166 8.28797 9.97442L6.38958 8.34773ZM11.8753 7.14664C11.0134 7.64421 10.039 7.76108 9.1404 7.54915L8.56655 9.98239C10.0604 10.3347 11.6903 10.1402 13.1253 9.3117L11.8753 7.14664ZM13.654 4.74332C13.4273 5.72297 12.8126 6.60548 11.8753 7.14664L13.1253 9.3117C14.6873 8.40985 15.7133 6.93336 16.0897 5.30687L13.654 4.74332ZM19.9999 2.08334C18.4806 2.08334 17.0036 2.27275 15.5923 2.62987L16.2055 5.05349C17.4181 4.74668 18.689 4.58334 19.9999 4.58334V2.08334ZM24.4085 2.6301C22.9969 2.27283 21.5197 2.08334 19.9999 2.08334V4.58334C21.3111 4.58334 22.5824 4.74675 23.7952 5.05368L24.4085 2.6301ZM16.0897 5.30687C16.1157 5.19442 16.1598 5.1151 16.194 5.0735C16.2233 5.03776 16.2286 5.04765 16.2055 5.05349L15.5923 2.62987C14.4402 2.92136 13.8454 3.91628 13.654 4.74332L16.0897 5.30687ZM5.63894 15.1743C5.53746 15.0907 5.47846 15.0003 5.4548 14.9398C5.4349 14.8889 5.44955 14.8912 5.44065 14.9166L3.08036 14.0926C2.63697 15.3627 3.32396 16.5063 4.04929 17.1038L5.63894 15.1743ZM8.56616 30.0171C8.45411 30.0436 8.36365 30.0392 8.31121 30.027C8.26612 30.0165 8.27232 30.0073 8.28754 30.0251L6.38909 31.6517C7.16087 32.5525 8.3142 32.6452 9.14016 32.4503L8.56616 30.0171ZM16.2056 34.9466C16.2287 34.9524 16.2235 34.9623 16.1941 34.9265C16.1599 34.8849 16.1158 34.8056 16.0898 34.6931L13.6541 35.2565C13.8454 36.0836 14.4402 37.0787 15.5924 37.3702L16.2056 34.9466ZM23.9108 34.693C23.8848 34.8054 23.8407 34.8848 23.8065 34.9264C23.7771 34.9621 23.7719 34.9522 23.795 34.9464L24.4083 37.37C25.5604 37.0784 26.1552 36.0834 26.3465 35.2564L23.9108 34.693ZM31.7125 30.025C31.7277 30.0072 31.7339 30.0164 31.6888 30.0269C31.6364 30.0391 31.5459 30.0434 31.4339 30.017L30.8601 32.4503C31.686 32.645 32.8392 32.5523 33.6109 31.6516L31.7125 30.025ZM34.5593 14.9168C34.5504 14.8913 34.5651 14.8891 34.5452 14.9399C34.5215 15.0004 34.4625 15.0909 34.361 15.1745L35.9508 17.1039C36.676 16.5064 37.363 15.3628 36.9196 14.0928L34.5593 14.9168ZM5.44065 25.0834C5.44955 25.1089 5.4349 25.1111 5.4548 25.0602C5.47846 24.9997 5.53745 24.9093 5.63893 24.8257L4.04928 22.8962C3.32395 23.4937 2.63697 24.6374 3.08035 25.9074L5.44065 25.0834ZM31.4335 9.98253C31.5455 9.95612 31.636 9.96046 31.6884 9.97267C31.7335 9.98317 31.7273 9.99234 31.7121 9.97457L33.6105 8.34791C32.8388 7.44733 31.6857 7.35454 30.8599 7.54923L31.4335 9.98253ZM8.28797 9.97442C8.27274 9.99219 8.26654 9.98302 8.31163 9.97252C8.36406 9.96031 8.4545 9.95597 8.56655 9.98239L9.1404 7.54915C8.3145 7.35437 7.16132 7.44709 6.38958 8.34773L8.28797 9.97442ZM34.361 24.8255C34.4625 24.9091 34.5215 24.9996 34.5452 25.0601C34.5651 25.111 34.5504 25.1087 34.5593 25.0832L36.9196 25.9072C37.363 24.6372 36.676 23.4937 35.9508 22.8961L34.361 24.8255ZM26.3466 4.74343C26.1553 3.91645 25.5605 2.92162 24.4085 2.6301L23.7952 5.05368C23.7721 5.04784 23.7773 5.03796 23.8067 5.07369C23.8409 5.11529 23.885 5.1946 23.911 5.30704L26.3466 4.74343Z" fill="#EB4042"/>
</svg>
