<svg width="31" height="30" viewBox="0 0 31 30" fill="none" xmlns="http://www.w3.org/2000/svg">
<path d="M27.5065 0H4.17318C2.33984 0 0.839844 1.5 0.839844 3.33333V26.6667C0.839844 28.5017 2.33984 30 4.17318 30H15.8398V18.3333H12.5065V14.2083H15.8398V10.7917C15.8398 7.185 17.8598 4.65167 22.1165 4.65167L25.1215 4.655V8.99667H23.1265C21.4698 8.99667 20.8398 10.24 20.8398 11.3933V14.21H25.1198L24.1732 18.3333H20.8398V30H27.5065C29.3398 30 30.8398 28.5017 30.8398 26.6667V3.33333C30.8398 1.5 29.3398 0 27.5065 0Z" fill="white"/>
</svg>
