<svg width="32" height="32" viewBox="0 0 32 32" fill="none" xmlns="http://www.w3.org/2000/svg">
<path d="M5.33203 4.66663C5.33203 3.56206 6.22746 2.66663 7.33203 2.66663H13.9987C15.1033 2.66663 15.9987 3.56206 15.9987 4.66663V15.3333C15.9987 16.4379 15.1033 17.3333 13.9987 17.3333H5.33203V4.66663Z" stroke="#F6F6F7" stroke-width="3"/>
<path d="M15.9999 5.33337H24.0482C25.1379 5.33337 25.7674 6.56964 25.1265 7.45094L22.4739 11.0982C21.7939 12.0333 21.7939 13.3001 22.4739 14.2352L25.1265 17.8825C25.7674 18.7638 25.1379 20 24.0482 20H17.3332C16.5968 20 15.9999 19.4031 15.9999 18.6667V5.33337Z" stroke="#F6F6F7" stroke-width="3"/>
<path d="M5.33203 29.3334L5.33203 5.33337" stroke="#F6F6F7" stroke-width="3" stroke-linecap="round" stroke-linejoin="round"/>
</svg>
