<svg width="41" height="40" viewBox="0 0 41 40" fill="none" xmlns="http://www.w3.org/2000/svg">
<path opacity="0.5" d="M35.4997 31.6664V19.9998C35.4997 11.7155 28.7839 4.99976 20.4997 4.99976V4.99976C12.2154 4.99976 5.49966 11.7155 5.49966 19.9997V31.6664" stroke="white" stroke-width="2.5" stroke-linecap="round"/>
<path d="M27.1665 24.9996C27.1665 23.1586 28.6589 21.6663 30.4998 21.6663H32.1665C34.0075 21.6663 35.4998 23.1586 35.4998 24.9996V31.6663C35.4998 33.5072 34.0075 34.9996 32.1665 34.9996H30.4998C28.6589 34.9996 27.1665 33.5072 27.1665 31.6663V24.9996Z" stroke="white" stroke-width="2.5"/>
<path d="M13.8332 24.9996C13.8332 23.1586 12.3408 21.6663 10.4998 21.6663H8.83316C6.99221 21.6663 5.49983 23.1586 5.49983 24.9996V31.6663C5.49983 33.5072 6.99221 34.9996 8.83316 34.9996H10.4998C12.3408 34.9996 13.8332 33.5072 13.8332 31.6663V24.9996Z" stroke="white" stroke-width="2.5"/>
</svg>
