<svg width="32" height="32" viewBox="0 0 32 32" fill="none" xmlns="http://www.w3.org/2000/svg">
<path d="M26.6666 19.3333V8.66665C26.6666 6.15249 26.6666 4.89541 25.8855 4.11436C25.1045 3.33331 23.8474 3.33331 21.3332 3.33331H10.6666C8.15243 3.33331 6.89535 3.33331 6.1143 4.11436C5.33325 4.89541 5.33325 6.15249 5.33325 8.66665V19.3333" stroke="#F6F6F7" stroke-width="2.5" stroke-linecap="round" stroke-linejoin="round"/>
<path d="M10.6666 11.1914H10.8823C11.9642 11.1914 12.5051 11.1914 12.918 11.4236C13.331 11.6559 13.5167 12.0645 13.888 12.8817L14.3366 13.8691C14.5806 14.4062 14.7026 14.6747 14.8995 14.6664C15.0963 14.658 15.1825 14.3807 15.3549 13.8259L16.8976 8.8631C17.075 8.29235 17.1637 8.00698 17.3625 8C17.5613 7.99302 17.6806 8.27109 17.9192 8.82723L18.1893 9.45707C18.5486 10.2946 18.7283 10.7134 19.1451 10.9524C19.5619 11.1914 20.1127 11.1914 21.2144 11.1914H21.3333" stroke="#F6F6F7" stroke-width="2.5" stroke-linecap="round" stroke-linejoin="round"/>
<path d="M4.66345 20.6872L5.35933 19.3333H26.6024L27.3363 20.6872C29.2602 24.2359 29.7394 26.0103 29.0081 27.3384C28.2769 28.6666 26.3381 28.6666 22.4605 28.6666L9.53945 28.6666C5.66185 28.6666 3.72304 28.6666 2.99179 27.3384C2.26053 26.0103 2.73962 24.2359 4.66345 20.6872Z" stroke="#F6F6F7" stroke-width="2.5" stroke-linecap="round" stroke-linejoin="round"/>
</svg>
