<svg width="31" height="31" viewBox="0 0 31 31" fill="none" xmlns="http://www.w3.org/2000/svg">
<g clip-path="url(#clip0_1470_579)">
<path d="M0 2.20843C0 0.98832 1.01385 -0.000488281 2.26479 -0.000488281H28.5749C29.8258 -0.000488281 30.8397 0.98832 30.8397 2.20843V28.6306C30.8397 29.8507 29.8258 30.8395 28.5749 30.8395H2.26479C1.01385 30.8395 0 29.8507 0 28.6306V2.20843ZM9.52753 25.8165V11.8903H4.89965V25.8165H9.52753ZM7.21455 9.98782C8.82785 9.98782 9.83207 8.91998 9.83207 7.5823C9.80316 6.2157 8.82978 5.17678 7.24539 5.17678C5.661 5.17678 4.62595 6.21763 4.62595 7.5823C4.62595 8.91998 5.63016 9.98782 7.18371 9.98782H7.21455ZM16.6746 25.8165V18.039C16.6746 17.6226 16.7055 17.2063 16.8288 16.9095C17.1623 16.0787 17.9236 15.2171 19.2035 15.2171C20.8784 15.2171 21.5473 16.4931 21.5473 18.3667V25.8165H26.1752V17.8289C26.1752 13.5498 23.893 11.5607 20.8476 11.5607C18.392 11.5607 17.2914 12.9099 16.6746 13.8602V13.9084H16.6438C16.654 13.8923 16.6643 13.8762 16.6746 13.8602V11.8903H12.0487C12.1065 13.1971 12.0487 25.8165 12.0487 25.8165H16.6746Z" fill="white"/>
</g>
<defs>
<clipPath id="clip0_1470_579">
<rect width="30.8397" height="30.84" fill="white"/>
</clipPath>
</defs>
</svg>
