<svg width="24" height="24" viewBox="0 0 24 24" fill="none" xmlns="http://www.w3.org/2000/svg">
<g clip-path="url(#clip0_936_11653)">
<path d="M0 1.71851C0 0.769012 0.788994 -0.000488281 1.76249 -0.000488281H22.2373C23.2108 -0.000488281 23.9998 0.769012 23.9998 1.71851V22.2805C23.9998 23.23 23.2108 23.9995 22.2373 23.9995H1.76249C0.788994 23.9995 0 23.23 0 22.2805V1.71851ZM7.41444 20.0905V9.25301H3.81297V20.0905H7.41444ZM5.61446 7.77251C6.86995 7.77251 7.65144 6.94151 7.65144 5.90051C7.62894 4.83701 6.87145 4.02851 5.63846 4.02851C4.40547 4.02851 3.59997 4.83851 3.59997 5.90051C3.59997 6.94151 4.38146 7.77251 5.59046 7.77251H5.61446ZM12.9764 20.0905V14.038C12.9764 13.714 13.0004 13.39 13.0964 13.159C13.3559 12.5125 13.9484 11.842 14.9444 11.842C16.2479 11.842 16.7684 12.835 16.7684 14.293V20.0905H20.3698V13.8745C20.3698 10.5445 18.5939 8.99651 16.2239 8.99651C14.3129 8.99651 13.4564 10.0465 12.9764 10.786V10.8235H12.9524C12.9604 10.811 12.9684 10.7985 12.9764 10.786V9.25301H9.37643C9.42142 10.27 9.37643 20.0905 9.37643 20.0905H12.9764Z" fill="#F49E9F"/>
</g>
<defs>
<clipPath id="clip0_936_11653">
<rect width="23.9998" height="24" fill="white"/>
</clipPath>
</defs>
</svg>
