<svg width="32" height="32" viewBox="0 0 32 32" fill="none" xmlns="http://www.w3.org/2000/svg">
<path fill-rule="evenodd" clip-rule="evenodd" d="M16 3.83331C10.3798 3.83331 5.83334 8.34065 5.83334 13.8889C5.83334 17.3289 7.87409 20.9088 10.2457 23.6656C11.424 25.0353 12.6642 26.1783 13.7322 26.9745C14.2666 27.3729 14.7499 27.6784 15.1541 27.8819L14.4794 29.2216L15.1541 27.8819C15.5724 28.0926 15.8532 28.1666 16 28.1666C16.1468 28.1666 16.4276 28.0926 16.8459 27.8819L17.5206 29.2216L16.846 27.8819C17.2502 27.6784 17.7334 27.3729 18.2678 26.9745C19.3358 26.1783 20.576 25.0353 21.7543 23.6656C24.1259 20.9088 26.1667 17.3289 26.1667 13.8889C26.1667 8.34065 21.6202 3.83331 16 3.83331ZM2.83334 13.8889C2.83334 6.65349 8.75339 0.833313 16 0.833313C23.2466 0.833313 29.1667 6.65349 29.1667 13.8889C29.1667 18.3996 26.5708 22.6668 24.0286 25.6221C22.7202 27.143 21.321 28.4403 20.0609 29.3797C19.4331 29.8476 18.7994 30.2571 18.1953 30.5613C17.6685 30.8267 16.8699 31.1666 16 31.1666C15.1301 31.1666 14.3315 30.8267 13.8047 30.5613C13.2007 30.2571 12.5669 29.8476 11.9392 29.3797C10.6791 28.4403 9.27986 27.143 7.97147 25.6221C5.42918 22.6668 2.83334 18.3996 2.83334 13.8889Z" fill="white"/>
<circle cx="4" cy="4" r="4" transform="matrix(-1 0 0 1 20 9.33331)" stroke="white" stroke-width="3"/>
</svg>
