<svg width="38" height="38" viewBox="0 0 38 38" fill="none" xmlns="http://www.w3.org/2000/svg">
<path fill-rule="evenodd" clip-rule="evenodd" d="M19 8.51016C21.5142 8.51016 23.5523 10.5483 23.5523 13.0625C23.5523 15.5767 21.5142 17.6148 19 17.6148C16.4858 17.6148 14.4477 15.5767 14.4477 13.0625C14.4477 10.5483 16.4858 8.51016 19 8.51016ZM26.125 13.0625C26.125 9.12747 22.935 5.9375 19 5.9375C15.065 5.9375 11.875 9.12747 11.875 13.0625C11.875 16.9975 15.065 20.1875 19 20.1875C22.935 20.1875 26.125 16.9975 26.125 13.0625Z" fill="white"/>
<path fill-rule="evenodd" clip-rule="evenodd" d="M11.9322 25.4049C16.8867 23.5528 22.3009 23.5528 27.2554 25.405ZM27.2554 25.405C27.9132 25.6509 28.3521 26.303 28.3521 27.0341V29.0052C28.3521 29.9808 27.5267 30.7302 26.604 30.5923L26.604 30.5923L26.043 30.5084C26.043 30.5084 26.043 30.5084 26.043 30.5084C21.7652 29.8687 17.4223 29.8687 13.1446 30.5084C13.1446 30.5084 13.1446 30.5084 13.1446 30.5084L12.5837 30.5923L12.5836 30.5923C11.6609 30.7302 10.8354 29.9808 10.8354 29.0052V27.0341C10.8354 26.3031 11.2744 25.6509 11.9321 25.405M11.0836 22.918C16.5868 20.8607 22.6007 20.8607 28.1039 22.918L28.1039 22.918C29.7658 23.5393 30.875 25.187 30.875 27.0341V29.0052C30.875 31.5878 28.6898 33.5718 26.2472 33.2066C26.2472 33.2066 26.2472 33.2065 26.2472 33.2065L25.6863 33.1227L25.6862 33.1227C21.6451 32.5184 17.5424 32.5184 13.5014 33.1227L13.5014 33.1227L12.9404 33.2065C12.9404 33.2065 12.9404 33.2066 12.9404 33.2066C10.4978 33.5718 8.3125 31.5879 8.3125 29.0052V27.0341C8.3125 25.1869 9.42187 23.5393 11.0835 22.918L11.0836 22.918Z" fill="white"/>
<path fill-rule="evenodd" clip-rule="evenodd" d="M27.3125 9.61277C27.3125 8.89465 27.8856 8.3125 28.5925 8.3125C31.8206 8.3125 34.4375 10.9708 34.4375 14.2501C34.4375 17.5292 31.8206 20.1875 28.5925 20.1875C27.8856 20.1875 27.3125 19.6053 27.3125 18.8872C27.3125 18.1691 27.8856 17.587 28.5925 17.587C30.4067 17.587 31.8775 16.0929 31.8775 14.2501C31.8775 12.407 30.4067 10.913 28.5925 10.913C27.8856 10.913 27.3125 10.3309 27.3125 9.61277Z" fill="white"/>
<path fill-rule="evenodd" clip-rule="evenodd" d="M9.4075 10.913C7.59324 10.913 6.12251 12.4071 6.12251 14.2501C6.12251 16.0929 7.59322 17.587 9.4075 17.587C10.1144 17.587 10.6875 18.1691 10.6875 18.8872C10.6875 19.6053 10.1144 20.1875 9.4075 20.1875C6.17939 20.1875 3.5625 17.5292 3.5625 14.2501C3.5625 10.9708 6.17937 8.3125 9.4075 8.3125C10.1144 8.3125 10.6875 8.89465 10.6875 9.61277C10.6875 10.3309 10.1144 10.913 9.4075 10.913Z" fill="white"/>
<path fill-rule="evenodd" clip-rule="evenodd" d="M5.81797 21.3961C6.41374 21.2756 6.98991 21.6839 7.10489 22.3078C7.21987 22.9318 6.83012 23.5353 6.23435 23.6557C5.47189 23.8099 4.71791 24.0251 3.97909 24.3014L3.97908 24.3014C3.62266 24.4348 3.38477 24.7883 3.38477 25.1847V26.5343C3.38477 27.0524 3.82282 27.4502 4.31235 27.377L4.31239 27.377L4.69629 27.3195C5.29695 27.2297 5.85345 27.6668 5.93925 28.2959C6.02506 28.925 5.60769 29.5079 5.00703 29.5978L4.62316 29.6552C4.62315 29.6552 4.62314 29.6552 4.62312 29.6552C2.80979 29.9266 1.1875 28.4528 1.1875 26.5343V25.1847C1.1875 23.8157 2.00918 22.5946 3.24006 22.1341M5.81797 21.3961C4.94646 21.5722 4.08459 21.8182 3.24006 22.1341Z" fill="white"/>
<path fill-rule="evenodd" clip-rule="evenodd" d="M32.4434 21.3961C31.7285 21.2756 31.0371 21.6839 30.8991 22.3078C30.7612 22.9318 31.2289 23.5353 31.9438 23.6557C32.8587 23.8099 33.7635 24.0251 34.6501 24.3014L34.6501 24.3014C35.0778 24.4348 35.3633 24.7883 35.3633 25.1847V26.5343C35.3633 27.0524 34.8376 27.4502 34.2502 27.377L34.2501 27.377L33.7894 27.3195C33.0687 27.2297 32.4009 27.6668 32.2979 28.2959C32.1949 28.925 32.6958 29.5079 33.4166 29.5978L33.8772 29.6552C33.8772 29.6552 33.8772 29.6552 33.8773 29.6552C36.0533 29.9266 38 28.4528 38 26.5343V25.1847C38 23.8157 37.014 22.5946 35.5369 22.1341M32.4434 21.3961C33.4892 21.5722 34.5235 21.8182 35.5369 22.1341Z" fill="white"/>
</svg>
