<svg width="30" height="30" viewBox="0 0 30 30" fill="none" xmlns="http://www.w3.org/2000/svg">
<path fill-rule="evenodd" clip-rule="evenodd" d="M25.1093 16.4106C25.1093 16.6053 24.9514 16.7632 24.7567 16.7632H4.1809C3.98617 16.7632 3.82831 16.6053 3.82831 16.4106V13.5899C3.82831 13.3951 3.98617 13.2373 4.1809 13.2373H24.7567C24.9514 13.2373 25.1093 13.3951 25.1093 13.5899V16.4106Z" fill="#5E5F64"/>
<path fill-rule="evenodd" clip-rule="evenodd" d="M16.1033 3.87426C16.241 3.73657 16.4642 3.73657 16.6019 3.87426L27.4784 14.7508C27.6161 14.8885 27.6161 15.1117 27.4784 15.2494L16.6019 26.1259C16.4642 26.2636 16.241 26.2636 16.1033 26.1259L14.1087 24.1314C13.971 23.9937 13.971 23.7704 14.1087 23.6328L22.492 15.2494C22.6297 15.1117 22.6297 14.8885 22.492 14.7508L14.1087 6.36744C13.971 6.22975 13.971 6.0065 14.1087 5.8688L16.1033 3.87426Z" fill="#5E5F64"/>
</svg>
