<svg width="30" height="30" viewBox="0 0 30 30" fill="none" xmlns="http://www.w3.org/2000/svg">
<g clip-path="url(#clip0_1325_4516)">
<path d="M18.75 6.25002L23.75 11.25M16.2498 8.75L10.8748 3.375C10.3102 2.81319 9.54619 2.4978 8.74975 2.4978C7.95331 2.4978 7.18928 2.81319 6.62475 3.375L3.37475 6.625C2.81295 7.18953 2.49756 7.95356 2.49756 8.75C2.49756 9.54644 2.81295 10.3105 3.37475 10.875L8.74975 16.25M10 7.50002L12.5 5.00002M22.5 20L25 17.5M21.25 13.75L26.625 19.125C27.8 20.3 27.8 22.2 26.625 23.375L23.375 26.625C22.2 27.8 20.3 27.8 19.125 26.625L13.75 21.25M2.5 27.5L9.375 25.625L26.4625 8.53753C27.1255 7.87449 27.498 6.97521 27.498 6.03753C27.498 5.09985 27.1255 4.20057 26.4625 3.53753C25.7995 2.87449 24.9002 2.502 23.9625 2.502C23.0248 2.502 22.1255 2.87449 21.4625 3.53753L4.375 20.625L2.5 27.5Z" stroke="#EB4042" stroke-width="3" stroke-linecap="round" stroke-linejoin="round"/>
</g>
<defs>
<clipPath id="clip0_1325_4516">
<rect width="30" height="30" fill="white"/>
</clipPath>
</defs>
</svg>
