<svg width="40" height="40" viewBox="0 0 40 40" fill="none" xmlns="http://www.w3.org/2000/svg">
<path d="M31.7701 34.9489C28.5129 38.2061 20.1714 35.1455 13.1388 28.1129C6.10621 21.0803 3.04565 12.7388 6.30284 9.48163L8.44745 7.33701C9.928 5.85647 12.3676 5.89561 13.8964 7.42443L17.2182 10.7462C18.747 12.2751 18.7862 14.7146 17.3056 16.1952L16.845 16.6558C16.0456 17.4552 15.9674 18.7447 16.7102 19.6448C17.4266 20.513 18.199 21.3778 19.0365 22.2152C19.8739 23.0527 20.7387 23.8251 21.6069 24.5415C22.507 25.2843 23.7965 25.2061 24.5959 24.4067L25.0565 23.9461C26.5371 22.4655 28.9766 22.5047 30.5055 24.0335L33.8273 27.3553C35.3561 28.8841 35.3952 31.3237 33.9147 32.8043L31.7701 34.9489Z" stroke="#EB4042" stroke-width="2.5"/>
<path opacity="0.3" d="M29.3772 16.2514C28.9706 15.2594 28.3645 14.33 27.5591 13.5246C26.7991 12.7646 25.9288 12.1822 24.9997 11.7772" stroke="#EB4042" stroke-width="2.5" stroke-linecap="round"/>
<path opacity="0.3" d="M24.9998 6.10568C27.2242 6.91152 29.3112 8.20609 31.0945 9.98941C32.9226 11.8175 34.2371 13.9647 35.038 16.2519" stroke="#EB4042" stroke-width="2.5" stroke-linecap="round"/>
</svg>
