<svg width="30" height="30" viewBox="0 0 30 30" fill="none" xmlns="http://www.w3.org/2000/svg">
<path fill-rule="evenodd" clip-rule="evenodd" d="M4.89074 13.5895C4.89075 13.3948 5.0486 13.2369 5.24333 13.2369L25.8192 13.2369C26.0139 13.2369 26.1717 13.3948 26.1717 13.5895L26.1717 16.4102C26.1717 16.605 26.0139 16.7628 25.8192 16.7628L5.24333 16.7628C5.0486 16.7628 4.89075 16.605 4.89074 16.4102V13.5895Z" fill="#5E5F64"/>
<path fill-rule="evenodd" clip-rule="evenodd" d="M13.8968 26.1257C13.7591 26.2634 13.5358 26.2634 13.3981 26.1257L2.52162 15.2492C2.38393 15.1115 2.38393 14.8883 2.52162 14.7506L13.3981 3.87407C13.5358 3.73637 13.7591 3.73637 13.8968 3.87407L15.8913 5.86861C16.029 6.0063 16.029 6.22955 15.8913 6.36725L7.50798 14.7506C7.37029 14.8883 7.37029 15.1115 7.50798 15.2492L15.8913 23.6325C16.029 23.7702 16.029 23.9935 15.8913 24.1311L13.8968 26.1257Z" fill="#5E5F64"/>
</svg>
