<svg width="30" height="30" viewBox="0 0 30 30" fill="none" xmlns="http://www.w3.org/2000/svg">
<path d="M3.75 2.5V10M3.75 10H11.25M3.75 10L7.5 6.62498C9.11806 5.17774 11.1203 4.22956 13.2652 3.8948C15.4101 3.56003 17.606 3.85299 19.5881 4.73834C21.5702 5.62368 23.2539 7.0636 24.4359 8.8844C25.618 10.7052 26.248 12.8291 26.25 15M26.25 27.5V20M26.25 20H18.75M26.25 20L22.5 23.375C20.8819 24.8222 18.8797 25.7704 16.7348 26.1052C14.5899 26.4399 12.394 26.147 10.4119 25.2616C8.42977 24.3763 6.74614 22.9364 5.56407 21.1156C4.382 19.2948 3.75198 17.1709 3.75 15M16.25 15C16.25 15.6904 15.6904 16.25 15 16.25C14.3096 16.25 13.75 15.6904 13.75 15C13.75 14.3096 14.3096 13.75 15 13.75C15.6904 13.75 16.25 14.3096 16.25 15Z" stroke="#EB4042" stroke-width="3" stroke-linecap="round" stroke-linejoin="round"/>
</svg>
