<svg width="40" height="40" viewBox="0 0 40 40" fill="none" xmlns="http://www.w3.org/2000/svg">
<path d="M9.88214 30.1869L5.1681 34.9009M30.506 21.3481C27.1808 24.9334 21.8722 27.8294 18.9847 29.245C17.7668 29.8421 16.3258 29.5596 15.3667 28.6005L11.4686 24.7024C10.5094 23.7432 10.227 22.3023 10.8241 21.0843C12.2396 18.1969 15.1356 12.8883 18.7209 9.56303C22.7174 5.85643 29.0466 4.47773 32.9485 3.96741C34.8242 3.72209 36.347 5.24481 36.1016 7.12051C35.5913 11.0225 34.2126 17.3517 30.506 21.3481Z" stroke="#EB4042" stroke-width="2.5" stroke-linecap="round"/>
<path opacity="0.5" d="M10.7658 31.0705C11.2539 30.5824 11.2539 29.7909 10.7658 29.3028C10.2776 28.8146 9.48616 28.8146 8.99801 29.3028L10.7658 31.0705ZM4.28396 34.0168C3.79581 34.505 3.79581 35.2964 4.28396 35.7846C4.77212 36.2727 5.56357 36.2727 6.05173 35.7846L4.28396 34.0168ZM17.6601 35.1364L18.8975 34.9596L18.8975 34.9596L17.6601 35.1364ZM26.2632 29.3617L27.5006 29.1849L26.2632 29.3617ZM4.93211 22.4085L5.10889 21.1711L5.10888 21.1711L4.93211 22.4085ZM10.7068 13.8054L10.53 15.0428L10.53 15.0428L10.7068 13.8054ZM8.99801 29.3028L4.28396 34.0168L6.05173 35.7846L10.7658 31.0705L8.99801 29.3028ZM24.9079 29.892L19.6046 35.1953L21.3724 36.9631L26.6757 31.6598L24.9079 29.892ZM18.8975 34.9596L18.1904 30.0099L15.7155 30.3634L16.4226 35.3132L18.8975 34.9596ZM24.5544 26.2387L25.0258 29.5385L27.5006 29.1849L27.0292 25.8851L24.5544 26.2387ZM19.6046 35.1953C19.3618 35.4381 18.9461 35.2995 18.8975 34.9596L16.4226 35.3132C16.7625 37.6925 19.6729 38.6626 21.3724 36.9631L19.6046 35.1953ZM26.6757 31.6598C27.3248 31.0107 27.6305 30.0937 27.5006 29.1849L25.0258 29.5385C25.0443 29.6683 25.0006 29.7993 24.9079 29.892L26.6757 31.6598ZM8.40872 13.3929L3.10542 18.6962L4.87318 20.464L10.1765 15.1607L8.40872 13.3929ZM4.75533 23.646L9.70508 24.3531L10.0586 21.8782L5.10889 21.1711L4.75533 23.646ZM14.1834 13.0394L10.8836 12.568L10.53 15.0428L13.8299 15.5142L14.1834 13.0394ZM3.10542 18.6962C1.40591 20.3957 2.37602 23.3061 4.75533 23.646L5.10888 21.1711C4.76898 21.1225 4.6304 20.7068 4.87318 20.464L3.10542 18.6962ZM10.1765 15.1607C10.2692 15.0679 10.4002 15.0243 10.53 15.0428L10.8836 12.568C9.97477 12.4381 9.05787 12.7438 8.40872 13.3929L10.1765 15.1607Z" fill="#EB4042"/>
<path opacity="0.5" d="M6.34595 26.6512L3.98892 29.0082M13.417 33.7223L11.06 36.0793" stroke="#EB4042" stroke-width="2.5" stroke-linecap="round"/>
<path opacity="0.3" d="M12.8279 17.8125L22.256 27.2406" stroke="#EB4042" stroke-width="2.5" stroke-linecap="round"/>
<path opacity="0.5" d="M22.8456 17.2232C21.5439 15.9215 21.5439 13.8109 22.8456 12.5092C24.1474 11.2074 26.2579 11.2074 27.5597 12.5092C28.8614 13.8109 28.8614 15.9215 27.5597 17.2232C26.2579 18.525 24.1474 18.525 22.8456 17.2232Z" stroke="#EB4042" stroke-width="2.5"/>
</svg>
