<svg width="31" height="30" viewBox="0 0 31 30" fill="none" xmlns="http://www.w3.org/2000/svg">
<g clip-path="url(#clip0_2587_154)">
<path d="M15.8398 0C24.1327 0 30.8398 6.70714 30.8398 15C30.8398 23.2929 24.1327 30 15.8398 30C7.54699 30 0.839844 23.2929 0.839844 15C0.839844 6.70714 7.54699 0 15.8398 0ZM13.097 22.9071C19.7398 22.9071 23.3827 17.4 23.3827 12.6214V12.15C24.0898 11.6357 24.7113 10.9929 25.1827 10.2643C24.5398 10.5429 23.8327 10.7357 23.1041 10.8429C23.8541 10.3929 24.4327 9.68571 24.6898 8.85C23.9827 9.25714 23.2113 9.55714 22.397 9.72857C21.7327 9.02143 20.7898 8.59286 19.7613 8.59286C17.7684 8.59286 16.1398 10.2214 16.1398 12.2143C16.1398 12.4929 16.1613 12.7714 16.247 13.0286C13.247 12.8786 10.5684 11.4429 8.78984 9.25714C8.48984 9.79286 8.29699 10.4143 8.29699 11.0786C8.29699 12.3214 8.93984 13.4357 9.90413 14.0786C9.30413 14.0786 8.74699 13.9071 8.27556 13.6286V13.6714C8.27556 15.4286 9.51842 16.8857 11.1684 17.2286C10.8684 17.3143 10.547 17.3571 10.2256 17.3571C9.98984 17.3571 9.77556 17.3357 9.53984 17.2929C9.98984 18.7286 11.3398 19.7786 12.9041 19.8C11.6613 20.7643 10.097 21.3429 8.40413 21.3429C8.10413 21.3429 7.82556 21.3429 7.54699 21.3C9.1327 22.3286 11.0398 22.9286 13.0756 22.9286" fill="white"/>
</g>
<defs>
<clipPath id="clip0_2587_154">
<rect width="30" height="30" fill="white" transform="translate(0.839844)"/>
</clipPath>
</defs>
</svg>
