<svg width="63" height="62" viewBox="0 0 63 62" fill="none" xmlns="http://www.w3.org/2000/svg">
<path fill-rule="evenodd" clip-rule="evenodd" d="M24.8961 7.5261C26.8504 6.43457 29.1025 5.8125 31.5 5.8125C33.8975 5.8125 36.1496 6.43457 38.1039 7.5261L39.5337 6.09624C39.9121 5.71792 40.5254 5.71792 40.9038 6.09624C41.2821 6.47456 41.2821 7.08794 40.9038 7.46626L39.756 8.61403C42.9827 11.0933 45.0625 14.9913 45.0625 19.375H17.9375C17.9375 14.9913 20.0173 11.0933 23.244 8.61403L22.0962 7.46626C21.7179 7.08794 21.7179 6.47456 22.0962 6.09624C22.4746 5.71792 23.0879 5.71792 23.4663 6.09624L24.8961 7.5261ZM27.625 13.5625C27.625 14.6326 26.7576 15.5 25.6875 15.5C24.6174 15.5 23.75 14.6326 23.75 13.5625C23.75 12.4924 24.6174 11.625 25.6875 11.625C26.7576 11.625 27.625 12.4924 27.625 13.5625ZM37.3125 15.5C38.3826 15.5 39.25 14.6326 39.25 13.5625C39.25 12.4924 38.3826 11.625 37.3125 11.625C36.2424 11.625 35.375 12.4924 35.375 13.5625C35.375 14.6326 36.2424 15.5 37.3125 15.5Z" fill="#DCDFEC"/>
<path d="M10.1875 24.2188C10.1875 22.6137 11.4887 21.3125 13.0938 21.3125C14.6988 21.3125 16 22.6137 16 24.2188V35.8438C16 37.4488 14.6988 38.75 13.0938 38.75C11.4887 38.75 10.1875 37.4488 10.1875 35.8438V24.2188Z" fill="#DCDFEC"/>
<path d="M23.75 46.5V53.2812C23.75 54.8863 25.0512 56.1875 26.6562 56.1875C28.2613 56.1875 29.5625 54.8863 29.5625 53.2812V46.5H33.4375V53.2812C33.4375 54.8863 34.7387 56.1875 36.3438 56.1875C37.9488 56.1875 39.25 54.8863 39.25 53.2812V46.5H41.1875C43.3276 46.5 45.0625 44.7651 45.0625 42.625V21.3125H17.9375V42.625C17.9375 44.7651 19.6724 46.5 21.8125 46.5H23.75Z" fill="#DCDFEC"/>
<path d="M47 24.2188C47 22.6137 48.3012 21.3125 49.9062 21.3125C51.5113 21.3125 52.8125 22.6137 52.8125 24.2188V35.8438C52.8125 37.4488 51.5113 38.75 49.9062 38.75C48.3012 38.75 47 37.4488 47 35.8438V24.2188Z" fill="#DCDFEC"/>
</svg>
