<svg width="63" height="62" viewBox="0 0 63 62" fill="none" xmlns="http://www.w3.org/2000/svg">
<path d="M58.625 31C58.625 45.973 46.4866 58.125 31.5 58.125C16.5134 58.125 4.375 45.973 4.375 31C4.375 16.0134 16.5134 3.875 31.5 3.875C46.4866 3.875 58.625 16.0134 58.625 31Z" fill="#283544"/>
<path d="M14.2291 40.3763H17.1917V26.6296H14.2291V40.3763ZM15.7044 24.827C16.6206 24.827 17.3583 24.0489 17.3583 23.0762C17.3583 22.0776 16.6206 21.3125 15.7044 21.3125C14.8002 21.3125 14.0625 22.0776 14.0625 23.0762C14.0625 24.0489 14.8002 24.827 15.7044 24.827Z" fill="white"/>
<path d="M27.543 21.3514C22.5339 21.3514 19.3928 25.0734 19.3928 31.0259C19.3928 36.9785 22.5339 40.6875 27.543 40.6875C32.5401 40.6875 35.6812 36.9785 35.6812 31.0259C35.6812 25.0734 32.5401 21.3514 27.543 21.3514ZM27.543 24.2045C30.6008 24.2045 32.552 26.8501 32.552 31.0259C32.552 35.1888 30.6008 37.8344 27.543 37.8344C24.4733 37.8344 22.5339 35.1888 22.5339 31.0259C22.5339 26.8501 24.4733 24.2045 27.543 24.2045Z" fill="white"/>
<path d="M37.4302 35.111C37.5611 38.5607 40.1549 40.6875 44.105 40.6875C48.2574 40.6875 50.875 38.4569 50.875 34.9035C50.875 32.1153 49.3996 30.5461 45.9135 29.6772L43.9385 29.1844C41.8325 28.6397 40.9639 27.9135 40.9639 26.6685C40.9639 25.1123 42.2727 24.0748 44.2121 24.0748C46.1753 24.0748 47.5198 25.1253 47.6625 26.876H50.5895C50.5181 23.582 48.0195 21.3514 44.2359 21.3514C40.4999 21.3514 37.8467 23.595 37.8467 26.9149C37.8467 29.5864 39.3458 31.2464 42.5107 32.0375L44.7356 32.6081C46.9011 33.1657 47.7815 33.9439 47.7815 35.2926C47.7815 36.8488 46.3419 37.9641 44.2716 37.9641C42.1775 37.9641 40.5951 36.8358 40.4047 35.111H37.4302Z" fill="white"/>
</svg>
