<svg width="63" height="62" viewBox="0 0 63 62" fill="none" xmlns="http://www.w3.org/2000/svg">
<path d="M36.6903 25.1408C36.6903 22.3616 34.3667 20.1084 31.5 20.1084C28.6336 20.1084 26.3097 22.3616 26.3097 25.1408C26.3097 27.9203 28.6336 30.1735 31.5 30.1735C34.3667 30.1735 36.6903 27.9203 36.6903 25.1408Z" fill="#53C1DE"/>
<path fill-rule="evenodd" clip-rule="evenodd" d="M48.357 15.7978C49.4531 11.4793 50.8309 3.47099 45.9739 0.755936C41.1397 -1.94729 34.8489 3.23257 31.527 6.34179C28.2148 3.26356 21.7473 -1.89417 16.8944 0.829513C12.062 3.5418 13.5522 11.4173 14.6726 15.7629C10.1649 17.0043 2.4375 19.678 2.4375 25.1408C2.4375 30.5881 10.1568 33.497 14.6379 34.7372C13.5134 39.1069 12.0978 46.8699 16.9363 49.5761C21.8072 52.2993 28.2547 47.2643 31.6073 44.1212C34.9504 47.2486 41.1809 52.3165 46.0161 49.6028C50.8666 46.8803 49.6032 38.9794 48.4827 34.6085C52.8266 33.3657 60.5625 30.5201 60.5625 25.1408C60.5625 19.7305 52.7938 17.035 48.357 15.7978ZM47.8065 32.2922C47.0708 30.0343 46.0778 27.6332 44.8631 25.1528C46.0225 22.731 46.9769 20.3608 47.692 18.1173C50.9445 19.0316 58.0796 21.1213 58.0796 25.1408C58.0796 29.1981 51.2327 31.3075 47.8065 32.2922ZM44.7718 47.5192C41.1643 49.5438 35.8054 44.6974 33.3364 42.3942C34.9743 40.6573 36.6111 38.6381 38.2086 36.3958C41.0187 36.1542 43.6734 35.7588 46.0809 35.2194C46.8695 38.311 48.3954 45.4853 44.7718 47.5192ZM18.177 47.4902C14.569 45.4732 16.2181 38.5458 17.0454 35.3271C19.4262 35.8377 22.0616 36.205 24.8784 36.4265C26.4864 38.6206 28.1705 40.6374 29.8678 42.4035C27.7708 44.3702 21.8019 49.5167 18.177 47.4902ZM4.92038 25.1408C4.92038 21.0683 12.0128 18.9939 15.3394 18.0819C16.0669 20.3758 17.021 22.7741 18.1724 25.1994C17.0061 27.6609 16.0383 30.0974 15.3041 32.4182C12.1322 31.5379 4.92038 29.2158 4.92038 25.1408ZM18.1384 2.91311C21.7612 0.879942 27.3823 5.83154 29.787 8.06025C28.0985 9.81837 26.4298 11.8199 24.8357 14.0013C22.102 14.2469 19.4851 14.6415 17.0794 15.17C16.1768 11.6651 14.5196 4.94409 18.1384 2.91311ZM39.9848 16.6181C41.8395 16.8451 43.6163 17.1469 45.2847 17.5163C44.7839 19.0728 44.1596 20.7005 43.4244 22.3691C42.3585 20.4082 41.2144 18.4869 39.9848 16.6181ZM31.5278 9.7807C32.673 10.9836 33.8201 12.327 34.9483 13.7843C32.6596 13.6794 30.3672 13.6789 28.0784 13.7828C29.2077 12.3389 30.3645 10.9976 31.5278 9.7807ZM19.597 22.3673C18.8739 20.7045 18.2552 19.0696 17.75 17.4908C19.4084 17.1309 21.1769 16.8369 23.0196 16.6136C21.7866 18.4783 20.6444 20.3989 19.597 22.3673ZM23.0726 33.8399C21.169 33.6338 19.3737 33.3547 17.7158 33.0048C18.229 31.3981 18.8613 29.728 19.5998 28.0295C20.6617 30.0182 21.8212 31.9576 23.0726 33.8399ZM31.5965 40.671C30.4196 39.4397 29.2458 38.0779 28.0993 36.6131C30.4011 36.7008 32.7073 36.701 35.0088 36.6014C33.8769 38.0928 32.734 39.4566 31.5965 40.671ZM43.448 27.943C44.2249 29.6599 44.8798 31.321 45.4 32.9006C43.7145 33.2734 41.8951 33.5737 39.9779 33.7967C41.2166 31.8927 42.3788 29.9414 43.448 27.943ZM36.8228 34.0885C33.3021 34.3324 29.7593 34.3298 26.2374 34.1085C24.2361 31.2741 22.4547 28.2932 20.9169 25.1987C22.4471 22.1105 24.2157 19.1356 26.2075 16.3056C29.7321 16.0473 33.2783 16.0467 36.8028 16.3071C38.7774 19.1369 40.5433 22.1041 42.1091 25.1645C40.5619 28.2512 38.7841 31.2321 36.8228 34.0885ZM44.7337 2.84153C48.3574 4.86804 46.7444 12.0653 45.9528 15.195C43.5414 14.6555 40.9227 14.2539 38.181 14.0045C36.5838 11.7995 34.929 9.79442 33.2678 8.059C35.7035 5.78229 41.145 0.834845 44.7337 2.84153Z" fill="#53C1DE"/>
<path d="M4.53689 61.9037C4.46628 61.9037 4.41172 61.8845 4.3732 61.8459C4.33469 61.801 4.31543 61.7464 4.31543 61.6823V55.3948C4.31543 55.3242 4.33469 55.2696 4.3732 55.2311C4.41172 55.1862 4.46628 55.1637 4.53689 55.1637H6.88627C7.61163 55.1637 8.18613 55.3338 8.60979 55.674C9.03345 56.0142 9.24528 56.5181 9.24528 57.1857C9.24528 57.68 9.12011 58.0844 8.86977 58.3989C8.62584 58.707 8.29205 58.9221 7.86839 59.044L9.3512 61.6052C9.37045 61.6437 9.38008 61.679 9.38008 61.7111C9.38008 61.7625 9.35762 61.8074 9.31268 61.8459C9.27417 61.8845 9.22923 61.9037 9.17788 61.9037H8.71571C8.60658 61.9037 8.52635 61.8748 8.47499 61.8171C8.42364 61.7593 8.37871 61.7015 8.34019 61.6437L6.94404 59.1981H5.25903V61.6823C5.25903 61.7464 5.23657 61.801 5.19163 61.8459C5.15312 61.8845 5.09856 61.9037 5.02795 61.9037H4.53689ZM5.25903 58.3796H6.84776C7.32919 58.3796 7.68866 58.2801 7.92616 58.0812C8.16367 57.8757 8.28242 57.574 8.28242 57.1761C8.28242 56.7845 8.16367 56.486 7.92616 56.2806C7.69507 56.0752 7.33561 55.9725 6.84776 55.9725H5.25903V58.3796Z" fill="#53C1DE"/>
<path d="M12.2438 62C11.5826 62 11.0562 61.7978 10.6647 61.3934C10.2731 60.9826 10.0581 60.4241 10.0196 59.718C10.0131 59.6346 10.0099 59.5287 10.0099 59.4003C10.0099 59.2655 10.0131 59.1564 10.0196 59.0729C10.0452 58.6171 10.1511 58.2192 10.3373 57.879C10.5235 57.5323 10.777 57.2659 11.098 57.0798C11.4253 56.8936 11.8073 56.8005 12.2438 56.8005C12.7316 56.8005 13.1392 56.9033 13.4666 57.1087C13.8004 57.3141 14.0539 57.6061 14.2273 57.9849C14.4006 58.3636 14.4872 58.8065 14.4872 59.3136V59.4773C14.4872 59.5479 14.4648 59.6025 14.4198 59.641C14.3813 59.6795 14.33 59.6988 14.2658 59.6988H10.9343C10.9343 59.7052 10.9343 59.718 10.9343 59.7373C10.9343 59.7565 10.9343 59.7726 10.9343 59.7854C10.9471 60.0486 11.0049 60.2957 11.1076 60.5268C11.2103 60.7515 11.3579 60.9344 11.5505 61.0757C11.7431 61.2169 11.9742 61.2875 12.2438 61.2875C12.4749 61.2875 12.6674 61.2522 12.8215 61.1816C12.9755 61.111 13.1007 61.0339 13.197 60.9505C13.2933 60.8606 13.3575 60.7932 13.3896 60.7483C13.4473 60.6648 13.4923 60.6167 13.5244 60.6039C13.5565 60.5846 13.6078 60.575 13.6784 60.575H14.1406C14.2048 60.575 14.2562 60.5942 14.2947 60.6327C14.3396 60.6648 14.3589 60.713 14.3524 60.7772C14.346 60.8735 14.2947 60.9922 14.1984 61.1334C14.1021 61.2682 13.9641 61.403 13.7843 61.5378C13.6046 61.6726 13.3864 61.785 13.1296 61.8748C12.8728 61.9583 12.5776 62 12.2438 62ZM10.9343 59.0344H13.5725V59.0055C13.5725 58.7166 13.518 58.4599 13.4088 58.2352C13.3061 58.0105 13.1553 57.834 12.9563 57.7056C12.7573 57.5708 12.5198 57.5034 12.2438 57.5034C11.9677 57.5034 11.7302 57.5708 11.5313 57.7056C11.3387 57.834 11.191 58.0105 11.0883 58.2352C10.9856 58.4599 10.9343 58.7166 10.9343 59.0055V59.0344Z" fill="#53C1DE"/>
<path d="M16.8421 62C16.5212 62 16.2291 61.9358 15.9659 61.8074C15.7027 61.679 15.4909 61.5057 15.3304 61.2875C15.1699 61.0692 15.0897 60.8221 15.0897 60.5461C15.0897 60.1032 15.2694 59.7501 15.6289 59.4869C15.9884 59.2238 16.457 59.0504 17.0347 58.967L18.4693 58.7648V58.4856C18.4693 58.1774 18.3795 57.9367 18.1997 57.7634C18.0264 57.5901 17.7408 57.5034 17.3428 57.5034C17.0539 57.5034 16.8196 57.5612 16.6399 57.6768C16.4666 57.7923 16.3446 57.9399 16.274 58.1197C16.2355 58.216 16.1681 58.2641 16.0718 58.2641H15.6385C15.5679 58.2641 15.5134 58.2448 15.4748 58.2063C15.4428 58.1614 15.4267 58.11 15.4267 58.0523C15.4267 57.956 15.462 57.8372 15.5326 57.696C15.6096 57.5548 15.7252 57.4168 15.8792 57.282C16.0333 57.1472 16.2291 57.0348 16.4666 56.945C16.7105 56.8487 17.0058 56.8005 17.3524 56.8005C17.7376 56.8005 18.0617 56.8519 18.3249 56.9546C18.5881 57.0509 18.7935 57.1825 18.9411 57.3494C19.0952 57.5163 19.2043 57.7056 19.2685 57.9175C19.3391 58.1293 19.3744 58.3443 19.3744 58.5626V61.6823C19.3744 61.7464 19.352 61.801 19.307 61.8459C19.2685 61.8845 19.2172 61.9037 19.153 61.9037H18.7101C18.6395 61.9037 18.5849 61.8845 18.5464 61.8459C18.5079 61.801 18.4886 61.7464 18.4886 61.6823V61.2682C18.4052 61.3838 18.2928 61.4993 18.1516 61.6149C18.0104 61.724 17.8339 61.8171 17.622 61.8941C17.4102 61.9647 17.1502 62 16.8421 62ZM17.0443 61.2779C17.3075 61.2779 17.5482 61.2233 17.7665 61.1142C17.9847 60.9986 18.1548 60.8221 18.2768 60.5846C18.4052 60.3471 18.4693 60.0486 18.4693 59.6891V59.4195L17.3524 59.5832C16.8967 59.6474 16.5533 59.7565 16.3222 59.9106C16.0911 60.0582 15.9755 60.2476 15.9755 60.4787C15.9755 60.6584 16.0269 60.8093 16.1296 60.9312C16.2387 61.0468 16.3735 61.1334 16.534 61.1912C16.7009 61.249 16.871 61.2779 17.0443 61.2779Z" fill="#53C1DE"/>
<path d="M22.5881 62C22.1323 62 21.7375 61.9133 21.4037 61.74C21.0764 61.5603 20.8228 61.3067 20.6431 60.9794C20.4633 60.6456 20.3671 60.2476 20.3542 59.7854C20.3478 59.6891 20.3446 59.5608 20.3446 59.4003C20.3446 59.2398 20.3478 59.1114 20.3542 59.0151C20.3671 58.553 20.4633 58.1582 20.6431 57.8308C20.8228 57.497 21.0764 57.2435 21.4037 57.0702C21.7375 56.8904 22.1323 56.8005 22.5881 56.8005C22.9604 56.8005 23.2781 56.8519 23.5413 56.9546C23.8109 57.0573 24.0324 57.1889 24.2057 57.3494C24.379 57.5099 24.5074 57.6832 24.5908 57.8693C24.6807 58.0555 24.7288 58.232 24.7352 58.3989C24.7417 58.4631 24.7224 58.5144 24.6775 58.553C24.6325 58.5915 24.578 58.6107 24.5138 58.6107H24.0516C23.9874 58.6107 23.9393 58.5979 23.9072 58.5722C23.8751 58.5401 23.843 58.4888 23.8109 58.4182C23.6954 58.1036 23.5381 57.8822 23.3391 57.7538C23.1401 57.6254 22.893 57.5612 22.5977 57.5612C22.2125 57.5612 21.898 57.68 21.6541 57.9175C21.4166 58.155 21.2882 58.5369 21.2689 59.0633C21.2625 59.2944 21.2625 59.519 21.2689 59.7373C21.2882 60.2701 21.4166 60.6552 21.6541 60.8927C21.898 61.1238 22.2125 61.2393 22.5977 61.2393C22.893 61.2393 23.1401 61.1751 23.3391 61.0468C23.5381 60.9184 23.6954 60.6969 23.8109 60.3824C23.843 60.3118 23.8751 60.2636 23.9072 60.238C23.9393 60.2059 23.9874 60.1898 24.0516 60.1898H24.5138C24.578 60.1898 24.6325 60.2091 24.6775 60.2476C24.7224 60.2861 24.7417 60.3375 24.7352 60.4017C24.7288 60.5365 24.6999 60.6745 24.6486 60.8157C24.5972 60.9569 24.5138 61.1013 24.3982 61.249C24.2891 61.3902 24.1511 61.5186 23.9842 61.6341C23.8173 61.7432 23.6151 61.8331 23.3776 61.9037C23.1465 61.9679 22.8833 62 22.5881 62Z" fill="#53C1DE"/>
<path d="M27.6408 61.9037C27.2813 61.9037 26.9892 61.8363 26.7646 61.7015C26.5399 61.5603 26.3762 61.3645 26.2735 61.1142C26.1708 60.8574 26.1194 60.5557 26.1194 60.2091V57.6671H25.6016C25.5374 57.6671 25.4828 57.6479 25.4379 57.6094C25.3994 57.5644 25.3801 57.5099 25.3801 57.4457V57.1183C25.3801 57.0541 25.3994 57.0028 25.4379 56.9642C25.4828 56.9193 25.5374 56.8968 25.6016 56.8968H26.1194V55.2889C26.1194 55.2247 26.1387 55.1733 26.1772 55.1348C26.2221 55.0899 26.2767 55.0674 26.3409 55.0674H26.7934C26.8576 55.0674 26.909 55.0899 26.9475 55.1348C26.9924 55.1733 27.0149 55.2247 27.0149 55.2889V56.8968H28.2088C28.273 56.8968 28.3244 56.9193 28.3629 56.9642C28.4078 57.0028 28.4303 57.0541 28.4303 57.1183V57.4457C28.4303 57.5099 28.4078 57.5644 28.3629 57.6094C28.3244 57.6479 28.273 57.6671 28.2088 57.6671H27.0149V60.1417C27.0149 60.4434 27.0662 60.6809 27.169 60.8542C27.2717 61.0275 27.4546 61.1142 27.7178 61.1142H28.3051C28.3693 61.1142 28.4207 61.1366 28.4592 61.1816C28.5041 61.2201 28.5266 61.2714 28.5266 61.3356V61.6823C28.5266 61.7464 28.5041 61.801 28.4592 61.8459C28.4207 61.8845 28.3693 61.9037 28.3051 61.9037H27.6408Z" fill="#53C1DE"/>
<path d="M31.769 61.9037C31.6983 61.9037 31.6438 61.8845 31.6053 61.8459C31.5667 61.801 31.5475 61.7464 31.5475 61.6823V55.3948C31.5475 55.3242 31.5667 55.2696 31.6053 55.2311C31.6438 55.1862 31.6983 55.1637 31.769 55.1637H32.2119C32.2889 55.1637 32.3467 55.1829 32.3852 55.2215C32.4237 55.2536 32.4462 55.2792 32.4526 55.2985L35.6493 60.2091V55.3948C35.6493 55.3242 35.6685 55.2696 35.7071 55.2311C35.7456 55.1862 35.8001 55.1637 35.8707 55.1637H36.3329C36.4035 55.1637 36.4581 55.1862 36.4966 55.2311C36.5415 55.2696 36.564 55.3242 36.564 55.3948V61.6726C36.564 61.7368 36.5415 61.7914 36.4966 61.8363C36.4581 61.8812 36.4067 61.9037 36.3425 61.9037H35.8804C35.8098 61.9037 35.7552 61.8845 35.7167 61.8459C35.6846 61.8074 35.6621 61.7818 35.6493 61.7689L32.4622 56.9065V61.6823C32.4622 61.7464 32.4397 61.801 32.3948 61.8459C32.3563 61.8845 32.3017 61.9037 32.2311 61.9037H31.769Z" fill="#53C1DE"/>
<path d="M39.3114 62C38.9904 62 38.6984 61.9358 38.4352 61.8074C38.172 61.679 37.9602 61.5057 37.7997 61.2875C37.6392 61.0692 37.559 60.8221 37.559 60.5461C37.559 60.1032 37.7387 59.7501 38.0982 59.4869C38.4577 59.2238 38.9263 59.0504 39.504 58.967L40.9386 58.7648V58.4856C40.9386 58.1774 40.8488 57.9367 40.669 57.7634C40.4957 57.5901 40.2101 57.5034 39.8121 57.5034C39.5232 57.5034 39.2889 57.5612 39.1092 57.6768C38.9359 57.7923 38.8139 57.9399 38.7433 58.1197C38.7048 58.216 38.6374 58.2641 38.5411 58.2641H38.1078C38.0372 58.2641 37.9826 58.2448 37.9441 58.2063C37.912 58.1614 37.896 58.11 37.896 58.0523C37.896 57.956 37.9313 57.8372 38.0019 57.696C38.0789 57.5548 38.1945 57.4168 38.3485 57.282C38.5026 57.1472 38.6984 57.0348 38.9359 56.945C39.1798 56.8487 39.4751 56.8005 39.8217 56.8005C40.2069 56.8005 40.531 56.8519 40.7942 56.9546C41.0574 57.0509 41.2628 57.1825 41.4104 57.3494C41.5645 57.5163 41.6736 57.7056 41.7378 57.9175C41.8084 58.1293 41.8437 58.3443 41.8437 58.5626V61.6823C41.8437 61.7464 41.8213 61.801 41.7763 61.8459C41.7378 61.8845 41.6865 61.9037 41.6223 61.9037H41.1793C41.1087 61.9037 41.0542 61.8845 41.0157 61.8459C40.9771 61.801 40.9579 61.7464 40.9579 61.6823V61.2682C40.8744 61.3838 40.7621 61.4993 40.6209 61.6149C40.4797 61.724 40.3031 61.8171 40.0913 61.8941C39.8795 61.9647 39.6195 62 39.3114 62ZM39.5136 61.2779C39.7768 61.2779 40.0175 61.2233 40.2357 61.1142C40.454 60.9986 40.6241 60.8221 40.7461 60.5846C40.8744 60.3471 40.9386 60.0486 40.9386 59.6891V59.4195L39.8217 59.5832C39.366 59.6474 39.0225 59.7565 38.7915 59.9106C38.5604 60.0582 38.4448 60.2476 38.4448 60.4787C38.4448 60.6584 38.4962 60.8093 38.5989 60.9312C38.708 61.0468 38.8428 61.1334 39.0033 61.1912C39.1702 61.249 39.3403 61.2779 39.5136 61.2779Z" fill="#53C1DE"/>
<path d="M44.9429 61.9037C44.5835 61.9037 44.2914 61.8363 44.0667 61.7015C43.8421 61.5603 43.6784 61.3645 43.5757 61.1142C43.473 60.8574 43.4216 60.5557 43.4216 60.2091V57.6671H42.8267C42.7625 57.6671 42.708 57.6479 42.663 57.6094C42.6245 57.5644 42.6053 57.5099 42.6053 57.4457V57.1183C42.6053 57.0541 42.6245 57.0028 42.663 56.9642C42.708 56.9193 42.7625 56.8968 42.8267 56.8968H43.4216V55.2889C43.4216 55.2247 43.4409 55.1733 43.4794 55.1348C43.5243 55.0899 43.5789 55.0674 43.6431 55.0674H44.0956C44.1598 55.0674 44.2112 55.0899 44.2497 55.1348C44.2946 55.1733 44.3171 55.2247 44.3171 55.2889V56.8968H45.511C45.5752 56.8968 45.6266 56.9193 45.6651 56.9642C45.71 57.0028 45.7325 57.0541 45.7325 57.1183V57.4457C45.7325 57.5099 45.71 57.5644 45.6651 57.6094C45.6266 57.6479 45.5752 57.6671 45.511 57.6671H44.3171V60.1417C44.3171 60.4434 44.3684 60.6809 44.4711 60.8542C44.5738 61.0275 44.7568 61.1142 45.02 61.1142H45.6073C45.6715 61.1142 45.7229 61.1366 45.7614 61.1816C45.8063 61.2201 45.8288 61.2714 45.8288 61.3356V61.6823C45.8288 61.7464 45.8063 61.801 45.7614 61.8459C45.7229 61.8845 45.6715 61.9037 45.6073 61.9037H44.9429Z" fill="#53C1DE"/>
<path d="M46.7784 61.9037C46.7142 61.9037 46.6596 61.8845 46.6147 61.8459C46.5762 61.801 46.5569 61.7464 46.5569 61.6823V57.1183C46.5569 57.0541 46.5762 57.0028 46.6147 56.9642C46.6596 56.9193 46.7142 56.8968 46.7784 56.8968H47.2406C47.3048 56.8968 47.3561 56.9193 47.3946 56.9642C47.4331 57.0028 47.4524 57.0541 47.4524 57.1183V61.6823C47.4524 61.7464 47.4331 61.801 47.3946 61.8459C47.3561 61.8845 47.3048 61.9037 47.2406 61.9037H46.7784ZM46.7014 55.9629C46.6372 55.9629 46.5826 55.9436 46.5377 55.9051C46.4992 55.8602 46.4799 55.8056 46.4799 55.7414V55.2215C46.4799 55.1573 46.4992 55.1059 46.5377 55.0674C46.5826 55.0225 46.6372 55 46.7014 55H47.308C47.3722 55 47.4235 55.0225 47.462 55.0674C47.507 55.1059 47.5294 55.1573 47.5294 55.2215V55.7414C47.5294 55.8056 47.507 55.8602 47.462 55.9051C47.4235 55.9436 47.3722 55.9629 47.308 55.9629H46.7014Z" fill="#53C1DE"/>
<path d="M50.4391 61.9037C50.3428 61.9037 50.2658 61.8812 50.208 61.8363C50.1566 61.7914 50.1149 61.7336 50.0828 61.663L48.3015 57.1953C48.2887 57.1632 48.2823 57.1311 48.2823 57.099C48.2823 57.0413 48.3015 56.9931 48.34 56.9546C48.3785 56.9161 48.4267 56.8968 48.4845 56.8968H48.9466C49.0172 56.8968 49.0718 56.9161 49.1103 56.9546C49.1488 56.9931 49.1713 57.0284 49.1777 57.0605L50.6509 60.8542L52.1144 57.0605C52.1273 57.0284 52.1497 56.9931 52.1818 56.9546C52.2204 56.9161 52.2749 56.8968 52.3455 56.8968H52.8173C52.8687 56.8968 52.9136 56.9161 52.9521 56.9546C52.9971 56.9931 53.0195 57.0413 53.0195 57.099C53.0195 57.1311 53.0131 57.1632 53.0003 57.1953L51.2094 61.663C51.1837 61.7336 51.142 61.7914 51.0842 61.8363C51.0328 61.8812 50.9558 61.9037 50.8531 61.9037H50.4391Z" fill="#53C1DE"/>
<path d="M55.6497 62C54.9885 62 54.4621 61.7978 54.0706 61.3934C53.679 60.9826 53.464 60.4241 53.4254 59.718C53.419 59.6346 53.4158 59.5287 53.4158 59.4003C53.4158 59.2655 53.419 59.1564 53.4254 59.0729C53.4511 58.6171 53.557 58.2192 53.7432 57.879C53.9293 57.5323 54.1829 57.2659 54.5038 57.0798C54.8312 56.8936 55.2132 56.8005 55.6497 56.8005C56.1375 56.8005 56.5451 56.9033 56.8725 57.1087C57.2063 57.3141 57.4598 57.6061 57.6332 57.9849C57.8065 58.3636 57.8931 58.8065 57.8931 59.3136V59.4773C57.8931 59.5479 57.8707 59.6025 57.8257 59.641C57.7872 59.6795 57.7359 59.6988 57.6717 59.6988H54.3402C54.3402 59.7052 54.3402 59.718 54.3402 59.7373C54.3402 59.7565 54.3402 59.7726 54.3402 59.7854C54.353 60.0486 54.4108 60.2957 54.5135 60.5268C54.6162 60.7515 54.7638 60.9344 54.9564 61.0757C55.149 61.2169 55.3801 61.2875 55.6497 61.2875C55.8807 61.2875 56.0733 61.2522 56.2274 61.1816C56.3814 61.111 56.5066 61.0339 56.6029 60.9505C56.6992 60.8606 56.7634 60.7932 56.7955 60.7483C56.8532 60.6648 56.8982 60.6167 56.9303 60.6039C56.9624 60.5846 57.0137 60.575 57.0843 60.575H57.5465C57.6107 60.575 57.662 60.5942 57.7006 60.6327C57.7455 60.6648 57.7647 60.713 57.7583 60.7772C57.7519 60.8735 57.7006 60.9922 57.6043 61.1334C57.508 61.2682 57.37 61.403 57.1902 61.5378C57.0105 61.6726 56.7923 61.785 56.5355 61.8748C56.2787 61.9583 55.9834 62 55.6497 62ZM54.3402 59.0344H56.9784V59.0055C56.9784 58.7166 56.9238 58.4599 56.8147 58.2352C56.712 58.0105 56.5612 57.834 56.3622 57.7056C56.1632 57.5708 55.9257 57.5034 55.6497 57.5034C55.3736 57.5034 55.1361 57.5708 54.9371 57.7056C54.7446 57.834 54.5969 58.0105 54.4942 58.2352C54.3915 58.4599 54.3402 58.7166 54.3402 59.0055V59.0344Z" fill="#53C1DE"/>
</svg>
