<svg width="63" height="62" viewBox="0 0 63 62" fill="none" xmlns="http://www.w3.org/2000/svg">
<path d="M36.6903 25.1408C36.6903 22.3616 34.3667 20.1084 31.5 20.1084C28.6336 20.1084 26.3097 22.3616 26.3097 25.1408C26.3097 27.9203 28.6336 30.1735 31.5 30.1735C34.3667 30.1735 36.6903 27.9203 36.6903 25.1408Z" fill="#DCDFEC"/>
<path fill-rule="evenodd" clip-rule="evenodd" d="M48.357 15.7978C49.4531 11.4793 50.8309 3.47099 45.9739 0.755936C41.1397 -1.94729 34.8489 3.23257 31.527 6.34179C28.2148 3.26356 21.7473 -1.89417 16.8944 0.829513C12.062 3.5418 13.5522 11.4173 14.6726 15.7629C10.1649 17.0043 2.4375 19.678 2.4375 25.1408C2.4375 30.5881 10.1568 33.497 14.6379 34.7372C13.5134 39.1069 12.0978 46.8699 16.9363 49.5761C21.8072 52.2993 28.2547 47.2643 31.6073 44.1212C34.9504 47.2486 41.1809 52.3165 46.0161 49.6028C50.8666 46.8803 49.6032 38.9794 48.4827 34.6085C52.8266 33.3657 60.5625 30.5201 60.5625 25.1408C60.5625 19.7305 52.7938 17.035 48.357 15.7978ZM47.8065 32.2922C47.0708 30.0343 46.0778 27.6332 44.8631 25.1528C46.0225 22.731 46.9769 20.3608 47.692 18.1173C50.9445 19.0316 58.0796 21.1213 58.0796 25.1408C58.0796 29.1981 51.2327 31.3075 47.8065 32.2922ZM44.7718 47.5192C41.1643 49.5438 35.8054 44.6974 33.3364 42.3942C34.9743 40.6573 36.6111 38.6381 38.2086 36.3958C41.0187 36.1542 43.6734 35.7588 46.0809 35.2194C46.8695 38.311 48.3954 45.4853 44.7718 47.5192ZM18.177 47.4902C14.569 45.4732 16.2181 38.5458 17.0454 35.3271C19.4262 35.8377 22.0616 36.205 24.8784 36.4265C26.4864 38.6206 28.1705 40.6374 29.8678 42.4035C27.7708 44.3702 21.8019 49.5167 18.177 47.4902ZM4.92038 25.1408C4.92038 21.0683 12.0128 18.9939 15.3394 18.0819C16.0669 20.3758 17.021 22.7741 18.1724 25.1994C17.0061 27.6609 16.0383 30.0974 15.3041 32.4182C12.1322 31.5379 4.92038 29.2158 4.92038 25.1408ZM18.1384 2.91311C21.7612 0.879942 27.3823 5.83154 29.787 8.06025C28.0985 9.81837 26.4298 11.8199 24.8357 14.0013C22.102 14.2469 19.4851 14.6415 17.0794 15.17C16.1768 11.6651 14.5196 4.94409 18.1384 2.91311ZM39.9848 16.6181C41.8395 16.8451 43.6163 17.1469 45.2847 17.5163C44.7839 19.0728 44.1596 20.7005 43.4244 22.3691C42.3585 20.4082 41.2144 18.4869 39.9848 16.6181ZM31.5278 9.7807C32.673 10.9836 33.8201 12.327 34.9483 13.7843C32.6596 13.6794 30.3672 13.6789 28.0784 13.7828C29.2077 12.3389 30.3645 10.9976 31.5278 9.7807ZM19.597 22.3673C18.8739 20.7045 18.2552 19.0696 17.75 17.4908C19.4084 17.1309 21.1769 16.8369 23.0196 16.6136C21.7866 18.4783 20.6444 20.3989 19.597 22.3673ZM23.0726 33.8399C21.169 33.6338 19.3737 33.3547 17.7158 33.0048C18.229 31.3981 18.8613 29.728 19.5998 28.0295C20.6617 30.0182 21.8212 31.9576 23.0726 33.8399ZM31.5965 40.671C30.4196 39.4397 29.2458 38.0779 28.0993 36.6131C30.4011 36.7008 32.7073 36.701 35.0088 36.6014C33.8769 38.0928 32.734 39.4566 31.5965 40.671ZM43.448 27.943C44.2249 29.6599 44.8798 31.321 45.4 32.9006C43.7145 33.2734 41.8951 33.5737 39.9779 33.7967C41.2166 31.8927 42.3788 29.9414 43.448 27.943ZM36.8228 34.0885C33.3021 34.3324 29.7593 34.3298 26.2374 34.1085C24.2361 31.2741 22.4547 28.2932 20.9169 25.1987C22.4471 22.1105 24.2157 19.1356 26.2075 16.3056C29.7321 16.0473 33.2783 16.0467 36.8028 16.3071C38.7774 19.1369 40.5433 22.1041 42.1091 25.1645C40.5619 28.2512 38.7841 31.2321 36.8228 34.0885ZM44.7337 2.84153C48.3574 4.86804 46.7444 12.0653 45.9528 15.195C43.5414 14.6555 40.9227 14.2539 38.181 14.0045C36.5838 11.7995 34.929 9.79442 33.2678 8.059C35.7035 5.78229 41.145 0.834845 44.7337 2.84153Z" fill="#DCDFEC"/>
<path d="M4.53695 61.9037C4.46634 61.9037 4.41178 61.8845 4.37326 61.8459C4.33475 61.801 4.31549 61.7464 4.31549 61.6823V55.3948C4.31549 55.3242 4.33475 55.2696 4.37326 55.2311C4.41178 55.1862 4.46634 55.1637 4.53695 55.1637H6.88633C7.61169 55.1637 8.1862 55.3338 8.60985 55.674C9.03351 56.0142 9.24534 56.5181 9.24534 57.1857C9.24534 57.68 9.12017 58.0844 8.86983 58.3989C8.6259 58.707 8.29211 58.9221 7.86845 59.044L9.35126 61.6052C9.37052 61.6437 9.38014 61.679 9.38014 61.7111C9.38014 61.7625 9.35768 61.8074 9.31274 61.8459C9.27423 61.8845 9.2293 61.9037 9.17794 61.9037H8.71577C8.60665 61.9037 8.52641 61.8748 8.47505 61.8171C8.4237 61.7593 8.37877 61.7015 8.34025 61.6437L6.9441 59.1981H5.2591V61.6823C5.2591 61.7464 5.23663 61.801 5.19169 61.8459C5.15318 61.8845 5.09862 61.9037 5.02801 61.9037H4.53695ZM5.2591 58.3796H6.84782C7.32925 58.3796 7.68872 58.2801 7.92622 58.0812C8.16373 57.8757 8.28248 57.574 8.28248 57.1761C8.28248 56.7845 8.16373 56.486 7.92622 56.2806C7.69514 56.0752 7.33567 55.9725 6.84782 55.9725H5.2591V58.3796Z" fill="#DCDFEC"/>
<path d="M12.2438 62C11.5827 62 11.0563 61.7978 10.6647 61.3934C10.2732 60.9826 10.0581 60.4241 10.0196 59.718C10.0132 59.6346 10.01 59.5287 10.01 59.4003C10.01 59.2655 10.0132 59.1564 10.0196 59.0729C10.0453 58.6171 10.1512 58.2192 10.3374 57.879C10.5235 57.5323 10.7771 57.2659 11.098 57.0798C11.4254 56.8936 11.8073 56.8005 12.2438 56.8005C12.7317 56.8005 13.1393 56.9033 13.4667 57.1087C13.8005 57.3141 14.054 57.6061 14.2273 57.9849C14.4006 58.3636 14.4873 58.8065 14.4873 59.3136V59.4773C14.4873 59.5479 14.4648 59.6025 14.4199 59.641C14.3814 59.6795 14.33 59.6988 14.2658 59.6988H10.9343C10.9343 59.7052 10.9343 59.718 10.9343 59.7373C10.9343 59.7565 10.9343 59.7726 10.9343 59.7854C10.9472 60.0486 11.0049 60.2957 11.1077 60.5268C11.2104 60.7515 11.358 60.9344 11.5506 61.0757C11.7431 61.2169 11.9742 61.2875 12.2438 61.2875C12.4749 61.2875 12.6675 61.2522 12.8215 61.1816C12.9756 61.111 13.1008 61.0339 13.1971 60.9505C13.2933 60.8606 13.3575 60.7932 13.3896 60.7483C13.4474 60.6648 13.4923 60.6167 13.5244 60.6039C13.5565 60.5846 13.6079 60.575 13.6785 60.575H14.1407C14.2049 60.575 14.2562 60.5942 14.2947 60.6327C14.3397 60.6648 14.3589 60.713 14.3525 60.7772C14.3461 60.8735 14.2947 60.9922 14.1984 61.1334C14.1022 61.2682 13.9641 61.403 13.7844 61.5378C13.6047 61.6726 13.3864 61.785 13.1297 61.8748C12.8729 61.9583 12.5776 62 12.2438 62ZM10.9343 59.0344H13.5726V59.0055C13.5726 58.7166 13.518 58.4599 13.4089 58.2352C13.3062 58.0105 13.1553 57.834 12.9563 57.7056C12.7574 57.5708 12.5199 57.5034 12.2438 57.5034C11.9678 57.5034 11.7303 57.5708 11.5313 57.7056C11.3387 57.834 11.1911 58.0105 11.0884 58.2352C10.9857 58.4599 10.9343 58.7166 10.9343 59.0055V59.0344Z" fill="#DCDFEC"/>
<path d="M16.8422 62C16.5212 62 16.2292 61.9358 15.966 61.8074C15.7028 61.679 15.491 61.5057 15.3305 61.2875C15.17 61.0692 15.0898 60.8221 15.0898 60.5461C15.0898 60.1032 15.2695 59.7501 15.629 59.4869C15.9884 59.2238 16.457 59.0504 17.0347 58.967L18.4694 58.7648V58.4856C18.4694 58.1774 18.3795 57.9367 18.1998 57.7634C18.0265 57.5901 17.7408 57.5034 17.3429 57.5034C17.054 57.5034 16.8197 57.5612 16.64 57.6768C16.4667 57.7923 16.3447 57.9399 16.2741 58.1197C16.2356 58.216 16.1682 58.2641 16.0719 58.2641H15.6386C15.568 58.2641 15.5134 58.2448 15.4749 58.2063C15.4428 58.1614 15.4268 58.11 15.4268 58.0523C15.4268 57.956 15.4621 57.8372 15.5327 57.696C15.6097 57.5548 15.7253 57.4168 15.8793 57.282C16.0334 57.1472 16.2291 57.0348 16.4667 56.945C16.7106 56.8487 17.0059 56.8005 17.3525 56.8005C17.7376 56.8005 18.0618 56.8519 18.325 56.9546C18.5882 57.0509 18.7936 57.1825 18.9412 57.3494C19.0953 57.5163 19.2044 57.7056 19.2686 57.9175C19.3392 58.1293 19.3745 58.3443 19.3745 58.5626V61.6823C19.3745 61.7464 19.352 61.801 19.3071 61.8459C19.2686 61.8845 19.2172 61.9037 19.153 61.9037H18.7101C18.6395 61.9037 18.585 61.8845 18.5464 61.8459C18.5079 61.801 18.4887 61.7464 18.4887 61.6823V61.2682C18.4052 61.3838 18.2929 61.4993 18.1517 61.6149C18.0104 61.724 17.8339 61.8171 17.6221 61.8941C17.4103 61.9647 17.1503 62 16.8422 62ZM17.0444 61.2779C17.3076 61.2779 17.5483 61.2233 17.7665 61.1142C17.9848 60.9986 18.1549 60.8221 18.2768 60.5846C18.4052 60.3471 18.4694 60.0486 18.4694 59.6891V59.4195L17.3525 59.5832C16.8967 59.6474 16.5533 59.7565 16.3222 59.9106C16.0911 60.0582 15.9756 60.2476 15.9756 60.4787C15.9756 60.6584 16.0269 60.8093 16.1297 60.9312C16.2388 61.0468 16.3736 61.1334 16.5341 61.1912C16.701 61.249 16.8711 61.2779 17.0444 61.2779Z" fill="#DCDFEC"/>
<path d="M22.5881 62C22.1324 62 21.7376 61.9133 21.4038 61.74C21.0764 61.5603 20.8229 61.3067 20.6431 60.9794C20.4634 60.6456 20.3671 60.2476 20.3543 59.7854C20.3479 59.6891 20.3447 59.5608 20.3447 59.4003C20.3447 59.2398 20.3479 59.1114 20.3543 59.0151C20.3671 58.553 20.4634 58.1582 20.6431 57.8308C20.8229 57.497 21.0764 57.2435 21.4038 57.0702C21.7376 56.8904 22.1324 56.8005 22.5881 56.8005C22.9604 56.8005 23.2782 56.8519 23.5414 56.9546C23.811 57.0573 24.0324 57.1889 24.2057 57.3494C24.379 57.5099 24.5074 57.6832 24.5909 57.8693C24.6807 58.0555 24.7289 58.232 24.7353 58.3989C24.7417 58.4631 24.7225 58.5144 24.6775 58.553C24.6326 58.5915 24.578 58.6107 24.5138 58.6107H24.0517C23.9875 58.6107 23.9393 58.5979 23.9072 58.5722C23.8752 58.5401 23.8431 58.4888 23.811 58.4182C23.6954 58.1036 23.5381 57.8822 23.3392 57.7538C23.1402 57.6254 22.893 57.5612 22.5978 57.5612C22.2126 57.5612 21.8981 57.68 21.6542 57.9175C21.4166 58.155 21.2883 58.5369 21.269 59.0633C21.2626 59.2944 21.2626 59.519 21.269 59.7373C21.2883 60.2701 21.4166 60.6552 21.6542 60.8927C21.8981 61.1238 22.2126 61.2393 22.5978 61.2393C22.893 61.2393 23.1402 61.1751 23.3392 61.0468C23.5381 60.9184 23.6954 60.6969 23.811 60.3824C23.8431 60.3118 23.8752 60.2636 23.9072 60.238C23.9393 60.2059 23.9875 60.1898 24.0517 60.1898H24.5138C24.578 60.1898 24.6326 60.2091 24.6775 60.2476C24.7225 60.2861 24.7417 60.3375 24.7353 60.4017C24.7289 60.5365 24.7 60.6745 24.6486 60.8157C24.5973 60.9569 24.5138 61.1013 24.3983 61.249C24.2892 61.3902 24.1512 61.5186 23.9843 61.6341C23.8174 61.7432 23.6152 61.8331 23.3777 61.9037C23.1466 61.9679 22.8834 62 22.5881 62Z" fill="#DCDFEC"/>
<path d="M27.6408 61.9037C27.2813 61.9037 26.9893 61.8363 26.7646 61.7015C26.5399 61.5603 26.3763 61.3645 26.2736 61.1142C26.1708 60.8574 26.1195 60.5557 26.1195 60.2091V57.6671H25.6016C25.5374 57.6671 25.4829 57.6479 25.4379 57.6094C25.3994 57.5644 25.3802 57.5099 25.3802 57.4457V57.1183C25.3802 57.0541 25.3994 57.0028 25.4379 56.9642C25.4829 56.9193 25.5374 56.8968 25.6016 56.8968H26.1195V55.2889C26.1195 55.2247 26.1388 55.1733 26.1773 55.1348C26.2222 55.0899 26.2768 55.0674 26.341 55.0674H26.7935C26.8577 55.0674 26.909 55.0899 26.9476 55.1348C26.9925 55.1733 27.015 55.2247 27.015 55.2889V56.8968H28.2089C28.2731 56.8968 28.3245 56.9193 28.363 56.9642C28.4079 57.0028 28.4304 57.0541 28.4304 57.1183V57.4457C28.4304 57.5099 28.4079 57.5644 28.363 57.6094C28.3245 57.6479 28.2731 57.6671 28.2089 57.6671H27.015V60.1417C27.015 60.4434 27.0663 60.6809 27.169 60.8542C27.2717 61.0275 27.4547 61.1142 27.7178 61.1142H28.3052C28.3694 61.1142 28.4207 61.1366 28.4593 61.1816C28.5042 61.2201 28.5267 61.2714 28.5267 61.3356V61.6823C28.5267 61.7464 28.5042 61.801 28.4593 61.8459C28.4207 61.8845 28.3694 61.9037 28.3052 61.9037H27.6408Z" fill="#DCDFEC"/>
<path d="M31.769 61.9037C31.6984 61.9037 31.6438 61.8845 31.6053 61.8459C31.5668 61.801 31.5476 61.7464 31.5476 61.6823V55.3948C31.5476 55.3242 31.5668 55.2696 31.6053 55.2311C31.6438 55.1862 31.6984 55.1637 31.769 55.1637H32.2119C32.289 55.1637 32.3467 55.1829 32.3852 55.2215C32.4238 55.2536 32.4462 55.2792 32.4526 55.2985L35.6493 60.2091V55.3948C35.6493 55.3242 35.6686 55.2696 35.7071 55.2311C35.7456 55.1862 35.8002 55.1637 35.8708 55.1637H36.333C36.4036 55.1637 36.4581 55.1862 36.4967 55.2311C36.5416 55.2696 36.5641 55.3242 36.5641 55.3948V61.6726C36.5641 61.7368 36.5416 61.7914 36.4967 61.8363C36.4581 61.8812 36.4068 61.9037 36.3426 61.9037H35.8804C35.8098 61.9037 35.7553 61.8845 35.7167 61.8459C35.6847 61.8074 35.6622 61.7818 35.6493 61.7689L32.4623 56.9065V61.6823C32.4623 61.7464 32.4398 61.801 32.3949 61.8459C32.3564 61.8845 32.3018 61.9037 32.2312 61.9037H31.769Z" fill="#DCDFEC"/>
<path d="M39.3115 62C38.9905 62 38.6984 61.9358 38.4352 61.8074C38.1721 61.679 37.9602 61.5057 37.7998 61.2875C37.6393 61.0692 37.559 60.8221 37.559 60.5461C37.559 60.1032 37.7388 59.7501 38.0982 59.4869C38.4577 59.2238 38.9263 59.0504 39.504 58.967L40.9387 58.7648V58.4856C40.9387 58.1774 40.8488 57.9367 40.6691 57.7634C40.4958 57.5901 40.2101 57.5034 39.8121 57.5034C39.5233 57.5034 39.289 57.5612 39.1093 57.6768C38.9359 57.7923 38.814 57.9399 38.7434 58.1197C38.7049 58.216 38.6375 58.2641 38.5412 58.2641H38.1079C38.0373 58.2641 37.9827 58.2448 37.9442 58.2063C37.9121 58.1614 37.896 58.11 37.896 58.0523C37.896 57.956 37.9314 57.8372 38.002 57.696C38.079 57.5548 38.1945 57.4168 38.3486 57.282C38.5027 57.1472 38.6984 57.0348 38.9359 56.945C39.1799 56.8487 39.4751 56.8005 39.8218 56.8005C40.2069 56.8005 40.5311 56.8519 40.7943 56.9546C41.0574 57.0509 41.2629 57.1825 41.4105 57.3494C41.5645 57.5163 41.6737 57.7056 41.7379 57.9175C41.8085 58.1293 41.8438 58.3443 41.8438 58.5626V61.6823C41.8438 61.7464 41.8213 61.801 41.7764 61.8459C41.7379 61.8845 41.6865 61.9037 41.6223 61.9037H41.1794C41.1088 61.9037 41.0542 61.8845 41.0157 61.8459C40.9772 61.801 40.9579 61.7464 40.9579 61.6823V61.2682C40.8745 61.3838 40.7622 61.4993 40.6209 61.6149C40.4797 61.724 40.3032 61.8171 40.0914 61.8941C39.8795 61.9647 39.6196 62 39.3115 62ZM39.5137 61.2779C39.7768 61.2779 40.0176 61.2233 40.2358 61.1142C40.454 60.9986 40.6242 60.8221 40.7461 60.5846C40.8745 60.3471 40.9387 60.0486 40.9387 59.6891V59.4195L39.8218 59.5832C39.366 59.6474 39.0226 59.7565 38.7915 59.9106C38.5604 60.0582 38.4449 60.2476 38.4449 60.4787C38.4449 60.6584 38.4962 60.8093 38.5989 60.9312C38.7081 61.0468 38.8429 61.1334 39.0033 61.1912C39.1702 61.249 39.3403 61.2779 39.5137 61.2779Z" fill="#DCDFEC"/>
<path d="M44.943 61.9037C44.5835 61.9037 44.2915 61.8363 44.0668 61.7015C43.8421 61.5603 43.6784 61.3645 43.5757 61.1142C43.473 60.8574 43.4217 60.5557 43.4217 60.2091V57.6671H42.8268C42.7626 57.6671 42.708 57.6479 42.6631 57.6094C42.6246 57.5644 42.6053 57.5099 42.6053 57.4457V57.1183C42.6053 57.0541 42.6246 57.0028 42.6631 56.9642C42.708 56.9193 42.7626 56.8968 42.8268 56.8968H43.4217V55.2889C43.4217 55.2247 43.4409 55.1733 43.4794 55.1348C43.5244 55.0899 43.5789 55.0674 43.6431 55.0674H44.0957C44.1599 55.0674 44.2112 55.0899 44.2497 55.1348C44.2947 55.1733 44.3171 55.2247 44.3171 55.2889V56.8968H45.5111C45.5753 56.8968 45.6266 56.9193 45.6651 56.9642C45.7101 57.0028 45.7325 57.0541 45.7325 57.1183V57.4457C45.7325 57.5099 45.7101 57.5644 45.6651 57.6094C45.6266 57.6479 45.5753 57.6671 45.5111 57.6671H44.3171V60.1417C44.3171 60.4434 44.3685 60.6809 44.4712 60.8542C44.5739 61.0275 44.7568 61.1142 45.02 61.1142H45.6074C45.6716 61.1142 45.7229 61.1366 45.7614 61.1816C45.8064 61.2201 45.8288 61.2714 45.8288 61.3356V61.6823C45.8288 61.7464 45.8064 61.801 45.7614 61.8459C45.7229 61.8845 45.6716 61.9037 45.6074 61.9037H44.943Z" fill="#DCDFEC"/>
<path d="M46.7785 61.9037C46.7143 61.9037 46.6597 61.8845 46.6148 61.8459C46.5762 61.801 46.557 61.7464 46.557 61.6823V57.1183C46.557 57.0541 46.5762 57.0028 46.6148 56.9642C46.6597 56.9193 46.7143 56.8968 46.7785 56.8968H47.2406C47.3048 56.8968 47.3562 56.9193 47.3947 56.9642C47.4332 57.0028 47.4525 57.0541 47.4525 57.1183V61.6823C47.4525 61.7464 47.4332 61.801 47.3947 61.8459C47.3562 61.8845 47.3048 61.9037 47.2406 61.9037H46.7785ZM46.7014 55.9629C46.6372 55.9629 46.5827 55.9436 46.5377 55.9051C46.4992 55.8602 46.48 55.8056 46.48 55.7414V55.2215C46.48 55.1573 46.4992 55.1059 46.5377 55.0674C46.5827 55.0225 46.6372 55 46.7014 55H47.308C47.3722 55 47.4236 55.0225 47.4621 55.0674C47.507 55.1059 47.5295 55.1573 47.5295 55.2215V55.7414C47.5295 55.8056 47.507 55.8602 47.4621 55.9051C47.4236 55.9436 47.3722 55.9629 47.308 55.9629H46.7014Z" fill="#DCDFEC"/>
<path d="M50.4391 61.9037C50.3428 61.9037 50.2658 61.8812 50.208 61.8363C50.1567 61.7914 50.115 61.7336 50.0829 61.663L48.3016 57.1953C48.2887 57.1632 48.2823 57.1311 48.2823 57.099C48.2823 57.0413 48.3016 56.9931 48.3401 56.9546C48.3786 56.9161 48.4267 56.8968 48.4845 56.8968H48.9467C49.0173 56.8968 49.0719 56.9161 49.1104 56.9546C49.1489 56.9931 49.1714 57.0284 49.1778 57.0605L50.651 60.8542L52.1145 57.0605C52.1273 57.0284 52.1498 56.9931 52.1819 56.9546C52.2204 56.9161 52.275 56.8968 52.3456 56.8968H52.8174C52.8687 56.8968 52.9137 56.9161 52.9522 56.9546C52.9971 56.9931 53.0196 57.0413 53.0196 57.099C53.0196 57.1311 53.0132 57.1632 53.0003 57.1953L51.2094 61.663C51.1837 61.7336 51.142 61.7914 51.0842 61.8363C51.0329 61.8812 50.9559 61.9037 50.8532 61.9037H50.4391Z" fill="#DCDFEC"/>
<path d="M55.6497 62C54.9885 62 54.4622 61.7978 54.0706 61.3934C53.6791 60.9826 53.464 60.4241 53.4255 59.718C53.4191 59.6346 53.4159 59.5287 53.4159 59.4003C53.4159 59.2655 53.4191 59.1564 53.4255 59.0729C53.4512 58.6171 53.5571 58.2192 53.7433 57.879C53.9294 57.5323 54.183 57.2659 54.5039 57.0798C54.8313 56.8936 55.2132 56.8005 55.6497 56.8005C56.1376 56.8005 56.5452 56.9033 56.8726 57.1087C57.2063 57.3141 57.4599 57.6061 57.6332 57.9849C57.8065 58.3636 57.8932 58.8065 57.8932 59.3136V59.4773C57.8932 59.5479 57.8707 59.6025 57.8258 59.641C57.7873 59.6795 57.7359 59.6988 57.6717 59.6988H54.3402C54.3402 59.7052 54.3402 59.718 54.3402 59.7373C54.3402 59.7565 54.3402 59.7726 54.3402 59.7854C54.3531 60.0486 54.4108 60.2957 54.5135 60.5268C54.6162 60.7515 54.7639 60.9344 54.9565 61.0757C55.149 61.2169 55.3801 61.2875 55.6497 61.2875C55.8808 61.2875 56.0734 61.2522 56.2274 61.1816C56.3815 61.111 56.5067 61.0339 56.6029 60.9505C56.6992 60.8606 56.7634 60.7932 56.7955 60.7483C56.8533 60.6648 56.8982 60.6167 56.9303 60.6039C56.9624 60.5846 57.0138 60.575 57.0844 60.575H57.5466C57.6107 60.575 57.6621 60.5942 57.7006 60.6327C57.7455 60.6648 57.7648 60.713 57.7584 60.7772C57.752 60.8735 57.7006 60.9922 57.6043 61.1334C57.508 61.2682 57.37 61.403 57.1903 61.5378C57.0106 61.6726 56.7923 61.785 56.5355 61.8748C56.2788 61.9583 55.9835 62 55.6497 62ZM54.3402 59.0344H56.9785V59.0055C56.9785 58.7166 56.9239 58.4599 56.8148 58.2352C56.7121 58.0105 56.5612 57.834 56.3622 57.7056C56.1632 57.5708 55.9257 57.5034 55.6497 57.5034C55.3737 57.5034 55.1362 57.5708 54.9372 57.7056C54.7446 57.834 54.597 58.0105 54.4943 58.2352C54.3916 58.4599 54.3402 58.7166 54.3402 59.0055V59.0344Z" fill="#DCDFEC"/>
</svg>
