<svg width="40" height="40" viewBox="0 0 40 40" fill="none" xmlns="http://www.w3.org/2000/svg">
<path d="M31.6666 17.5C31.6666 19.8012 26.4433 21.6667 20 21.6667C13.5567 21.6667 8.33331 19.8012 8.33331 17.5M31.6666 10.8333C31.6666 8.53214 26.4433 6.66666 20 6.66666C13.5567 6.66666 8.33331 8.53214 8.33331 10.8333V30.8333C8.33331 33.1345 13.5567 35 20 35C26.4433 35 31.6666 33.1345 31.6666 30.8333V10.8333Z" stroke="#EB4042" stroke-width="2.5"/>
<path opacity="0.5" d="M31.6666 10.8333C31.6666 13.1345 26.4433 15 20 15C13.5567 15 8.33331 13.1345 8.33331 10.8333M31.6666 24.1666C31.6666 26.4678 26.4433 28.3333 20 28.3333C13.5567 28.3333 8.33331 26.4678 8.33331 24.1666" stroke="#EB4042" stroke-width="2.5"/>
</svg>
