<svg width="40" height="40" viewBox="0 0 40 40" fill="none" xmlns="http://www.w3.org/2000/svg">
<circle opacity="0.5" cx="5.67376" cy="5.67376" r="5.67376" transform="matrix(-1 0 0 1 26.0281 8.33322)" stroke="#EB4042" stroke-width="2.5"/>
<path d="M10.4253 28.0989C10.4253 26.8786 11.1925 25.79 12.3417 25.3795V25.3795C17.5232 23.529 23.1855 23.529 28.367 25.3795V25.3795C29.5163 25.79 30.2834 26.8786 30.2834 28.0989V29.9649C30.2834 31.6492 28.7917 32.943 27.1243 32.7048L26.5684 32.6254C22.4466 32.0366 18.2621 32.0366 14.1404 32.6254L13.5845 32.7048C11.9171 32.943 10.4253 31.6492 10.4253 29.9649V28.0989Z" stroke="#EB4042" stroke-width="2.5"/>
<path opacity="0.5" d="M28.8653 19.8378C31.3273 19.8378 33.3232 17.8419 33.3232 15.3799C33.3232 12.9178 31.3273 10.9219 28.8653 10.9219" stroke="#EB4042" stroke-width="2.5" stroke-linecap="round"/>
<path d="M33.7477 30.0083L34.1845 30.0707C35.4946 30.2579 36.6667 29.2413 36.6667 27.9179V26.4518C36.6667 25.4929 36.0639 24.6376 35.1609 24.3151C34.2601 23.9934 33.3409 23.7429 32.4113 23.5635" stroke="#EB4042" stroke-width="2.5" stroke-linecap="round"/>
<path opacity="0.5" d="M11.1348 19.8378C8.67271 19.8378 6.67682 17.8419 6.67682 15.3799C6.67682 12.9178 8.67271 10.9219 11.1348 10.9219" stroke="#EB4042" stroke-width="2.5" stroke-linecap="round"/>
<path d="M6.25236 30.0083L5.81556 30.0707C4.50548 30.2579 3.33336 29.2413 3.33336 27.9179V26.4518C3.33336 25.4929 3.93614 24.6376 4.83914 24.3151C5.73989 23.9934 6.65913 23.7429 7.58868 23.5635" stroke="#EB4042" stroke-width="2.5" stroke-linecap="round"/>
</svg>
