<svg width="62" height="62" viewBox="0 0 62 62" fill="none" xmlns="http://www.w3.org/2000/svg">
<path d="M33.2717 4.45377C31.8964 3.68034 30.1036 3.68382 28.7271 4.45377C21.8334 8.25814 14.9397 12.0637 8.04481 15.8663C6.70315 16.5721 5.79824 18.0129 5.81267 19.5084V42.4948C5.80298 44.0194 6.75456 45.4741 8.13081 46.1703C10.1113 47.2239 12.0354 48.3845 14.0516 49.3679C16.3806 50.5123 19.2944 50.7654 21.6519 49.572C23.5656 48.5827 24.4155 46.3828 24.4131 44.361C24.4286 36.7749 24.4155 29.1885 24.4191 21.6024C24.4645 21.2653 24.2115 20.9049 23.8437 20.913C22.9627 20.8991 22.0806 20.9049 21.1996 20.9107C20.8666 20.8792 20.5418 21.1557 20.5669 21.4904C20.555 29.0276 20.5693 36.5672 20.5598 44.1056C20.579 45.1483 19.8745 46.1506 18.8696 46.5028C16.5486 47.3163 9.92383 43.0149 9.92383 43.0149C9.68072 42.9023 9.52633 42.6386 9.55016 42.3767C9.55016 34.7929 9.55135 27.2089 9.55016 19.6262C9.51675 19.3206 9.70517 19.0452 9.98591 18.9204C16.8569 15.1385 23.7243 11.347 30.5953 7.56277C30.8339 7.40349 31.1666 7.40396 31.4047 7.56393C38.2757 11.347 45.1443 15.135 52.0165 18.9171C52.2982 19.0418 52.4785 19.3217 52.4499 19.6262C52.4487 27.2089 52.4522 34.7929 52.4475 42.3755C52.4678 42.6439 52.3293 42.904 52.0786 43.0218C45.2717 46.7833 38.3874 50.4234 31.6422 54.2941C31.3479 54.463 31.0146 54.6542 30.6849 54.4682C28.911 53.4871 27.1587 52.4677 25.3908 51.4771C25.1986 51.3571 24.9539 51.3057 24.7534 51.4398C23.9606 51.8575 23.2152 52.1959 22.305 52.5562C21.0265 53.0622 21.2308 53.2693 22.3837 53.9409C24.4513 55.111 26.5223 56.2765 28.5897 57.4477C29.9508 58.2971 31.7796 58.3576 33.1845 57.5725C40.0794 53.773 46.9719 49.9688 53.868 46.1693C55.2407 45.4693 56.197 44.0204 56.1873 42.4946V19.5084C56.2006 18.0432 55.3303 16.6281 54.0292 15.9119C47.1115 12.089 40.1905 8.27437 33.2717 4.45377Z" fill="#DCDFEC"/>
<path d="M43.6748 21.7121C40.9688 20.2644 37.7495 20.1873 34.7423 20.3764C32.5699 20.5911 30.2849 21.1906 28.7021 22.7479C27.0787 24.3135 26.7253 26.8415 27.4964 28.8853C28.049 30.3293 29.4399 31.2685 30.8782 31.7653C32.7312 32.4194 34.6771 32.6216 36.6238 32.8239C38.3993 33.0085 40.1754 33.193 41.882 33.7206C42.5791 33.9517 43.3909 34.3051 43.6045 35.0634C43.8016 35.9617 43.5855 37.0058 42.8561 37.6299C40.5396 39.4634 34.0959 39.1824 31.8071 37.7394C30.8818 37.1246 30.483 36.0362 30.3209 34.9993C30.3029 34.676 30.0427 34.3796 29.6918 34.4042C28.8132 34.3938 27.9345 34.3961 27.0559 34.403C26.7493 34.3773 26.4306 34.5955 26.4138 34.9083C26.2333 39.6584 30.5958 41.7292 34.6887 42.1852C37.0272 42.408 39.417 42.3952 41.7197 41.8935C43.4506 41.4993 45.1861 40.7736 46.3777 39.4403C47.8471 37.82 48.136 35.4075 47.477 33.3892C46.9732 31.8833 45.5335 30.9173 44.0618 30.4203C42.0604 29.7341 39.6885 29.3652 37.8758 29.1926C35.241 28.9416 32.1099 29.0441 31.3642 27.3127C31.0669 26.4062 31.3199 25.2805 32.1531 24.7229C34.3574 23.2277 38.8435 23.4263 41.1264 24.5432C42.1746 25.0682 42.782 26.1461 43.0327 27.2345C43.0791 27.5542 43.2942 27.8877 43.6644 27.8738C44.5368 27.8912 45.4095 27.8785 46.282 27.8796C46.5818 27.9007 46.91 27.7314 46.9685 27.4246C46.9315 25.1499 45.77 22.8215 43.6748 21.7121Z" fill="#DCDFEC"/>
</svg>
