<svg width="62" height="62" viewBox="0 0 62 62" fill="none" xmlns="http://www.w3.org/2000/svg">
<circle cx="31" cy="31" r="27.125" fill="#DCDFEC"/>
<path d="M27.9759 19.375H31.231L30.3111 24.2657H33.2359C34.8399 24.3 36.0349 24.6585 36.8213 25.3411C37.6232 26.0238 37.8591 27.3214 37.5289 29.2332L35.9485 37.7598H32.6463L34.1559 29.6173C34.313 28.7636 34.2658 28.1577 34.0143 27.7993C33.7629 27.4408 33.2204 27.2615 32.3868 27.2615L29.7686 27.2359L27.8344 37.7598H24.5793L27.9759 19.375Z" fill="#091D28"/>
<path fill-rule="evenodd" clip-rule="evenodd" d="M13.0605 24.2658H19.382C21.2374 24.2827 22.5819 24.8634 23.4155 26.0069C24.2491 27.1505 24.5241 28.7124 24.2411 30.6928C24.1311 31.5977 23.8872 32.4852 23.5098 33.3558C23.148 34.2264 22.6451 35.0114 22.0002 35.7115C21.2138 36.599 20.3727 37.1623 19.4764 37.4015C18.58 37.6406 17.6521 37.7599 16.693 37.7599H13.8625L12.9662 42.625H9.6875L13.0605 24.2658ZM14.405 34.8665L15.8156 27.2104H16.292C16.4652 27.2104 16.6458 27.2017 16.8345 27.1848C18.0927 27.1679 19.1381 27.2959 19.9717 27.5689C20.8209 27.8419 21.1039 28.8748 20.8209 30.6672C20.4751 32.8011 19.7986 34.0471 18.7923 34.4056C17.7861 34.7472 16.5279 34.909 15.0183 34.8921H14.6881C14.5937 34.8921 14.4994 34.8834 14.405 34.8665Z" fill="#091D28"/>
<path fill-rule="evenodd" clip-rule="evenodd" d="M47.3458 24.2658H41.0243L37.6513 42.625H40.93L41.8263 37.7599H44.6568C45.6159 37.7599 46.5438 37.6406 47.4401 37.4015C48.3365 37.1623 49.1776 36.599 49.964 35.7115C50.6089 35.0114 51.1118 34.2264 51.4736 33.3558C51.851 32.4852 52.0949 31.5977 52.2048 30.6928C52.4879 28.7124 52.2129 27.1505 51.3793 26.0069C50.5457 24.8634 49.2012 24.2827 47.3458 24.2658ZM43.7794 27.2104L42.3688 34.8665C42.4632 34.8834 42.5575 34.8921 42.6519 34.8921H42.9821C44.4917 34.909 45.7499 34.7472 46.7561 34.4056C47.7624 34.0471 48.4388 32.8011 48.7846 30.6672C49.0677 28.8748 48.7846 27.8419 47.9355 27.5689C47.1019 27.2959 46.0565 27.1679 44.7983 27.1848C44.6096 27.2017 44.4289 27.2104 44.2558 27.2104H43.7794Z" fill="#091D28"/>
</svg>
