<svg width="62" height="62" viewBox="0 0 62 62" fill="none" xmlns="http://www.w3.org/2000/svg">
<path d="M31 60C47.0163 60 60 47.0163 60 31C60 14.9837 47.0163 2 31 2C14.9837 2 2 14.9837 2 31C2 47.0163 14.9837 60 31 60Z" fill="#FF5B15"/>
<path d="M31.0118 16.5L18.4438 23.7545V38.25L22.0332 40.3202L22.0099 25.8293L30.988 20.6404L39.9667 25.8304V40.3157L43.556 38.25V23.7426L31.0118 16.5ZM32.7949 40.3219L30.9999 41.3596L29.1993 40.3276V25.8304L25.61 27.9006L25.6157 42.3916L30.9999 45.5L36.3808 42.3916V27.9006L32.7915 25.8304L32.7949 40.3219Z" fill="white"/>
</svg>
