<svg width="62" height="62" viewBox="0 0 62 62" fill="none" xmlns="http://www.w3.org/2000/svg">
<path d="M31 58C45.9117 58 58 45.9117 58 31C58 16.0883 45.9117 4 31 4C16.0883 4 4 16.0883 4 31C4 45.9117 16.0883 58 31 58Z" fill="#DCDFEC"/>
<path d="M38.2172 27.7009C36.5118 20.1742 32.4813 17.6993 32.0473 16.7538C31.5727 16.0867 31.0917 14.9002 31.0917 14.9002C31.0838 14.8802 31.0712 14.8448 31.0564 14.8105C31.0074 15.4776 30.9821 15.735 30.3514 16.4079C29.3747 17.1715 24.3639 21.376 23.9563 29.9274C23.576 37.9029 29.7175 42.6553 30.5481 43.2613L30.6425 43.3282V43.3224C30.6477 43.3625 30.9061 45.2209 31.0875 47.19H31.7383C31.891 45.7981 32.1198 44.4156 32.4238 43.0487L32.4766 43.0145C32.8481 42.7481 33.2023 42.4583 33.537 42.147L33.575 42.1127C35.3406 40.4816 38.5146 36.709 38.4835 30.6941C38.477 29.6908 38.3879 28.6897 38.2172 27.7009ZM31.0184 38.7583C31.0184 38.7583 31.0184 27.5723 31.3876 27.5744C31.6755 27.5744 32.0484 42.003 32.0484 42.003C31.5358 41.9413 31.0184 39.6284 31.0184 38.7583Z" fill="#091D28"/>
</svg>
