<svg width="62" height="62" viewBox="0 0 62 62" fill="none" xmlns="http://www.w3.org/2000/svg">
<path fill-rule="evenodd" clip-rule="evenodd" d="M17.5889 13.616C17.0883 13.6144 16.5897 13.6779 16.1055 13.805V13.8711H16.1773C16.5241 14.3946 16.9107 14.8905 17.3338 15.3545C17.6248 15.9327 17.878 16.5091 18.1671 17.0873C18.203 17.0514 18.2389 17.0136 18.2389 17.0136C18.5074 16.8005 18.7175 16.5229 18.8496 16.2067C18.9818 15.8905 19.0318 15.546 18.9948 15.2052C18.8365 14.9612 18.6915 14.7089 18.5602 14.4494C18.3429 14.0884 17.8723 13.907 17.5832 13.6179" fill="#DCDFEC"/>
<path fill-rule="evenodd" clip-rule="evenodd" d="M53.483 45.1507C51.0994 44.9833 48.7075 45.3286 46.4686 46.1636C45.9263 46.3809 45.0608 46.3809 44.9852 47.0668C45.2762 47.3559 45.3102 47.8227 45.5654 48.2252C46.0603 49.0632 46.6964 49.8092 47.4456 50.4304C48.2014 51.0087 48.9573 51.585 49.7604 52.0914C51.1682 52.9626 52.7612 53.4671 54.1331 54.3345C54.9305 54.8409 55.7242 55.4909 56.5216 56.0352C56.9184 56.3243 57.1698 56.791 57.6762 56.98V56.8704C57.5274 56.4688 57.3434 56.0812 57.1263 55.712C56.7654 55.353 56.4026 55.0261 56.0398 54.6652C54.9798 53.2636 53.7116 52.0324 52.2793 51.0143C51.121 50.2169 48.5888 49.1247 48.1221 47.8019L48.0484 47.7282C48.896 47.6081 49.7313 47.4133 50.5446 47.1462C51.7729 46.8212 52.8935 46.8949 54.1576 46.5793C54.7378 46.4338 55.7865 46.0729 55.7865 46.0729V45.506C55.1403 44.8635 54.6773 44.0037 53.997 43.3971C52.1463 41.7815 50.174 40.3108 48.0975 38.998C46.9883 38.2818 45.5578 37.8207 44.3768 37.2103C43.9497 36.9949 43.243 36.8891 42.9841 36.5301C42.3967 35.6683 41.905 34.7451 41.5177 33.7768C40.4822 31.8116 39.4787 29.6328 38.5868 27.5542C38.0589 26.1611 37.45 24.8002 36.7633 23.4782C33.4495 17.8441 28.6662 13.2169 22.9253 10.0918C21.4768 9.39064 19.9367 8.897 18.3504 8.62541C17.4547 8.58762 16.5628 8.5177 15.669 8.48369C15.092 8.10569 14.5432 7.68634 14.0269 7.22895C11.9823 5.93453 6.729 3.15295 5.22483 6.8359C4.2611 9.16208 6.65719 11.4486 7.4792 12.6296C8.17231 13.4624 8.78301 14.3604 9.30272 15.311C9.55405 15.9195 9.62585 16.5639 9.86962 17.2007C10.3942 18.8355 11.017 20.437 11.7347 21.9967C12.1186 22.7675 12.5608 23.5079 13.0575 24.2114C13.3466 24.6063 13.8455 24.7783 13.9532 25.4302C13.5569 26.282 13.2797 27.1843 13.1293 28.1116C12.5047 30.0842 12.2748 32.1606 12.4528 34.2221C12.6308 36.2835 13.2132 38.2898 14.1667 40.1261C14.7336 41.0199 16.098 42.987 17.9215 42.235C19.5296 41.5925 19.1724 39.5535 19.6373 37.7678C19.7431 37.3351 19.6732 37.0516 19.8867 36.7663V37.114C19.8867 37.114 20.7994 39.1189 21.253 40.1374C22.4863 42.0063 24.0185 43.6598 25.7881 45.0317C26.4881 45.6428 27.0521 46.3941 27.4435 47.2369V47.8851H28.2504C28.2336 47.5928 28.1526 47.3079 28.0131 47.0505C27.8736 46.7931 27.6791 46.5697 27.4435 46.396C26.7818 45.7149 26.1758 44.9819 25.6313 44.204C24.1522 42.0974 22.8477 39.8734 21.731 37.5543C21.1641 36.4205 20.6861 35.1771 20.2325 34.0452C20.0247 33.6087 20.0247 32.9492 19.6751 32.7224C19.0296 33.4861 18.4694 34.3181 18.0046 35.2035C17.4404 36.9931 17.1119 38.8487 17.0277 40.7232C16.8897 40.761 16.9577 40.7232 16.8897 40.795C15.7767 40.5021 15.3931 39.2984 14.9736 38.278C13.8899 35.1309 13.7806 31.73 14.6599 28.5198C14.9018 27.7545 15.9506 25.3433 15.5311 24.612C15.3213 23.9147 14.624 23.516 14.2423 22.9661C13.755 22.2263 13.3357 21.4439 12.9895 20.6286C12.1599 18.5953 11.7404 16.3277 10.8371 14.2793C10.3371 13.2941 9.75493 12.3529 9.09675 11.4656C8.36869 10.5792 7.72647 9.62568 7.17874 8.61785C7.00489 8.21536 6.76113 7.55775 7.03891 7.11935C7.05765 6.99757 7.11557 6.88522 7.20387 6.7993C7.29218 6.71337 7.40608 6.65856 7.52833 6.64316C7.97807 6.24255 9.26871 6.75276 9.72034 6.97196C10.9342 7.44981 12.0904 8.06277 13.1671 8.79926C13.6546 9.16586 14.8035 10.0937 14.8035 10.0937H15.1437C16.3001 10.345 17.6002 10.1636 18.6887 10.4905C20.5213 11.1014 22.2703 11.9394 23.8947 12.9849C28.6825 16.037 32.5747 20.3048 35.1741 25.3527C35.6087 26.1823 35.792 26.9438 36.1888 27.8093C36.9447 29.5856 37.8895 31.3996 38.6454 33.1268C39.3122 34.8356 40.1746 36.4614 41.2154 37.9719C41.7558 38.7277 43.927 39.1284 44.904 39.5252C45.7524 39.8187 46.585 40.1561 47.3983 40.5362C48.6285 41.292 49.8549 42.1632 51.0133 42.9927C51.5896 43.4273 53.398 44.3306 53.5076 45.0543" fill="#DCDFEC"/>
</svg>
