<svg width="62" height="62" viewBox="0 0 62 62" fill="none" xmlns="http://www.w3.org/2000/svg">
<path d="M37.3055 28.5261L26.7842 31.9617L17.6309 36.0015L15.0701 36.6776C14.418 37.2979 13.7341 37.9262 12.9945 38.5624C12.1834 39.2622 11.4279 39.8985 10.8473 40.3596C10.2032 40.8686 9.24883 41.8229 8.76377 42.4272C8.04004 43.3338 7.46748 44.296 7.22094 45.0357C6.78351 46.3718 6.99833 47.7236 7.84128 48.9723C8.92281 50.5627 11.078 52.185 13.5909 53.2904C14.8714 53.8552 17.0265 54.5788 18.6487 54.9843C21.3446 55.6683 26.5615 56.4079 29.4323 56.5193C30.0128 56.5431 30.7922 56.5431 30.8239 56.5193C30.8876 56.4794 31.333 55.6286 31.85 54.5709C33.6155 50.9683 34.8878 47.5885 35.5797 44.7018C35.9932 42.9523 36.3192 40.6221 36.5338 37.8627C36.5896 37.0913 36.6134 34.5067 36.5657 33.6318C36.494 32.2004 36.3668 31.0394 36.1681 29.9022C36.1363 29.7351 36.1282 29.584 36.1442 29.5761C36.1759 29.5522 36.2714 29.5204 37.5677 29.1466L37.3053 28.5264V28.5262H37.3055V28.5261ZM34.9038 29.9338C34.9992 29.9338 35.2536 32.3752 35.3172 33.9181C35.3332 34.2441 35.3252 34.4588 35.3093 34.4588C35.2458 34.4588 33.9653 33.7034 33.0509 33.1308C32.2556 32.6298 30.7447 31.6277 30.5061 31.4369C30.4264 31.3813 30.4344 31.3733 31.0866 31.1506C32.1919 30.7768 34.8164 29.9338 34.9038 29.9338ZM29.5438 31.6993C29.6154 31.6993 29.7982 31.8026 30.2356 32.073C31.8738 33.0989 34.1006 34.3396 35.0549 34.7531C35.3491 34.8804 35.3808 34.8326 34.705 35.2939C33.2576 36.28 31.4522 37.2502 29.2414 38.2283C28.8518 38.4033 28.5258 38.5385 28.5179 38.5385C28.502 38.5385 28.5496 38.3398 28.6132 38.1011C29.146 36.1208 29.4483 34.1168 29.4642 32.5104C29.4722 31.7151 29.4722 31.7151 29.5438 31.6914C29.5278 31.6993 29.5357 31.6993 29.5438 31.6993ZM28.4384 32.1207C28.486 32.1684 28.4543 33.9498 28.3906 34.4349C28.2475 35.596 28.0248 36.6775 27.6591 37.8944C27.5716 38.1884 27.4919 38.4351 27.4762 38.451C27.4442 38.4907 26.3547 37.425 25.9969 37.0115C25.3765 36.2958 24.8916 35.58 24.5337 34.8803C24.3508 34.5224 24.0645 33.8226 24.0883 33.7987C24.2155 33.7113 28.4066 32.089 28.4384 32.1207ZM23.2374 34.1645C23.2453 34.1645 23.2532 34.1645 23.2613 34.1724C23.2771 34.1884 23.3329 34.3156 23.3806 34.4587C23.635 35.1506 24.2075 36.1685 24.7007 36.8207C25.2414 37.5365 25.9493 38.2998 26.5376 38.8008C26.7286 38.9599 26.9034 39.1109 26.9272 39.1348C26.975 39.1826 26.9909 39.1746 25.6946 39.6677C24.1917 40.2403 22.5534 40.8128 20.6766 41.4172C20.2282 41.5617 19.7803 41.7075 19.3328 41.8546C19.2611 41.8785 19.285 41.8387 19.4918 41.5127C20.4222 40.0573 21.8377 37.2024 22.633 35.1824C22.7682 34.8325 22.9034 34.4827 22.9273 34.4031C22.9591 34.2917 22.9988 34.252 23.1021 34.1963C23.1578 34.1805 23.2136 34.1645 23.2374 34.1645ZM21.647 34.8246C21.6708 34.8406 21.2652 35.6914 20.8676 36.4708C20.0961 37.9738 19.2532 39.4531 18.1239 41.2503C17.9331 41.5604 17.7502 41.8468 17.7263 41.8785C17.6866 41.9343 17.6706 41.9183 17.5434 41.6718C17.273 41.1389 17.0503 40.455 16.931 39.8267C16.8117 39.2064 16.8356 38.1249 16.9708 37.4569C17.0741 36.9639 17.0663 36.9719 17.3048 36.8525C18.3227 36.3356 21.6152 34.7928 21.647 34.8246ZM35.3651 35.3813V35.7153C35.3651 37.4887 35.1742 39.9222 34.8958 41.6957C34.848 42.0058 34.8081 42.2602 34.8003 42.2683C34.8003 42.2683 34.5697 42.2047 34.2994 42.1251C33.1065 41.7513 31.8102 41.2025 30.6412 40.5585C29.8697 40.137 28.7484 39.445 28.7803 39.4132C28.7881 39.4053 29.1222 39.2303 29.5118 39.0236C31.0707 38.2124 32.5656 37.3377 33.8619 36.4708C34.3471 36.1447 35.0786 35.62 35.2378 35.4768L35.3651 35.3813ZM15.6427 37.7351C15.6745 37.7351 15.6665 37.7988 15.6188 38.0851C15.587 38.2919 15.5473 38.6736 15.5315 38.9359C15.4677 40.0971 15.6587 40.956 16.2312 42.1329C16.3903 42.459 16.5176 42.7294 16.5096 42.7373C16.4538 42.785 11.1894 44.3279 9.53513 44.7812C9.04211 44.9163 8.61275 45.0356 8.58077 45.0435C8.52522 45.0595 8.51722 45.0515 8.54106 44.9162C8.72394 43.7473 9.61467 42.2204 10.8552 40.932C11.6823 40.0732 12.3424 39.5722 13.4717 38.9279C14.2828 38.4668 15.5314 37.775 15.6268 37.7431C15.6269 37.7351 15.6348 37.7351 15.6427 37.7351ZM28.0487 39.9539C28.0566 39.946 28.2475 40.0495 28.4781 40.1846C30.1799 41.1707 32.5498 42.0853 34.5696 42.5545L34.7526 42.5943L34.4981 42.7373C33.4405 43.3258 29.9652 44.7731 26.4105 46.1013C25.8935 46.292 25.3846 46.483 25.289 46.5227C25.1936 46.5624 25.1061 46.5863 25.1061 46.5784C25.1061 46.5704 25.2493 46.292 25.4321 45.9501C26.4262 44.0893 27.4283 41.8228 27.9372 40.2482C28.001 40.0971 28.0406 39.962 28.0487 39.9539ZM26.7842 40.3675C26.7923 40.3756 26.7286 40.5425 26.649 40.7333C25.9572 42.4113 25.0505 44.2405 23.8895 46.2922C23.5953 46.8171 23.3487 47.2386 23.3407 47.2386C23.3328 47.2386 23.0942 47.0954 22.8079 46.9205C21.1219 45.8866 19.6269 44.6142 18.6488 43.3816L18.5056 43.2066L19.2292 43.0078C21.8218 42.3001 24.0245 41.5366 26.2116 40.5983C26.5218 40.471 26.7763 40.3675 26.7842 40.3675ZM34.6414 43.1111C34.6493 43.2941 34.2437 44.9323 33.9096 46.1171C33.6313 47.1112 33.3926 47.8906 32.9554 49.2663C32.7645 49.8708 32.5976 50.3717 32.5896 50.3717C32.5816 50.3717 32.5339 50.3638 32.4862 50.348C30.1243 49.9184 28.0089 49.322 26.0208 48.5268C25.464 48.3041 24.6688 47.9462 24.6211 47.9065C24.6053 47.8904 25.0825 47.6679 25.6868 47.4054C29.3052 45.8229 33.0588 44.0256 34.3471 43.2543C34.4981 43.1588 34.6175 43.1111 34.6414 43.1111ZM16.5016 43.7315C16.5175 43.7473 15.5076 45.2027 14.0919 47.1828C13.5989 47.8747 13.0264 48.6859 12.8117 48.988C12.5969 49.2902 12.2709 49.7674 12.088 50.0537L11.7538 50.5707L11.3959 50.2685C10.9744 49.9185 10.2429 49.171 9.91685 48.7574C9.23288 47.9066 8.77173 47.008 8.58881 46.1889C8.50131 45.8071 8.5013 45.6162 8.58074 45.5925C8.69999 45.5607 10.8233 45.0596 12.8116 44.5983C13.917 44.3439 15.1973 44.0417 15.6585 43.9304C16.1198 43.8188 16.4937 43.7315 16.5016 43.7315ZM17.5195 44.1212L17.7739 44.4074C18.9192 45.6878 20.0882 46.6343 21.5037 47.4612C21.7583 47.6044 21.9491 47.7316 21.9331 47.7397C21.8776 47.7794 17.0184 49.5049 14.7679 50.2843C13.5035 50.7296 12.4617 51.0875 12.4538 51.0875C12.4459 51.0875 12.3743 51.0398 12.2946 50.9841L12.1516 50.8807L12.3822 50.5468C13.1297 49.4652 14.0682 48.2803 16.112 45.815L17.5195 44.1212ZM23.8657 48.662C23.8735 48.6541 24.2235 48.7812 24.6529 48.9405C25.6868 49.3301 26.5058 49.5765 27.6034 49.8549C28.9553 50.1969 30.9116 50.5309 32.0648 50.6263C32.2397 50.6422 32.3352 50.6582 32.3033 50.682C32.2476 50.7139 31.0787 51.1035 30.2198 51.3739C28.8518 51.8033 24.6768 53.0359 21.2732 54.0141C20.6449 54.197 20.1041 54.3481 20.0723 54.356C19.9929 54.372 19.7303 54.3003 19.7303 54.2685C19.7303 54.2527 19.9212 54.0062 20.1518 53.7358C21.2969 52.3679 22.4342 50.8411 23.3806 49.3937C23.6429 48.996 23.8657 48.6699 23.8657 48.662ZM22.466 48.7018C22.4739 48.7098 21.9093 49.6163 20.9233 51.175C20.5017 51.835 20.0325 52.5826 19.8655 52.845C19.7064 53.0995 19.4679 53.4972 19.3327 53.7198L19.1021 54.1254L18.9828 54.0936C18.6964 54.0141 16.6845 53.3062 16.1516 53.0915C15.4915 52.8291 14.8076 52.5111 14.2986 52.2407C13.6625 51.8987 12.8673 51.3897 12.9309 51.3739C12.9467 51.3659 14.0363 51.0716 15.3484 50.7138C18.8316 49.7673 20.764 49.2187 22.0286 48.8211C22.2593 48.7495 22.458 48.6938 22.466 48.7018ZM32.3669 51.0239H32.3748C32.4066 51.1035 31.1184 54.6821 30.649 55.8113C30.5458 56.0658 30.5061 56.1295 30.4504 56.1214C30.3151 56.1136 28.4464 55.8511 27.309 55.6841C25.3289 55.3819 22.0047 54.8013 21.1698 54.6105L20.9789 54.5708L22.1637 54.3002C24.7086 53.7277 25.9333 53.4176 27.1738 53.0358C28.7405 52.5587 30.2913 51.9622 31.8579 51.2306C32.1044 51.1193 32.3112 51.0318 32.3669 51.0239Z" fill="url(#paint0_linear_1801_2378)"/>
<path d="M26.4583 4.00041C26.2834 3.97668 23.4601 4.99459 21.6391 5.73408C19.1817 6.73622 17.2732 7.69058 16.0961 8.51746C15.6588 8.82775 15.11 9.3764 15.0226 9.59108C14.9908 9.67062 14.9749 9.76604 14.9749 9.86146L16.0405 10.8714L18.5773 11.6826L24.6134 12.7642L31.5161 13.9491L31.5877 13.3527C31.5639 13.3527 31.5479 13.3448 31.5243 13.3448L30.6174 13.2016L30.4347 12.8755C29.4962 11.2214 28.4624 9.1696 27.858 7.78585C27.3889 6.71224 26.9435 5.47177 26.6969 4.58104C26.5617 4.04027 26.5459 4.00848 26.4585 4.00055V4.00037H26.4583V4.00041ZM26.3309 4.40611H26.3391C26.3469 4.41396 26.3788 4.63678 26.4106 4.89906C26.5457 6.01257 26.7924 7.086 27.182 8.24712C27.4762 9.12193 27.4762 9.07426 27.1343 8.9708C26.3232 8.7482 22.6889 8.11994 20.0566 7.75413C19.6351 7.69843 19.2772 7.64279 19.2772 7.63487C19.2454 7.60308 21.1778 6.59302 22.0287 6.19549C23.1182 5.69437 26.1084 4.44583 26.3309 4.40611ZM18.6647 7.96881L18.975 8.07208C20.6608 8.64475 24.8994 9.45594 27.2376 9.64678C27.5 9.67065 27.7227 9.69456 27.7306 9.69456C27.7385 9.70249 27.516 9.82178 27.2296 9.95692C26.1004 10.5216 24.8598 11.2135 24.0009 11.7463C23.7465 11.9053 23.5158 12.0326 23.484 12.0326C23.4522 12.0326 23.2853 12.0008 23.1103 11.9769L22.7922 11.9291L21.9971 11.1497C20.5974 9.78991 19.4999 8.74021 19.0784 8.3425L18.6647 7.96881ZM18.3467 8.21528L19.468 9.61499C20.0803 10.3864 20.7006 11.1418 20.8359 11.3088C20.971 11.4759 21.0824 11.6111 21.0745 11.619C21.0427 11.6429 19.4523 11.3327 18.6092 11.1419C17.7424 10.943 17.3845 10.8476 16.8517 10.6807L16.4143 10.5375V10.4261C16.4222 9.89322 17.0982 9.09802 18.2434 8.28694L18.3467 8.21528ZM27.8738 10.1239C27.9057 10.1239 27.9453 10.1955 28.0408 10.4102C28.3112 11.0066 29.1543 12.6131 29.3609 12.9232C29.4247 13.0267 29.5358 13.0346 28.4146 12.8517C25.7188 12.4142 24.8519 12.2712 24.8519 12.2553C24.8519 12.2473 24.9314 12.1916 25.0348 12.1359C25.8699 11.6748 26.7128 11.0862 27.4604 10.458C27.6433 10.3068 27.8103 10.1637 27.842 10.1398C27.8499 10.1239 27.8659 10.116 27.8738 10.1239Z" fill="url(#paint1_linear_1801_2378)"/>
<path d="M15.0786 9.47968C15.0786 9.47968 14.9037 9.75813 15.0707 10.1717C15.1742 10.4261 15.4763 10.7362 15.8182 11.0543C15.8182 11.0543 19.3571 14.5057 19.7865 14.9988C21.7428 17.2573 22.5938 19.484 22.6733 22.5537C22.721 24.526 22.3471 26.2596 21.4168 28.2716C19.7626 31.8821 16.2714 35.8664 10.8876 40.288L11.675 40.0255C12.1839 39.6437 12.8758 39.2383 14.4981 38.3476C18.2437 36.2957 22.4586 34.4109 27.6278 32.4705C35.0711 29.6712 47.3102 26.3947 54.2765 25.3292L55.0003 25.2177L54.8889 25.0428C54.2528 24.0566 53.8153 23.4444 53.2904 22.7923C51.7636 20.8995 49.9108 19.3648 47.6442 18.0923C44.5268 16.3508 40.4947 14.9909 35.3893 13.9809C34.4271 13.79 32.3117 13.4242 30.594 13.1618C26.9517 12.5973 24.5977 12.2075 22.0052 11.7622C21.0749 11.6031 19.6831 11.3646 18.7606 11.1658C18.2834 11.0623 17.369 10.8476 16.6532 10.6011C16.0807 10.3783 15.2535 10.1557 15.0786 9.47968ZM17.1305 11.4679C17.1383 11.46 17.2655 11.5076 17.4326 11.5633C17.7348 11.6666 18.1245 11.7859 18.5858 11.9132C18.9349 12.0092 19.2848 12.102 19.6355 12.1915C20.1127 12.3108 20.5102 12.4221 20.5182 12.4221C20.5739 12.4778 21.3772 15.0463 21.6475 16.0325C21.7508 16.4063 21.8305 16.7244 21.8225 16.7244C21.8143 16.7324 21.727 16.5972 21.6236 16.4143C20.6932 14.776 19.2219 13.114 17.5201 11.7779C17.2975 11.619 17.1305 11.4758 17.1305 11.4679ZM21.0431 12.5494C21.0829 12.5494 21.2578 12.5733 21.4724 12.621C22.8244 12.9232 25.25 13.3844 26.8006 13.6469C27.0631 13.6866 27.2699 13.7344 27.2699 13.7502C27.2699 13.7662 27.1744 13.8218 27.0551 13.8855C26.7928 14.0206 25.735 14.6488 25.3852 14.8874C24.5024 15.4759 23.7072 16.1121 23.1346 16.6847C22.904 16.9153 22.7051 17.1062 22.7051 17.1062C22.7051 17.1062 22.6575 16.971 22.6176 16.8039C22.3314 15.6985 21.7349 14.0602 21.1941 12.9072C21.1066 12.7244 21.035 12.5573 21.035 12.5415C21.035 12.5573 21.035 12.5494 21.0431 12.5494ZM27.9299 13.8616C27.9776 13.8774 28.0572 14.1479 28.2162 14.7443C28.5105 15.8974 28.6457 17.1857 28.598 18.3866C28.582 18.7206 28.5662 19.0307 28.5502 19.0705L28.5264 19.15L28.1129 19.0148C27.2619 18.7445 25.8782 18.3388 24.6934 18.0048C24.0173 17.8219 23.4687 17.6549 23.4687 17.639C23.4687 17.5913 24.4548 16.6052 24.8763 16.2315C25.6793 15.5236 27.8583 13.8377 27.9299 13.8616ZM28.4787 13.941C28.5026 13.9173 31.771 14.4818 33.2582 14.7681C34.3637 14.9828 35.97 15.3169 36.0654 15.3567C36.1131 15.3725 35.9461 15.4679 35.4132 15.7065C33.3138 16.6529 31.755 17.5037 30.2044 18.5377C29.7988 18.808 29.4568 19.0307 29.4489 19.0307C29.441 19.0307 29.433 18.8001 29.433 18.5217C29.433 17.0108 29.1308 15.4839 28.574 14.1956C28.5184 14.0684 28.4707 13.9491 28.4787 13.941ZM36.9322 15.6111C36.9561 15.635 36.8526 16.2792 36.7572 16.6609C36.4709 17.8458 35.6996 19.6034 34.7533 21.2575C34.5862 21.5517 34.4351 21.7903 34.4191 21.7982C34.4034 21.8061 34.1886 21.6868 33.942 21.5437C33.0196 21.0029 31.9699 20.494 30.8246 20.0168C30.5067 19.8816 30.2282 19.7702 30.2203 19.7544C30.1645 19.7067 32.7253 18.0128 34.0772 17.2016C35.1509 16.5496 36.9003 15.5793 36.9322 15.6111ZM37.5365 15.7065C37.6081 15.7065 39.0555 16.1042 39.8109 16.3269C41.6798 16.8836 43.8269 17.6708 45.2266 18.307L45.8071 18.5696L45.4016 18.6649C41.9821 19.4522 39.0555 20.3589 36.2323 21.504C36.0017 21.5994 35.7949 21.679 35.7792 21.679C35.7632 21.679 35.8427 21.4961 35.9461 21.2733C36.797 19.4681 37.3458 17.5834 37.4808 15.9769C37.4889 15.8258 37.5126 15.7065 37.5365 15.7065ZM23.1266 19.0148C23.1504 18.9909 24.2559 19.2534 24.8523 19.4203C25.7589 19.6749 27.6833 20.3189 27.6833 20.3667C27.6833 20.3746 27.4687 20.5576 27.2143 20.7803C26.1725 21.6471 25.1704 22.5616 23.9695 23.7227C23.6116 24.0647 23.3095 24.343 23.2937 24.343C23.2777 24.343 23.2699 24.2952 23.2777 24.2316C23.4606 22.8956 23.4209 21.1779 23.1664 19.4363C23.1425 19.2135 23.1187 19.0228 23.1266 19.0148ZM46.356 19.0387C46.3717 19.0546 45.847 19.8816 45.513 20.3508C45.0359 21.0347 44.3359 21.9414 42.7533 23.9295C41.9185 24.9792 40.9799 26.1642 40.6699 26.5618C40.3517 26.9594 40.0893 27.2933 40.0813 27.2933C40.0734 27.2933 39.9701 27.1503 39.8587 26.9753C38.968 25.6393 37.9023 24.4702 36.6378 23.4205C36.3993 23.2216 36.137 23.0069 36.0495 22.9433C35.962 22.8797 35.8904 22.8161 35.8904 22.8082C35.8904 22.7844 37.2422 22.2037 38.2682 21.7903C40.0655 21.0586 42.5146 20.1838 44.3518 19.6192C45.3141 19.317 46.34 19.0228 46.356 19.0387ZM46.9683 19.1977C47 19.1898 47.1909 19.2852 47.4216 19.4203C49.3541 20.5257 51.2467 21.9493 52.7419 23.4126C53.1633 23.8261 54.2051 24.9077 54.1891 24.9156C54.1891 24.9156 53.8233 24.9474 53.3939 24.9792C50.0459 25.2337 45.7596 25.9414 41.6401 26.9354C41.3618 26.999 41.1153 27.0547 41.0993 27.0547C41.0836 27.0547 41.3936 26.7446 41.7834 26.3709C44.2009 24.0408 45.3064 22.5696 46.6105 19.9452C46.7933 19.5556 46.9524 19.2216 46.9683 19.1977C46.9604 19.1977 46.9604 19.1977 46.9683 19.1977ZM29.258 21.011C29.3694 21.0347 30.4032 21.52 31.1825 21.9096C31.8983 22.2673 32.9719 22.84 33.0275 22.8876C33.0355 22.8956 32.6537 23.0944 32.1847 23.3251C30.6895 24.0726 29.4092 24.7803 28.0731 25.5915C27.6914 25.8221 27.3733 26.0131 27.3654 26.0131C27.3335 26.0131 27.3414 25.9811 27.5562 25.5915C28.272 24.2874 28.8445 22.7287 29.1706 21.2097C29.2023 21.0904 29.2342 21.011 29.258 21.011ZM28.2241 21.2017C28.248 21.2257 27.9776 22.2037 27.8107 22.7366C27.4845 23.7466 26.9359 25.011 26.4031 25.9653C26.2757 26.1879 26.0849 26.514 25.9815 26.6968L25.7828 27.0149L25.3374 26.5856C24.8206 26.0846 24.399 25.7744 23.8583 25.496C23.6435 25.3848 23.4765 25.2893 23.4765 25.2735C23.4765 25.2098 24.8364 23.9772 25.8782 23.0865C26.6257 22.4423 28.2003 21.1779 28.2241 21.2017ZM34.5465 23.8023L34.9363 24.0567C35.8267 24.6373 36.8764 25.4086 37.6798 26.0846C38.133 26.4583 39.0077 27.2457 39.1828 27.4365L39.2781 27.54L38.6341 27.7229C34.9918 28.7327 32.1766 29.6314 28.8922 30.8403C28.5264 30.9754 28.2162 31.0867 28.1923 31.0867C28.1447 31.0867 28.1048 31.1264 28.924 30.3709C31.0236 28.4386 32.8843 26.3072 34.2681 24.2316L34.5465 23.8023ZM32.8844 24.2158C32.9003 24.2316 31.8108 25.7664 31.1586 26.6333C30.3793 27.6672 28.9955 29.4008 28.0412 30.5299C27.6437 30.9992 27.3018 31.3889 27.2858 31.3969C27.2619 31.4048 27.254 31.2855 27.254 31.1026C27.254 30.1403 27.0075 29.1144 26.578 28.2397C26.3951 27.8739 26.3633 27.7864 26.4032 27.7467C26.5542 27.6114 28.8684 26.2913 30.3316 25.504C31.3177 24.9792 32.8604 24.1999 32.8844 24.2158ZM22.8323 26.6811C22.8562 26.6811 23.0391 26.7764 23.2459 26.8878C23.7549 27.1661 24.2082 27.4763 24.6137 27.8104C24.6296 27.8262 24.4229 27.9933 24.1525 28.192C23.397 28.7327 22.2519 29.5996 21.584 30.1325C20.884 30.6892 20.8603 30.705 20.9397 30.5858C21.4646 29.7826 21.7269 29.3292 22.0054 28.7488C22.2519 28.2319 22.4983 27.6195 22.6733 27.0867C22.7369 26.856 22.8165 26.6811 22.8323 26.6811ZM25.5124 28.7805C25.5521 28.7726 25.5999 28.8441 25.8145 29.1623C26.2678 29.8381 26.6178 30.7448 26.7054 31.4764L26.7211 31.6356L25.6318 32.0571C23.6833 32.8125 21.8861 33.5601 20.6692 34.1167C20.3274 34.2758 19.7309 34.562 19.3413 34.753C18.9516 34.9517 18.6335 35.1028 18.6335 35.0949C18.6335 35.087 18.8799 34.904 19.1821 34.6813C21.5601 32.9557 23.6197 31.0629 25.1625 29.1702C25.3295 28.9714 25.4807 28.7884 25.4964 28.7805L25.5124 28.7805ZM24.2798 29.0827C24.3116 29.1145 23.4051 30.1404 22.7848 30.7686C21.2499 32.3353 19.731 33.5601 17.8461 34.753C17.6076 34.904 17.3929 35.0392 17.369 35.0552C17.3133 35.087 17.3849 35.0074 18.212 34.1087C18.7369 33.5441 19.1344 33.0669 19.5877 32.4785C19.8899 32.0889 19.9456 32.0332 20.3831 31.7229C21.5521 30.88 24.248 29.0509 24.2798 29.0827Z" fill="url(#paint2_radial_1801_2378)"/>
<defs>
<linearGradient id="paint0_linear_1801_2378" x1="14.9155" y1="51.3402" x2="18.72" y2="49.0922" gradientUnits="userSpaceOnUse">
<stop stop-color="#909CA9"/>
<stop offset="1" stop-color="#EDEDEE"/>
</linearGradient>
<linearGradient id="paint1_linear_1801_2378" x1="15.0028" y1="8.95921" x2="18.0639" y2="8.95921" gradientUnits="userSpaceOnUse">
<stop stop-color="#939FAB"/>
<stop offset="1" stop-color="#DCDEE1"/>
</linearGradient>
<radialGradient id="paint2_radial_1801_2378" cx="0" cy="0" r="1" gradientUnits="userSpaceOnUse" gradientTransform="translate(30.4499 22.9986) rotate(-171.457) scale(3.9467 7.89536)">
<stop stop-color="#EE352C"/>
<stop offset="1" stop-color="#A91D22"/>
</radialGradient>
</defs>
</svg>
