<svg width="62" height="62" viewBox="0 0 62 62" fill="none" xmlns="http://www.w3.org/2000/svg">
<path d="M26.5844 30.9992H14.084C12.9336 30.9992 12 31.9311 12 33.0831V53.916C12 55.0664 12.9319 56 14.084 56H28.6667V33.0831C28.6667 31.9328 27.7347 30.9992 26.5827 30.9992H26.5844ZM37.0008 18.4987H24.5004C23.3501 18.4987 22.4165 19.4307 22.4165 20.5827V29.9572H26.5827C28.3082 29.9589 29.7053 31.3576 29.707 33.0815V55.9983H39.0815V20.581C39.0815 19.4307 38.1495 18.4971 36.9975 18.4971L37.0008 18.4987ZM49.5012 8.08229V53.916C49.5012 55.0664 48.5693 56 47.4173 56H40.1251V20.5827C40.1234 18.8572 38.7247 17.4601 37.0008 17.4584H32.8346V8.08396C32.8346 6.93361 33.7665 6 34.9185 6H47.419C48.5693 6 49.5029 6.93195 49.5029 8.08396L49.5012 8.08229Z" fill="#DCDFEC"/>
</svg>
