<svg width="62" height="62" viewBox="0 0 62 62" fill="none" xmlns="http://www.w3.org/2000/svg">
<circle cx="31" cy="31" r="27.125" fill="#DCDFEC"/>
<path d="M43.3309 41.8945C42.8675 42.6298 41.8789 42.8357 41.1065 42.3945C35.0202 38.8649 27.3892 38.0708 18.368 40.0121C17.5029 40.1885 16.6378 39.6885 16.4525 38.8649C16.2671 38.0414 16.7923 37.2178 17.6574 37.0414C27.5128 34.8942 35.978 35.806 42.7748 39.7768C43.5472 40.2179 43.7943 41.1592 43.3309 41.8945ZM46.4822 35.1883C45.8952 36.1001 44.6594 36.3649 43.7017 35.8354C36.7503 31.747 26.1534 30.5705 17.9354 32.953C16.8541 33.2471 15.7419 32.6882 15.433 31.6882C15.124 30.6588 15.711 29.5999 16.7923 29.3058C26.1843 26.5998 37.8625 27.8939 45.8643 32.5706C46.7602 33.1 47.0692 34.2765 46.4822 35.1883ZM46.7602 28.1881C38.4186 23.482 24.6705 23.0408 16.6996 25.335C15.433 25.7174 14.0736 25.0409 13.6719 23.8056C13.2703 22.5996 14.0118 21.3055 15.2785 20.9231C24.4233 18.2759 39.6235 18.8054 49.2009 24.2173C50.344 24.8644 50.7148 26.2762 50.0351 27.3645C49.3863 28.4822 47.9033 28.8646 46.7602 28.1881Z" fill="#091D28"/>
</svg>
