<svg width="62" height="62" viewBox="0 0 62 62" fill="none" xmlns="http://www.w3.org/2000/svg">
<path d="M4.64605 25.9649C4.5262 25.9649 4.4961 25.9049 4.55611 25.8149L5.18563 25.0056C5.22633 24.9581 5.27692 24.9201 5.33386 24.8941C5.39079 24.8682 5.4527 24.8551 5.51525 24.8556H16.2159C16.3357 24.8556 16.3658 24.9456 16.3058 25.0355L15.7963 25.8148C15.7242 25.9121 15.6164 25.9768 15.4966 25.9946L4.64605 25.9649Z" fill="#00ACD7"/>
<path d="M0.119923 28.7217C7.91162e-05 28.7217 -0.0300272 28.6617 0.0299911 28.5717L0.659508 27.7624C0.700212 27.7149 0.7508 27.6768 0.807736 27.6509C0.864671 27.625 0.926578 27.6119 0.989126 27.6124H14.6573C14.6805 27.6091 14.7042 27.6119 14.726 27.6203C14.7479 27.6287 14.7673 27.6426 14.7823 27.6606C14.7973 27.6786 14.8075 27.7002 14.8118 27.7232C14.8162 27.7462 14.8146 27.77 14.8072 27.7923L14.5673 28.5123C14.5491 28.5683 14.5125 28.6165 14.4634 28.6491C14.4144 28.6817 14.3559 28.6969 14.2972 28.6922L0.119923 28.7217Z" fill="#00ACD7"/>
<path d="M7.37358 31.4792C7.25374 31.4792 7.22364 31.3893 7.28365 31.2994L7.7032 30.55C7.73615 30.4992 7.78028 30.4566 7.83223 30.4254C7.88417 30.3942 7.94255 30.3753 8.00291 30.3702H13.9978C14.1176 30.3702 14.1776 30.4601 14.1776 30.5799L14.1176 31.2994C14.114 31.3538 14.0907 31.4051 14.0522 31.4437C14.0136 31.4823 13.9623 31.5055 13.9079 31.5092L7.37358 31.4792Z" fill="#00ACD7"/>
<path d="M38.4862 25.4245C36.5978 25.9041 35.3089 26.2638 33.4506 26.7434C33.001 26.8632 32.9711 26.8933 32.5822 26.4437C32.1326 25.9342 31.8029 25.6044 31.1734 25.3051C29.2851 24.3759 27.4567 24.6457 25.7482 25.7547C23.7101 27.0736 22.6605 29.0218 22.691 31.4497C22.7209 33.8476 24.3699 35.8258 26.7375 36.1556C28.7756 36.4258 30.4841 35.706 31.8323 34.1774C32.1025 33.8477 32.3418 33.488 32.6417 33.0683H26.8564C26.2268 33.0683 26.0771 32.6786 26.2869 32.1692C26.6765 31.2399 27.3959 29.6814 27.8155 28.9021C27.8799 28.7577 27.9852 28.6354 28.1184 28.5501C28.2515 28.4649 28.4068 28.4206 28.5648 28.4226H39.4752C39.4152 29.2319 39.4152 30.0411 39.2954 30.8505C38.9848 32.9848 38.1393 35.0058 36.8375 36.7253C34.6794 39.5723 31.8618 41.3406 28.2951 41.8201C25.3576 42.2098 22.63 41.6403 20.2322 39.8419C19.1664 39.0618 18.2767 38.0662 17.6209 36.9198C16.9651 35.7734 16.5578 34.5018 16.4255 33.1877C16.0359 29.9207 16.995 26.9833 18.9729 24.4054C21.1014 21.6179 23.9189 19.8496 27.3653 19.2201C30.1828 18.7106 32.8804 19.0402 35.3083 20.6887C36.861 21.7212 38.0714 23.1925 38.7853 24.9151C38.9658 25.1849 38.8457 25.3348 38.4862 25.4245Z" fill="#00ACD7"/>
<path d="M48.4073 42C45.6797 41.94 43.1919 41.1607 41.0932 39.3623C39.3475 37.891 38.1969 35.8348 37.8561 33.5774C37.3157 30.1903 38.2457 27.1931 40.284 24.5254C42.4721 21.648 45.1098 20.1493 48.6766 19.5198C51.7338 18.9794 54.6114 19.2799 57.219 21.0484C59.587 22.667 61.0556 24.855 61.4454 27.7324C61.9549 31.779 60.786 35.0759 57.9985 37.8935C56.0442 39.8709 53.5357 41.2087 50.8048 41.73C49.996 41.8802 49.1868 41.9101 48.4073 42ZM55.541 29.8908C55.5301 29.5597 55.5 29.2294 55.4511 28.9017C54.9107 25.9344 52.1841 24.2558 49.3366 24.9153C46.5491 25.5448 44.7507 27.3131 44.0912 30.1307C43.8188 31.2483 43.9452 32.426 44.4487 33.4604C44.9522 34.4947 45.8011 35.3207 46.8488 35.7957C48.4973 36.5152 50.1459 36.4253 51.7346 35.6159C54.1023 34.3868 55.3913 32.4685 55.541 29.8908Z" fill="#00ACD7"/>
</svg>
