<svg width="62" height="62" viewBox="0 0 62 62" fill="none" xmlns="http://www.w3.org/2000/svg">
<path d="M31.0955 16.3537C43.8599 6.44426 37.3089 0 37.3089 0C38.2838 10.2443 26.7618 12.6632 23.6733 19.7028C21.5658 24.5064 25.1164 28.7125 31.0912 34.0135C30.563 32.8395 29.7483 31.6986 28.9236 30.5436C26.1107 26.6043 23.1803 22.5006 31.0955 16.3537Z" fill="#9899A1"/>
<path d="M33.1332 36.1867C33.1332 36.1867 36.9735 33.0883 33.9323 29.6452C23.6232 17.9642 45.2074 12.6632 45.2074 12.6632C32.0294 19.0117 33.9967 22.78 37.3089 27.3578C40.8554 32.2667 33.1332 36.1867 33.1332 36.1867Z" fill="#9899A1"/>
<path d="M44.4405 45.4258C56.2695 39.3813 50.8002 33.5725 46.9828 34.3551C46.0471 34.5466 45.6299 34.7125 45.6299 34.7125C45.6299 34.7125 45.9772 34.1775 46.6407 33.9458C54.1929 31.3349 60.001 41.6464 44.2028 45.7304C44.2028 45.7306 44.3858 45.5697 44.4405 45.4258Z" fill="#DCDFEC"/>
<path d="M19.8265 37.7753C12.4254 36.8034 23.8844 34.127 23.8844 34.127C23.8844 34.127 19.4345 33.8318 13.9615 36.4334C7.48993 39.5117 29.9694 40.9118 41.6058 37.9023C42.8156 37.09 44.4878 36.3858 44.4878 36.3858C44.4878 36.3858 39.726 37.2222 34.9837 37.6155C29.181 38.0936 22.9515 38.1867 19.8265 37.7753Z" fill="#DCDFEC"/>
<path d="M22.6423 43.5469C18.5152 43.1271 21.2176 41.1601 21.2176 41.1601C10.538 44.6456 27.1594 48.5983 42.0823 44.3072C40.4961 43.7573 39.4873 42.7516 39.4873 42.7516C32.1941 44.1326 27.9794 44.0883 22.6423 43.5469Z" fill="#DCDFEC"/>
<path d="M24.4406 49.7921C20.3165 49.3259 22.7259 47.948 22.7259 47.948C13.0315 50.6118 28.6225 56.1149 40.9651 50.9131C38.9435 50.14 37.496 49.2475 37.496 49.2475C31.9902 50.2722 29.4367 50.3526 24.4406 49.7921Z" fill="#DCDFEC"/>
<path d="M50.2561 52.9689C50.2561 52.9689 52.0391 54.4135 48.2925 55.5312C41.1683 57.6535 18.6405 58.2943 12.3824 55.6157C10.1328 54.6533 14.3515 53.3178 15.6785 53.0375C17.0625 52.7424 17.8534 52.7974 17.8534 52.7974C15.3516 51.0643 1.6827 56.2004 10.9103 57.6713C36.0752 61.6845 56.7836 55.8642 50.2561 52.9689Z" fill="#DCDFEC"/>
<path d="M54.25 56.1253C53.8371 61.4085 36.4012 62.5198 25.0468 61.805C17.6396 61.3379 16.1551 60.1706 16.1334 60.1535C23.2226 61.3029 35.1751 61.5121 44.8663 59.7187C53.4562 58.1281 54.25 56.1253 54.25 56.1253Z" fill="#DCDFEC"/>
</svg>
