<svg width="62" height="62" viewBox="0 0 62 62" fill="none" xmlns="http://www.w3.org/2000/svg">
<path d="M31 58.125C45.9807 58.125 58.125 45.9807 58.125 31C58.125 16.0193 45.9807 3.875 31 3.875C16.0193 3.875 3.875 16.0193 3.875 31C3.875 45.9807 16.0193 58.125 31 58.125Z" fill="#8892BF"/>
<path d="M27.9759 19.375H31.231L30.3111 24.2657H33.2359C34.8399 24.3 36.0349 24.6585 36.8213 25.3411C37.6232 26.0238 37.8591 27.3214 37.5289 29.2332L35.9485 37.7598H32.6463L34.1559 29.6173C34.313 28.7636 34.2658 28.1577 34.0143 27.7993C33.7629 27.4408 33.2204 27.2615 32.3868 27.2615L29.7686 27.2359L27.8344 37.7598H24.5793L27.9759 19.375Z" fill="white"/>
<path fill-rule="evenodd" clip-rule="evenodd" d="M13.0605 24.2656H19.382C21.2374 24.2825 22.5819 24.8632 23.4155 26.0067C24.2491 27.1503 24.5241 28.7122 24.2411 30.6926C24.1311 31.5975 23.8872 32.485 23.5098 33.3556C23.148 34.2262 22.6451 35.0112 22.0002 35.7113C21.2138 36.5988 20.3727 37.1621 19.4764 37.4013C18.58 37.6404 17.6521 37.7597 16.693 37.7597H13.8625L12.9662 42.6248H9.6875L13.0605 24.2656ZM14.405 34.8663L15.8156 27.2102H16.292C16.4652 27.2102 16.6458 27.2015 16.8345 27.1846C18.0927 27.1677 19.1381 27.2957 19.9717 27.5687C20.8209 27.8417 21.1039 28.8746 20.8209 30.667C20.4751 32.8009 19.7986 34.0469 18.7923 34.4054C17.7861 34.747 16.5279 34.9088 15.0183 34.8919H14.6881C14.5937 34.8919 14.4994 34.8832 14.405 34.8663Z" fill="white"/>
<path fill-rule="evenodd" clip-rule="evenodd" d="M47.3459 24.2656H41.0244L37.6514 42.6248H40.9301L41.8264 37.7597H44.6569C45.616 37.7597 46.5439 37.6404 47.4402 37.4013C48.3366 37.1621 49.1777 36.5988 49.9641 35.7113C50.609 35.0112 51.1119 34.2262 51.4737 33.3556C51.8511 32.485 52.095 31.5975 52.2049 30.6926C52.488 28.7122 52.213 27.1503 51.3794 26.0067C50.5458 24.8632 49.2013 24.2825 47.3459 24.2656ZM43.7795 27.2102L42.3689 34.8663C42.4633 34.8832 42.5576 34.8919 42.652 34.8919H42.9822C44.4918 34.9088 45.75 34.747 46.7562 34.4054C47.7625 34.0469 48.4389 32.8009 48.7847 30.667C49.0678 28.8746 48.7847 27.8417 47.9356 27.5687C47.102 27.2957 46.0566 27.1677 44.7984 27.1846C44.6097 27.2015 44.429 27.2102 44.2559 27.2102H43.7795Z" fill="white"/>
</svg>
