<svg width="40" height="40" viewBox="0 0 40 40" fill="none" xmlns="http://www.w3.org/2000/svg">
<path d="M9.99992 16.6667H6.66659C5.78253 16.6667 4.93468 16.3155 4.30956 15.6904C3.68444 15.0653 3.33325 14.2174 3.33325 13.3334V6.66671C3.33325 5.78265 3.68444 4.93481 4.30956 4.30968C4.93468 3.68456 5.78253 3.33337 6.66659 3.33337H33.3333C34.2173 3.33337 35.0652 3.68456 35.6903 4.30968C36.3154 4.93481 36.6666 5.78265 36.6666 6.66671V13.3334C36.6666 14.2174 36.3154 15.0653 35.6903 15.6904C35.0652 16.3155 34.2173 16.6667 33.3333 16.6667H29.9999M9.99992 23.3334H6.66659C5.78253 23.3334 4.93468 23.6846 4.30956 24.3097C3.68444 24.9348 3.33325 25.7827 3.33325 26.6667V33.3334C3.33325 34.2174 3.68444 35.0653 4.30956 35.6904C4.93468 36.3155 5.78253 36.6667 6.66659 36.6667H33.3333C34.2173 36.6667 35.0652 36.3155 35.6903 35.6904C36.3154 35.0653 36.6666 34.2174 36.6666 33.3334V26.6667C36.6666 25.7827 36.3154 24.9348 35.6903 24.3097C35.0652 23.6846 34.2173 23.3334 33.3333 23.3334H29.9999M9.99992 10H10.0166M9.99992 30H10.0166M21.6666 10L14.9999 20H24.9999L18.3333 30" stroke="#EB4042" stroke-width="3" stroke-linecap="round" stroke-linejoin="round"/>
</svg>
