<svg width="40" height="40" viewBox="0 0 40 40" fill="none" xmlns="http://www.w3.org/2000/svg">
<path d="M23.3333 31.6667C23.3333 29.0145 22.2797 26.471 20.4043 24.5956C18.529 22.7203 15.9854 21.6667 13.3333 21.6667M13.3333 21.6667C10.6811 21.6667 8.13755 22.7203 6.26218 24.5956C4.38682 26.471 3.33325 29.0145 3.33325 31.6667M13.3333 21.6667C17.0152 21.6667 19.9999 18.6819 19.9999 15C19.9999 11.3181 17.0152 8.33337 13.3333 8.33337C9.65135 8.33337 6.66659 11.3181 6.66659 15C6.66659 18.6819 9.65135 21.6667 13.3333 21.6667ZM36.6666 31.6667C36.6666 29.0145 35.613 26.471 33.7377 24.5956C31.8623 22.7203 29.3188 21.6667 26.6666 21.6667C28.4347 21.6667 30.1304 20.9643 31.3806 19.7141C32.6309 18.4638 33.3333 16.7682 33.3333 15C33.3333 13.2319 32.6309 11.5362 31.3806 10.286C30.1304 9.03575 28.4347 8.33337 26.6666 8.33337" stroke="#EB4042" stroke-width="3" stroke-linecap="round" stroke-linejoin="round"/>
</svg>
