<svg width="597" height="383" viewBox="0 0 597 383" fill="none" xmlns="http://www.w3.org/2000/svg">
<g clip-path="url(#clip0_18_1985)">
<path opacity="0.2" d="M326.412 175.767H301.069V186.02H326.412V175.767Z" fill="black"/>
<path opacity="0.2" d="M316.76 139.281H291.417V149.535H316.76V139.281Z" fill="black"/>
<path opacity="0.2" d="M225.057 175.464H199.714V185.717H225.057V175.464Z" fill="black"/>
<path opacity="0.2" d="M261.865 104.133H236.522V114.386H261.865V104.133Z" fill="black"/>
<path opacity="0.2" d="M289.612 104.133H264.27V114.386H289.612V104.133Z" fill="black"/>
<path opacity="0.2" d="M181.618 251.265H156.275V261.518H181.618V251.265Z" fill="black"/>
<path opacity="0.2" d="M168.348 263.93H143.005V274.183H168.348V263.93Z" fill="black"/>
<path opacity="0.1" d="M302.883 153.456H277.54V163.709H302.883V153.456Z" fill="black"/>
<path opacity="0.1" d="M340.897 211.039H315.554V221.292H340.897V211.039Z" fill="black"/>
<path opacity="0.1" d="M192.484 226.722H167.141V236.976H192.484V226.722Z" fill="black"/>
<path opacity="0.1" d="M221.438 226.722H196.095V236.976H221.438V226.722Z" fill="black"/>
<path opacity="0.1" d="M223.851 212.245H198.508V222.498H223.851V212.245Z" fill="black"/>
<path opacity="0.1" d="M331.845 153.456H306.502V163.709H331.845V153.456Z" fill="black"/>
<path opacity="0.2" d="M319.107 71.8228H293.765V82.0761H319.107V71.8228Z" fill="black"/>
<path opacity="0.2" d="M309.456 35.3372H284.113V45.5905H309.456V35.3372Z" fill="black"/>
<path opacity="0.1" d="M295.579 49.5115H270.236V59.7648H295.579V49.5115Z" fill="black"/>
<path opacity="0.1" d="M324.532 49.5115H299.189V59.7648H324.532V49.5115Z" fill="black"/>
<path opacity="0.2" d="M256.432 262.896H231.089V273.15H256.432V262.896Z" fill="black"/>
<path opacity="0.1" d="M242.554 277.07H217.211V287.324H242.554V277.07Z" fill="black"/>
<path opacity="0.1" d="M271.516 277.07H246.173V287.324H271.516V277.07Z" fill="black"/>
<path opacity="0.2" d="M133.591 135.312H108.249V145.565H133.591V135.312Z" fill="black"/>
<path opacity="0.1" d="M119.722 149.478H94.3789V159.731H119.722V149.478Z" fill="black"/>
<path opacity="0.1" d="M148.676 149.478H123.333V159.731H148.676V149.478Z" fill="black"/>
<path opacity="0.2" d="M123.702 211.646H98.3594V221.899H123.702V211.646Z" fill="black"/>
<path opacity="0.1" d="M235.923 162.626H210.58V172.88H235.923V162.626Z" fill="black"/>
<path opacity="0.1" d="M197.909 263.331H172.566V273.584H197.909V263.331Z" fill="black"/>
<path opacity="0.1" d="M276.342 91.468H250.999V101.721H276.342V91.468Z" fill="black"/>
<path opacity="0.2" d="M109.225 177.703H83.8823V187.956H109.225V177.703Z" fill="black"/>
<path opacity="0.1" d="M123.702 165.038H98.3594V175.291H123.702V165.038Z" fill="black"/>
<path opacity="0.1" d="M188.257 103.403H162.915V113.656H188.257V103.403Z" fill="black"/>
<path opacity="0.2" d="M276.342 175.767H250.999V186.02H276.342V175.767Z" fill="black"/>
<path opacity="0.2" d="M387.561 186.012H412.904V175.759H387.561V186.012Z" fill="black"/>
<path opacity="0.2" d="M397.212 149.535H422.555V139.282H397.212V149.535Z" fill="black"/>
<path opacity="0.2" d="M488.916 185.717H514.259V175.464H488.916V185.717Z" fill="black"/>
<path opacity="0.2" d="M452.108 114.386H477.451V104.133H452.108V114.386Z" fill="black"/>
<path opacity="0.2" d="M424.36 114.386H449.703V104.133H424.36V114.386Z" fill="black"/>
<path opacity="0.1" d="M411.09 163.701H436.433V153.448H411.09V163.701Z" fill="black"/>
<path opacity="0.1" d="M373.076 221.292H398.418V211.039H373.076V221.292Z" fill="black"/>
<path opacity="0.1" d="M521.489 236.968H546.832V226.714H521.489V236.968Z" fill="black"/>
<path opacity="0.1" d="M492.535 236.968H517.878V226.714H492.535V236.968Z" fill="black"/>
<path opacity="0.1" d="M490.122 222.498H515.465V212.244H490.122V222.498Z" fill="black"/>
<path opacity="0.1" d="M382.136 163.701H407.479V153.448H382.136V163.701Z" fill="black"/>
<path opacity="0.2" d="M184.523 313.933H209.866V303.68H184.523V313.933Z" fill="black"/>
<path opacity="0.1" d="M198.393 328.107H223.735V317.854H198.393V328.107Z" fill="black"/>
<path opacity="0.1" d="M169.439 328.107H194.782V317.854H169.439V328.107Z" fill="black"/>
<path opacity="0.2" d="M61.8633 313.933H87.2061V303.68H61.8633V313.933Z" fill="black"/>
<path opacity="0.1" d="M75.7412 328.107H101.084V317.854H75.7412V328.107Z" fill="black"/>
<path opacity="0.1" d="M46.7793 328.107H72.1221V317.854H46.7793V328.107Z" fill="black"/>
<path opacity="0.2" d="M457.549 273.149H482.892V262.896H457.549V273.149Z" fill="black"/>
<path opacity="0.1" d="M471.419 287.316H496.761V277.062H471.419V287.316Z" fill="black"/>
<path opacity="0.1" d="M442.465 287.316H467.808V277.062H442.465V287.316Z" fill="black"/>
<path opacity="0.1" d="M478.05 172.88H503.393V162.627H478.05V172.88Z" fill="black"/>
<path opacity="0.1" d="M516.064 273.576H541.407V263.323H516.064V273.576Z" fill="black"/>
<path opacity="0.1" d="M392.46 287.988H417.803V277.735H392.46V287.988Z" fill="black"/>
<path opacity="0.1" d="M363.499 287.988H388.841V277.735H363.499V287.988Z" fill="black"/>
<path opacity="0.2" d="M328.513 324.17H353.855V313.917H328.513V324.17Z" fill="black"/>
<path opacity="0.1" d="M544.977 338.336H570.32V328.083H544.977V338.336Z" fill="black"/>
<path opacity="0.1" d="M544.977 312.121H570.32V301.867H544.977V312.121Z" fill="black"/>
<path opacity="0.1" d="M557.968 324.876H583.311V314.622H557.968V324.876Z" fill="black"/>
<path opacity="0.1" d="M528.9 324.876H554.242V314.622H528.9V324.876Z" fill="black"/>
<path opacity="0.1" d="M387.027 324.597H412.37V314.343H387.027V324.597Z" fill="black"/>
<path opacity="0.2" d="M445.575 348.344H420.232V358.597H445.575V348.344Z" fill="black"/>
<path opacity="0.1" d="M431.706 362.518H406.363V372.771H431.706V362.518Z" fill="black"/>
<path opacity="0.1" d="M460.66 362.518H435.317V372.771H460.66V362.518Z" fill="black"/>
<path opacity="0.2" d="M529.95 339.304H504.607V349.558H529.95V339.304Z" fill="black"/>
<path opacity="0.1" d="M516.072 362.518H490.729V372.771H516.072V362.518Z" fill="black"/>
<path opacity="0.1" d="M545.026 362.518H519.683V372.771H545.026V362.518Z" fill="black"/>
<path opacity="0.1" d="M75.7246 372.755H50.3818V383.008H75.7246V372.755Z" fill="black"/>
<path opacity="0.1" d="M158.844 359.286H133.501V369.539H158.844V359.286Z" fill="black"/>
<path opacity="0.1" d="M112.057 346.531H86.7139V356.784H112.057V346.531Z" fill="black"/>
<path opacity="0.1" d="M99.0733 359.286H73.7305V369.539H99.0733V359.286Z" fill="black"/>
<path opacity="0.1" d="M128.134 359.286H102.791V369.539H128.134V359.286Z" fill="black"/>
<path opacity="0.1" d="M437.639 101.721H462.982V91.4681H437.639V101.721Z" fill="black"/>
<path opacity="0.1" d="M424.164 58.4934H449.506V48.24H424.164V58.4934Z" fill="black"/>
<path opacity="0.1" d="M525.715 113.656H551.058V103.403H525.715V113.656Z" fill="black"/>
<path opacity="0.2" d="M437.639 186.012H462.982V175.759H437.639V186.012Z" fill="black"/>
<path opacity="0.2" d="M179.87 33.8032H154.527V44.0566H179.87V33.8032Z" fill="black"/>
<path opacity="0.1" d="M77.4893 106.438H52.1465V116.691H77.4893V106.438Z" fill="black"/>
<path opacity="0.1" d="M109.094 115.281H83.751V125.534H109.094V115.281Z" fill="black"/>
<path opacity="0.1" d="M47.1568 125.386H21.814V135.64H47.1568V125.386Z" fill="black"/>
<path opacity="0.1" d="M92.9346 125.846H67.5918V136.099H92.9346V125.846Z" fill="black"/>
<path opacity="0.2" d="M164.359 48.1743H139.016V58.4277H164.359V48.1743Z" fill="black"/>
<path opacity="0.2" d="M435.809 33.8032H410.466V44.0566H435.809V33.8032Z" fill="black"/>
<path opacity="0.2" d="M420.306 48.1743H394.963V58.4277H420.306V48.1743Z" fill="black"/>
<path d="M116.242 314.311V248.541H30.5952V206.429L104.055 32.4417H166.731V207.479H193.887V248.541H166.731V314.311H116.242ZM73.0739 207.479H116.242V87.7688L73.0739 207.479Z" fill="#263238"/>
<path d="M166.731 314.721H116.242C116.134 314.719 116.031 314.675 115.954 314.598C115.878 314.522 115.834 314.419 115.832 314.311V248.952H30.5953C30.4871 248.95 30.3839 248.906 30.3074 248.829C30.2309 248.753 30.187 248.65 30.1849 248.541V206.429C30.1773 206.377 30.1773 206.325 30.1849 206.273L103.677 32.2776C103.71 32.2048 103.763 32.143 103.83 32.0994C103.897 32.0558 103.975 32.0322 104.055 32.0315H166.731C166.84 32.0315 166.944 32.0747 167.021 32.1516C167.098 32.2285 167.141 32.3329 167.141 32.4416V207.069H193.887C193.996 207.069 194.1 207.112 194.177 207.189C194.254 207.266 194.298 207.37 194.298 207.479V248.541C194.295 248.65 194.252 248.753 194.175 248.829C194.099 248.906 193.995 248.95 193.887 248.952H167.141V314.311C167.139 314.419 167.095 314.522 167.019 314.598C166.942 314.675 166.839 314.719 166.731 314.721ZM116.669 313.901H166.337V248.541C166.337 248.433 166.38 248.328 166.457 248.251C166.534 248.175 166.638 248.131 166.747 248.131H193.493V207.889H166.731C166.622 207.889 166.518 207.846 166.441 207.769C166.364 207.692 166.32 207.588 166.32 207.479V32.8518H104.309L31.0056 206.511V248.131H116.242C116.351 248.131 116.455 248.175 116.532 248.251C116.609 248.328 116.652 248.433 116.652 248.541L116.669 313.901ZM116.258 207.889H73.074C73.0073 207.889 72.9417 207.873 72.883 207.841C72.8242 207.81 72.7742 207.764 72.7375 207.708C72.6995 207.656 72.6751 207.595 72.6665 207.53C72.6579 207.466 72.6654 207.4 72.6883 207.339L115.856 87.6293C115.891 87.5393 115.956 87.4641 116.039 87.4162C116.123 87.3684 116.221 87.351 116.316 87.3668C116.411 87.3825 116.497 87.4317 116.559 87.5055C116.62 87.5792 116.654 87.6726 116.652 87.7688V207.479C116.652 207.588 116.609 207.692 116.532 207.769C116.455 207.846 116.351 207.889 116.242 207.889H116.258ZM73.6731 207.069H115.799V90.1147L73.6731 207.069Z" fill="#263238"/>
<path d="M294.848 319.175C277.887 319.175 263.845 315.697 252.722 308.741C241.681 301.894 232.95 291.893 227.659 280.031C222.083 267.848 219.296 253.753 219.296 237.747V111.425C219.296 94.9542 221.966 80.512 227.306 68.0986C232.32 56.0784 240.965 45.9237 252.033 39.0529C263.178 32.0861 277.452 28.6054 294.856 28.6108C312.036 28.6108 326.138 32.0915 337.163 39.0529C348.15 45.9725 356.724 56.1216 361.71 68.1068C367.044 80.5202 369.711 94.9624 369.711 111.433V237.755C369.711 253.766 366.926 267.861 361.357 280.04C356.062 291.899 347.332 301.9 336.293 308.749C325.143 315.7 311.328 319.175 294.848 319.175ZM294.848 271.853C301.118 271.853 305.646 269.882 308.431 265.939C311.321 261.719 313.226 256.902 314.003 251.847C314.884 246.847 315.348 241.782 315.39 236.705V112.475C315.373 107.118 314.967 101.77 314.175 96.4717C313.513 91.3053 311.665 86.3617 308.775 82.0268C305.996 77.9746 301.345 75.9458 294.824 75.9404C288.302 75.9349 283.613 77.9637 280.757 82.0268C277.761 86.3222 275.85 91.278 275.185 96.4717C274.393 101.77 273.988 107.118 273.97 112.475V236.705C274.007 241.783 274.473 246.848 275.365 251.847C276.145 256.96 278.178 261.801 281.282 265.939C284.292 269.887 288.814 271.859 294.848 271.853Z" fill="#263238"/>
<path d="M294.848 319.585C277.909 319.585 263.662 316.058 252.509 309.085C241.41 302.183 232.626 292.126 227.281 280.204C221.717 268.023 218.885 253.742 218.885 237.747V111.425C218.885 94.9707 221.594 80.3371 226.928 67.951C231.989 55.8612 240.685 45.6424 251.811 38.7084C262.964 31.7443 277.449 28.209 294.848 28.209C312.025 28.209 326.33 31.7443 337.368 38.7166C348.416 45.6887 357.042 55.8978 362.07 67.951C367.413 80.3617 370.113 95.0199 370.113 111.425V237.747C370.113 253.742 367.29 268.023 361.726 280.204C356.38 292.126 347.596 302.183 336.498 309.085C325.345 316.058 311.327 319.585 294.848 319.585ZM294.848 29.021C277.614 29.021 263.268 32.5154 252.246 39.3975C241.259 46.2408 232.674 56.3318 227.683 68.2709C222.39 80.575 219.706 95.0855 219.706 111.433V237.755C219.706 253.635 222.504 267.801 228.028 279.867C233.306 291.645 241.982 301.579 252.944 308.396C263.966 315.287 278.065 318.773 294.848 318.773C311.18 318.773 325.041 315.287 336.063 308.396C347.025 301.579 355.701 291.645 360.979 279.867C366.494 267.801 369.292 253.619 369.292 237.755V111.433C369.292 95.1019 366.609 80.575 361.324 68.2709C356.357 56.369 347.84 46.2868 336.933 39.3975C326.026 32.5154 311.869 29.021 294.848 29.021ZM294.848 272.264C288.701 272.264 284.023 270.221 280.946 266.185C277.809 261.989 275.749 257.089 274.946 251.913C274.057 246.891 273.59 241.804 273.551 236.705V112.475C273.57 107.096 273.978 101.726 274.774 96.4062C275.459 91.165 277.395 86.1656 280.42 81.83C283.383 77.6794 288.241 75.5713 294.848 75.5713C301.455 75.5713 306.256 77.6794 309.112 81.8382C312.031 86.2242 313.901 91.2228 314.577 96.4472C315.37 101.767 315.779 107.137 315.8 112.516V236.705C315.758 241.804 315.291 246.891 314.405 251.913C313.617 257.029 311.69 261.904 308.767 266.177C305.911 270.213 301.274 272.264 294.848 272.264ZM294.848 76.3506C288.521 76.3506 283.892 78.3356 281.085 82.2647C278.13 86.508 276.244 91.4014 275.586 96.5292C274.798 101.808 274.392 107.138 274.372 112.475V236.705C274.412 241.758 274.876 246.798 275.759 251.773C276.53 256.83 278.534 261.619 281.594 265.718C284.516 269.54 288.98 271.46 294.848 271.46C300.954 271.46 305.402 269.524 308.094 265.718C310.953 261.542 312.832 256.776 313.592 251.773C314.472 246.798 314.936 241.757 314.979 236.705V112.475C314.957 107.138 314.551 101.809 313.765 96.5292C313.107 91.4266 311.284 86.5435 308.439 82.2565C305.747 78.3356 301.175 76.3506 294.848 76.3506Z" fill="#263238"/>
<path d="M484.599 314.311V248.541H398.936V206.429L472.412 32.4417H535.079V207.479H562.252V248.541H535.079V314.311H484.599ZM441.422 207.479H484.599V87.7688L441.422 207.479Z" fill="#263238"/>
<path d="M535.079 314.721H484.599C484.49 314.721 484.386 314.678 484.309 314.601C484.232 314.524 484.189 314.419 484.189 314.311V248.952H398.936C398.827 248.952 398.722 248.908 398.646 248.832C398.569 248.755 398.525 248.65 398.525 248.541V206.429C398.514 206.378 398.514 206.324 398.525 206.273L472.034 32.2776C472.067 32.2048 472.12 32.143 472.187 32.0994C472.254 32.0558 472.332 32.0322 472.412 32.0315H535.079C535.188 32.0315 535.292 32.0747 535.369 32.1516C535.446 32.2285 535.49 32.3329 535.49 32.4416V207.069H562.252C562.361 207.069 562.465 207.112 562.542 207.189C562.619 207.266 562.663 207.37 562.663 207.479V248.541C562.663 248.65 562.619 248.755 562.542 248.832C562.465 248.908 562.361 248.952 562.252 248.952H535.49V314.311C535.49 314.419 535.446 314.524 535.369 314.601C535.292 314.678 535.188 314.721 535.079 314.721ZM485.017 313.901H534.677V248.541C534.677 248.433 534.72 248.328 534.797 248.251C534.874 248.175 534.979 248.131 535.088 248.131H561.834V207.889H535.079C534.971 207.887 534.868 207.843 534.791 207.767C534.715 207.69 534.671 207.587 534.669 207.479V32.8518H472.683L399.362 206.511V248.131H484.599C484.708 248.131 484.812 248.175 484.889 248.251C484.966 248.328 485.009 248.433 485.009 248.541L485.017 313.901ZM484.607 207.889H441.423C441.356 207.888 441.291 207.872 441.232 207.84C441.173 207.809 441.123 207.764 441.086 207.708C441.05 207.655 441.027 207.594 441.018 207.53C441.01 207.466 441.016 207.401 441.037 207.339L484.213 87.6293C484.245 87.539 484.308 87.463 484.39 87.4149C484.473 87.3668 484.57 87.3497 484.665 87.3668C484.76 87.3823 484.847 87.4312 484.91 87.5048C484.974 87.5784 485.009 87.6719 485.009 87.7688V207.479C485.007 207.587 484.963 207.69 484.887 207.767C484.81 207.843 484.707 207.887 484.599 207.889H484.607ZM442.022 207.069H484.197V90.1147L442.022 207.069Z" fill="#263238"/>
<path d="M232.952 377.365V334.867H248.331V337.967H236.989V353.913H246.23V356.85H236.989V374.379H248.43V377.365H232.952Z" fill="#263238"/>
<path d="M253.896 377.365V334.867H263.523C265.691 334.758 267.851 335.201 269.801 336.154C271.292 336.98 272.452 338.296 273.084 339.878C273.79 341.729 274.13 343.698 274.085 345.678C274.09 347.181 273.914 348.679 273.56 350.14C273.251 351.453 272.638 352.675 271.771 353.708C270.836 354.741 269.576 355.424 268.201 355.644L274.717 377.365H270.827L264.581 356.481H257.917V377.365H253.896ZM257.885 353.577H263.293C264.715 353.649 266.131 353.344 267.396 352.691C268.383 352.09 269.127 351.161 269.497 350.066C269.955 348.661 270.169 347.188 270.129 345.711C270.129 343.086 269.672 341.128 268.759 339.837C267.848 338.541 266.05 337.893 263.35 337.893H257.843L257.885 353.577Z" fill="#263238"/>
<path d="M280.757 377.365V334.866H290.359C292.524 334.757 294.682 335.2 296.629 336.154C298.124 336.975 299.285 338.293 299.912 339.878C300.618 341.728 300.958 343.698 300.913 345.678C300.918 347.181 300.742 348.679 300.388 350.14C300.079 351.453 299.466 352.675 298.599 353.708C297.664 354.741 296.404 355.423 295.029 355.644L301.537 377.365H297.655L291.426 356.481H284.762V377.365H280.757ZM284.745 353.577H290.145C291.584 353.656 293.018 353.35 294.298 352.691C295.281 352.085 296.024 351.158 296.399 350.066C296.854 348.66 297.065 347.187 297.023 345.71C297.023 343.086 296.569 341.128 295.661 339.837C294.75 338.541 292.952 337.893 290.252 337.893H284.745V353.577Z" fill="#263238"/>
<path d="M317.688 377.89C314.886 377.89 312.698 377.343 311.122 376.249C309.519 375.127 308.337 373.502 307.766 371.631C307.086 369.43 306.759 367.134 306.797 364.831V347.195C306.75 344.906 307.094 342.626 307.815 340.452C308.429 338.638 309.63 337.079 311.229 336.023C313.242 334.988 315.473 334.448 317.737 334.448C320.001 334.448 322.232 334.988 324.245 336.023C325.841 337.076 327.035 338.637 327.634 340.452C328.338 342.629 328.674 344.908 328.628 347.195V364.88C328.667 367.173 328.34 369.457 327.659 371.647C327.086 373.504 325.914 375.119 324.327 376.241C322.724 377.34 320.511 377.89 317.688 377.89ZM317.688 374.691C319.209 374.793 320.722 374.396 321.996 373.559C323.001 372.765 323.711 371.66 324.015 370.417C324.406 368.881 324.591 367.301 324.565 365.717V346.465C324.592 344.892 324.407 343.322 324.015 341.798C323.714 340.572 323.001 339.486 321.996 338.722C320.676 338.016 319.202 337.647 317.704 337.647C316.207 337.647 314.732 338.016 313.412 338.722C312.39 339.476 311.664 340.564 311.36 341.798C310.972 343.323 310.787 344.892 310.81 346.465V365.717C310.788 367.301 310.973 368.881 311.36 370.417C311.665 371.668 312.389 372.776 313.412 373.559C314.679 374.382 316.18 374.771 317.688 374.666V374.691Z" fill="#263238"/>
<path d="M335.201 377.365V334.866H344.811C346.977 334.757 349.135 335.2 351.081 336.154C352.576 336.975 353.737 338.293 354.364 339.878C355.071 341.728 355.411 343.698 355.365 345.678C355.371 347.181 355.195 348.679 354.84 350.14C354.528 351.452 353.915 352.673 353.051 353.708C352.116 354.741 350.857 355.423 349.481 355.644L355.989 377.365H352.107L345.862 356.481H339.19V377.365H335.201ZM339.19 353.577H344.598C346.036 353.656 347.47 353.35 348.751 352.691C349.734 352.088 350.475 351.159 350.843 350.066C351.305 348.662 351.519 347.188 351.475 345.71C351.475 343.086 351.021 341.128 350.113 339.837C349.205 338.547 347.402 337.899 344.705 337.893H339.19V353.577Z" fill="#263238"/>
<path d="M219.328 173.528L222.381 217.42L203.341 208.537L198.516 227.838C198.516 227.838 239.386 250.666 243.448 249.911C247.511 249.157 237.359 160.346 237.359 160.346L219.328 173.528Z" fill="#EC4042" stroke="#4F4F4F" stroke-linecap="round" stroke-linejoin="round"/>
<path d="M246.772 279.408C246.772 279.408 268.693 271.878 277.261 264.693C285.829 257.507 240.945 170.534 240.945 170.534C240.945 170.534 241.635 250.313 246.772 279.408Z" fill="#EC4042" stroke="#4F4F4F" stroke-linecap="round" stroke-linejoin="round"/>
<path d="M338.541 251.314L336.005 251.691C336.015 251.817 336.015 251.943 336.005 252.069C335.808 255.35 318.196 263.995 305.755 268.687C303.038 270.787 299.394 271.854 294.815 271.854H294.708C285.115 272.78 266.665 268.572 262.496 265.701L257.999 311.637C258.721 311.997 259.46 312.334 260.207 312.67C269.951 316.985 281.49 319.145 294.823 319.15C310.219 319.15 323.285 316.115 334.019 310.045L334.249 309.914C334.93 309.52 335.595 309.094 336.26 308.716C336.924 308.339 337.827 307.707 338.59 307.182L339.288 306.699L340.88 305.55L341.619 304.984C342.144 304.582 342.661 304.164 343.162 303.762L343.785 303.253C344.483 302.671 345.172 302.08 345.837 301.465C342.998 281.155 338.541 251.314 338.541 251.314Z" fill="#737373" stroke="#4F4F4F" stroke-linecap="round" stroke-linejoin="round"/>
<path d="M240.256 197.939C240.256 197.939 260.56 247.524 260.814 249.312C261.068 251.101 258.803 262.347 262.07 265.349C265.336 268.351 287.142 273.371 296.415 271.616C305.689 269.86 335.808 256.326 336.038 252.069C336.268 247.811 306.198 164.603 302.439 154.58C298.681 144.556 283.383 141.045 273.1 142.046C262.817 143.047 237.999 149.568 233.485 155.835C228.971 162.102 240.256 197.939 240.256 197.939Z" fill="white" stroke="#4F4F4F" stroke-linecap="round" stroke-linejoin="round"/>
<path d="M242.004 151.824C242.004 151.824 239.542 174.627 241.003 179.393C242.463 184.159 249.349 197.25 249.349 197.25C249.349 197.25 260.839 182.896 263.071 181.394C265.303 179.893 286.14 193.173 286.14 193.173C286.14 193.173 286.887 178.893 283.884 167.114C280.88 155.334 275.603 142.546 273.855 140.291C272.107 138.035 272.098 146.312 265.574 151.824C259.05 157.336 242.004 151.824 242.004 151.824Z" fill="white" stroke="#4F4F4F" stroke-linecap="round" stroke-linejoin="round"/>
<path d="M240.157 155.794C242.696 161.712 245.872 167.336 249.628 172.568C254.029 178.559 259.218 183.928 265.057 188.531C265.057 188.531 272.098 170.403 273.994 159.583C275.89 148.764 272.64 137.937 272.64 137.937C272.64 137.937 271.286 154.17 265.598 157.418C259.911 160.666 240.157 155.794 240.157 155.794Z" fill="white" stroke="#4F4F4F" stroke-linecap="round" stroke-linejoin="round"/>
<path d="M255.02 158.328C250.016 157.808 245.051 156.962 240.157 155.794C242.696 161.712 245.872 167.336 249.628 172.568C250.26 173.454 250.908 174.307 251.573 175.152L262.767 162.216L255.02 158.328Z" fill="#263238" stroke="#4F4F4F" stroke-linecap="round" stroke-linejoin="round"/>
<path d="M272.64 137.936C272.64 137.936 280.847 170.87 283.884 195.683C286.92 220.497 294.159 293.919 294.159 293.919C294.159 293.919 316.727 287.406 328.512 278.883C340.298 270.361 344.056 264.602 344.056 264.602C344.056 264.602 324.754 180.115 324.754 178.893C324.754 177.67 326.756 165.104 326.756 165.104C326.756 165.104 360.856 149.092 373.896 139.29C386.937 129.488 383.679 124.254 377.409 121.753C371.139 119.251 351.582 121.999 340.798 125.034C330.014 128.069 324.499 130.045 324.499 130.045C324.499 130.045 312.468 129.045 301.43 131.547C290.392 134.048 272.64 137.936 272.64 137.936Z" fill="#EC4042" stroke="#4F4F4F" stroke-linecap="round" stroke-linejoin="round"/>
<path d="M289.957 222.195L288.644 226.255Z" fill="white"/>
<path d="M289.957 222.195L288.644 226.255" stroke="#4F4F4F" stroke-linecap="round" stroke-linejoin="round"/>
<path d="M293.822 166.416L297.671 168.877C297.671 168.877 296.407 188.842 294.659 201.45C293.959 207.344 292.734 213.163 290.999 218.84" stroke="#4F4F4F" stroke-linecap="round" stroke-linejoin="round"/>
<path d="M287.01 142.637C289.53 147.271 293.157 154.12 293.157 155.08C293.157 156.581 289.398 163.603 289.398 163.603L291.746 165.096" stroke="#4F4F4F" stroke-linecap="round" stroke-linejoin="round"/>
<path d="M284.63 138.314L285.656 140.159Z" fill="white"/>
<path d="M284.63 138.314L285.656 140.159" stroke="#4F4F4F" stroke-linecap="round" stroke-linejoin="round"/>
<path d="M330.818 248.714C326.823 251.417 322.519 253.637 317.999 255.325C306.214 259.837 304.204 260.591 304.204 260.591L305.96 266.604C305.96 266.604 326.526 262.847 336.054 252.069" stroke="#4F4F4F" stroke-linecap="round" stroke-linejoin="round"/>
<path d="M335.029 245.302C334.498 245.835 333.936 246.336 333.346 246.803Z" fill="white"/>
<path d="M335.029 245.302C334.498 245.835 333.936 246.336 333.346 246.803" stroke="#4F4F4F" stroke-linecap="round" stroke-linejoin="round"/>
<path d="M331.253 151.799L326.756 165.104L337.285 149.314" stroke="#4F4F4F" stroke-linecap="round" stroke-linejoin="round"/>
<path d="M333.272 145.811L332.238 148.879" stroke="#4F4F4F" stroke-linecap="round" stroke-linejoin="round"/>
<path d="M242.004 151.824C242.004 151.824 244.515 197.439 247.273 219.742C250.03 242.045 254.544 297.184 254.544 297.184C254.544 297.184 245.771 296.429 240.001 289.407C236.782 285.58 233.927 281.461 231.474 277.103V227.51C231.474 225.5 227.461 202.697 223.703 191.418C219.944 180.139 214.429 167.113 217.687 161.593C220.945 156.073 231.228 147.813 234.987 146.828C238.746 145.844 241.758 146.812 242.004 151.824Z" fill="#EC4042" stroke="#4F4F4F" stroke-linecap="round" stroke-linejoin="round"/>
<path d="M240.601 209.111C242.02 213.533 243.391 217.47 244.515 219.988Z" fill="white"/>
<path d="M240.601 209.111C242.02 213.533 243.391 217.47 244.515 219.988" stroke="#4F4F4F" stroke-linecap="round" stroke-linejoin="round"/>
<path d="M232.024 160.51C231.606 163.791 231.401 166.252 231.729 166.613C232.73 167.614 236.743 171.116 236.743 171.116C236.743 171.116 231.729 177.383 232.476 180.648C232.976 182.781 236.284 195.208 239.632 206.027" stroke="#4F4F4F" stroke-linecap="round" stroke-linejoin="round"/>
<path d="M234.732 143.802C234.732 143.802 233.411 150.987 232.476 157.295Z" fill="white"/>
<path d="M234.732 143.802C234.732 143.802 233.411 150.987 232.476 157.295" stroke="#4F4F4F" stroke-linecap="round" stroke-linejoin="round"/>
<path d="M237.662 259.664L233.23 257.581" stroke="#4F4F4F" stroke-linecap="round" stroke-linejoin="round"/>
<path d="M233.23 250.814L245.516 255.826V263.347L239.894 260.706" stroke="#4F4F4F" stroke-linecap="round" stroke-linejoin="round"/>
<path d="M223.308 121.671L227.592 132.162C227.592 132.162 222.02 126.379 220.731 131.522C219.443 136.665 223.308 142.661 225.877 142.661C228.446 142.661 231.45 142.875 231.45 142.875C231.45 142.875 240.477 158.722 246.017 161.741C251.556 164.759 259.09 167.31 263.809 164.735C268.528 162.159 271.097 155.097 272.591 149.74C274.084 144.384 273.026 128.323 273.026 128.323L265.278 96.5949C265.278 96.5949 270.629 94.6673 270.629 91.0253C270.629 87.3833 258.204 86.317 258.204 86.317C258.204 86.317 263.128 80.5751 256.916 79.6728C250.703 78.7705 230.555 90.812 229.915 91.2386C229.275 91.6651 233.345 83.7413 228.2 86.5302C223.054 89.3191 217.055 103.018 217.703 106.217C218.351 109.416 223.308 121.671 223.308 121.671Z" fill="white" stroke="#4F4F4F" stroke-linecap="round" stroke-linejoin="round"/>
<path d="M258.204 86.3333C258.204 86.3333 263.128 80.5914 256.916 79.6891C250.703 78.7868 230.555 90.8284 229.915 91.2549C229.275 91.6815 233.345 83.7577 228.2 86.5466C223.054 89.3355 217.055 103.034 217.703 106.233C218.351 109.432 223.276 121.654 223.276 121.654L227.56 132.145C227.56 132.145 232.484 136.649 230.777 133.22C229.07 129.791 225.631 122.081 226.484 121.014C227.338 119.948 231.63 118.225 231.844 115.871C232.057 113.517 227.74 106.66 229.061 104.945C230.383 103.231 248.561 106.446 251.778 104.519C254.995 102.591 250.916 97.8827 250.916 97.8827L265.278 96.5949C265.278 96.5949 270.629 94.6672 270.629 91.0253C270.629 87.3833 258.204 86.3333 258.204 86.3333Z" fill="#737373" stroke="#4F4F4F" stroke-linecap="round" stroke-linejoin="round"/>
<path d="M260.986 139.249C260.986 139.249 259.058 142.891 256.062 143.104Z" fill="white"/>
<path d="M260.986 139.249C260.986 139.249 259.058 142.891 256.062 143.104" stroke="#4F4F4F" stroke-linecap="round" stroke-linejoin="round"/>
<path d="M247.243 129.611L247.243 129.611L247.246 129.617C247.507 130.178 247.572 130.741 247.491 131.189C247.408 131.638 247.191 131.927 246.921 132.054C246.653 132.179 246.295 132.16 245.899 131.932C245.504 131.706 245.115 131.29 244.853 130.729C244.592 130.168 244.527 129.604 244.609 129.156C244.691 128.707 244.908 128.418 245.178 128.292C245.451 128.164 245.812 128.182 246.206 128.405C246.599 128.628 246.986 129.04 247.243 129.611Z" fill="#263238" stroke="#4F4F4F"/>
<path d="M264.285 126.07C264.382 126.68 264.291 127.239 264.089 127.646C263.887 128.055 263.6 128.272 263.305 128.319C263.01 128.366 262.669 128.249 262.35 127.923C262.032 127.598 261.771 127.095 261.674 126.485C261.577 125.876 261.669 125.316 261.87 124.909C262.072 124.5 262.36 124.283 262.654 124.236C262.949 124.189 263.29 124.306 263.609 124.632C263.927 124.957 264.188 125.46 264.285 126.07Z" fill="#263238" stroke="#4F4F4F"/>
<path d="M256.062 151.225C258.273 151.181 260.427 150.512 262.275 149.297Z" fill="white"/>
<path d="M256.062 151.225C258.273 151.181 260.427 150.512 262.275 149.297" stroke="#4F4F4F" stroke-linecap="round" stroke-linejoin="round"/>
<path d="M236.989 126.592C236.989 126.592 239.985 122.31 248.134 124.886" stroke="#4F4F4F" stroke-width="2" stroke-linecap="round" stroke-linejoin="round"/>
<path d="M258.598 122.524C259.155 121.017 260.143 119.707 261.439 118.756C262.734 117.805 264.281 117.256 265.886 117.176" stroke="#4F4F4F" stroke-width="2" stroke-linecap="round" stroke-linejoin="round"/>
<path d="M270.629 118.242C270.629 118.242 272.131 114.813 273.846 116.954C275.562 119.095 276.202 123.385 275.135 126.166C274.068 128.946 273.42 131.309 273.42 131.309L272.993 128.306L270.629 118.242Z" fill="white" stroke="#4F4F4F" stroke-linecap="round" stroke-linejoin="round"/>
<path d="M310.063 101.517C310.063 101.517 286.502 97.2512 284.991 97.2512C283.481 97.2512 265.919 100.467 263.35 101.533C260.781 102.599 241.274 108.177 241.7 109.465C242.127 110.753 244.491 111.171 244.491 111.171C244.491 111.171 244.917 113.099 251.778 113.96C258.639 114.821 274.7 112.672 274.922 114.173C274.943 114.686 274.859 115.197 274.674 115.676C274.489 116.154 274.207 116.589 273.847 116.954L275.775 120.383C275.775 120.383 282.849 119.316 285.205 117.602C287.56 115.888 294.232 110.531 294.232 110.531L308.586 111.606L310.063 101.517Z" fill="white" stroke="#4F4F4F" stroke-linecap="round" stroke-linejoin="round"/>
<path d="M257.777 104.535C257.777 104.535 248.134 108.637 246.633 109.457C245.131 110.277 249.415 112.024 251.992 111.598C254.569 111.171 264.417 107.308 265.943 106.881C267.47 106.455 274.298 108.169 279.23 108.809C282.361 109.28 285.562 108.835 288.447 107.529" fill="white"/>
<path d="M257.777 104.535C257.777 104.535 248.134 108.637 246.633 109.457C245.131 110.277 249.415 112.024 251.992 111.598C254.569 111.171 264.417 107.308 265.943 106.881C267.47 106.455 274.298 108.169 279.23 108.809C282.361 109.28 285.562 108.835 288.447 107.529" stroke="#4F4F4F" stroke-linecap="round" stroke-linejoin="round"/>
<path d="M368.127 135.787C362.677 136.987 357.032 136.987 351.582 135.787C342.554 133.778 318.754 121.999 318.754 121.999L302.456 117.241L306.198 98.2354C306.198 98.2354 347.322 103.247 358.853 107.504C370.384 111.762 387.183 121.539 386.683 125.05C386.182 128.561 376.908 136.074 376.908 136.074" fill="#EC4042"/>
<path d="M368.127 135.787C362.677 136.987 357.032 136.987 351.582 135.787C342.554 133.778 318.754 121.999 318.754 121.999L302.456 117.241L306.198 98.2354C306.198 98.2354 347.322 103.247 358.853 107.504C370.384 111.762 387.183 121.539 386.683 125.05C386.182 128.561 376.908 136.074 376.908 136.074" stroke="#4F4F4F" stroke-linecap="round" stroke-linejoin="round"/>
<path d="M226.887 217.675C226.887 217.675 241.979 234.95 254.708 229.159C267.437 223.367 273.723 186.111 273.723 186.111" stroke="#4F4F4F" stroke-linecap="round" stroke-linejoin="round"/>
<path d="M207.083 204.633C207.083 204.633 219.033 219.553 234.905 218.142C250.777 216.731 256.128 198.349 255.964 189.236" stroke="#4F4F4F" stroke-linecap="round" stroke-linejoin="round"/>
<path d="M213.994 195.29L208.953 193.597L201.013 217.22L206.054 218.912L213.994 195.29Z" fill="#7D7D7D" stroke="#4F4F4F" stroke-linecap="round" stroke-linejoin="round"/>
<path d="M216.245 193.149L208.427 190.523L207.258 193.999L215.077 196.624L216.245 193.149Z" fill="#263238" stroke="#4F4F4F" stroke-linecap="round" stroke-linejoin="round"/>
<path d="M225.111 199.021L220.069 197.328L212.129 220.95L217.17 222.643L225.111 199.021Z" fill="#7D7D7D" stroke="#4F4F4F" stroke-linecap="round" stroke-linejoin="round"/>
<path d="M227.37 196.879L219.552 194.254L218.383 197.73L226.202 200.355L227.37 196.879Z" fill="#263238" stroke="#4F4F4F" stroke-linecap="round" stroke-linejoin="round"/>
<path d="M223.397 205.355L207.024 199.843L200.923 217.945L217.296 223.458L223.397 205.355Z" fill="#263238" stroke="#4F4F4F" stroke-width="1.00245" stroke-linecap="round" stroke-linejoin="round"/>
<path d="M202.225 229.224L186.993 224.106L195.069 210.776L203.842 213.721L202.225 229.224Z" fill="#7D7D7D" stroke="#4F4F4F" stroke-linecap="round" stroke-linejoin="round"/>
<path d="M202.233 229.219L186.993 224.102L181.56 240.267L196.8 245.385L202.233 229.219Z" fill="#636363" stroke="#4F4F4F" stroke-linecap="round" stroke-linejoin="round"/>
<path d="M211.37 198.468L198.285 194.074L192.852 210.24L205.937 214.634L211.37 198.468Z" fill="#636363" stroke="#4F4F4F" stroke-linecap="round" stroke-linejoin="round"/>
<path d="M224.474 236.697L209.234 231.578L217.309 218.249L226.083 221.194L224.474 236.697Z" fill="#7D7D7D" stroke="#4F4F4F" stroke-linecap="round" stroke-linejoin="round"/>
<path d="M224.472 236.697L209.232 231.579L203.798 247.745L219.038 252.862L224.472 236.697Z" fill="#636363" stroke="#4F4F4F" stroke-linecap="round" stroke-linejoin="round"/>
<path d="M233.619 205.933L220.534 201.539L215.101 217.704L228.186 222.098L233.619 205.933Z" fill="#636363" stroke="#4F4F4F" stroke-linecap="round" stroke-linejoin="round"/>
<path d="M193.107 193.001C193.107 193.001 191.335 195.921 191.86 196.758C192.385 197.595 197.498 200.408 198.229 200.621C198.959 200.835 200.945 199.801 200.838 198.423C200.732 197.045 196.735 194.149 195.512 193.419C194.289 192.689 193.633 192.566 193.107 193.001Z" fill="white" stroke="#4F4F4F" stroke-linecap="round" stroke-linejoin="round"/>
<path d="M190.3 198.776C190.3 198.776 189.439 202.057 190.185 202.738C190.932 203.418 196.636 204.608 197.399 204.591C198.162 204.575 199.755 203.008 199.262 201.745C198.77 200.482 194.125 198.817 192.697 198.464C191.269 198.111 190.678 198.226 190.3 198.776Z" fill="white" stroke="#4F4F4F" stroke-linecap="round" stroke-linejoin="round"/>
<path d="M188.733 204.518C188.733 204.518 187.871 207.799 188.618 208.48C189.365 209.16 195.069 210.35 195.832 210.333C196.595 210.317 198.187 208.75 197.695 207.487C197.202 206.224 192.566 204.559 191.129 204.206C189.693 203.853 189.11 203.968 188.733 204.518Z" fill="white" stroke="#4F4F4F" stroke-linecap="round" stroke-linejoin="round"/>
<path d="M189.463 210.046C189.463 210.046 188.643 213.328 189.348 214.008C190.054 214.689 195.799 215.879 196.562 215.87C197.326 215.862 198.918 214.287 198.433 213.016C197.949 211.744 193.296 210.096 191.868 209.735C190.44 209.374 189.841 209.497 189.463 210.046Z" fill="white" stroke="#4F4F4F" stroke-linecap="round" stroke-linejoin="round"/>
</g>
<defs>
<clipPath id="clip0_18_1985">
<rect width="597" height="383" fill="white"/>
</clipPath>
</defs>
</svg>
