<svg width="204" height="48" viewBox="0 0 204 48" fill="none" xmlns="http://www.w3.org/2000/svg">
<g clip-path="url(#clip0_1014_1936)">
<path fill-rule="evenodd" clip-rule="evenodd" d="M61.71 37.3599L53.57 20.3799C53.49 20.1199 53.65 19.8599 53.91 19.8599H57.1C57.27 19.8599 57.35 19.9499 57.44 20.1199L61.63 29.0799C61.8 29.3399 62.13 29.3399 62.3 29.0799L66.49 20.1199C66.57 19.9499 66.66 19.8599 66.83 19.8599H70.19C70.44 19.8599 70.61 20.1199 70.53 20.3799L62.31 37.3599C62.23 37.6999 61.81 37.6999 61.72 37.3599H61.71Z" fill="#EB4042"/>
<path fill-rule="evenodd" clip-rule="evenodd" d="M77.23 23.74C76.39 24.26 75.72 24.95 75.22 25.81C74.72 26.67 74.46 27.62 74.46 28.65C74.46 29.68 74.71 30.63 75.22 31.49C75.73 32.35 76.39 33.13 77.23 33.64C78.07 34.16 78.99 34.42 80 34.42C81.01 34.42 81.93 34.16 82.85 33.64C83.69 33.12 84.36 32.43 84.86 31.49C85.36 30.63 85.62 29.68 85.62 28.65C85.62 27.62 85.37 26.67 84.86 25.81C84.36 24.95 83.69 24.26 82.85 23.74C82.01 23.22 81 22.96 80 22.96C79 22.96 78.07 23.22 77.23 23.74ZM75.3 36.75C73.87 35.89 72.7 34.77 71.86 33.39C71.02 31.93 70.6 30.37 70.6 28.74C70.6 27.11 71.02 25.55 71.86 24.09C72.7 22.63 73.87 21.5 75.3 20.73C76.73 19.87 78.32 19.52 80 19.52C81.68 19.52 83.27 19.95 84.7 20.73C86.13 21.59 87.3 22.71 88.14 24.09C88.98 25.56 89.4 27.02 89.4 28.74C89.4 30.46 88.98 31.93 88.14 33.39C87.3 34.86 86.13 35.98 84.7 36.75C83.27 37.61 81.68 37.96 80 37.96C78.32 37.96 76.73 37.53 75.3 36.75Z" fill="#EB4042"/>
<path fill-rule="evenodd" clip-rule="evenodd" d="M99.63 34.3401C101.14 34.3401 102.4 33.9101 103.41 33.1301C104.42 32.3501 104.92 30.8901 104.92 28.7401C104.92 26.5901 104.42 25.2101 103.41 24.3401C102.4 23.5601 101.15 23.1301 99.63 23.1301H96.61C96.44 23.1301 96.27 23.3001 96.27 23.4701V33.8101C96.27 33.9801 96.44 34.1501 96.61 34.1501H99.63V34.3201V34.3401ZM92.5 20.2101C92.5 20.0401 92.67 19.8701 92.84 19.8701H99.64C102.24 19.8701 104.34 20.6501 106.02 22.1101C106.94 22.8901 107.61 23.8301 108.03 25.0401C108.45 26.1601 108.7 27.4501 108.7 28.8301C108.7 30.2101 108.45 31.4201 107.94 32.6201C107.44 33.7401 106.77 34.7701 105.93 35.5501C105.18 36.2401 104.17 36.8401 103.08 37.1901C101.99 37.5301 100.81 37.7901 99.56 37.7901H92.76C92.59 37.7901 92.42 37.6201 92.42 37.4501V20.2101H92.5Z" fill="#EB4042"/>
<path fill-rule="evenodd" clip-rule="evenodd" d="M126.06 37.5299L121.78 28.4799C121.61 28.2199 121.28 28.2199 121.11 28.4799L116.83 37.5299C116.66 37.8699 116.24 37.7899 116.16 37.5299L109.7 20.3799C109.62 20.1199 109.78 19.8599 110.03 19.8599H113.3C113.47 19.8599 113.64 19.9499 113.64 20.1199L116.58 28.3099C116.66 28.6499 117.17 28.6499 117.25 28.3099L121.11 20.1199C121.28 19.8599 121.61 19.8599 121.78 20.1199L125.64 28.3099C125.81 28.6499 126.23 28.5699 126.31 28.3099L129.33 20.1199C129.41 19.9499 129.5 19.8599 129.67 19.8599H132.86C133.11 19.8599 133.28 20.1199 133.19 20.3799L126.73 37.4399C126.65 37.7799 126.23 37.7799 126.06 37.5299Z" fill="white"/>
<path fill-rule="evenodd" clip-rule="evenodd" d="M140.32 23.74C139.48 24.26 138.81 24.95 138.31 25.81C137.81 26.67 137.55 27.62 137.55 28.65C137.55 29.68 137.8 30.63 138.31 31.49C138.81 32.35 139.48 33.13 140.32 33.64C141.16 34.16 142.08 34.42 143.09 34.42C144.1 34.42 145.02 34.16 145.94 33.64C146.78 33.12 147.45 32.43 147.95 31.49C148.45 30.63 148.71 29.68 148.71 28.65C148.71 27.62 148.46 26.67 147.95 25.81C147.45 24.95 146.78 24.26 145.94 23.74C145.1 23.22 144.09 22.96 143.09 22.96C142.17 22.96 141.24 23.22 140.32 23.74ZM138.47 36.75C137.04 35.89 135.87 34.77 135.03 33.39C134.19 31.93 133.77 30.37 133.77 28.74C133.77 27.11 134.19 25.55 135.03 24.09C135.87 22.63 137.04 21.5 138.47 20.73C139.9 19.87 141.49 19.52 143.17 19.52C144.85 19.52 146.44 19.95 147.87 20.73C149.3 21.59 150.47 22.71 151.31 24.09C152.15 25.56 152.57 27.02 152.57 28.74C152.57 30.46 152.15 31.93 151.31 33.39C150.47 34.86 149.3 35.98 147.87 36.75C146.44 37.61 144.85 37.96 143.17 37.96C141.49 37.96 139.9 37.53 138.47 36.75Z" fill="white"/>
<path fill-rule="evenodd" clip-rule="evenodd" d="M163.39 28.7401C164.06 28.7401 164.65 28.4801 165.15 28.0501C165.65 27.5301 165.91 26.9301 165.91 26.0701C165.91 25.3801 165.74 24.6901 165.32 24.0901C164.98 23.4901 164.31 23.2301 163.31 23.2301H159.7C159.53 23.2301 159.36 23.4001 159.36 23.5701V28.4001C159.36 28.5701 159.53 28.7401 159.7 28.7401H163.39ZM155.59 37.2701V20.2101C155.59 20.0401 155.76 19.8701 155.93 19.8701H163.31C164.57 19.8701 165.66 20.1301 166.58 20.6501C167.5 21.1701 168.26 21.9401 168.76 22.8001C169.26 23.7501 169.52 24.7801 169.52 25.9901C169.52 27.2801 169.18 28.4001 168.6 29.4401C167.93 30.4701 167.09 31.1601 166 31.6801C167.01 33.0601 168.35 34.7801 170.03 37.0201C170.2 37.2801 170.03 37.6201 169.69 37.6201H166.17C166.09 37.6201 165.92 37.5301 165.92 37.4501C164.91 36.1601 163.57 34.3501 161.89 32.0201H159.71C159.54 32.0201 159.37 32.1901 159.37 32.3601V37.1901C159.37 37.3601 159.2 37.5301 159.03 37.5301H156.01C155.76 37.6201 155.59 37.4401 155.59 37.2701Z" fill="white"/>
<path fill-rule="evenodd" clip-rule="evenodd" d="M176.4 37.6201H173.38C173.21 37.6201 173.04 37.4501 173.04 37.2801V20.2201C173.04 20.0501 173.21 19.8801 173.38 19.8801H176.4C176.57 19.8801 176.74 20.0501 176.74 20.2201V27.2901L183.45 19.9601C183.53 19.8701 183.62 19.8701 183.7 19.8701H187.31C187.65 19.8701 187.81 20.3001 187.56 20.5601L181.27 27.2001C181.1 27.3701 181.1 27.5401 181.27 27.7201L188.06 37.1101C188.23 37.3701 188.06 37.7101 187.72 37.7101H184.03C183.95 37.7101 183.78 37.6201 183.7 37.5401L178.33 30.1301L176.65 31.9401V37.3701C176.73 37.4601 176.57 37.6301 176.4 37.6301V37.6201Z" fill="white"/>
<path fill-rule="evenodd" clip-rule="evenodd" d="M193.76 33.82C194.85 34.25 195.94 34.51 196.86 34.51C197.87 34.51 198.62 34.34 199.21 33.91C199.8 33.48 200.05 33.05 200.05 32.53C200.05 32.1 199.88 31.75 199.55 31.5C199.22 31.24 198.8 30.98 198.29 30.9C197.79 30.73 197.11 30.64 196.19 30.47C195.02 30.3 194.01 30.04 193.09 29.69C192.17 29.34 191.24 28.83 190.49 28.05C189.73 27.27 189.32 26.24 189.32 24.95C189.32 23.05 189.99 21.68 191.42 20.81C192.76 19.95 194.44 19.52 196.29 19.52C197.72 19.52 198.97 19.69 199.98 20.12C200.9 20.46 201.91 20.98 202.83 21.67C203 21.76 203 22.01 202.91 22.19L201.23 24.52C201.15 24.69 200.89 24.69 200.73 24.61C200.06 24.18 199.3 23.75 198.63 23.49C197.79 23.15 196.95 22.97 196.11 22.97C195.35 22.97 194.68 23.14 194.1 23.4C193.43 23.66 193.18 24.09 193.18 24.78C193.18 25.21 193.35 25.47 193.68 25.73C194.02 25.99 194.35 26.16 194.77 26.25C195.19 26.34 195.78 26.51 196.7 26.68L197.54 26.85C198.88 27.11 199.97 27.37 200.81 27.71C201.65 28.05 202.4 28.57 203.07 29.35C203.74 30.13 203.99 31.16 203.99 32.45C203.99 34.26 203.4 35.64 202.14 36.59C200.88 37.54 199.2 37.97 197.11 37.97C194.09 37.97 191.57 37.11 189.56 35.38C189.39 35.29 189.39 35.04 189.48 34.86L191.07 32.53C191.15 32.36 191.4 32.27 191.57 32.44C191.99 32.96 192.75 33.39 193.75 33.82H193.76Z" fill="white"/>
<path fill-rule="evenodd" clip-rule="evenodd" d="M14.1404 19.35L9.11035 14.18L22.5304 0.39C23.0304 -0.13 23.7904 -0.13 24.2904 0.39L34.1903 10.56L14.6404 19.44C14.4704 19.53 14.3004 19.53 14.1404 19.35Z" fill="white"/>
<path fill-rule="evenodd" clip-rule="evenodd" d="M37.7099 33.8201L24.2899 47.6101C23.7899 48.1301 23.0299 48.1301 22.5299 47.6101L12.6299 37.4401L32.0899 28.5601C32.2599 28.4701 32.5099 28.4701 32.6799 28.6501L37.7099 33.8201Z" fill="white"/>
<path fill-rule="evenodd" clip-rule="evenodd" d="M11.3699 36.1501L0.379883 24.8601C-0.120117 24.3401 -0.120117 23.5701 0.379883 23.0501L7.84988 15.3801L13.3899 20.9801C13.7299 21.3201 14.3099 21.4101 14.7299 21.2401L35.3699 11.8501L46.3599 23.1401C46.8599 23.6601 46.8599 24.4301 46.3599 24.9501L38.8899 32.6201L33.3499 27.0201C33.0099 26.6801 32.4299 26.5901 32.0099 26.7601L11.3699 36.1501Z" fill="#EB4042"/>
</g>
<defs>
<clipPath id="clip0_1014_1936">
<rect width="204" height="48" fill="white"/>
</clipPath>
</defs>
</svg>
