<svg width="695" height="714" viewBox="0 0 695 714" fill="none" xmlns="http://www.w3.org/2000/svg">
<g opacity="0.5">
<path fill-rule="evenodd" clip-rule="evenodd" d="M210.229 287.786L135.419 210.894L335.01 5.80034C342.447 -1.93345 353.75 -1.93345 361.186 5.80034L508.426 157.055L217.665 289.125C215.137 290.463 212.608 290.463 210.229 287.786Z" fill="#6D7E80"/>
<path fill-rule="evenodd" clip-rule="evenodd" d="M560.774 502.993L361.183 708.087C353.747 715.821 342.443 715.821 335.007 708.087L187.768 556.832L477.19 424.763C479.718 423.424 483.436 423.424 485.965 426.102L560.774 502.993Z" fill="#6D7E80"/>
<path fill-rule="evenodd" clip-rule="evenodd" d="M169.028 537.647L5.57725 369.734C-1.85908 362 -1.85908 350.548 5.57725 342.815L116.676 228.741L199.071 312.028C204.127 317.085 212.754 318.423 219 315.895L525.972 176.241L689.423 344.153C696.859 351.887 696.859 363.339 689.423 371.073L578.324 485.146L495.929 401.859C490.873 396.802 482.246 395.464 476 397.992L169.028 537.647Z" fill="#EB4042"/>
</g>
</svg>
