<svg width="654" height="467" viewBox="0 0 654 467" fill="none" xmlns="http://www.w3.org/2000/svg">
<g clip-path="url(#clip0_1921_6515)">
<path d="M430.961 376.472L350.716 427.759H613.746V376.472H430.961Z" fill="white"/>
<path d="M579.312 344.799V349.955V459.432L654 402.115L579.312 344.799Z" fill="white"/>
<path d="M477.684 408.078V393.533H480.759V405.543H486.995V408.078H477.684ZM492.086 408.284C491.389 408.284 490.769 408.164 490.225 407.922C489.68 407.676 489.249 407.314 488.932 406.835C488.62 406.353 488.463 405.751 488.463 405.031C488.463 404.425 488.575 403.916 488.797 403.505C489.02 403.093 489.323 402.761 489.706 402.51C490.09 402.259 490.525 402.07 491.013 401.942C491.505 401.814 492.022 401.724 492.561 401.672C493.196 401.606 493.707 401.544 494.095 401.487C494.484 401.426 494.765 401.336 494.941 401.218C495.116 401.099 495.203 400.924 495.203 400.692V400.649C495.203 400.2 495.061 399.852 494.777 399.605C494.498 399.359 494.1 399.236 493.584 399.236C493.04 399.236 492.606 399.357 492.284 399.598C491.962 399.835 491.749 400.133 491.645 400.493L488.847 400.266C488.989 399.603 489.268 399.03 489.685 398.547C490.102 398.059 490.639 397.685 491.297 397.425C491.96 397.16 492.727 397.027 493.598 397.027C494.204 397.027 494.784 397.098 495.338 397.24C495.897 397.382 496.392 397.603 496.823 397.901C497.258 398.199 497.602 398.583 497.853 399.051C498.104 399.515 498.229 400.072 498.229 400.72V408.078H495.36V406.566H495.274C495.099 406.906 494.865 407.207 494.571 407.468C494.278 407.723 493.925 407.924 493.513 408.071C493.101 408.213 492.625 408.284 492.086 408.284ZM492.952 406.196C493.397 406.196 493.79 406.109 494.131 405.933C494.472 405.754 494.739 405.512 494.934 405.209C495.128 404.906 495.225 404.563 495.225 404.179V403.022C495.13 403.083 495 403.14 494.834 403.192C494.673 403.239 494.491 403.284 494.287 403.327C494.084 403.365 493.88 403.4 493.676 403.433C493.473 403.462 493.288 403.488 493.122 403.512C492.767 403.564 492.457 403.647 492.192 403.76C491.927 403.874 491.721 404.028 491.574 404.222C491.427 404.411 491.354 404.648 491.354 404.932C491.354 405.344 491.503 405.659 491.801 405.877C492.104 406.09 492.488 406.196 492.952 406.196ZM507.572 403.433V397.169H510.598V408.078H507.693V406.097H507.579C507.333 406.736 506.923 407.25 506.35 407.638C505.782 408.026 505.089 408.22 504.269 408.22C503.54 408.22 502.899 408.055 502.345 407.723C501.791 407.392 501.358 406.921 501.045 406.31C500.737 405.699 500.581 404.968 500.576 404.115V397.169H503.602V403.576C503.607 404.219 503.779 404.728 504.12 405.103C504.461 405.477 504.918 405.664 505.491 405.664C505.856 405.664 506.197 405.581 506.514 405.415C506.831 405.245 507.087 404.994 507.281 404.662C507.48 404.331 507.577 403.921 507.572 403.433ZM516.043 401.772V408.078H513.018V397.169H515.901V399.094H516.029C516.271 398.46 516.675 397.958 517.244 397.588C517.812 397.214 518.501 397.027 519.31 397.027C520.068 397.027 520.728 397.193 521.292 397.524C521.855 397.856 522.293 398.329 522.606 398.945C522.918 399.556 523.075 400.285 523.075 401.132V408.078H520.049V401.672C520.054 401.005 519.883 400.484 519.538 400.11C519.192 399.731 518.716 399.541 518.11 399.541C517.703 399.541 517.343 399.629 517.03 399.804C516.723 399.979 516.481 400.235 516.306 400.571C516.136 400.903 516.048 401.303 516.043 401.772ZM530.388 408.291C529.271 408.291 528.309 408.055 527.505 407.581C526.704 407.103 526.089 406.44 525.658 405.593C525.232 404.745 525.019 403.77 525.019 402.666C525.019 401.549 525.234 400.569 525.665 399.726C526.101 398.879 526.719 398.218 527.519 397.745C528.319 397.266 529.271 397.027 530.374 397.027C531.326 397.027 532.159 397.2 532.874 397.546C533.589 397.891 534.155 398.377 534.571 399.002C534.988 399.627 535.218 400.361 535.26 401.203H532.405C532.325 400.659 532.112 400.221 531.766 399.889C531.425 399.553 530.978 399.385 530.424 399.385C529.955 399.385 529.545 399.513 529.195 399.769C528.849 400.02 528.579 400.387 528.385 400.87C528.191 401.353 528.094 401.937 528.094 402.624C528.094 403.32 528.189 403.912 528.378 404.399C528.572 404.887 528.845 405.259 529.195 405.514C529.545 405.77 529.955 405.898 530.424 405.898C530.769 405.898 531.079 405.827 531.354 405.685C531.633 405.543 531.863 405.337 532.043 405.067C532.228 404.792 532.348 404.463 532.405 404.08H535.26C535.213 404.913 534.986 405.647 534.578 406.281C534.176 406.911 533.62 407.404 532.909 407.759C532.199 408.114 531.359 408.291 530.388 408.291ZM540.223 401.772V408.078H537.197V393.533H540.138V399.094H540.266C540.512 398.45 540.909 397.946 541.459 397.581C542.008 397.212 542.697 397.027 543.525 397.027C544.283 397.027 544.944 397.193 545.507 397.524C546.075 397.851 546.516 398.322 546.828 398.938C547.145 399.549 547.302 400.28 547.297 401.132V408.078H544.271V401.672C544.276 401 544.106 400.477 543.76 400.103C543.419 399.728 542.941 399.541 542.325 399.541C541.913 399.541 541.549 399.629 541.231 399.804C540.919 399.979 540.673 400.235 540.493 400.571C540.318 400.903 540.228 401.303 540.223 401.772Z" fill="black"/>
<path d="M107.155 248.477C115.4 352.894 202.961 435.327 309.423 435.327V384.04C225.811 384.04 157.788 315.995 157.788 232.357C157.788 232.357 160.074 205.895 161.667 197.925L111.187 188.43C109.344 197.482 106.42 239.273 107.141 248.477H107.155Z" fill="#E80003"/>
<path d="M132.491 286.11L145.18 279L147.984 284.007C148.521 284.965 148.807 285.879 148.844 286.749C148.887 287.621 148.696 288.409 148.271 289.113C147.853 289.82 147.224 290.408 146.386 290.878C145.543 291.35 144.716 291.575 143.906 291.551C143.099 291.526 142.341 291.258 141.633 290.749C140.927 290.243 140.301 289.503 139.755 288.528L137.877 285.176L140.034 283.968L141.668 286.886C141.955 287.399 142.263 287.785 142.593 288.045C142.924 288.305 143.275 288.439 143.649 288.447C144.024 288.459 144.421 288.348 144.838 288.114C145.259 287.878 145.567 287.594 145.762 287.263C145.958 286.936 146.035 286.559 145.992 286.133C145.955 285.708 145.792 285.238 145.503 284.722L144.489 282.912L133.993 288.793L132.491 286.11ZM142.103 289.728L138.095 296.118L136.436 293.155L140.483 286.834L142.103 289.728ZM141.032 301.801C140.484 300.821 140.211 299.868 140.212 298.939C140.219 298.012 140.482 297.154 141 296.364C141.523 295.572 142.286 294.895 143.29 294.333C144.268 293.784 145.234 293.493 146.186 293.459C147.139 293.424 148.014 293.636 148.814 294.095C149.615 294.558 150.278 295.256 150.8 296.189C151.152 296.817 151.378 297.459 151.479 298.113C151.586 298.77 151.552 299.413 151.378 300.042C151.207 300.675 150.881 301.276 150.401 301.843C149.925 302.408 149.282 302.918 148.473 303.371L147.748 303.778L143.247 295.74L144.883 294.824L147.992 300.376C148.372 300.163 148.663 299.892 148.863 299.562C149.064 299.233 149.165 298.875 149.166 298.489C149.173 298.105 149.069 297.721 148.854 297.337C148.63 296.936 148.338 296.633 147.979 296.427C147.626 296.223 147.246 296.121 146.839 296.121C146.436 296.119 146.046 296.221 145.667 296.428L144.112 297.299C143.641 297.563 143.283 297.878 143.037 298.243C142.794 298.613 142.669 299.011 142.664 299.437C142.659 299.864 142.78 300.298 143.027 300.74C143.191 301.033 143.383 301.279 143.602 301.476C143.821 301.674 144.062 301.813 144.324 301.894C144.587 301.975 144.863 301.994 145.154 301.95L146.36 304.482C145.704 304.687 145.049 304.72 144.396 304.581C143.75 304.444 143.136 304.142 142.554 303.675C141.979 303.21 141.472 302.586 141.032 301.801ZM158.972 311.074L147.592 313.079L145.926 310.104L153.58 301.444L155.141 304.233L149.439 310.025L149.494 310.124L157.407 308.279L158.972 311.074ZM150.211 317.757L159.728 312.425L161.207 315.065L151.689 320.397L150.211 317.757ZM161.698 313.064C161.478 312.672 161.42 312.262 161.523 311.835C161.632 311.41 161.87 311.095 162.238 310.889C162.602 310.685 162.991 310.649 163.406 310.78C163.828 310.913 164.149 311.175 164.368 311.568C164.588 311.96 164.643 312.369 164.534 312.794C164.431 313.221 164.198 313.536 163.834 313.739C163.467 313.945 163.072 313.982 162.65 313.849C162.235 313.718 161.918 313.456 161.698 313.064ZM155.117 326.954C154.568 325.975 154.295 325.021 154.296 324.093C154.303 323.166 154.566 322.307 155.084 321.518C155.607 320.726 156.37 320.048 157.374 319.486C158.353 318.938 159.318 318.646 160.27 318.612C161.223 318.578 162.098 318.79 162.898 319.248C163.699 319.711 164.362 320.409 164.884 321.343C165.236 321.971 165.462 322.612 165.563 323.267C165.67 323.923 165.636 324.566 165.462 325.195C165.291 325.829 164.965 326.429 164.485 326.997C164.009 327.562 163.366 328.071 162.557 328.525L161.832 328.931L157.331 320.894L158.967 319.977L162.076 325.53C162.456 325.317 162.747 325.045 162.947 324.716C163.148 324.386 163.249 324.029 163.25 323.643C163.257 323.259 163.154 322.874 162.938 322.49C162.714 322.09 162.422 321.786 162.063 321.581C161.71 321.377 161.33 321.275 160.923 321.275C160.52 321.273 160.13 321.375 159.751 321.581L158.196 322.453C157.725 322.716 157.367 323.031 157.121 323.397C156.878 323.766 156.754 324.165 156.748 324.591C156.743 325.017 156.864 325.452 157.111 325.894C157.275 326.187 157.467 326.432 157.686 326.63C157.905 326.827 158.146 326.966 158.408 327.047C158.671 327.128 158.947 327.147 159.238 327.104L160.444 329.636C159.788 329.84 159.133 329.873 158.48 329.734C157.834 329.597 157.22 329.295 156.638 328.829C156.063 328.364 155.556 327.739 155.117 326.954ZM159.727 334.751L167.793 326.829L169.289 329.499L163.72 334.557L163.769 334.644L171.024 332.598L172.491 335.219L167.009 340.343L167.054 340.423L174.223 338.312L175.715 340.976L164.751 343.724L163.186 340.93L168.255 335.94L168.189 335.822L161.288 337.54L159.727 334.751Z" fill="black"/>
<path d="M193.15 185.214L92.3695 157.561L124.975 236.252L193.15 185.214Z" fill="#5E5F64"/>
<path d="M167.473 183.274C188.771 125.237 244.573 83.736 309.88 83.736V32.4354C222.152 32.4354 147.256 88.4072 119.002 166.529L167.473 183.26V183.274Z" fill="#5E5F64"/>
<path d="M338.757 121.328L271.981 48.2788L357.187 0L338.757 121.328Z" fill="#EB4042"/>
<path d="M430.878 132.569C402.056 99.5932 360.43 80.6726 316.67 80.6726V29.3859C375.215 29.3859 430.905 54.6966 469.469 98.817L430.864 132.569H430.878Z" fill="#EB4042"/>
<path d="M366.691 57.1809L367.608 54.8171L378.744 59.1409L377.827 61.5047L373.676 59.8929L369.331 71.0895L366.498 69.9893L370.842 58.7927L366.691 57.1809ZM378.346 74.8183C377.3 74.4121 376.482 73.8506 375.891 73.1338C375.307 72.4143 374.964 71.5851 374.861 70.6461C374.76 69.7027 374.917 68.6947 375.333 67.622C375.739 66.5759 376.298 65.7365 377.011 65.1041C377.724 64.4716 378.534 64.0777 379.443 63.9225C380.356 63.769 381.311 63.8859 382.308 64.2732C382.979 64.5337 383.562 64.8843 384.056 65.3251C384.556 65.7632 384.94 66.2804 385.206 66.8765C385.477 67.4743 385.608 68.1448 385.599 68.8879C385.592 69.6267 385.42 70.4286 385.084 71.2938L384.784 72.0685L376.197 68.7344L376.875 66.9864L382.807 69.2897C382.965 68.8836 383.016 68.4895 382.961 68.1076C382.906 67.7256 382.756 67.3855 382.511 67.0873C382.273 66.7863 381.948 66.5562 381.538 66.3968C381.109 66.2305 380.691 66.1825 380.283 66.2526C379.881 66.32 379.523 66.4832 379.209 66.7423C378.897 66.997 378.661 67.3243 378.501 67.7243L377.856 69.3863C377.661 69.8895 377.585 70.3603 377.628 70.7986C377.676 71.2387 377.833 71.6249 378.1 71.9572C378.367 72.2895 378.737 72.5473 379.209 72.7307C379.523 72.8524 379.827 72.9196 380.121 72.9325C380.416 72.9453 380.69 72.8994 380.944 72.7948C381.198 72.6902 381.423 72.5288 381.62 72.3105L384.162 73.4954C383.786 74.0708 383.302 74.5128 382.71 74.8213C382.124 75.1272 381.458 75.2852 380.713 75.2954C379.974 75.3029 379.185 75.1439 378.346 74.8183ZM396.214 73.1616L393.57 72.318C393.611 72.0802 393.593 71.8447 393.516 71.6116C393.441 71.374 393.305 71.156 393.107 70.9575C392.916 70.7564 392.657 70.5924 392.331 70.4655C391.894 70.2959 391.489 70.2455 391.117 70.3143C390.747 70.3788 390.503 70.5633 390.384 70.8679C390.29 71.1107 390.308 71.3536 390.437 71.5968C390.566 71.8399 390.847 72.1039 391.28 72.3888L392.976 73.4743C393.886 74.0612 394.497 74.674 394.808 75.3128C395.118 75.9516 395.132 76.6373 394.847 77.3701C394.589 78.0366 394.165 78.5452 393.577 78.8959C392.993 79.2483 392.307 79.4338 391.518 79.4524C390.734 79.4683 389.901 79.3049 389.019 78.9621C387.672 78.4394 386.709 77.7427 386.127 76.8719C385.552 75.9984 385.384 75.0495 385.624 74.0253L388.455 74.9567C388.38 75.3998 388.461 75.792 388.699 76.1334C388.939 76.4704 389.311 76.7366 389.814 76.932C390.308 77.1239 390.742 77.1832 391.116 77.11C391.496 77.034 391.747 76.8446 391.87 76.5417C391.965 76.284 391.938 76.0323 391.79 75.7867C391.643 75.5367 391.366 75.2819 390.959 75.0222L389.334 73.9875C388.418 73.4033 387.812 72.7719 387.517 72.0934C387.226 71.4167 387.228 70.6987 387.522 69.9394C387.776 69.2861 388.171 68.7918 388.707 68.4566C389.248 68.1231 389.89 67.9535 390.634 67.9476C391.382 67.9435 392.191 68.1103 393.06 68.4479C394.345 68.9466 395.25 69.6105 395.777 70.4397C396.307 71.2705 396.453 72.1779 396.214 73.1616ZM404.756 73.1413L403.934 75.2601L397.809 72.8823L398.632 70.7634L404.756 73.1413ZM400.967 68.8666L403.788 69.9617L400.109 79.4434C400.008 79.7038 399.969 79.9223 399.992 80.0988C400.016 80.2709 400.088 80.4131 400.207 80.5253C400.33 80.6393 400.487 80.7331 400.677 80.8068C400.809 80.8582 400.946 80.8986 401.087 80.9279C401.23 80.9528 401.339 80.9724 401.415 80.9866L401.044 83.2577C400.885 83.247 400.667 83.2207 400.389 83.1787C400.109 83.1411 399.783 83.0578 399.412 82.9288C398.722 82.6914 398.161 82.3695 397.729 81.9632C397.302 81.5587 397.032 81.0831 396.919 80.5364C396.806 79.9897 396.881 79.3839 397.144 78.7191L400.967 68.8666Z" fill="black"/>
<path d="M181.3 122.541L177.378 125.888L167.937 114.823L171.892 111.448C173.004 110.498 174.151 109.902 175.332 109.659C176.511 109.413 177.667 109.518 178.803 109.974C179.943 110.427 181.003 111.228 181.983 112.377C182.967 113.53 183.594 114.706 183.865 115.907C184.14 117.104 184.061 118.27 183.629 119.405C183.2 120.536 182.424 121.582 181.3 122.541ZM178.007 121.887L179.493 120.619C180.184 120.029 180.661 119.41 180.924 118.763C181.187 118.108 181.217 117.42 181.012 116.699C180.807 115.971 180.353 115.194 179.65 114.369C178.952 113.551 178.261 112.986 177.577 112.674C176.897 112.358 176.217 112.279 175.536 112.437C174.855 112.594 174.169 112.968 173.478 113.559L171.987 114.831L178.007 121.887ZM192.322 113.413C191.469 114.141 190.586 114.596 189.676 114.775C188.765 114.949 187.872 114.858 186.997 114.503C186.119 114.145 185.306 113.528 184.559 112.653C183.831 111.799 183.357 110.908 183.139 109.981C182.92 109.053 182.958 108.153 183.252 107.279C183.549 106.403 184.105 105.617 184.919 104.922C185.466 104.455 186.051 104.108 186.674 103.882C187.297 103.649 187.933 103.557 188.584 103.605C189.239 103.65 189.891 103.853 190.541 104.213C191.188 104.57 191.813 105.101 192.415 105.807L192.954 106.439L185.948 112.42L184.731 110.994L189.571 106.862C189.288 106.531 188.966 106.299 188.604 106.166C188.241 106.033 187.871 106.004 187.492 106.078C187.114 106.145 186.758 106.322 186.423 106.608C186.073 106.906 185.833 107.252 185.701 107.644C185.57 108.03 185.544 108.423 185.623 108.822C185.699 109.218 185.875 109.581 186.151 109.912L187.308 111.268C187.659 111.679 188.037 111.969 188.443 112.139C188.853 112.305 189.268 112.35 189.687 112.272C190.106 112.195 190.509 111.991 190.894 111.662C191.15 111.444 191.353 111.208 191.504 110.955C191.655 110.702 191.745 110.438 191.773 110.165C191.801 109.892 191.766 109.617 191.667 109.34L193.915 107.664C194.244 108.268 194.403 108.904 194.394 109.571C194.385 110.232 194.209 110.893 193.864 111.555C193.52 112.209 193.006 112.829 192.322 113.413ZM200.149 111.83L190.413 100.419L192.682 98.4826L193.871 99.8766L193.974 99.789C193.884 99.4796 193.836 99.1281 193.831 98.7347C193.825 98.3346 193.911 97.9249 194.089 97.5056C194.267 97.0797 194.588 96.6685 195.053 96.2719C195.658 95.7555 196.351 95.4375 197.133 95.318C197.912 95.1948 198.725 95.3196 199.572 95.6922C200.416 96.0613 201.243 96.7213 202.055 97.6722C202.845 98.5979 203.362 99.5071 203.607 100.4C203.853 101.286 203.86 102.111 203.628 102.875C203.397 103.633 202.966 104.281 202.336 104.819C201.889 105.2 201.446 105.45 201.007 105.57C200.571 105.687 200.159 105.718 199.771 105.664C199.379 105.606 199.032 105.506 198.731 105.365L198.661 105.425L202.45 109.866L200.149 111.83ZM196.206 102.646C196.627 103.139 197.063 103.511 197.513 103.762C197.963 104.013 198.406 104.13 198.84 104.114C199.272 104.094 199.673 103.926 200.044 103.609C200.418 103.29 200.648 102.917 200.732 102.49C200.813 102.06 200.763 101.604 200.583 101.123C200.403 100.635 200.108 100.15 199.696 99.6672C199.287 99.1881 198.861 98.8235 198.417 98.5735C197.974 98.3234 197.534 98.2064 197.1 98.2224C196.666 98.2385 196.259 98.4078 195.881 98.7306C195.507 99.0503 195.274 99.4199 195.184 99.8393C195.097 100.256 195.141 100.704 195.314 101.185C195.488 101.665 195.785 102.152 196.206 102.646ZM199.98 87.4718L209.421 98.537L207.12 100.501L197.679 89.4361L199.98 87.4718ZM215.152 93.9255C214.313 94.6417 213.435 95.0829 212.519 95.2488C211.603 95.4082 210.706 95.3086 209.827 94.9503C208.946 94.5884 208.142 93.9824 207.417 93.1323C206.686 92.2751 206.212 91.3845 205.996 90.4605C205.778 89.533 205.82 88.6311 206.125 87.755C206.43 86.8723 207.002 86.0727 207.841 85.3565C208.68 84.6403 209.557 84.2025 210.473 84.0432C211.39 83.8772 212.289 83.9751 213.17 84.3371C214.048 84.6954 214.853 85.3032 215.585 86.1605C216.31 87.0105 216.782 87.8993 217.001 88.8269C217.217 89.7508 217.172 90.6542 216.867 91.537C216.563 92.4131 215.991 93.2092 215.152 93.9255ZM213.642 92.1333C214.023 91.8075 214.25 91.4274 214.321 90.993C214.389 90.555 214.327 90.0916 214.134 89.6027C213.944 89.1108 213.644 88.6235 213.232 88.1408C212.82 87.6582 212.386 87.2846 211.93 87.0201C211.478 86.7526 211.03 86.6181 210.587 86.6166C210.144 86.6152 209.731 86.7774 209.35 87.1032C208.964 87.4321 208.734 87.8187 208.659 88.2628C208.587 88.7038 208.646 89.1703 208.835 89.6623C209.028 90.1511 209.33 90.6369 209.742 91.1195C210.154 91.6022 210.586 91.9773 211.039 92.2448C211.494 92.5093 211.946 92.6407 212.393 92.6391C212.84 92.6308 213.256 92.4622 213.642 92.1333ZM224.402 91.1278C224.111 91.3768 223.817 91.587 223.521 91.7585C223.232 91.9304 222.976 92.0529 222.752 92.1259L221.805 89.9651C222.145 89.8174 222.427 89.6549 222.649 89.4777C222.875 89.2974 223.021 89.0855 223.087 88.8422C223.157 88.5958 223.132 88.2999 223.011 87.9545L222.847 87.4881L212.587 81.4922L215.007 79.4264L221.924 84.0546L222.011 83.9808L218.545 76.4062L220.981 74.3266L225.602 86.2751C225.829 86.854 225.95 87.4228 225.966 87.9817C225.989 88.541 225.876 89.0829 225.626 89.6073C225.379 90.1353 224.971 90.6421 224.402 91.1278Z" fill="black"/>
<path d="M496.601 325.865L450.18 304.102C459.631 283.92 468.305 254.839 468.305 232.357C468.305 208.266 462.832 185.242 452.037 163.937C450.166 160.236 443.377 147.928 441.52 144.85L485.377 118.292C488.079 122.742 495.492 136.256 497.778 140.761C512.245 169.329 519.575 200.143 519.575 232.357C519.575 262.422 509.266 298.821 496.601 325.865Z" fill="#DCDFEC"/>
<path d="M423.464 168.234L510.776 110.779L430.157 83.3201L423.464 168.234Z" fill="#DCDFEC"/>
<path d="M316.67 435.327H153.062V384.04H316.67C364.296 384.04 408.236 362.306 437.21 324.395L477.935 355.542C439.178 406.246 380.397 435.327 316.67 435.327Z" fill="#F49E9F"/>
<path d="M411.298 311.56L498.291 369.5L492.055 284.544L411.298 311.56Z" fill="#F49E9F"/>
<path d="M498.291 369.5L492.056 284.544L411.298 311.56L434.924 327.292C405.949 363.401 363.062 384.026 316.67 384.026H153.062V435.313H316.67C380.286 435.313 438.97 406.329 477.728 355.791L498.291 369.486V369.5Z" fill="#F49E9F"/>
<path d="M404.583 395.712L400.66 399.059L391.223 387.99L395.178 384.616C396.291 383.667 397.438 383.071 398.619 382.829C399.797 382.583 400.954 382.688 402.09 383.145C403.229 383.598 404.289 384.399 405.269 385.549C406.252 386.701 406.879 387.878 407.149 389.079C407.424 390.276 407.345 391.442 406.912 392.577C406.483 393.708 405.706 394.754 404.583 395.712ZM401.29 395.058L402.776 393.79C403.467 393.2 403.945 392.581 404.208 391.934C404.471 391.28 404.501 390.592 404.296 389.87C404.092 389.142 403.638 388.365 402.935 387.54C402.237 386.722 401.547 386.157 400.863 385.844C400.183 385.528 399.503 385.448 398.822 385.606C398.141 385.763 397.455 386.137 396.763 386.727L395.272 388L401.29 395.058ZM415.607 386.587C414.753 387.316 413.871 387.77 412.96 387.949C412.05 388.122 411.157 388.031 410.282 387.676C409.404 387.317 408.591 386.7 407.845 385.825C407.117 384.971 406.644 384.08 406.425 383.152C406.207 382.225 406.244 381.324 406.539 380.451C406.837 379.574 407.393 378.789 408.207 378.094C408.754 377.627 409.339 377.28 409.962 377.054C410.585 376.822 411.222 376.729 411.873 376.778C412.527 376.823 413.179 377.026 413.829 377.387C414.476 377.744 415.1 378.275 415.702 378.982L416.241 379.614L409.233 385.593L408.017 384.166L412.858 380.035C412.575 379.704 412.253 379.472 411.891 379.339C411.529 379.206 411.158 379.177 410.78 379.251C410.402 379.318 410.045 379.495 409.71 379.78C409.361 380.079 409.12 380.424 408.988 380.817C408.857 381.202 408.83 381.595 408.91 381.994C408.986 382.39 409.162 382.753 409.438 383.084L410.594 384.441C410.944 384.852 411.323 385.142 411.729 385.312C412.139 385.479 412.553 385.524 412.972 385.446C413.392 385.368 413.794 385.165 414.179 384.836C414.435 384.618 414.639 384.382 414.79 384.129C414.941 383.876 415.03 383.612 415.059 383.339C415.087 383.066 415.052 382.791 414.953 382.515L417.202 380.839C417.53 381.443 417.689 382.079 417.68 382.746C417.671 383.407 417.494 384.068 417.15 384.73C416.805 385.384 416.291 386.004 415.607 386.587ZM422.626 370.069L420.629 371.996C420.439 371.847 420.224 371.751 419.982 371.708C419.737 371.662 419.481 371.678 419.212 371.758C418.945 371.83 418.678 371.981 418.411 372.208C418.054 372.512 417.818 372.844 417.702 373.205C417.583 373.561 417.63 373.864 417.842 374.113C418.011 374.311 418.233 374.411 418.508 374.413C418.783 374.414 419.149 374.292 419.605 374.046L421.365 373.067C422.313 372.545 423.142 372.298 423.852 372.328C424.561 372.357 425.171 372.671 425.681 373.269C426.145 373.813 426.391 374.427 426.421 375.111C426.454 375.793 426.292 376.485 425.934 377.189C425.576 377.886 425.037 378.542 424.317 379.157C423.218 380.094 422.148 380.612 421.106 380.711C420.064 380.803 419.149 380.5 418.362 379.802L420.524 377.752C420.879 378.029 421.262 378.143 421.676 378.095C422.086 378.044 422.497 377.843 422.907 377.493C423.311 377.149 423.569 376.795 423.682 376.431C423.795 376.06 423.748 375.749 423.539 375.497C423.358 375.291 423.123 375.196 422.837 375.21C422.547 375.22 422.192 375.343 421.77 375.579L420.089 376.518C419.14 377.048 418.297 377.281 417.56 377.219C416.826 377.154 416.195 376.812 415.667 376.192C415.212 375.659 414.964 375.077 414.924 374.445C414.887 373.811 415.042 373.165 415.39 372.507C415.741 371.847 416.272 371.213 416.982 370.608C418.03 369.714 419.044 369.232 420.023 369.162C421.006 369.089 421.874 369.391 422.626 370.069ZM429.324 374.605L422.246 366.304L424.548 364.34L431.625 372.641L429.324 374.605ZM422.49 364.247C422.148 364.539 421.757 364.676 421.319 364.658C420.881 364.633 420.525 364.461 420.252 364.14C419.981 363.823 419.87 363.448 419.918 363.015C419.966 362.575 420.162 362.21 420.504 361.918C420.846 361.626 421.236 361.492 421.674 361.517C422.112 361.535 422.467 361.702 422.737 362.019C423.011 362.34 423.123 362.72 423.075 363.16C423.027 363.593 422.832 363.955 422.49 364.247ZM440.01 371.165C439.264 371.801 438.537 372.243 437.829 372.493C437.127 372.743 436.471 372.827 435.86 372.745C435.248 372.662 434.71 372.443 434.245 372.087L436.129 369.985C436.335 370.095 436.57 370.162 436.833 370.187C437.097 370.211 437.381 370.168 437.685 370.058C437.996 369.948 438.319 369.75 438.654 369.465C439.154 369.037 439.462 368.563 439.578 368.041C439.7 367.52 439.518 366.975 439.033 366.406L437.738 364.887L437.641 364.97C437.736 365.287 437.771 365.634 437.744 366.011C437.718 366.389 437.601 366.778 437.395 367.178C437.188 367.578 436.865 367.966 436.426 368.34C435.803 368.872 435.113 369.212 434.355 369.36C433.599 369.502 432.814 369.402 432.001 369.062C431.189 368.716 430.392 368.083 429.608 367.164C428.807 366.224 428.29 365.308 428.059 364.416C427.827 363.524 427.832 362.705 428.073 361.958C428.317 361.208 428.743 360.574 429.352 360.054C429.817 359.658 430.273 359.405 430.722 359.297C431.167 359.184 431.585 359.164 431.976 359.235C432.367 359.3 432.71 359.399 433.005 359.533L433.091 359.459L431.903 358.065L434.188 356.115L441.335 364.498C441.937 365.204 442.268 365.942 442.328 366.713C442.387 367.484 442.212 368.249 441.803 369.009C441.4 369.77 440.802 370.488 440.01 371.165ZM435.681 365.989C436.052 365.672 436.287 365.313 436.386 364.911C436.486 364.502 436.456 364.067 436.298 363.604C436.141 363.135 435.855 362.657 435.44 362.17C435.025 361.684 434.597 361.321 434.156 361.081C433.712 360.837 433.276 360.727 432.848 360.75C432.42 360.773 432.02 360.943 431.649 361.26C431.271 361.582 431.039 361.957 430.955 362.384C430.868 362.807 430.911 363.255 431.085 363.729C431.259 364.203 431.547 364.676 431.95 365.148C432.358 365.627 432.778 365.985 433.209 366.221C433.641 366.45 434.066 366.551 434.485 366.524C434.904 366.49 435.303 366.311 435.681 365.989ZM441.307 356.091L445.399 360.89L443.098 362.854L436.02 354.553L438.213 352.681L439.462 354.146L439.559 354.063C439.332 353.423 439.314 352.779 439.507 352.129C439.696 351.475 440.099 350.886 440.715 350.36C441.291 349.869 441.901 349.566 442.545 349.453C443.189 349.339 443.829 349.415 444.466 349.681C445.1 349.943 445.692 350.396 446.242 351.041L450.748 356.327L448.447 358.291L444.29 353.416C443.861 352.904 443.393 352.619 442.888 352.558C442.379 352.495 441.894 352.659 441.433 353.053C441.123 353.317 440.906 353.617 440.782 353.953C440.662 354.286 440.644 354.638 440.729 355.007C440.814 355.37 441.007 355.731 441.307 356.091Z" fill="black"/>
<path d="M479.948 181.706L479.139 176.613L493.504 174.332L494.32 179.466C494.549 180.911 494.459 182.201 494.049 183.335C493.645 184.468 492.951 185.4 491.969 186.132C490.988 186.868 489.752 187.354 488.26 187.591C486.764 187.829 485.433 187.75 484.268 187.355C483.103 186.965 482.15 186.289 481.407 185.328C480.666 184.372 480.179 183.165 479.948 181.706ZM482.223 179.237L482.53 181.166C482.672 182.064 482.951 182.794 483.367 183.356C483.787 183.922 484.359 184.306 485.081 184.507C485.809 184.713 486.708 184.731 487.779 184.561C488.841 184.392 489.683 184.098 490.307 183.677C490.931 183.262 491.354 182.723 491.574 182.059C491.795 181.396 491.834 180.616 491.692 179.718L491.384 177.782L482.223 179.237ZM481.981 195.871C481.805 194.763 481.878 193.773 482.2 192.902C482.528 192.035 483.071 191.321 483.83 190.759C484.594 190.197 485.545 189.826 486.681 189.645C487.789 189.469 488.796 189.53 489.701 189.827C490.607 190.124 491.355 190.626 491.947 191.333C492.539 192.044 492.919 192.928 493.087 193.985C493.2 194.696 493.19 195.376 493.059 196.025C492.932 196.678 492.679 197.269 492.298 197.8C491.918 198.335 491.404 198.785 490.758 199.152C490.116 199.517 489.337 199.773 488.42 199.918L487.599 200.049L486.155 190.951L488.007 190.657L489.005 196.942C489.435 196.874 489.801 196.72 490.103 196.48C490.406 196.24 490.624 195.939 490.758 195.577C490.898 195.22 490.933 194.823 490.864 194.388C490.792 193.935 490.623 193.549 490.357 193.232C490.096 192.919 489.775 192.692 489.393 192.551C489.016 192.41 488.614 192.37 488.188 192.433L486.427 192.713C485.894 192.798 485.449 192.969 485.092 193.227C484.736 193.49 484.482 193.82 484.329 194.218C484.177 194.616 484.14 195.066 484.22 195.566C484.272 195.898 484.367 196.195 484.505 196.456C484.642 196.717 484.82 196.931 485.038 197.097C485.256 197.264 485.509 197.377 485.797 197.437L486.053 200.23C485.367 200.195 484.741 199.999 484.177 199.643C483.617 199.291 483.146 198.795 482.761 198.156C482.382 197.522 482.122 196.76 481.981 195.871ZM495.61 210.777L484.238 208.722L483.703 205.355L493.879 199.877L494.38 203.033L487.027 206.495L487.044 206.607L495.107 207.613L495.61 210.777ZM499.919 214.724L485.553 217.006L485.079 214.017L499.444 211.736L499.919 214.724ZM486.496 224.301C486.323 223.211 486.405 222.232 486.741 221.363C487.084 220.499 487.637 219.785 488.401 219.223C489.169 218.66 490.106 218.291 491.209 218.115C492.322 217.939 493.329 217.999 494.23 218.297C495.135 218.594 495.882 219.101 496.47 219.818C497.064 220.539 497.448 221.444 497.621 222.534C497.794 223.623 497.709 224.6 497.367 225.465C497.03 226.333 496.478 227.049 495.709 227.612C494.945 228.175 494.006 228.544 492.893 228.721C491.79 228.896 490.785 228.835 489.88 228.538C488.979 228.24 488.232 227.731 487.638 227.01C487.05 226.293 486.669 225.39 486.496 224.301ZM488.813 223.947C488.892 224.443 489.098 224.834 489.431 225.122C489.769 225.408 490.197 225.597 490.714 225.687C491.233 225.782 491.805 225.78 492.432 225.681C493.059 225.581 493.604 225.406 494.067 225.155C494.532 224.908 494.88 224.597 495.112 224.219C495.345 223.842 495.422 223.405 495.343 222.91C495.264 222.409 495.054 222.011 494.715 221.715C494.376 221.424 493.947 221.23 493.429 221.135C492.911 221.045 492.339 221.05 491.712 221.149C491.086 221.249 490.54 221.422 490.076 221.668C489.613 221.919 489.265 222.236 489.033 222.618C488.807 223.003 488.733 223.447 488.813 223.947ZM483.817 232.155L498.631 229.802L499.099 232.748L497.289 233.035L497.31 233.168C497.621 233.253 497.946 233.396 498.284 233.596C498.628 233.801 498.933 234.088 499.198 234.458C499.468 234.832 499.651 235.321 499.747 235.924C499.872 236.71 499.781 237.467 499.475 238.197C499.174 238.925 498.643 239.554 497.883 240.082C497.128 240.609 496.133 240.971 494.899 241.167C493.697 241.358 492.651 241.325 491.762 241.068C490.878 240.816 490.17 240.391 489.639 239.795C489.114 239.202 488.786 238.497 488.656 237.678C488.564 237.099 488.582 236.59 488.709 236.153C488.837 235.72 489.025 235.352 489.274 235.049C489.528 234.745 489.794 234.501 490.071 234.318L490.057 234.227L484.291 235.143L483.817 232.155ZM493.708 233.582C493.068 233.684 492.523 233.862 492.074 234.115C491.626 234.369 491.295 234.685 491.082 235.064C490.873 235.442 490.807 235.872 490.884 236.354C490.961 236.84 491.16 237.231 491.48 237.525C491.804 237.818 492.219 238.014 492.723 238.111C493.233 238.212 493.801 238.213 494.428 238.114C495.05 238.015 495.583 237.841 496.028 237.593C496.473 237.345 496.802 237.032 497.015 236.653C497.228 236.274 497.296 235.839 497.218 235.348C497.14 234.861 496.946 234.47 496.636 234.175C496.326 233.883 495.921 233.686 495.42 233.584C494.92 233.481 494.349 233.481 493.708 233.582Z" fill="black"/>
<path d="M139.441 352.367V467L213.159 409.684L139.441 352.367Z" fill="#CBCBCB"/>
<path d="M149.062 384.04H4C1.79086 384.04 0 385.831 0 388.04V431.327C0 433.536 1.79086 435.327 4 435.327H149.062C151.271 435.327 153.062 433.536 153.062 431.327V388.04C153.062 385.831 151.271 384.04 149.062 384.04Z" fill="#CBCBCB"/>
<path d="M56.5353 417.08V402.535H62.274C63.3772 402.535 64.3171 402.745 65.0936 403.167C65.8701 403.584 66.4619 404.164 66.8691 404.907C67.2811 405.646 67.487 406.498 67.487 407.464C67.487 408.43 67.2787 409.282 66.862 410.021C66.4454 410.759 65.8417 411.334 65.051 411.746C64.265 412.158 63.3133 412.364 62.1958 412.364H58.5382V409.9H61.6987C62.2905 409.9 62.7782 409.798 63.1618 409.594C63.55 409.386 63.8388 409.1 64.0282 408.735C64.2224 408.366 64.3194 407.942 64.3194 407.464C64.3194 406.981 64.2224 406.559 64.0282 406.2C63.8388 405.835 63.55 405.553 63.1618 405.354C62.7735 405.151 62.2811 405.049 61.6845 405.049H59.6106V417.08H56.5353ZM72.4533 402.535V417.08H69.4277V402.535H72.4533ZM77.9878 417.286C77.2917 417.286 76.6715 417.165 76.127 416.924C75.5824 416.678 75.1516 416.316 74.8343 415.837C74.5218 415.354 74.3656 414.753 74.3656 414.033C74.3656 413.427 74.4769 412.918 74.6994 412.506C74.9219 412.094 75.225 411.763 75.6085 411.512C75.992 411.261 76.4276 411.072 76.9153 410.944C77.4077 410.816 77.9238 410.726 78.4636 410.674C79.0981 410.608 79.6094 410.546 79.9977 410.489C80.386 410.428 80.6677 410.338 80.8429 410.219C81.0181 410.101 81.1057 409.926 81.1057 409.694V409.651C81.1057 409.201 80.9636 408.853 80.6795 408.607C80.4002 408.361 80.0024 408.238 79.4863 408.238C78.9418 408.238 78.5086 408.359 78.1866 408.6C77.8646 408.837 77.6516 409.135 77.5474 409.495L74.7491 409.268C74.8912 408.605 75.1705 408.032 75.5872 407.549C76.0039 407.061 76.5413 406.687 77.1994 406.427C77.8623 406.162 78.6293 406.029 79.5005 406.029C80.1066 406.029 80.6866 406.1 81.2406 406.242C81.7993 406.384 82.2941 406.604 82.725 406.903C83.1606 407.201 83.5039 407.584 83.7548 408.053C84.0057 408.517 84.1312 409.074 84.1312 409.722V417.08H81.2619V415.567H81.1767C81.0015 415.908 80.7671 416.209 80.4735 416.469C80.18 416.725 79.8272 416.926 79.4153 417.073C79.0034 417.215 78.5275 417.286 77.9878 417.286ZM78.8542 415.198C79.2993 415.198 79.6923 415.111 80.0332 414.935C80.3741 414.755 80.6416 414.514 80.8358 414.211C81.0299 413.908 81.127 413.565 81.127 413.181V412.023C81.0323 412.085 80.9021 412.142 80.7363 412.194C80.5753 412.241 80.3931 412.286 80.1895 412.329C79.9859 412.367 79.7823 412.402 79.5787 412.435C79.3751 412.464 79.1904 412.49 79.0247 412.513C78.6696 412.566 78.3594 412.648 78.0943 412.762C77.8291 412.876 77.6232 413.03 77.4764 413.224C77.3296 413.413 77.2562 413.65 77.2562 413.934C77.2562 414.346 77.4054 414.661 77.7037 414.878C78.0067 415.092 78.3902 415.198 78.8542 415.198ZM89.5041 410.773V417.08H86.4785V406.171H89.362V408.096H89.4899C89.7314 407.461 90.1362 406.959 90.7044 406.59C91.2726 406.216 91.9615 406.029 92.7711 406.029C93.5287 406.029 94.1892 406.195 94.7527 406.526C95.3161 406.858 95.7541 407.331 96.0666 407.947C96.3791 408.557 96.5353 409.287 96.5353 410.134V417.08H93.5098V410.674C93.5145 410.006 93.3441 409.486 92.9984 409.111C92.6528 408.733 92.1769 408.543 91.5708 408.543C91.1637 408.543 90.8038 408.631 90.4913 408.806C90.1835 408.981 89.9421 409.237 89.7669 409.573C89.5964 409.905 89.5088 410.305 89.5041 410.773Z" fill="black"/>
</g>
<defs>
<clipPath id="clip0_1921_6515">
<rect width="654" height="467" fill="white"/>
</clipPath>
</defs>
</svg>
