<svg width="72" height="72" viewBox="0 0 72 72" fill="none" xmlns="http://www.w3.org/2000/svg">
<path fill-rule="evenodd" clip-rule="evenodd" d="M25.185 30.7439L19.1591 24.7666L35.2022 8.78808C35.7891 8.20207 36.6892 8.20207 37.2761 8.78808L49.0933 20.5865L25.8502 30.9002C25.6155 30.9784 25.3415 30.9393 25.185 30.7439Z" fill="#6D7E7F"/>
<path fill-rule="evenodd" clip-rule="evenodd" d="M53.2801 47.5819L37.2369 63.5605C36.6499 64.1465 35.7499 64.1465 35.163 63.5605L23.3458 51.7621L46.5889 41.4483C46.8237 41.3311 47.0584 41.4093 47.2541 41.5656L53.2801 47.5819Z" fill="#6D7E7F"/>
<path fill-rule="evenodd" clip-rule="evenodd" d="M21.8978 50.2385L8.78935 37.151C8.2024 36.5649 8.2024 35.6664 8.78935 35.0804L17.7109 26.173L24.2847 32.7364C24.7151 33.1661 25.3803 33.2833 25.9281 33.0489L50.5407 22.11L63.6492 35.1585C64.2362 35.7445 64.2362 36.6431 63.6492 37.2291L54.7277 46.1364L48.1538 39.6122C47.7234 39.1824 47.0582 39.0653 46.5104 39.2996L21.8978 50.2385Z" fill="#EC4042"/>
</svg>
