<?xml version="1.0" encoding="utf-8"?>
<!-- Generator: Adobe Illustrator 24.1.1, SVG Export Plug-In . SVG Version: 6.00 Build 0)  -->
<svg version="1.1" id="Layer_1" xmlns="http://www.w3.org/2000/svg" xmlns:xlink="http://www.w3.org/1999/xlink" x="0px" y="0px"
	 viewBox="0 0 55.3 52.4" style="enable-background:new 0 0 55.3 52.4;" xml:space="preserve">
<style type="text/css">
	.st0{fill-rule:evenodd;clip-rule:evenodd;fill:#FFFFFF;}
</style>
<g>
	<path class="st0" d="M18.7,22.1L13.5,17L27.3,3.4c0.5-0.5,1.3-0.5,1.8,0l10.2,10.1l-20,8.8C19,22.3,18.8,22.3,18.7,22.1z"/>
	<path class="st0" d="M42.9,36.5L29.1,50.1c-0.5,0.5-1.3,0.5-1.8,0L17.1,40.1l20-8.8c0.2-0.1,0.4,0,0.6,0.1L42.9,36.5z"/>
	<path class="st0" d="M15.8,38.8L4.5,27.6c-0.5-0.5-0.5-1.3,0-1.8l7.7-7.6l5.7,5.6c0.4,0.4,0.9,0.5,1.4,0.3l21.2-9.3l11.3,11.1
		c0.5,0.5,0.5,1.3,0,1.8l-7.7,7.6l-5.7-5.6c-0.4-0.4-0.9-0.5-1.4-0.3L15.8,38.8z"/>
</g>
</svg>
