<svg width="170" height="40" viewBox="0 0 170 40" fill="none" xmlns="http://www.w3.org/2000/svg">
<g clip-path="url(#clip0_941_254)">
<path fill-rule="evenodd" clip-rule="evenodd" d="M51.4246 31.1334L44.6413 16.9834C44.5746 16.7667 44.7079 16.55 44.9246 16.55H47.5829C47.7246 16.55 47.7913 16.625 47.8663 16.7667L51.3579 24.2334C51.4996 24.45 51.7746 24.45 51.9163 24.2334L55.4079 16.7667C55.4746 16.625 55.5496 16.55 55.6913 16.55H58.4913C58.6996 16.55 58.8413 16.7667 58.7746 16.9834L51.9246 31.1334C51.8579 31.4167 51.5079 31.4167 51.4329 31.1334H51.4246Z" fill="#EB4042"/>
<path fill-rule="evenodd" clip-rule="evenodd" d="M64.3584 19.7834C63.6584 20.2167 63.1 20.7917 62.6834 21.5084C62.2667 22.2251 62.05 23.0167 62.05 23.8751C62.05 24.7334 62.2584 25.5251 62.6834 26.2417C63.1084 26.9584 63.6584 27.6084 64.3584 28.0334C65.0584 28.4667 65.825 28.6834 66.6667 28.6834C67.5084 28.6834 68.275 28.4667 69.0417 28.0334C69.7417 27.6001 70.3 27.0251 70.7167 26.2417C71.1334 25.5251 71.35 24.7334 71.35 23.8751C71.35 23.0167 71.1417 22.2251 70.7167 21.5084C70.3 20.7917 69.7417 20.2167 69.0417 19.7834C68.3417 19.3501 67.5 19.1334 66.6667 19.1334C65.8334 19.1334 65.0584 19.3501 64.3584 19.7834ZM62.75 30.6251C61.5584 29.9084 60.5834 28.9751 59.8834 27.8251C59.1834 26.6084 58.8334 25.3084 58.8334 23.9501C58.8334 22.5917 59.1834 21.2917 59.8834 20.0751C60.5834 18.8584 61.5584 17.9167 62.75 17.2751C63.9417 16.5584 65.2667 16.2667 66.6667 16.2667C68.0667 16.2667 69.3917 16.6251 70.5834 17.2751C71.775 17.9917 72.75 18.9251 73.45 20.0751C74.15 21.3001 74.5 22.5167 74.5 23.9501C74.5 25.3834 74.15 26.6084 73.45 27.8251C72.75 29.0501 71.775 29.9834 70.5834 30.6251C69.3917 31.3417 68.0667 31.6334 66.6667 31.6334C65.2667 31.6334 63.9417 31.2751 62.75 30.6251Z" fill="#EB4042"/>
<path fill-rule="evenodd" clip-rule="evenodd" d="M83.0251 28.6167C84.2834 28.6167 85.3334 28.2584 86.1751 27.6084C87.0167 26.9584 87.4334 25.7417 87.4334 23.95C87.4334 22.1583 87.0167 21.0083 86.1751 20.2833C85.3334 19.6333 84.2917 19.275 83.0251 19.275H80.5084C80.3667 19.275 80.2251 19.4167 80.2251 19.5583V28.175C80.2251 28.3167 80.3667 28.4584 80.5084 28.4584H83.0251V28.6V28.6167ZM77.0834 16.8417C77.0834 16.7 77.2251 16.5583 77.3667 16.5583H83.0334C85.2001 16.5583 86.9501 17.2083 88.3501 18.425C89.1167 19.075 89.6751 19.8584 90.0251 20.8667C90.3751 21.8 90.5834 22.875 90.5834 24.025C90.5834 25.175 90.3751 26.1833 89.9501 27.1833C89.5334 28.1167 88.9751 28.975 88.2751 29.625C87.6501 30.2 86.8084 30.7 85.9001 30.9917C84.9917 31.275 84.0084 31.4917 82.9667 31.4917H77.3001C77.1584 31.4917 77.0167 31.35 77.0167 31.2084V16.8417H77.0834Z" fill="#EB4042"/>
<path fill-rule="evenodd" clip-rule="evenodd" d="M105.05 31.275L101.483 23.7334C101.342 23.5167 101.067 23.5167 100.925 23.7334L97.3584 31.275C97.2167 31.5584 96.8667 31.4917 96.8 31.275L91.4167 16.9834C91.35 16.7667 91.4834 16.55 91.6917 16.55H94.4167C94.5584 16.55 94.7 16.625 94.7 16.7667L97.15 23.5917C97.2167 23.875 97.6417 23.875 97.7084 23.5917L100.925 16.7667C101.067 16.55 101.342 16.55 101.483 16.7667L104.7 23.5917C104.842 23.875 105.192 23.8084 105.258 23.5917L107.775 16.7667C107.842 16.625 107.917 16.55 108.058 16.55H110.717C110.925 16.55 111.067 16.7667 110.992 16.9834L105.608 31.2C105.542 31.4834 105.192 31.4834 105.05 31.275Z" fill="#485655"/>
<path fill-rule="evenodd" clip-rule="evenodd" d="M116.933 19.7834C116.233 20.2167 115.675 20.7917 115.258 21.5084C114.842 22.2251 114.625 23.0167 114.625 23.8751C114.625 24.7334 114.833 25.5251 115.258 26.2417C115.675 26.9584 116.233 27.6084 116.933 28.0334C117.633 28.4667 118.4 28.6834 119.242 28.6834C120.083 28.6834 120.85 28.4667 121.617 28.0334C122.317 27.6001 122.875 27.0251 123.292 26.2417C123.708 25.5251 123.925 24.7334 123.925 23.8751C123.925 23.0167 123.717 22.2251 123.292 21.5084C122.875 20.7917 122.317 20.2167 121.617 19.7834C120.917 19.3501 120.075 19.1334 119.242 19.1334C118.475 19.1334 117.7 19.3501 116.933 19.7834ZM115.392 30.6251C114.2 29.9084 113.225 28.9751 112.525 27.8251C111.825 26.6084 111.475 25.3084 111.475 23.9501C111.475 22.5917 111.825 21.2917 112.525 20.0751C113.225 18.8584 114.2 17.9167 115.392 17.2751C116.583 16.5584 117.908 16.2667 119.308 16.2667C120.708 16.2667 122.033 16.6251 123.225 17.2751C124.417 17.9917 125.392 18.9251 126.092 20.0751C126.792 21.3001 127.142 22.5167 127.142 23.9501C127.142 25.3834 126.792 26.6084 126.092 27.8251C125.392 29.0501 124.417 29.9834 123.225 30.6251C122.033 31.3417 120.708 31.6334 119.308 31.6334C117.908 31.6334 116.583 31.2751 115.392 30.6251Z" fill="#485655"/>
<path fill-rule="evenodd" clip-rule="evenodd" d="M136.158 23.95C136.717 23.95 137.208 23.7333 137.625 23.375C138.042 22.9417 138.258 22.4417 138.258 21.725C138.258 21.15 138.117 20.575 137.767 20.075C137.483 19.575 136.925 19.3583 136.092 19.3583H133.083C132.942 19.3583 132.8 19.5 132.8 19.6417V23.6667C132.8 23.8083 132.942 23.95 133.083 23.95H136.158ZM129.658 31.0583V16.8417C129.658 16.7 129.8 16.5583 129.942 16.5583H136.092C137.142 16.5583 138.05 16.775 138.817 17.2083C139.583 17.6417 140.217 18.2833 140.633 19C141.05 19.7917 141.267 20.65 141.267 21.6583C141.267 22.7333 140.983 23.6667 140.5 24.5333C139.942 25.3917 139.242 25.9667 138.333 26.4C139.175 27.55 140.292 28.9833 141.692 30.85C141.833 31.0667 141.692 31.35 141.408 31.35H138.475C138.408 31.35 138.267 31.275 138.267 31.2084C137.425 30.1334 136.308 28.625 134.908 26.6833H133.092C132.95 26.6833 132.808 26.825 132.808 26.9667V30.9917C132.808 31.1333 132.667 31.275 132.525 31.275H130.008C129.8 31.35 129.658 31.2 129.658 31.0583Z" fill="#485655"/>
<path fill-rule="evenodd" clip-rule="evenodd" d="M147 31.35H144.483C144.342 31.35 144.2 31.2083 144.2 31.0667V16.85C144.2 16.7083 144.342 16.5667 144.483 16.5667H147C147.142 16.5667 147.283 16.7083 147.283 16.85V22.7417L152.875 16.6333C152.942 16.5583 153.017 16.5583 153.083 16.5583H156.092C156.375 16.5583 156.508 16.9167 156.3 17.1333L151.058 22.6667C150.917 22.8084 150.917 22.95 151.058 23.1L156.717 30.925C156.858 31.1417 156.717 31.425 156.433 31.425H153.358C153.292 31.425 153.15 31.35 153.083 31.2834L148.608 25.1083L147.208 26.6167V31.1417C147.275 31.2167 147.142 31.3584 147 31.3584V31.35Z" fill="#485655"/>
<path fill-rule="evenodd" clip-rule="evenodd" d="M161.467 28.1834C162.375 28.5417 163.283 28.7584 164.05 28.7584C164.892 28.7584 165.517 28.6167 166.008 28.2584C166.5 27.9001 166.708 27.5417 166.708 27.1084C166.708 26.7501 166.567 26.4584 166.292 26.2501C166.017 26.0334 165.667 25.8167 165.242 25.7501C164.825 25.6084 164.258 25.5334 163.492 25.3917C162.517 25.2501 161.675 25.0334 160.908 24.7417C160.142 24.4501 159.367 24.0251 158.742 23.3751C158.108 22.7251 157.767 21.8667 157.767 20.7917C157.767 19.2084 158.325 18.0667 159.517 17.3417C160.633 16.6251 162.033 16.2667 163.575 16.2667C164.767 16.2667 165.808 16.4084 166.65 16.7667C167.417 17.0501 168.258 17.4834 169.025 18.0584C169.167 18.1334 169.167 18.3417 169.092 18.4917L167.692 20.4334C167.625 20.5751 167.408 20.5751 167.275 20.5084C166.717 20.1501 166.083 19.7917 165.525 19.5751C164.825 19.2917 164.125 19.1417 163.425 19.1417C162.792 19.1417 162.233 19.2834 161.75 19.5001C161.192 19.7167 160.983 20.0751 160.983 20.6501C160.983 21.0084 161.125 21.2251 161.4 21.4417C161.683 21.6584 161.958 21.8001 162.308 21.8751C162.658 21.9501 163.15 22.0917 163.917 22.2334L164.617 22.3751C165.733 22.5917 166.642 22.8084 167.342 23.0917C168.042 23.3751 168.667 23.8084 169.225 24.4584C169.783 25.1084 169.992 25.9667 169.992 27.0417C169.992 28.5501 169.5 29.7001 168.45 30.4917C167.4 31.2834 166 31.6417 164.258 31.6417C161.742 31.6417 159.642 30.9251 157.967 29.4834C157.825 29.4084 157.825 29.2001 157.9 29.0501L159.225 27.1084C159.292 26.9667 159.5 26.8917 159.642 27.0334C159.992 27.4667 160.625 27.8251 161.458 28.1834H161.467Z" fill="#485655"/>
<path fill-rule="evenodd" clip-rule="evenodd" d="M11.7832 16.125L7.59155 11.8167L18.7749 0.325C19.1916 -0.108333 19.8249 -0.108333 20.2416 0.325L28.4916 8.8L12.1999 16.2C12.0582 16.275 11.9166 16.275 11.7832 16.125Z" fill="#6D7E80"/>
<path fill-rule="evenodd" clip-rule="evenodd" d="M31.4247 28.1833L20.2413 39.675C19.8247 40.1083 19.1913 40.1083 18.7747 39.675L10.5247 31.2L26.7413 23.8C26.883 23.725 27.0913 23.725 27.233 23.875L31.4247 28.1833Z" fill="#6D7E80"/>
<path fill-rule="evenodd" clip-rule="evenodd" d="M9.4745 30.125L0.316162 20.7167C-0.100505 20.2833 -0.100505 19.6417 0.316162 19.2083L6.54116 12.8167L11.1578 17.4833C11.4412 17.7667 11.9245 17.8417 12.2745 17.7L29.4745 9.875L38.6328 19.2833C39.0495 19.7167 39.0495 20.3583 38.6328 20.7917L32.4078 27.1833L27.7912 22.5167C27.5078 22.2333 27.0245 22.1583 26.6745 22.3L9.4745 30.125Z" fill="#EB4042"/>
</g>
<defs>
<clipPath id="clip0_941_254">
<rect width="170" height="40" fill="white"/>
</clipPath>
</defs>
</svg>
