<svg width="40" height="40" viewBox="0 0 40 40" fill="none" xmlns="http://www.w3.org/2000/svg">
<path d="M26.1664 17.3333L24.6664 18M15.333 22L13.833 22.6667M22.667 26.1666L22.0003 24.6666M17.9999 15.3333L17.3332 13.8333M26.1664 22.5L24.6664 21.8333M15.333 18.1667L13.833 17.5M17.5 26.1666L18.1667 24.6666M21.8335 15.3333L22.5002 13.8333M25 20C25 22.7614 22.7614 25 20 25C17.2386 25 15 22.7614 15 20C15 17.2386 17.2386 15 20 15C22.7614 15 25 17.2386 25 20ZM20.0002 7.49999C20.0063 6.45729 19.6213 5.45016 18.9212 4.67748C18.221 3.90479 17.2566 3.42271 16.2183 3.32642C15.1801 3.23013 14.1434 3.52663 13.3131 4.15738C12.4828 4.78812 11.9192 5.70727 11.7335 6.73332C11.1841 6.83625 10.661 7.04868 10.1954 7.35796C9.72977 7.66723 9.33114 8.06703 9.02324 8.53355C8.71533 9.00008 8.50444 9.52378 8.40313 10.0735C8.30181 10.6232 8.31214 11.1877 8.43349 11.7333C7.68126 11.8669 6.98022 12.2047 6.40703 12.7098C5.83384 13.2149 5.41056 13.8678 5.18346 14.5973C4.95636 15.3268 4.9342 16.1046 5.11939 16.8458C5.30458 17.587 5.68999 18.2631 6.23349 18.8C5.31938 19.222 4.55396 19.9102 4.03743 20.7744C3.5209 21.6386 3.27731 22.6387 3.33854 23.6436C3.39978 24.6486 3.76298 25.6117 4.38062 26.4068C4.99827 27.2019 5.84157 27.7921 6.80016 28.1C6.61713 28.7914 6.61517 29.5183 6.79447 30.2107C6.97376 30.9031 7.32827 31.5377 7.82387 32.0534C8.31947 32.5691 8.93948 32.9485 9.62421 33.1552C10.3089 33.3618 11.0353 33.3887 11.7335 33.2333C11.9187 34.2565 12.4798 35.1734 13.3066 35.804C14.1333 36.4346 15.166 36.7333 16.2017 36.6414C17.2374 36.5495 18.2013 36.0737 18.9042 35.3074C19.607 34.5411 19.9979 33.5398 20.0002 32.5C20.0024 33.5398 20.3933 34.5411 21.0962 35.3074C21.799 36.0737 22.7629 36.5495 23.7986 36.6414C24.8344 36.7333 25.867 36.4346 26.6937 35.804C27.5205 35.1734 28.0816 34.2565 28.2668 33.2333C28.965 33.3887 29.6914 33.3618 30.3761 33.1552C31.0608 32.9485 31.6808 32.5691 32.1764 32.0534C32.672 31.5377 33.0266 30.9031 33.2058 30.2107C33.3851 29.5183 33.3832 28.7914 33.2002 28.1C34.1587 27.7921 35.002 27.2019 35.6197 26.4068C36.2373 25.6117 36.6005 24.6486 36.6618 23.6436C36.723 22.6387 36.4794 21.6386 35.9629 20.7744C35.4463 19.9102 34.6809 19.222 33.7668 18.8C34.3103 18.2631 34.6957 17.587 34.8809 16.8458C35.0661 16.1046 35.0439 15.3268 34.8169 14.5973C34.5898 13.8678 34.1665 13.2149 33.5933 12.7098C33.0201 12.2047 32.3191 11.8669 31.5668 11.7333C31.6882 11.1877 31.6985 10.6232 31.5972 10.0735C31.4959 9.52378 31.285 9.00008 30.9771 8.53355C30.6692 8.06703 30.2705 7.66723 29.8049 7.35796C29.3393 7.04868 28.8162 6.83625 28.2668 6.73332C28.0811 5.70727 27.5175 4.78812 26.6872 4.15738C25.8569 3.52663 24.8202 3.23013 23.782 3.32642C22.7437 3.42271 21.7793 3.90479 21.0791 4.67748C20.379 5.45016 19.994 6.45729 20.0002 7.49999Z" stroke="#EB4042" stroke-width="3" stroke-linecap="round" stroke-linejoin="round"/>
</svg>
