<svg width="40" height="40" viewBox="0 0 40 40" fill="none" xmlns="http://www.w3.org/2000/svg">
<path d="M26.6667 13.3333V8.33331C26.6667 6.49998 28.1667 4.99998 30 4.99998M20 21.6666H26.6667M20 30H30C30.884 30 31.7319 30.3512 32.357 30.9763C32.9821 31.6014 33.3333 32.4493 33.3333 33.3333V35M20 13.3333H33.3333M20.0001 7.49997C20.0063 6.45727 19.6213 5.45015 18.9212 4.67746C18.221 3.90478 17.2566 3.4227 16.2183 3.32641C15.18 3.23012 14.1434 3.52662 13.3131 4.15736C12.4828 4.78811 11.9191 5.70725 11.7335 6.73331C11.184 6.83624 10.661 7.04867 10.1954 7.35794C9.72974 7.66722 9.33111 8.06702 9.02321 8.53354C8.7153 9.00006 8.50441 9.52377 8.4031 10.0735C8.30178 10.6232 8.31211 11.1877 8.43346 11.7333C7.68123 11.8668 6.98019 12.2046 6.407 12.7097C5.83381 13.2149 5.41052 13.8678 5.18343 14.5973C4.95633 15.3267 4.93417 16.1046 5.11936 16.8458C5.30455 17.587 5.68996 18.263 6.23346 18.8C5.31935 19.222 4.55393 19.9102 4.0374 20.7744C3.52087 21.6386 3.27728 22.6387 3.33851 23.6436C3.39975 24.6486 3.76295 25.6117 4.38059 26.4068C4.99824 27.2019 5.84154 27.7921 6.80013 28.1C6.6171 28.7914 6.61514 29.5183 6.79444 30.2107C6.97373 30.9031 7.32824 31.5377 7.82384 32.0534C8.31944 32.5691 8.93945 32.9485 9.62418 33.1552C10.3089 33.3618 11.0353 33.3887 11.7335 33.2333C11.9065 34.1864 12.4062 35.0495 13.1466 35.6741C13.8871 36.2986 14.8221 36.6457 15.7907 36.6556C16.7594 36.6654 17.7012 36.3375 18.4542 35.7281C19.2072 35.1187 19.7244 34.266 19.9168 33.3166L20.0001 33.3333V7.49997ZM34.1667 13.3333C34.1667 13.5543 34.0789 13.7663 33.9226 13.9226C33.7663 14.0788 33.5543 14.1666 33.3333 14.1666C33.1123 14.1666 32.9003 14.0788 32.7441 13.9226C32.5878 13.7663 32.5 13.5543 32.5 13.3333C32.5 13.1123 32.5878 12.9003 32.7441 12.7441C32.9003 12.5878 33.1123 12.5 33.3333 12.5C33.5543 12.5 33.7663 12.5878 33.9226 12.7441C34.0789 12.9003 34.1667 13.1123 34.1667 13.3333ZM27.5 21.6666C27.5 21.8877 27.4122 22.0996 27.2559 22.2559C27.0996 22.4122 26.8877 22.5 26.6667 22.5C26.4456 22.5 26.2337 22.4122 26.0774 22.2559C25.9211 22.0996 25.8333 21.8877 25.8333 21.6666C25.8333 21.4456 25.9211 21.2337 26.0774 21.0774C26.2337 20.9211 26.4456 20.8333 26.6667 20.8333C26.8877 20.8333 27.0996 20.9211 27.2559 21.0774C27.4122 21.2337 27.5 21.4456 27.5 21.6666ZM34.1667 35C34.1667 35.221 34.0789 35.433 33.9226 35.5892C33.7663 35.7455 33.5543 35.8333 33.3333 35.8333C33.1123 35.8333 32.9003 35.7455 32.7441 35.5892C32.5878 35.433 32.5 35.221 32.5 35C32.5 34.779 32.5878 34.567 32.7441 34.4107C32.9003 34.2544 33.1123 34.1666 33.3333 34.1666C33.5543 34.1666 33.7663 34.2544 33.9226 34.4107C34.0789 34.567 34.1667 34.779 34.1667 35ZM30.8333 4.99998C30.8333 5.22099 30.7455 5.43295 30.5892 5.58924C30.433 5.74552 30.221 5.83331 30 5.83331C29.779 5.83331 29.567 5.74552 29.4107 5.58924C29.2545 5.43295 29.1667 5.22099 29.1667 4.99998C29.1667 4.77897 29.2545 4.567 29.4107 4.41072C29.567 4.25444 29.779 4.16665 30 4.16665C30.221 4.16665 30.433 4.25444 30.5892 4.41072C30.7455 4.567 30.8333 4.77897 30.8333 4.99998Z" stroke="#EB4042" stroke-width="3" stroke-linecap="round" stroke-linejoin="round"/>
</svg>
