<svg width="40" height="40" viewBox="0 0 40 40" fill="none" xmlns="http://www.w3.org/2000/svg">
<path d="M10 36.6667V6.66671C10 5.78265 10.3512 4.93481 10.9763 4.30968C11.6014 3.68456 12.4493 3.33337 13.3333 3.33337H26.6667C27.5507 3.33337 28.3986 3.68456 29.0237 4.30968C29.6488 4.93481 30 5.78265 30 6.66671V36.6667M10 36.6667H30M10 36.6667H6.66667C5.78261 36.6667 4.93477 36.3155 4.30965 35.6904C3.68453 35.0653 3.33334 34.2174 3.33334 33.3334V23.3334C3.33334 22.4493 3.68453 21.6015 4.30965 20.9764C4.93477 20.3512 5.78261 20 6.66667 20H10M30 36.6667H33.3333C34.2174 36.6667 35.0652 36.3155 35.6904 35.6904C36.3155 35.0653 36.6667 34.2174 36.6667 33.3334V18.3334C36.6667 17.4493 36.3155 16.6015 35.6904 15.9764C35.0652 15.3512 34.2174 15 33.3333 15H30M16.6667 10H23.3333M16.6667 16.6667H23.3333M16.6667 23.3334H23.3333M16.6667 30H23.3333" stroke="#EB4042" stroke-width="3" stroke-linecap="round" stroke-linejoin="round"/>
</svg>
