<svg width="40" height="40" viewBox="0 0 40 40" fill="none" xmlns="http://www.w3.org/2000/svg">
<path d="M35.9 25H28.3333C27.4493 25 26.6014 25.3512 25.9763 25.9764C25.3512 26.6015 25 27.4493 25 28.3334V35.9M11.6667 5.56675V8.33342C11.6667 9.6595 12.1934 10.9313 13.1311 11.869C14.0688 12.8066 15.3406 13.3334 16.6667 13.3334C17.5507 13.3334 18.3986 13.6846 19.0237 14.3097C19.6488 14.9349 20 15.7827 20 16.6668C20 18.5001 21.5 20.0001 23.3333 20.0001C24.2174 20.0001 25.0652 19.6489 25.6904 19.0238C26.3155 18.3987 26.6667 17.5508 26.6667 16.6668C26.6667 14.8334 28.1667 13.3334 30 13.3334H35.2833M18.333 36.5834V30C18.333 29.116 17.9818 28.2681 17.3567 27.643C16.7316 27.0179 15.8837 26.6667 14.9997 26.6667C14.1156 26.6667 13.2678 26.3155 12.6426 25.6904C12.0175 25.0653 11.6663 24.2174 11.6663 23.3334V21.6667C11.6663 20.7827 11.3151 19.9348 10.69 19.3097C10.0649 18.6846 9.21706 18.3334 8.333 18.3334H3.41634M36.6667 20C36.6667 29.2048 29.2047 36.6667 20 36.6667C10.7952 36.6667 3.33333 29.2048 3.33333 20C3.33333 10.7953 10.7952 3.33337 20 3.33337C29.2047 3.33337 36.6667 10.7953 36.6667 20Z" stroke="#EB4042" stroke-width="3" stroke-linecap="round" stroke-linejoin="round"/>
</svg>
