<svg width="40" height="40" viewBox="0 0 40 40" fill="none" xmlns="http://www.w3.org/2000/svg">
<path d="M20 8.33333C22.5 5.83333 24.5667 5 27.5 5C29.9312 5 32.2627 5.96577 33.9818 7.68485C35.7009 9.40394 36.6667 11.7355 36.6667 14.1667C36.6667 17.9833 34.15 20.9 31.6667 23.3333L20 35L8.33334 23.3333C5.83334 20.9167 3.33334 18 3.33334 14.1667C3.33334 11.7355 4.29911 9.40394 6.0182 7.68485C7.73728 5.96577 10.0689 5 12.5 5C15.4333 5 17.5 5.83333 20 8.33333ZM20 8.33333L15.0668 13.2667C14.7282 13.6028 14.4595 14.0027 14.276 14.4432C14.0926 14.8837 13.9982 15.3562 13.9982 15.8333C13.9982 16.3105 14.0926 16.7829 14.276 17.2235C14.4595 17.664 14.7282 18.0638 15.0668 18.4C16.4335 19.7667 18.6168 19.8167 20.0668 18.5167L23.5168 15.35C24.3816 14.5653 25.5075 14.1307 26.6752 14.1307C27.8429 14.1307 28.9688 14.5653 29.8335 15.35L34.7669 19.7833M30 25L26.6667 21.6667M25 30L21.6667 26.6667" stroke="#EB4042" stroke-width="3" stroke-linecap="round" stroke-linejoin="round"/>
</svg>
