<svg width="34" height="37" viewBox="0 0 34 37" fill="none" xmlns="http://www.w3.org/2000/svg">
<path d="M2 2V12M2 12H12M2 12L7 7.49997C9.15741 5.57032 11.827 4.30608 14.6869 3.85973C17.5468 3.41338 20.4747 3.80399 23.1175 4.98445C25.7603 6.16491 28.0051 8.0848 29.5812 10.5125C31.1573 12.9403 31.9974 15.7722 32 18.6666M32 35.3333V25.3333M32 25.3333H22M32 25.3333L27 29.8333C24.8426 31.763 22.173 33.0272 19.3131 33.4736C16.4532 33.9199 13.5253 33.5293 10.8825 32.3489C8.23969 31.1684 5.99485 29.2485 4.41876 26.8208C2.84266 24.393 2.00264 21.5611 2 18.6667M18.6667 18.6667C18.6667 19.5871 17.9205 20.3333 17 20.3333C16.0795 20.3333 15.3333 19.5871 15.3333 18.6667C15.3333 17.7462 16.0795 17 17 17C17.9205 17 18.6667 17.7462 18.6667 18.6667Z" stroke="#EB4042" stroke-width="3" stroke-linecap="round" stroke-linejoin="round"/>
</svg>
