<svg width="40" height="40" viewBox="0 0 40 40" fill="none" xmlns="http://www.w3.org/2000/svg">
<path d="M5 5V35H35M13.3333 12.5C13.3333 12.9602 12.9602 13.3333 12.5 13.3333C12.0398 13.3333 11.6667 12.9602 11.6667 12.5C11.6667 12.0398 12.0398 11.6667 12.5 11.6667C12.9602 11.6667 13.3333 12.0398 13.3333 12.5ZM31.6667 9.16667C31.6667 9.6269 31.2936 10 30.8333 10C30.3731 10 30 9.6269 30 9.16667C30 8.70643 30.3731 8.33333 30.8333 8.33333C31.2936 8.33333 31.6667 8.70643 31.6667 9.16667ZM20 19.1667C20 19.6269 19.6269 20 19.1667 20C18.7064 20 18.3333 19.6269 18.3333 19.1667C18.3333 18.7064 18.7064 18.3333 19.1667 18.3333C19.6269 18.3333 20 18.7064 20 19.1667ZM13.3333 27.5C13.3333 27.9602 12.9602 28.3333 12.5 28.3333C12.0398 28.3333 11.6667 27.9602 11.6667 27.5C11.6667 27.0398 12.0398 26.6667 12.5 26.6667C12.9602 26.6667 13.3333 27.0398 13.3333 27.5ZM30 24.1667C30 24.6269 29.6269 25 29.1667 25C28.7064 25 28.3333 24.6269 28.3333 24.1667C28.3333 23.7064 28.7064 23.3333 29.1667 23.3333C29.6269 23.3333 30 23.7064 30 24.1667Z" stroke="#EB4042" stroke-width="3" stroke-linecap="round" stroke-linejoin="round"/>
</svg>
