<svg width="40" height="40" viewBox="0 0 40 40" fill="none" xmlns="http://www.w3.org/2000/svg">
<path d="M26.6667 35V31.6667C26.6667 29.8986 25.9643 28.2029 24.7141 26.9526C23.4638 25.7024 21.7681 25 20 25H10C8.2319 25 6.53621 25.7024 5.28597 26.9526C4.03572 28.2029 3.33334 29.8986 3.33334 31.6667V35M36.6667 35V31.6667C36.6656 30.1896 36.1739 28.7546 35.269 27.5872C34.364 26.4198 33.0969 25.586 31.6667 25.2167M26.6667 5.21667C28.1007 5.58384 29.3717 6.41784 30.2794 7.58719C31.1871 8.75654 31.6797 10.1947 31.6797 11.675C31.6797 13.1553 31.1871 14.5935 30.2794 15.7628C29.3717 16.9322 28.1007 17.7662 26.6667 18.1333M21.6667 11.6667C21.6667 15.3486 18.6819 18.3333 15 18.3333C11.3181 18.3333 8.33334 15.3486 8.33334 11.6667C8.33334 7.98477 11.3181 5 15 5C18.6819 5 21.6667 7.98477 21.6667 11.6667Z" stroke="#EB4042" stroke-width="3" stroke-linecap="round" stroke-linejoin="round"/>
</svg>
