<svg width="40" height="40" viewBox="0 0 40 40" fill="none" xmlns="http://www.w3.org/2000/svg">
<path d="M35 28.3333V31.6667C35 32.5507 34.6488 33.3986 34.0237 34.0237C33.3986 34.6488 32.5507 35 31.6667 35H8.33333C7.44928 35 6.60143 34.6488 5.97631 34.0237C5.35119 33.3986 5 32.5507 5 31.6667V28.3333M35 11.6667V8.33333C35 7.44928 34.6488 6.60143 34.0237 5.97631C33.3986 5.35119 32.5507 5 31.6667 5H8.33333C7.44928 5 6.60143 5.35119 5.97631 5.97631C5.35119 6.60143 5 7.44928 5 8.33333V11.6667M8.33333 20C8.33333 20 12.575 11.6667 20 11.6667C27.4233 11.6667 31.6667 20 31.6667 20C31.6667 20 27.4233 28.3333 20 28.3333C12.575 28.3333 8.33333 20 8.33333 20ZM20 21.6667C20.442 21.6667 20.8659 21.4911 21.1785 21.1785C21.4911 20.8659 21.6667 20.442 21.6667 20C21.6667 19.558 21.4911 19.134 21.1785 18.8215C20.8659 18.5089 20.442 18.3333 20 18.3333C19.558 18.3333 19.134 18.5089 18.8215 18.8215C18.5089 19.134 18.3333 19.558 18.3333 20C18.3333 20.442 18.5089 20.8659 18.8215 21.1785C19.134 21.4911 19.558 21.6667 20 21.6667Z" stroke="#EB4042" stroke-width="3" stroke-linecap="round" stroke-linejoin="round"/>
</svg>
