<svg width="40" height="40" viewBox="0 0 40 40" fill="none" xmlns="http://www.w3.org/2000/svg">
<path d="M15.1001 19.8333L28.5501 6.39998C28.9885 5.94739 29.5126 5.58656 30.0919 5.3385C30.6711 5.09044 31.2939 4.96011 31.9241 4.95511C32.5542 4.9501 33.179 5.07052 33.7621 5.30934C34.3452 5.54817 34.875 5.90063 35.3205 6.3462C35.7661 6.79177 36.1186 7.32154 36.3574 7.90465C36.5962 8.48777 36.7166 9.11258 36.7116 9.74269C36.7066 10.3728 36.5763 10.9956 36.3282 11.5749C36.0802 12.1541 35.7194 12.6782 35.2668 13.1166L21.8334 26.5833M11.7834 24.9C9.0167 24.9 6.78337 27.15 6.78337 29.9333C6.78337 32.15 2.6167 32.4666 3.45004 33.3C5.25004 35.1333 7.60004 36.6666 10.1167 36.6666C13.7834 36.6666 16.7834 33.6666 16.7834 29.9333C16.7856 29.2745 16.658 28.6217 16.4079 28.0122C16.1578 27.4028 15.7901 26.8485 15.3258 26.3811C14.8615 25.9137 14.3097 25.5423 13.7019 25.2882C13.0941 25.0341 12.4422 24.9022 11.7834 24.9Z" stroke="#EB4042" stroke-width="3" stroke-linecap="round" stroke-linejoin="round"/>
</svg>
