<svg width="40" height="40" viewBox="0 0 40 40" fill="none" xmlns="http://www.w3.org/2000/svg">
<path d="M26.6667 29.9999C26.6667 28.2318 25.9643 26.5361 24.714 25.2859C23.4638 24.0356 21.7681 23.3333 20 23.3333M20 23.3333C18.2319 23.3333 16.5362 24.0356 15.286 25.2859C14.0357 26.5361 13.3333 28.2318 13.3333 29.9999M20 23.3333C22.7614 23.3333 25 21.0947 25 18.3333C25 15.5718 22.7614 13.3333 20 13.3333C17.2386 13.3333 15 15.5718 15 18.3333C15 21.0947 17.2386 23.3333 20 23.3333ZM13.3333 3.33325V6.66659M26.6667 3.33325V6.66659M8.33333 6.66659H31.6667C33.5076 6.66659 35 8.15897 35 9.99992V33.3333C35 35.1742 33.5076 36.6666 31.6667 36.6666H8.33333C6.49238 36.6666 5 35.1742 5 33.3333V9.99992C5 8.15897 6.49238 6.66659 8.33333 6.66659Z" stroke="#EB4042" stroke-width="3" stroke-linecap="round" stroke-linejoin="round"/>
</svg>
