<svg width="40" height="40" viewBox="0 0 40 40" fill="none" xmlns="http://www.w3.org/2000/svg">
<path d="M20 24.9999L23.3333 28.3333L30 21.6666M6.66666 26.6666C4.83333 26.6666 3.33333 25.1666 3.33333 23.3333V6.66659C3.33333 4.83325 4.83333 3.33325 6.66666 3.33325H23.3333C25.1667 3.33325 26.6667 4.83325 26.6667 6.66659M16.6667 13.3333H33.3333C35.1743 13.3333 36.6667 14.8256 36.6667 16.6666V33.3333C36.6667 35.1742 35.1743 36.6666 33.3333 36.6666H16.6667C14.8257 36.6666 13.3333 35.1742 13.3333 33.3333V16.6666C13.3333 14.8256 14.8257 13.3333 16.6667 13.3333Z" stroke="#EB4042" stroke-width="3" stroke-linecap="round" stroke-linejoin="round"/>
</svg>
