<svg width="40" height="40" viewBox="0 0 40 40" fill="none" xmlns="http://www.w3.org/2000/svg">
<path d="M23.3333 3.33331V13.3333H33.3333M16.6667 20C16.2246 20 15.8007 20.1756 15.4882 20.4881C15.1756 20.8007 15 21.2246 15 21.6666V23.3333C15 23.7753 14.8244 24.1993 14.5118 24.5118C14.1993 24.8244 13.7754 25 13.3333 25C13.7754 25 14.1993 25.1756 14.5118 25.4881C14.8244 25.8007 15 26.2246 15 26.6666V28.3333C15 28.7753 15.1756 29.1993 15.4882 29.5118C15.8007 29.8244 16.2246 30 16.6667 30M23.3333 30C23.7754 30 24.1993 29.8244 24.5118 29.5118C24.8244 29.1993 25 28.7753 25 28.3333V26.6666C25 26.2246 25.1756 25.8007 25.4882 25.4881C25.8007 25.1756 26.2246 25 26.6667 25C26.2246 25 25.8007 24.8244 25.4882 24.5118C25.1756 24.1993 25 23.7753 25 23.3333V21.6666C25 21.2246 24.8244 20.8007 24.5118 20.4881C24.1993 20.1756 23.7754 20 23.3333 20M24.1667 3.33331H10C9.11595 3.33331 8.2681 3.6845 7.64298 4.30962C7.01786 4.93474 6.66667 5.78259 6.66667 6.66665V33.3333C6.66667 34.2174 7.01786 35.0652 7.64298 35.6903C8.2681 36.3155 9.11595 36.6666 10 36.6666H30C30.8841 36.6666 31.7319 36.3155 32.357 35.6903C32.9821 35.0652 33.3333 34.2174 33.3333 33.3333V12.5L24.1667 3.33331Z" stroke="#EB4042" stroke-width="3" stroke-linecap="round" stroke-linejoin="round"/>
</svg>
