<svg width="40" height="40" viewBox="0 0 40 40" fill="none" xmlns="http://www.w3.org/2000/svg">
<path d="M6.66668 36.6667H30C30.8841 36.6667 31.7319 36.3155 32.357 35.6904C32.9822 35.0652 33.3333 34.2174 33.3333 33.3333V12.5L24.1667 3.33334H10C9.11595 3.33334 8.26811 3.68453 7.64299 4.30965C7.01787 4.93478 6.66668 5.78262 6.66668 6.66668V11.6667M23.3333 3.33334V13.3333H33.3333M15 30L12.5 27.5M8.33334 28.3333C8.98995 28.3333 9.64013 28.204 10.2468 27.9527C10.8534 27.7015 11.4046 27.3332 11.8689 26.8689C12.3332 26.4046 12.7015 25.8534 12.9527 25.2468C13.204 24.6401 13.3333 23.99 13.3333 23.3333C13.3333 22.6767 13.204 22.0266 12.9527 21.4199C12.7015 20.8133 12.3332 20.2621 11.8689 19.7978C11.4046 19.3335 10.8534 18.9652 10.2468 18.7139C9.64013 18.4627 8.98995 18.3333 8.33334 18.3333C7.00726 18.3333 5.73549 18.8601 4.79781 19.7978C3.86013 20.7355 3.33334 22.0073 3.33334 23.3333C3.33334 24.6594 3.86013 25.9312 4.79781 26.8689C5.73549 27.8066 7.00726 28.3333 8.33334 28.3333Z" stroke="#EB4042" stroke-width="3" stroke-linecap="round" stroke-linejoin="round"/>
</svg>
