<svg width="40" height="40" viewBox="0 0 40 40" fill="none" xmlns="http://www.w3.org/2000/svg">
<path d="M13.3333 11.6667H8.33333C6.5 11.6667 5 10.1667 5 8.33333V5V26.6667C5 28.5 6.5 30 8.33333 30H13.3333M21.6667 16.6667H33.3333C33.7754 16.6667 34.1993 16.4911 34.5118 16.1785C34.8244 15.866 35 15.442 35 15V10C35 9.55797 34.8244 9.13405 34.5118 8.82149C34.1993 8.50893 33.7754 8.33333 33.3333 8.33333H29.1667C28.9079 8.33333 28.6527 8.27309 28.4213 8.15738C28.1899 8.04167 27.9886 7.87366 27.8333 7.66667L26.3333 5.66667C26.1781 5.45967 25.9768 5.29167 25.7454 5.17595C25.5139 5.06024 25.2587 5 25 5H21.6667C21.2246 5 20.8007 5.17559 20.4882 5.48816C20.1756 5.80072 20 6.22464 20 6.66667V15C20 15.442 20.1756 15.866 20.4882 16.1785C20.8007 16.4911 21.2246 16.6667 21.6667 16.6667ZM21.6667 35H33.3333C33.7754 35 34.1993 34.8244 34.5118 34.5119C34.8244 34.1993 35 33.7754 35 33.3334V28.3334C35 27.8913 34.8244 27.4674 34.5118 27.1549C34.1993 26.8423 33.7754 26.6667 33.3333 26.6667H28.5333C28.2227 26.6689 27.9177 26.5842 27.6527 26.4222C27.3876 26.2602 27.1731 26.0274 27.0333 25.75L26.3 24.25C26.1602 23.9726 25.9457 23.7398 25.6807 23.5779C25.4156 23.4159 25.1106 23.3312 24.8 23.3334H21.6667C21.2246 23.3334 20.8007 23.509 20.4882 23.8215C20.1756 24.1341 20 24.558 20 25V33.3334C20 33.7754 20.1756 34.1993 20.4882 34.5119C20.8007 34.8244 21.2246 35 21.6667 35Z" stroke="#EB4042" stroke-width="3" stroke-linecap="round" stroke-linejoin="round"/>
</svg>
