<svg width="48" height="48" viewBox="0 0 48 48" fill="none" xmlns="http://www.w3.org/2000/svg">
<path d="M43.8042 48H4.1958C1.88812 48 0 46.1119 0 43.8042V4.19581C0 1.88813 1.88812 1.18073e-06 4.1958 1.18073e-06H43.8042C46.1119 1.18073e-06 48 1.88813 48 4.19581V43.8042C48 46.1119 46.1119 48 43.8042 48Z" fill="url(#paint0_linear_5392_2014)"/>
<path d="M33.7323 6.11768H14.5883V25.2617V25.2617C25.1612 25.2617 33.7323 16.6906 33.7323 6.11768V6.11768Z" fill="#F7F0FF"/>
<path d="M33.7323 22.7333L33.7323 41.8773L14.5883 41.8773V41.8773C14.5883 31.3044 23.1594 22.7333 33.7323 22.7333V22.7333Z" fill="#F7F0FF"/>
<defs>
<linearGradient id="paint0_linear_5392_2014" x1="48" y1="3.8288" x2="0.10657" y2="48.1152" gradientUnits="userSpaceOnUse">
<stop stop-color="#747AFD"/>
<stop offset="1" stop-color="#D3F0BE"/>
</linearGradient>
</defs>
</svg>
