<svg width="102" height="102" viewBox="0 0 102 102" fill="none" xmlns="http://www.w3.org/2000/svg">
<path d="M93.0839 102H8.91608C4.01226 102 0 97.9878 0 93.0839V8.91609C0 4.01227 4.01226 -7.04081e-07 8.91608 -7.04081e-07H93.0839C97.9877 -7.04081e-07 102 4.01227 102 8.91609V93.0839C102 97.9878 97.9877 102 93.0839 102Z" fill="url(#paint0_linear_5392_2014)"/>
<path d="M71.681 13H31V53.6811V53.6811C53.4675 53.6811 71.681 35.4675 71.681 13V13Z" fill="#F7F0FF"/>
<path d="M71.681 48.3082L71.681 88.9893L31 88.9893V88.9893C31 66.5218 49.2135 48.3082 71.681 48.3082V48.3082Z" fill="#F7F0FF"/>
<defs>
<linearGradient id="paint0_linear_5392_2014" x1="102" y1="8.13619" x2="0.226462" y2="102.245" gradientUnits="userSpaceOnUse">
<stop stop-color="#747AFD"/>
<stop offset="1" stop-color="#D3F0BE"/>
</linearGradient>
</defs>
</svg>
