<svg width="40" height="40" viewBox="0 0 40 40" fill="none" xmlns="http://www.w3.org/2000/svg">
<path d="M30 14.9999H33.3333C34.2174 14.9999 35.0652 15.3511 35.6904 15.9762C36.3155 16.6014 36.6667 17.4492 36.6667 18.3333V36.6666L30 29.9999H20C19.1159 29.9999 18.2681 29.6487 17.643 29.0236C17.0179 28.3985 16.6667 27.5506 16.6667 26.6666V24.9999M23.3333 14.9999C23.3333 15.884 22.9821 16.7318 22.357 17.3569C21.7319 17.9821 20.8841 18.3333 20 18.3333H10L3.33334 24.9999V6.66659C3.33334 4.83325 4.83334 3.33325 6.66667 3.33325H20C20.8841 3.33325 21.7319 3.68444 22.357 4.30956C22.9821 4.93468 23.3333 5.78253 23.3333 6.66659V14.9999Z" stroke="#EB4042" stroke-width="3" stroke-linecap="round" stroke-linejoin="round"/>
</svg>
