<svg width="40" height="40" viewBox="0 0 40 40" fill="none" xmlns="http://www.w3.org/2000/svg">
<path d="M13.3333 7.50001V15.8333M13.3333 15.8333H5M13.3333 15.8333L3.33334 5.83334M35 15.8333V10.8333C35 8.90001 33.6 7.50001 31.6667 7.50001H20M5 22.5V25.8333C5 27.5833 6.58334 29.1667 8.33334 29.1667H13.3333M23.3333 22.5H33.3333C35.1743 22.5 36.6667 23.9924 36.6667 25.8333V30.8333C36.6667 32.6743 35.1743 34.1667 33.3333 34.1667H23.3333C21.4924 34.1667 20 32.6743 20 30.8333V25.8333C20 23.9924 21.4924 22.5 23.3333 22.5Z" stroke="#EB4042" stroke-width="3" stroke-linecap="round" stroke-linejoin="round"/>
</svg>
