<svg width="40" height="40" viewBox="0 0 40 40" fill="none" xmlns="http://www.w3.org/2000/svg">
<path d="M20 36.6666C29.2048 36.6666 36.6667 29.2047 36.6667 20C36.6667 10.7952 29.2048 3.33331 20 3.33331C10.7953 3.33331 3.33334 10.7952 3.33334 20C3.33334 29.2047 10.7953 36.6666 20 36.6666Z" stroke="#EB4042" stroke-width="3" stroke-linecap="round" stroke-linejoin="round"/>
<path d="M20 30C25.5229 30 30 25.5228 30 20C30 14.4771 25.5229 9.99998 20 9.99998C14.4772 9.99998 10 14.4771 10 20C10 25.5228 14.4772 30 20 30Z" stroke="#EB4042" stroke-width="3" stroke-linecap="round" stroke-linejoin="round"/>
<path d="M20 23.3333C21.841 23.3333 23.3333 21.8409 23.3333 20C23.3333 18.159 21.841 16.6666 20 16.6666C18.1591 16.6666 16.6667 18.159 16.6667 20C16.6667 21.8409 18.1591 23.3333 20 23.3333Z" stroke="#EB4042" stroke-width="3" stroke-linecap="round" stroke-linejoin="round"/>
</svg>
