<svg width="40" height="40" viewBox="0 0 40 40" fill="none" xmlns="http://www.w3.org/2000/svg">
<path d="M5 15C5 14.1159 5.35119 13.2681 5.97631 12.643C6.60143 12.0179 7.44928 11.6667 8.33333 11.6667H31.6667C32.5507 11.6667 33.3986 12.0179 34.0237 12.643C34.6488 13.2681 35 14.1159 35 15M5 18.3333H10C11.3333 18.3333 12.6667 18.8333 13.5 19.8333L15.3333 21.3333C18 24 22.1667 24 24.8333 21.3333L26.6667 19.8333C27.5 19 28.8333 18.3333 30.1667 18.3333H35M8.33333 5H31.6667C33.5076 5 35 6.49238 35 8.33333V31.6667C35 33.5076 33.5076 35 31.6667 35H8.33333C6.49238 35 5 33.5076 5 31.6667V8.33333C5 6.49238 6.49238 5 8.33333 5Z" stroke="#EB4042" stroke-width="3" stroke-linecap="round" stroke-linejoin="round"/>
</svg>
