<svg width="40" height="40" viewBox="0 0 40 40" fill="none" xmlns="http://www.w3.org/2000/svg">
<path d="M33.3333 5H6.66667C5.74619 5 5 5.74619 5 6.66667V15C5 15.9205 5.74619 16.6667 6.66667 16.6667H33.3333C34.2538 16.6667 35 15.9205 35 15V6.66667C35 5.74619 34.2538 5 33.3333 5Z" stroke="#EB4042" stroke-width="3" stroke-linecap="round" stroke-linejoin="round"/>
<path d="M18.3333 23.3333H6.66667C5.74619 23.3333 5 24.0795 5 25V33.3333C5 34.2538 5.74619 35 6.66667 35H18.3333C19.2538 35 20 34.2538 20 33.3333V25C20 24.0795 19.2538 23.3333 18.3333 23.3333Z" stroke="#EB4042" stroke-width="3" stroke-linecap="round" stroke-linejoin="round"/>
<path d="M33.3333 23.3333H28.3333C27.4129 23.3333 26.6667 24.0795 26.6667 25V33.3333C26.6667 34.2538 27.4129 35 28.3333 35H33.3333C34.2538 35 35 34.2538 35 33.3333V25C35 24.0795 34.2538 23.3333 33.3333 23.3333Z" stroke="#EB4042" stroke-width="3" stroke-linecap="round" stroke-linejoin="round"/>
</svg>
