<svg width="62" height="62" viewBox="0 0 62 62" fill="none" xmlns="http://www.w3.org/2000/svg">
<path d="M11 30.5V3H50.4258V58H11V30.5Z" fill="white"/>
<path d="M11 30.5V3H50.4258V58H11V30.5ZM41.1812 44.4104C41.4787 44.3815 41.7684 44.2984 42.036 44.1652C43.026 43.6771 43.5944 42.6252 44.0458 40.439C44.22 39.5865 46.7844 26.304 46.8164 26.0862C46.876 25.66 46.7981 25.2108 46.6239 24.9954C46.5661 24.9357 46.4987 24.8862 46.4246 24.8487L46.2871 24.7777H45.6202C45.0404 24.7777 44.9373 24.7777 44.8227 24.8235C44.5637 24.9129 44.3483 25.181 44.2383 25.5477C44.2131 25.6348 43.8533 27.5667 43.4408 29.84L42.6892 33.9696L42.5837 33.4883C41.3004 27.6515 40.8329 25.5775 40.7642 25.3942C40.7176 25.254 40.6364 25.1279 40.5281 25.0275C40.2875 24.7823 40.26 24.7754 39.2287 24.7754C38.2869 24.7754 38.2617 24.7754 38.0829 24.945C37.8858 25.126 37.8033 25.44 37.8285 25.9075C37.8423 26.171 37.9317 26.5262 39.4052 32.2875C40.9246 38.216 41.1262 39.0319 41.2087 39.5681C41.3142 40.2556 41.0942 41.2021 40.7321 41.6146C40.6587 41.6994 40.6473 41.704 40.5396 41.6879C40.4754 41.6879 40.2646 41.626 40.0721 41.571C39.4579 41.3923 39.2425 41.406 39.0133 41.6352C38.7933 41.8552 38.6994 42.2035 38.6971 42.804C38.6971 43.3906 38.7612 43.5831 39.0615 43.8879C39.3617 44.1927 39.8039 44.3646 40.425 44.415C40.8008 44.4425 40.9292 44.4425 41.1812 44.4127V44.4104ZM36.8362 40.4871C36.9245 40.4432 37.0028 40.3814 37.0659 40.3057C37.129 40.2299 37.1757 40.1419 37.2029 40.0471C37.2487 39.9142 37.2533 39.8225 37.2533 39.2312C37.2533 38.6469 37.2465 38.546 37.2052 38.42C37.1135 38.1427 36.8935 37.9708 36.5681 37.9227C36.4742 37.8998 36.1098 37.8998 35.7546 37.8998C34.9181 37.8975 34.8883 37.8769 34.7325 37.4781C34.5767 37.0656 34.5125 36.731 34.4735 36.0985C34.4476 34.6167 34.4384 33.1347 34.446 31.6527V27.6079H35.2481C36.2885 27.6079 36.41 27.585 36.6277 27.349C36.7565 27.1917 36.8376 27.0008 36.8615 26.799C36.8948 26.3917 36.8948 25.9824 36.8615 25.5752C36.8019 25.2085 36.6346 24.9542 36.3779 24.8373C36.2473 24.78 36.229 24.7777 35.3467 24.7685H34.4483L34.4415 21.9727C34.4346 19.4748 34.43 19.1608 34.3933 19.044C34.3624 18.9218 34.3051 18.8078 34.2255 18.7101C34.146 18.6123 34.046 18.5331 33.9327 18.4779C33.8135 18.4229 33.7677 18.4206 33.1994 18.4115C32.5806 18.4115 32.3835 18.4115 32.2162 18.4985C32.0169 18.5948 31.8771 18.8033 31.7923 19.1356C31.7602 19.2594 31.719 19.9285 31.6181 22.0277L31.4806 24.764C31.4806 24.764 31.2973 24.764 31.0681 24.7869C30.596 24.8098 30.4654 24.8373 30.3187 24.984C30.1079 25.1948 30.0437 25.4194 30.0277 26.0267C30.0048 26.7921 30.0735 27.1427 30.2912 27.3742C30.4631 27.5598 30.5983 27.6033 31.0819 27.6171L31.4783 27.64V31.7306C31.4783 35.6265 31.4921 36.3575 31.5562 36.9419C31.6502 37.7898 31.8542 38.5667 32.1085 39.0685C32.5531 39.9394 33.3552 40.4825 34.3727 40.5994H36.6758L36.8362 40.5077V40.4871ZM19.7702 40.4871C19.9948 40.3656 20.1369 40.1342 20.2285 39.7262C20.2652 39.5498 20.2698 38.8073 20.2698 29.3725C20.2698 19.7842 20.2675 19.1975 20.224 19.0371C20.1094 18.5925 19.7885 18.3725 19.3577 18.4412C19.2775 18.4642 18.5694 18.6337 17.7856 18.8423C16.9996 19.0485 16.2181 19.2548 16.0485 19.296C15.659 19.3946 15.5581 19.4381 15.4046 19.5848C15.164 19.8094 15.125 20.0087 15.125 20.9735C15.125 21.9269 15.1617 22.1194 15.4 22.3577C15.6154 22.5754 15.8331 22.5869 16.445 22.4265C16.681 22.3669 16.8873 22.3165 16.9033 22.3165C16.9262 22.3165 16.9354 24.1131 16.9423 30.94C16.9492 38.8142 16.9537 39.5796 16.9904 39.74C17.1004 40.2029 17.2494 40.4183 17.5312 40.5192C17.6092 40.549 17.836 40.5558 18.6473 40.5512C19.6442 40.5512 19.6671 40.5513 19.7702 40.4894V40.4871ZM27.1104 40.4871C27.3212 40.3817 27.4587 40.1777 27.5619 39.8225L27.6169 39.63L27.6237 29.4665C27.6283 22.1469 27.6237 19.2548 27.6008 19.1333C27.5252 18.675 27.2685 18.4275 26.8629 18.4275C26.7117 18.4275 26.4092 18.4962 24.899 18.895C23.6156 19.2319 23.0679 19.3854 22.9533 19.4427C22.7745 19.5286 22.6352 19.6794 22.5637 19.8644C22.5087 20.0019 22.5087 20.0271 22.5087 20.9621C22.5087 21.9131 22.5087 21.9177 22.5683 22.069C22.6124 22.1726 22.6771 22.2661 22.7585 22.344C22.9877 22.5731 23.1527 22.5846 23.8035 22.4219C23.9617 22.3806 24.1206 22.3424 24.2802 22.3073C24.2985 22.3073 24.3077 25.0619 24.3123 30.995L24.3192 39.6804L24.3787 39.8775C24.43 40.0789 24.5373 40.2616 24.6881 40.4046C24.8669 40.5467 24.8829 40.549 25.9944 40.5421C26.9431 40.5421 27.0187 40.5421 27.1104 40.4871Z" fill="#292929"/>
</svg>
