<svg width="62" height="62" viewBox="0 0 62 62" fill="none" xmlns="http://www.w3.org/2000/svg">
<path d="M36.2528 31.1408C36.2528 28.3616 33.9292 26.1084 31.0625 26.1084C28.1961 26.1084 25.8722 28.3616 25.8722 31.1408C25.8722 33.9203 28.1961 36.1735 31.0625 36.1735C33.9292 36.1735 36.2528 33.9203 36.2528 31.1408Z" fill="#53C1DE"/>
<path fill-rule="evenodd" clip-rule="evenodd" d="M47.9195 21.7978C49.0156 17.4793 50.3934 9.47099 45.5364 6.75594C40.7022 4.05271 34.4114 9.23257 31.0895 12.3418C27.7773 9.26356 21.3098 4.10583 16.4569 6.82951C11.6245 9.5418 13.1147 17.4173 14.2351 21.7629C9.72735 23.0043 2 25.678 2 31.1408C2 36.5881 9.71931 39.497 14.2004 40.7372C13.0759 45.1069 11.6603 52.8699 16.4988 55.5761C21.3697 58.2993 27.8172 53.2643 31.1698 50.1212C34.5129 53.2486 40.7434 58.3165 45.5786 55.6028C50.4291 52.8803 49.1657 44.9794 48.0452 40.6085C52.3891 39.3657 60.125 36.5201 60.125 31.1408C60.125 25.7305 52.3563 23.035 47.9195 21.7978ZM47.369 38.2922C46.6333 36.0343 45.6403 33.6332 44.4256 31.1528C45.585 28.731 46.5394 26.3608 47.2545 24.1173C50.507 25.0316 57.6421 27.1213 57.6421 31.1408C57.6421 35.1981 50.7952 37.3075 47.369 38.2922ZM44.3343 53.5192C40.7268 55.5438 35.3679 50.6974 32.8989 48.3942C34.5368 46.6573 36.1736 44.6381 37.7711 42.3958C40.5812 42.1542 43.2359 41.7588 45.6434 41.2194C46.432 44.311 47.9579 51.4853 44.3343 53.5192ZM17.7395 53.4902C14.1315 51.4732 15.7806 44.5458 16.6079 41.3271C18.9887 41.8377 21.6241 42.205 24.4409 42.4265C26.0489 44.6206 27.733 46.6374 29.4303 48.4035C27.3333 50.3702 21.3644 55.5167 17.7395 53.4902ZM4.48288 31.1408C4.48288 27.0683 11.5753 24.9939 14.9019 24.0819C15.6294 26.3758 16.5835 28.7741 17.7349 31.1994C16.5686 33.6609 15.6008 36.0974 14.8666 38.4182C11.6947 37.5379 4.48288 35.2158 4.48288 31.1408ZM17.7009 8.91311C21.3237 6.87994 26.9448 11.8315 29.3495 14.0603C27.661 15.8184 25.9923 17.8199 24.3982 20.0013C21.6645 20.2469 19.0476 20.6415 16.6419 21.17C15.7393 17.6651 14.0821 10.9441 17.7009 8.91311ZM39.5473 22.6181C41.402 22.8451 43.1788 23.1469 44.8472 23.5163C44.3464 25.0728 43.7221 26.7005 42.9869 28.3691C41.921 26.4082 40.7769 24.4869 39.5473 22.6181ZM31.0903 15.7807C32.2355 16.9836 33.3826 18.327 34.5108 19.7843C32.2221 19.6794 29.9297 19.6789 27.6409 19.7828C28.7702 18.3389 29.927 16.9976 31.0903 15.7807ZM19.1595 28.3673C18.4364 26.7045 17.8177 25.0696 17.3125 23.4908C18.9709 23.1309 20.7394 22.8369 22.5821 22.6136C21.3491 24.4783 20.2069 26.3989 19.1595 28.3673ZM22.6351 39.8399C20.7315 39.6338 18.9362 39.3547 17.2783 39.0048C17.7915 37.3981 18.4238 35.728 19.1623 34.0295C20.2242 36.0182 21.3837 37.9576 22.6351 39.8399ZM31.159 46.671C29.9821 45.4397 28.8083 44.0779 27.6618 42.6131C29.9636 42.7008 32.2698 42.701 34.5713 42.6014C33.4394 44.0928 32.2965 45.4566 31.159 46.671ZM43.0105 33.943C43.7874 35.6599 44.4423 37.321 44.9625 38.9006C43.277 39.2734 41.4576 39.5737 39.5404 39.7967C40.7791 37.8927 41.9413 35.9414 43.0105 33.943ZM36.3853 40.0885C32.8646 40.3324 29.3218 40.3298 25.7999 40.1085C23.7986 37.2741 22.0172 34.2932 20.4794 31.1987C22.0096 28.1105 23.7782 25.1356 25.77 22.3056C29.2946 22.0473 32.8408 22.0467 36.3653 22.3071C38.3399 25.1369 40.1058 28.1041 41.6716 31.1645C40.1244 34.2512 38.3466 37.2321 36.3853 40.0885ZM44.2962 8.84153C47.9199 10.868 46.3069 18.0653 45.5153 21.195C43.1039 20.6555 40.4852 20.2539 37.7435 20.0045C36.1463 17.7995 34.4915 15.7944 32.8303 14.059C35.266 11.7823 40.7075 6.83485 44.2962 8.84153Z" fill="#53C1DE"/>
</svg>
