<svg width="40" height="40" viewBox="0 0 40 40" fill="none" xmlns="http://www.w3.org/2000/svg">
<path d="M10 33.3334H16.6667M23.3333 16.6667H30M10 23.3334H13.3333V33.3334M23.3333 6.66669H26.6667V16.6667M26.6667 23.3334C28.5076 23.3334 30 24.8257 30 26.6667V30C30 31.841 28.5076 33.3334 26.6667 33.3334C24.8257 33.3334 23.3333 31.841 23.3333 30V26.6667C23.3333 24.8257 24.8257 23.3334 26.6667 23.3334ZM13.3333 6.66669C15.1743 6.66669 16.6667 8.15907 16.6667 10V13.3334C16.6667 15.1743 15.1743 16.6667 13.3333 16.6667C11.4924 16.6667 10 15.1743 10 13.3334V10C10 8.15907 11.4924 6.66669 13.3333 6.66669Z" stroke="#EB4042" stroke-width="3" stroke-linecap="round" stroke-linejoin="round"/>
</svg>
