<svg width="40" height="40" viewBox="0 0 40 40" fill="none" xmlns="http://www.w3.org/2000/svg">
<path d="M28 3H11.3333C9.49238 3 8 4.49238 8 6.33333V13C8 14.8409 9.49238 16.3333 11.3333 16.3333H28C29.841 16.3333 31.3333 14.8409 31.3333 13V6.33333C31.3333 4.49238 29.841 3 28 3Z" stroke="#EB4042" stroke-width="3" stroke-linecap="round" stroke-linejoin="round"/>
<path d="M33 23H6.33333C4.49238 23 3 24.4924 3 26.3333V33C3 34.841 4.49238 36.3333 6.33333 36.3333H33C34.841 36.3333 36.3333 34.841 36.3333 33V26.3333C36.3333 24.4924 34.841 23 33 23Z" stroke="#EB4042" stroke-width="3" stroke-linecap="round" stroke-linejoin="round"/>
<path d="M9.66699 29.6665H13.0003M19.667 29.6665H29.667" stroke="#F49E9F" stroke-width="3" stroke-linecap="round" stroke-linejoin="round"/>
</svg>
