<svg width="40" height="40" viewBox="0 0 40 40" fill="none" xmlns="http://www.w3.org/2000/svg">
<path d="M8.33333 26.6666V21.6666C8.33333 21.2246 8.50893 20.8006 8.82149 20.4881C9.13405 20.1755 9.55797 19.9999 10 19.9999H30C30.442 19.9999 30.866 20.1755 31.1785 20.4881C31.4911 20.8006 31.6667 21.2246 31.6667 21.6666V26.6666M20 19.9999V13.3333M28.3333 26.6666H35C35.9205 26.6666 36.6667 27.4128 36.6667 28.3333V34.9999C36.6667 35.9204 35.9205 36.6666 35 36.6666H28.3333C27.4129 36.6666 26.6667 35.9204 26.6667 34.9999V28.3333C26.6667 27.4128 27.4129 26.6666 28.3333 26.6666ZM5 26.6666H11.6667C12.5871 26.6666 13.3333 27.4128 13.3333 28.3333V34.9999C13.3333 35.9204 12.5871 36.6666 11.6667 36.6666H5C4.07952 36.6666 3.33333 35.9204 3.33333 34.9999V28.3333C3.33333 27.4128 4.07952 26.6666 5 26.6666ZM16.6667 3.33325H23.3333C24.2538 3.33325 25 4.07944 25 4.99992V11.6666C25 12.5871 24.2538 13.3333 23.3333 13.3333H16.6667C15.7462 13.3333 15 12.5871 15 11.6666V4.99992C15 4.07944 15.7462 3.33325 16.6667 3.33325Z" stroke="#EB4042" stroke-width="3" stroke-linecap="round" stroke-linejoin="round"/>
</svg>
