<svg width="40" height="40" viewBox="0 0 40 40" fill="none" xmlns="http://www.w3.org/2000/svg">
<path d="M35.3499 26.4833C34.2896 28.9907 32.6312 31.2003 30.5197 32.9188C28.4081 34.6373 25.9078 35.8123 23.2373 36.3412C20.5667 36.8702 17.8072 36.7369 15.2001 35.9529C12.593 35.169 10.2176 33.7584 8.28156 31.8444C6.34555 29.9303 4.90788 27.5712 4.09425 24.9732C3.28062 22.3752 3.11579 19.6174 3.61419 16.941C4.11258 14.2646 5.25902 11.751 6.95327 9.62C8.64752 7.489 10.838 5.80548 13.3332 4.71661M36.6667 19.9999C36.6667 17.8112 36.2356 15.644 35.398 13.6219C34.5604 11.5998 33.3328 9.76245 31.7851 8.21481C30.2375 6.66716 28.4002 5.4395 26.3781 4.60193C24.356 3.76435 22.1887 3.33325 20 3.33325V19.9999H36.6667Z" stroke="#EB4042" stroke-width="3" stroke-linecap="round" stroke-linejoin="round"/>
</svg>
