<svg width="40" height="40" viewBox="0 0 40 40" fill="none" xmlns="http://www.w3.org/2000/svg">
<path d="M23.3333 31.6666C23.3333 29.0145 22.2798 26.4709 20.4044 24.5956C18.529 22.7202 15.9855 21.6666 13.3333 21.6666M13.3333 21.6666C10.6812 21.6666 8.13762 22.7202 6.26226 24.5956C4.3869 26.4709 3.33333 29.0145 3.33333 31.6666M13.3333 21.6666C17.0152 21.6666 20 18.6819 20 15C20 11.3181 17.0152 8.33331 13.3333 8.33331C9.65143 8.33331 6.66666 11.3181 6.66666 15C6.66666 18.6819 9.65143 21.6666 13.3333 21.6666ZM26.6667 18.3333L30 21.6666L36.6667 15" stroke="#EB4042" stroke-width="3" stroke-linecap="round" stroke-linejoin="round"/>
</svg>
