<svg width="40" height="40" viewBox="0 0 40 40" fill="none" xmlns="http://www.w3.org/2000/svg">
<path d="M23.3333 31.6666C23.3333 29.0144 22.2798 26.4709 20.4044 24.5955C18.529 22.7202 15.9855 21.6666 13.3333 21.6666M13.3333 21.6666C10.6812 21.6666 8.13764 22.7202 6.26228 24.5955C4.38691 26.4709 3.33334 29.0144 3.33334 31.6666M13.3333 21.6666C17.0152 21.6666 20 18.6818 20 14.9999C20 11.318 17.0152 8.33325 13.3333 8.33325C9.65145 8.33325 6.66668 11.318 6.66668 14.9999C6.66668 18.6818 9.65145 21.6666 13.3333 21.6666ZM36.6667 31.6666C36.6667 29.0144 35.6131 26.4709 33.7377 24.5955C31.8624 22.7202 29.3188 21.6666 26.6667 21.6666C28.4348 21.6666 30.1305 20.9642 31.3807 19.714C32.631 18.4637 33.3333 16.768 33.3333 14.9999C33.3333 13.2318 32.631 11.5361 31.3807 10.2859C30.1305 9.03563 28.4348 8.33325 26.6667 8.33325" stroke="#EB4042" stroke-width="3" stroke-linecap="round" stroke-linejoin="round"/>
</svg>
