<svg width="41" height="41" viewBox="0 0 41 41" fill="none" xmlns="http://www.w3.org/2000/svg">
<path d="M28.3333 31C28.3333 30.1159 27.9821 29.2681 27.357 28.643C26.7319 28.0178 25.8841 27.6666 25 27.6666H15C14.1159 27.6666 13.2681 28.0178 12.643 28.643C12.0179 29.2681 11.6667 30.1159 11.6667 31M13.3333 4.33331V7.66665M26.6667 4.33331V7.66665M8.33333 7.66665H31.6667C33.5076 7.66665 35 9.15903 35 11V34.3333C35 36.1743 33.5076 37.6666 31.6667 37.6666H8.33333C6.49238 37.6666 5 36.1743 5 34.3333V11C5 9.15903 6.49238 7.66665 8.33333 7.66665ZM23.3333 17.6666C23.3333 19.5076 21.8409 21 20 21C18.1591 21 16.6667 19.5076 16.6667 17.6666C16.6667 15.8257 18.1591 14.3333 20 14.3333C21.8409 14.3333 23.3333 15.8257 23.3333 17.6666Z" stroke="#EB4042" stroke-width="3" stroke-linecap="round" stroke-linejoin="round"/>
</svg>
