<svg width="62" height="62" viewBox="0 0 62 62" fill="none" xmlns="http://www.w3.org/2000/svg">
<path d="M44.2298 16C44.2206 16.0093 43.6133 16.6276 43.2652 17.0034C42.3692 17.9865 40.9992 19.414 40.0346 19.7713H40.0253C39.8902 19.7324 39.7643 19.6843 39.6291 19.6454L41.3657 16.1352L41.3472 16.1648C41.2898 16.2703 39.5736 19.6546 37.239 19.164L37.2297 19.1733C37.1909 19.164 37.1631 19.1733 37.1335 19.164C38.2517 17.7366 38.6868 16.4166 38.6868 16.4166C38.6868 16.4166 36.8261 19.4158 34.5119 18.6049C34.4638 18.5864 34.4156 18.5475 34.3953 18.4883C34.3768 18.4216 34.3768 18.3531 34.3953 18.2957C34.4138 18.1902 34.4915 18.0643 34.56 17.9477C34.7915 17.5144 35.1969 17.0312 35.1969 17.0312C35.1969 17.0312 34.8118 17.4071 34.2897 17.7644L34.2805 17.7736C33.8954 18.0347 33.4325 18.2846 32.9975 18.3531C32.8623 18.3716 32.7272 18.3716 32.592 18.3531C32.0625 18.2568 32.0718 17.7366 32.2162 17.2256C32.3699 16.7239 32.6494 16.2425 32.6494 16.2425C32.6494 16.2425 32.1773 16.9757 31.6663 17.6885C31.2701 18.2383 30.8943 18.6623 30.6444 18.8548L30.3463 18.8641C30.1926 18.4309 30.587 17.0035 30.587 16.9942C30.3555 17.37 30.0945 17.7366 29.8149 18.0939C29.5743 18.4124 29.2947 18.6919 28.9763 18.9233H28.9096C28.7078 18.9419 28.5134 18.9715 28.3209 19.0011C28.2339 18.9233 28.1765 18.8086 28.1672 18.6919C28.0617 18.0273 28.4653 16.822 28.4764 16.8109C28.4671 16.8202 28.245 17.4478 27.9562 18.0458V18.055C27.8784 18.2291 27.7821 18.3531 27.6859 18.4994C27.4729 18.8363 27.2526 19.0974 27.049 19.04C26.7305 18.9437 26.5473 18.5382 26.4417 18.1624C26.3251 17.7866 26.2973 17.42 26.2973 17.42C26.2973 17.42 26.2196 18.0476 26.0085 18.6253C25.9307 18.8567 25.8067 19.0789 25.6512 19.2714C25.5938 19.338 25.5068 19.3677 25.4383 19.4065C23.2203 19.8027 21.0505 20.4378 18.9769 21.2968C18.4271 21.4986 17.8772 21.693 17.3088 21.9337C15.4575 22.7242 13.5394 23.7184 11.5325 25.0088C9.30531 26.4455 7.19288 28.0562 5.20634 29.8113C4.10662 30.7852 2.96987 31.8367 1.81276 32.9939C10.5976 28.2691 14.0782 21.2876 30.5277 20.671C42.9764 20.1989 48.7916 25.9456 50.7189 26.0234C55.5399 26.2252 58.7521 22.5706 59.7833 21.2209C60.0536 20.8728 60.2165 20.6322 60.2276 20.6137C60.2091 20.6433 59.4167 21.5393 58.3096 22.3984L58.2911 22.4076C57.1525 23.2759 55.6973 24.085 54.405 23.8925H54.3958C54.231 23.8628 54.0588 23.8739 53.894 23.8054C55.7269 22.7353 56.9414 20.8747 57.5487 19.8712C57.7412 19.5621 58.1282 18.9844 58.1282 18.9844C58.1282 18.9844 53.8181 23.4 50.606 23.1019C50.4708 23.0927 50.3449 23.1204 50.2209 23.0927C51.6187 21.9929 52.6518 20.5174 53.3738 19.2732V19.264H53.3831C54.1643 17.9143 54.5698 16.8331 54.5698 16.8146C54.5605 16.8331 53.77 18.0384 52.6795 19.3695L52.661 19.3991C51.5706 20.7303 50.1931 22.167 49.0453 22.6094C48.8712 22.6668 48.6972 22.7631 48.5435 22.7835C51.2151 20.4118 52.3426 17.0553 52.3426 17.0553C52.3426 17.0553 49.6322 20.9895 47.3383 21.7134C47.2031 21.7523 47.0587 21.83 46.9143 21.8485C48.3214 20.5859 49.0638 19.5732 49.5266 18.7826C50.1154 17.7903 50.2209 17.1812 50.2209 17.1812L50.2116 17.1904C49.9895 17.47 49.7673 17.7403 49.5359 18.0106L49.497 18.0495C48.8694 18.7919 47.9067 19.862 46.9217 20.7118L46.9125 20.721C46.6514 20.9432 46.3922 21.145 46.1219 21.3375C46.0442 21.3857 45.9683 21.4542 45.8998 21.5023C45.6869 21.6282 45.4554 21.743 45.224 21.8393C45.1666 21.8578 45.1185 21.8967 45.0592 21.917C44.8945 21.8004 44.7408 21.6856 44.5575 21.5801C44.4409 21.7245 44.3168 21.8689 44.2095 22.0133H44.2002C44.1521 22.004 44.0947 22.004 44.0465 21.9744C46.1682 19.6694 47.6049 16.748 47.6049 16.748L47.5864 16.7572C47.5679 16.7757 44.6445 20.7303 43.3245 20.971C43.1505 20.884 42.9764 20.7969 42.795 20.721C42.8043 20.5859 42.8431 20.4507 42.9005 20.3156C43.1986 19.6213 44.0484 18.5512 44.0484 18.5512C44.0484 18.5512 43.817 18.7252 43.7392 18.7826C43.4985 18.9955 43.2467 19.1881 42.9968 19.3714C42.8524 19.4769 42.708 19.5547 42.5728 19.6417C42.4081 19.7379 42.2544 19.8342 42.1007 19.9027C41.9082 20.0194 41.686 20.086 41.4546 20.1156C41.3491 20.1156 41.2528 20.1064 41.1843 20.049C42.3025 19.364 44.2113 16.0278 44.2317 16.0093L44.2298 16ZM32.3976 21.3412C31.646 21.332 30.8925 21.332 30.15 21.3598C29.4373 21.3894 28.7911 21.4375 28.1246 21.4949C27.4304 21.8041 26.775 22.1596 26.1862 22.6335C26.2436 22.7594 26.2732 22.9038 26.2732 23.0482C26.2732 23.213 26.2344 23.3667 26.1566 23.5111L28.3449 25.1014L28.4023 25.0625L27.5063 21.9374L29.0485 24.696C29.0966 24.6774 29.154 24.6571 29.2021 24.6386L29.154 21.5912L30.1371 24.4645L31.3035 21.6208L31.3516 24.7552C31.3608 24.7645 31.3701 24.7737 31.3812 24.7737L33.1363 22.2947L32.2403 25.3032L32.2588 25.3217L34.834 23.6147L32.9641 26.2085V26.227L35.308 25.3884C35.3376 25.3402 35.3858 25.3106 35.4135 25.2625C34.834 24.5497 35.4913 23.5074 36.3874 23.7092C36.6762 23.1019 36.9076 22.465 37.052 21.8096C35.5098 21.5393 33.9565 21.3857 32.405 21.3375L32.3976 21.3412ZM26.2177 21.6782H26.1603C25.4086 21.7652 24.6662 21.8707 23.9609 21.9874C23.2555 22.104 22.5723 22.2373 21.9262 22.3836H21.8966C22.1761 23.3481 22.6205 24.2535 23.1981 25.0551C23.4684 24.4664 23.8053 23.9165 24.1904 23.4166C23.872 22.5483 24.731 21.7004 25.5975 22.0466C25.79 21.9022 26.0122 21.8059 26.214 21.68L26.2177 21.6782ZM37.2205 21.9004C37.1816 22.5946 37.0465 23.2796 36.8243 23.9443C37.5371 24.5904 36.9594 25.7661 36.0134 25.6216C35.6283 26.19 35.1747 26.7214 34.6545 27.175L36.2837 27.262L33.8343 27.8415C33.7676 27.8896 33.7177 27.947 33.651 27.9859C35.0488 28.208 36.3614 28.7968 37.4501 29.6928C38.2406 28.2747 38.6942 26.6455 38.6942 24.8996C38.6942 23.5777 38.1054 22.615 37.2279 21.9004H37.2205ZM21.6281 22.4595C20.895 22.6335 20.1914 22.8261 19.5268 23.0279C19.1898 23.587 19.0066 24.2424 19.0066 24.8978C19.0066 28.9097 21.3986 32.3422 24.8218 33.8844L24.831 33.8547C24.2515 33.2864 23.7702 32.631 23.3943 31.9071C21.8133 32.1293 21.1375 29.9594 22.5649 29.2448C22.4298 28.0877 22.5464 26.9213 22.913 25.8123C22.228 24.8089 21.7947 23.6629 21.63 22.4558L21.6281 22.4595ZM40.4604 22.528C40.8085 23.5407 41.0195 24.6015 41.0195 25.7198C41.0195 31.7368 35.5802 36.6263 28.8689 36.6263C22.1669 36.6263 16.7294 31.7368 16.7294 25.7198C16.7294 25.131 16.7868 24.5627 16.883 24.0035C14.965 24.8144 13.3062 25.7494 11.7621 26.751C11.2326 27.7063 10.9716 28.7079 11.0586 29.7114C11.2715 32.1422 13.4117 34.1658 16.6794 35.5451L16.0425 35.3803C10.3921 33.7788 5.90802 36.6152 1 34.1565C2.1386 35.0526 3.43087 35.9302 7.16141 35.9413C8.43516 35.9413 12.4934 35.7395 13.2451 36.4041C13.9875 37.0502 10.7179 40.1365 10.7179 40.1365C10.7179 40.1365 16.2536 35.4506 16.7831 37.0502C17.12 38.0426 15.202 40.6956 15.202 40.6956C15.202 40.6956 17.1311 38.0833 18.5678 37.5223C19.5509 37.1373 20.3803 37.1854 21.0949 38.1777C21.5578 38.8239 18.8473 42.0064 18.8473 42.0064C18.8473 42.0064 22.4927 38.4573 23.1389 38.6406C23.7942 38.8239 23.1389 42.0064 23.1389 42.0064C23.1389 42.0064 24.4885 38.785 25.2031 38.5443C26.1862 38.2166 22.9556 46.0276 22.9556 46.0276C22.9556 46.0276 26.899 38.8054 27.6322 38.6406C28.8948 38.361 29.7335 43.6837 29.7335 43.6837C29.7335 43.6837 29.117 39.0257 29.7816 38.7276C33.9657 36.8373 31.5552 46.77 31.5552 46.77C31.5552 46.77 34.2934 40.0291 32.6161 38.535C37.052 41.4769 36.5114 46.77 36.5114 46.77C36.5114 46.77 37.6685 44.254 34.399 38.0537C36.1726 37.9667 38.8441 42.6636 38.8441 42.6636C38.8441 42.6636 35.9412 37.5242 37.9092 37.4279C41.8045 37.2446 42.2007 44.2558 42.2007 44.2558C42.2007 44.2558 43.3763 43.2727 40.2438 36.406C42.2396 35.1229 47.0606 42.7506 47.0606 42.7506C47.0606 42.7506 42.6154 35.3062 43.3282 34.8045C44.041 34.312 46.6551 37.1761 46.6551 37.1761C46.6551 37.1761 44.6686 34.4379 45.1888 34.1584C45.7183 33.8788 51.0225 39.607 51.0225 39.607C51.0225 39.607 46.346 34.0047 47.155 33.3104C47.9659 32.6254 51.3873 35.2488 51.3873 35.2488C51.3873 35.2488 46.1219 31.796 47.155 31.2573C48.5824 30.5149 52.6703 33.0309 52.6703 33.0309C52.6703 33.0309 50.2116 31.0055 50.6171 30.5149C51.0225 30.0131 55.8528 33.6881 55.8528 33.6881C55.8528 33.6881 51.5817 30.3223 51.3595 29.4836C51.1466 28.645 54.7253 29.7632 54.7253 29.7632C54.7253 29.7632 50.7726 27.9303 50.7134 27.4008C50.6467 26.8713 53.3257 27.9896 53.3257 27.9896C53.3257 27.9896 49.6525 24.9718 48.7453 27.4304C48.5435 27.8266 48.2825 28.1729 48.0511 28.5394C48.2732 27.8748 48.3788 27.199 48.3214 26.514C48.2918 26.2826 48.2547 26.0512 48.1862 25.829C46.5089 24.9218 43.991 23.524 40.453 22.5317L40.4604 22.528ZM26.0733 23.6462C25.803 24.0609 25.2828 24.2257 24.8199 24.0517C24.6848 24.235 24.57 24.4275 24.4533 24.62L27.6062 25.7772C27.6359 25.7475 27.6544 25.7105 27.684 25.6716L26.0733 23.6462ZM24.4422 24.62C24.2108 25.0051 23.9979 25.4013 23.8442 25.8346C24.1423 26.1437 24.4904 26.414 24.8181 26.6732L27.0934 26.6066L27.1027 26.5973L24.4422 24.62ZM34.7804 25.9604L33.2863 27.099L33.4214 27.1083C33.9139 26.7806 34.3656 26.3955 34.7804 25.9604ZM23.585 26.6732C23.585 26.7029 23.5758 26.7306 23.5665 26.7602C23.3925 27.5415 23.3536 28.3413 23.4499 29.1319C24.0294 29.2485 24.4718 29.7114 24.5589 30.2982L26.8731 28.8134C26.6602 28.7357 26.4491 28.669 26.2566 28.582L23.6628 28.3895L25.2346 28.0414C24.6274 27.6656 24.0775 27.2027 23.585 26.6714V26.6732ZM25.542 27.1935C25.89 27.4064 26.2362 27.5897 26.6028 27.7526L26.8916 27.6859C26.8916 27.6471 26.9009 27.5989 26.9009 27.5508L25.542 27.1935ZM33.2474 28.8819L35.5135 31.0999L32.5531 29.952L34.2897 32.6143L31.6386 30.5611L31.6089 30.5704L32.468 33.7326L30.9924 30.9259L30.761 34.2047L29.7575 30.9351L28.6004 34.0491L28.88 30.6926L28.8411 30.6741L26.8361 33.5178L27.5692 30.7796C26.7102 31.5998 26.0455 32.6014 25.6123 33.7214C25.8437 33.9714 26.0937 34.2028 26.3547 34.4342C30.4629 35.5043 34.7915 33.827 37.0964 30.2594C36.1615 29.6132 35.1099 29.1596 33.9917 28.9282L33.2474 28.8819ZM27.2397 29.4318L24.5774 30.3871C24.5774 30.4352 24.5959 30.4741 24.5959 30.513C24.5959 30.9092 24.4311 31.285 24.1423 31.5553C24.3922 32.0959 24.7014 32.5977 25.068 33.0698C25.2698 32.5199 25.5401 31.9997 25.8585 31.5072L25.1254 32.0959L27.2397 29.4318ZM36.2078 36.3171C35.7449 36.4337 35.2913 36.5578 34.8192 36.654C35.2913 36.5578 35.7449 36.4319 36.2078 36.3171ZM33.5177 36.8947C33.2382 36.9429 32.9586 37.0114 32.679 37.0484C32.1773 37.1261 31.7145 37.1539 31.2331 37.2021C32.0144 37.1243 32.7753 37.0206 33.5177 36.8947ZM30.1797 37.3187C29.9094 37.3372 29.6502 37.3279 29.3799 37.3483C29.6594 37.3298 29.9094 37.3391 30.1797 37.3187Z" fill="#DCDFEC"/>
</svg>
