<svg width="62" height="62" viewBox="0 0 62 62" fill="none" xmlns="http://www.w3.org/2000/svg">
<path d="M57.1129 36.2692C56.7989 35.3182 55.9763 34.6557 54.9123 34.4967C54.4106 34.4218 53.8361 34.4537 53.1563 34.5939C51.9713 34.8384 51.0922 34.9314 50.4506 34.9495C52.8722 30.8607 54.8415 26.1978 55.9752 21.8085C57.8082 14.7114 56.8287 11.4782 55.684 10.0157C52.6546 6.14487 48.2348 4.06528 42.9024 4.00153C40.0581 3.96682 37.5608 4.52845 36.2583 4.93222C35.0454 4.71836 33.7412 4.59885 32.3727 4.57671C29.808 4.53583 27.5416 5.09491 25.6051 6.24406C24.5328 5.88165 22.8123 5.37059 20.8253 5.04435C16.1518 4.27709 12.3852 4.87501 9.63021 6.82129C6.29406 9.17788 4.74744 13.2722 5.03351 18.9907C5.12423 20.8064 6.13996 26.3304 7.73908 31.5694C8.65815 34.5805 9.63819 37.0811 10.652 39.0023C12.0896 41.7265 13.6279 43.3308 15.3549 43.9068C16.3229 44.2294 18.0816 44.4551 19.9315 42.9148C20.1659 43.1986 20.4786 43.4808 20.8939 43.7428C21.421 44.0753 22.0658 44.347 22.7095 44.508C25.0299 45.0881 27.2034 44.943 29.0576 44.13C29.069 44.4597 29.0778 44.7748 29.0853 45.0469C29.0977 45.4883 29.1098 45.921 29.126 46.3256C29.2358 49.062 29.422 51.1896 29.9736 52.6782C30.0038 52.7602 30.0446 52.8849 30.0876 53.0171C30.3627 53.8597 30.823 55.2702 31.9935 56.3749C33.2059 57.5191 34.6722 57.8701 36.0151 57.87C36.6887 57.87 37.3313 57.7817 37.8949 57.6609C39.9042 57.2304 42.1861 56.5743 43.8367 54.2239C45.3972 52.002 46.1559 48.6554 46.2932 43.3822C46.311 43.2332 46.3274 43.0908 46.3433 42.9551C46.3539 42.8635 46.3648 42.7699 46.3758 42.6765L46.7436 42.7088L46.8383 42.7152C48.8847 42.8085 51.3869 42.3745 52.9236 41.6607C54.138 41.0971 58.0291 39.0429 57.1129 36.2692Z" fill="black"/>
<path d="M53.6139 36.8087C47.5292 38.0639 47.1109 36.0037 47.1109 36.0037C53.5354 26.4709 56.221 14.3704 53.9033 11.4089C47.5806 3.33044 36.6357 7.15104 36.4531 7.25023L36.3943 7.26075C35.1921 7.01121 33.8468 6.86254 32.3348 6.83787C29.5815 6.79275 27.4931 7.55965 25.9084 8.76141C25.9084 8.76141 6.38371 0.718013 7.29178 18.8775C7.48496 22.7408 12.829 48.1089 19.2031 40.4466C21.5328 37.6447 23.7838 35.2757 23.7838 35.2757C24.9019 36.0184 26.2403 36.3972 27.6435 36.2611L27.7525 36.1686C27.7186 36.5165 27.7341 36.8568 27.7961 37.2596C26.1541 39.0942 26.6366 39.4163 23.354 40.092C20.0325 40.7766 21.9838 41.9953 23.2577 42.3137C24.8022 42.7 28.3753 43.2471 30.7896 39.8674L30.6933 40.253C31.3367 40.7683 31.7885 43.605 31.7128 46.1764C31.6371 48.748 31.5865 50.5134 32.0934 51.8924C32.6004 53.2714 33.1057 56.3741 37.4209 55.4494C41.0266 54.6767 42.8952 52.6743 43.1551 49.3342C43.3396 46.9596 43.757 47.3106 43.7834 45.1876L44.1182 44.1825C44.5043 40.9636 44.1795 39.9251 46.401 40.4081L46.9409 40.4555C48.5759 40.5299 50.7159 40.1925 51.9718 39.6088C54.6763 38.3537 56.2803 36.2581 53.6136 36.8087H53.6139Z" fill="#091D28"/>
<path d="M27.0512 20.6052C26.503 20.5289 26.0063 20.5995 25.7551 20.7897C25.6137 20.8967 25.57 21.0207 25.5583 21.1061C25.5267 21.3322 25.6852 21.5821 25.7824 21.711C26.0578 22.076 26.4601 22.3269 26.8583 22.3821C26.916 22.3901 26.9733 22.394 27.0304 22.394C27.6945 22.394 28.2981 21.877 28.3513 21.4954C28.4179 21.0175 27.724 20.6988 27.0512 20.6052Z" fill="#DCDFEC"/>
<path d="M45.2162 20.6203C45.1639 20.2457 44.4971 20.1389 43.8644 20.2268C43.2328 20.3149 42.6201 20.6 42.6713 20.9755C42.7124 21.2675 43.2394 21.766 43.8636 21.7658C43.9162 21.7658 43.9694 21.7623 44.023 21.7548C44.4396 21.6971 44.7453 21.4326 44.8904 21.2801C45.1117 21.0478 45.2395 20.7887 45.2162 20.6203Z" fill="#DCDFEC"/>
<path d="M55.6386 36.6661C55.4066 35.9645 54.6599 35.7387 53.4192 35.995C49.7354 36.7553 48.4162 36.2286 47.9829 35.9096C50.8463 31.5475 53.2019 26.2748 54.4726 21.3552C55.0746 19.0248 55.4071 16.8607 55.4342 15.0968C55.4642 13.1605 55.1346 11.7378 54.4544 10.8687C51.7123 7.3649 47.688 5.48551 42.8165 5.43386C39.4675 5.39624 36.638 6.25338 36.0894 6.49433C34.9342 6.20705 33.6749 6.03068 32.304 6.00819C29.7898 5.96754 27.6167 6.56945 25.8174 7.79625C25.0359 7.50546 23.016 6.8121 20.5461 6.41426C16.2756 5.72659 12.8823 6.24757 10.4606 7.96318C7.57105 10.0104 6.23708 13.6697 6.49557 18.8394C6.58254 20.5788 7.57347 25.9294 9.13751 31.0536C11.1962 37.7979 13.4339 41.6159 15.7885 42.4012C16.0641 42.4931 16.382 42.5575 16.7323 42.5575C17.5912 42.5575 18.6442 42.1703 19.7399 40.8531C21.5598 38.6637 23.2589 36.8291 23.8853 36.1624C24.8109 36.6593 25.8276 36.9367 26.8677 36.9645C26.8695 36.9918 26.8723 37.019 26.8747 37.0461C26.6661 37.2936 26.4949 37.5104 26.349 37.6956C25.6285 38.6104 25.4785 38.8008 23.1589 39.2784C22.4992 39.4145 20.7465 39.7757 20.721 41.0041C20.6931 42.3462 22.7924 42.9098 23.0316 42.9696C23.8652 43.1783 24.6681 43.2812 25.4339 43.2812C27.2965 43.2811 28.9354 42.669 30.2453 41.4847C30.2049 46.2693 30.4045 50.9841 30.979 52.4206C31.4494 53.5965 32.5989 56.4706 36.2298 56.4703C36.7624 56.4703 37.349 56.4084 37.9941 56.2701C41.7834 55.4576 43.4288 53.7829 44.0654 50.0907C44.4061 48.1174 44.9907 43.4052 45.2655 40.8777C45.8458 41.0586 46.5928 41.1415 47.4004 41.1414C49.0847 41.1414 51.028 40.7836 52.2469 40.2178C53.6159 39.582 56.0867 38.0216 55.6386 36.6661ZM46.6147 19.5862C46.6021 20.3324 46.4994 21.0098 46.3906 21.717C46.2735 22.4775 46.1523 23.2637 46.1218 24.2182C46.0917 25.1471 46.2077 26.1129 46.3199 27.0467C46.5466 28.933 46.7792 30.875 45.8787 32.7913C45.7387 32.5428 45.6036 32.2716 45.4797 31.9712C45.3678 31.6999 45.1248 31.2641 44.7884 30.6608C43.4791 28.3129 40.4132 22.8147 41.9827 20.5711C42.4501 19.9031 43.6365 19.2167 46.6147 19.5862ZM43.0048 6.94492C47.3696 7.04133 50.8223 8.6742 53.2669 11.7979C55.1419 14.194 53.0773 25.0963 47.1004 34.5017C47.0414 34.4267 46.9812 34.351 46.9191 34.2734C46.8943 34.2423 46.869 34.2107 46.8435 34.1788C48.3879 31.628 48.0859 29.1044 47.8171 26.8668C47.7066 25.9486 47.6024 25.0813 47.6289 24.2667C47.6563 23.4031 47.7705 22.6627 47.8808 21.9466C48.0167 21.064 48.1547 20.151 48.1166 19.0746C48.145 18.9617 48.1565 18.8283 48.1416 18.6699C48.0444 17.6376 46.866 14.5486 44.4639 11.7523C43.1501 10.2231 41.2339 8.51163 38.6178 7.35728C39.7431 7.12406 41.282 6.90657 43.0048 6.94492ZM18.5805 39.889C17.3734 41.3404 16.5397 41.0623 16.2656 40.9709C14.4793 40.3751 12.4069 36.6 10.5796 30.6134C8.99853 25.4334 8.0745 20.2247 8.00143 18.764C7.77052 14.1447 8.89027 10.9253 11.3297 9.1953C15.2997 6.3799 21.8268 8.06503 24.4496 8.91975C24.4118 8.95689 24.3726 8.99173 24.3352 9.02947C20.0315 13.376 20.1336 20.8021 20.1441 21.256C20.1438 21.4311 20.1584 21.6791 20.1786 22.0202C20.2526 23.2692 20.3904 25.5938 20.0223 28.2265C19.6801 30.6728 20.4342 33.0672 22.0909 34.7958C22.2624 34.9747 22.4415 35.1427 22.6264 35.3008C21.8889 36.0906 20.2863 37.8369 18.5805 39.889ZM23.1796 33.7525C21.8443 32.3594 21.2379 30.4214 21.5156 28.4352C21.9044 25.6542 21.7608 23.2322 21.6837 21.931C21.673 21.7489 21.6634 21.5894 21.6577 21.4634C22.2865 20.906 25.2001 19.3448 27.2779 19.8209C28.2262 20.0381 28.8038 20.6837 29.0441 21.7944C30.2873 27.5441 29.2087 29.9406 28.342 31.8663C28.1633 32.2631 27.9946 32.6381 27.8504 33.0261L27.7388 33.326C27.456 34.0843 27.1929 34.7893 27.0298 35.4588C25.6104 35.4544 24.2295 34.8482 23.1796 33.7525ZM23.3974 41.5068C22.983 41.4033 22.6102 41.2234 22.3915 41.0742C22.5742 40.9882 22.8993 40.8714 23.4631 40.7553C26.1919 40.1934 26.6132 39.797 27.5335 38.6285C27.7446 38.3607 27.9837 38.0569 28.3149 37.687L28.3153 37.6866C28.8087 37.1342 29.0343 37.2279 29.4435 37.3976C29.7752 37.5349 30.0981 37.9505 30.2291 38.408C30.2911 38.624 30.3607 39.0342 30.133 39.3532C28.2105 42.0448 25.4093 42.0102 23.3974 41.5068ZM37.678 54.7959C34.3398 55.5111 33.1579 53.8078 32.379 51.8607C31.8763 50.6035 31.6293 44.9349 31.8046 38.6749C31.8069 38.5916 31.795 38.5112 31.772 38.4356C31.7521 38.2896 31.7213 38.1419 31.6788 37.9932C31.418 37.0824 30.7828 36.3204 30.0207 36.0046C29.718 35.8791 29.1621 35.649 28.4943 35.8197C28.6368 35.233 28.8838 34.5704 29.1515 33.8529L29.2639 33.551C29.3904 33.2107 29.549 32.8582 29.7169 32.4852C30.6238 30.4702 31.866 27.7104 30.5179 21.4757C30.0129 19.1405 28.3266 18.0002 25.7703 18.265C24.2377 18.4235 22.8358 19.0419 22.1365 19.3964C21.9862 19.4726 21.8486 19.5462 21.7202 19.6179C21.9153 17.265 22.6528 12.8678 25.4112 10.0858C27.1479 8.33429 29.4609 7.46929 32.2791 7.51586C37.8319 7.60683 41.3926 10.4565 43.4022 12.8311C45.1338 14.8774 46.0715 16.9386 46.4457 18.0502C43.6315 17.7642 41.7176 18.3197 40.7472 19.7068C38.6364 22.7241 41.902 28.5806 43.4715 31.3952C43.7593 31.9111 44.0077 32.3568 44.0859 32.5463C44.5969 33.7849 45.2586 34.6118 45.7417 35.2155C45.8898 35.4005 46.0335 35.5799 46.1427 35.7365C45.2904 35.9823 43.7594 36.55 43.8989 39.3879C43.7864 40.812 42.9861 47.479 42.5797 49.8345C42.0431 52.9463 40.8979 54.1055 37.678 54.7959ZM51.6119 38.8502C50.7404 39.2548 49.2818 39.5583 47.8962 39.6234C46.3658 39.6951 45.5868 39.452 45.4035 39.3025C45.3174 37.534 45.9758 37.3492 46.6724 37.1536C46.7819 37.1228 46.8887 37.0929 46.9918 37.0568C47.0559 37.109 47.126 37.1607 47.2028 37.2114C48.4329 38.0233 50.6269 38.1109 53.7242 37.4716C53.7355 37.4692 53.7469 37.467 53.7582 37.4647C53.3405 37.8553 52.6256 38.3796 51.6119 38.8502Z" fill="#DCDFEC"/>
</svg>
