<svg width="62" height="62" viewBox="0 0 62 62" fill="none" xmlns="http://www.w3.org/2000/svg">
<path d="M37.5725 28.7421L26.9586 32.208L17.7246 36.2834L15.1412 36.9654C14.4833 37.5912 13.7935 38.2251 13.0473 38.8669C12.229 39.5728 11.4669 40.2147 10.8812 40.6799C10.2314 41.1934 9.26865 42.1561 8.77931 42.7657C8.04921 43.6803 7.4716 44.651 7.22288 45.3972C6.7816 46.745 6.99832 48.1088 7.84869 49.3685C8.93976 50.9729 11.1139 52.6095 13.649 53.7246C14.9407 54.2944 17.1148 55.0244 18.7514 55.4334C21.471 56.1234 26.7339 56.8696 29.63 56.982C30.2155 57.006 31.0018 57.006 31.0338 56.982C31.0981 56.9417 31.5474 56.0834 32.0689 55.0164C33.85 51.3821 35.1336 47.9725 35.8315 45.0603C36.2486 43.2954 36.5775 40.9447 36.794 38.161C36.8503 37.3828 36.8743 34.7754 36.8262 33.8928C36.7539 32.4488 36.6255 31.2776 36.4251 30.1303C36.393 29.9618 36.3849 29.8093 36.401 29.8014C36.433 29.7773 36.5293 29.7452 37.837 29.3681L37.5724 28.7424V28.7422H37.5725V28.7421ZM35.1497 30.1622C35.2459 30.1622 35.5026 32.6251 35.5667 34.1816C35.5829 34.5105 35.5747 34.7271 35.5587 34.7271C35.4946 34.7271 34.2029 33.9651 33.2805 33.3875C32.4781 32.882 30.9539 31.8711 30.7132 31.6786C30.6329 31.6224 30.6408 31.6145 31.2988 31.3897C32.4138 31.0126 35.0614 30.1622 35.1497 30.1622ZM29.7424 31.9433C29.8147 31.9433 29.9991 32.0475 30.4403 32.3203C32.093 33.3552 34.3394 34.6068 35.3021 35.024C35.5988 35.1524 35.6308 35.1042 34.9491 35.5696C33.4889 36.5643 31.6677 37.5431 29.4374 38.5299C29.0444 38.7064 28.7155 38.8427 28.7075 38.8427C28.6915 38.8427 28.7395 38.6423 28.8036 38.4015C29.3411 36.4037 29.646 34.3821 29.6622 32.7615C29.6702 31.9592 29.6702 31.9592 29.7424 31.9353C29.7263 31.9433 29.7343 31.9433 29.7424 31.9433ZM28.6273 32.3685C28.6753 32.4165 28.6433 34.2137 28.5791 34.703C28.4347 35.8743 28.21 36.9654 27.8411 38.193C27.7528 38.4896 27.6725 38.7384 27.6566 38.7544C27.6244 38.7945 26.5253 37.7195 26.1643 37.3023C25.5385 36.5803 25.0492 35.8582 24.6882 35.1523C24.5036 34.7912 24.2149 34.0853 24.2389 34.0612C24.3672 33.973 28.5952 32.3364 28.6273 32.3685ZM23.3804 34.4302C23.3884 34.4302 23.3964 34.4302 23.4045 34.4382C23.4205 34.4543 23.4768 34.5827 23.5249 34.7271C23.7816 35.425 24.3591 36.4519 24.8566 37.1098C25.4022 37.8319 26.1163 38.602 26.7098 39.1074C26.9024 39.2679 27.0788 39.4202 27.1028 39.4444C27.151 39.4925 27.1671 39.4844 25.8593 39.9819C24.3432 40.5595 22.6905 41.1371 20.7971 41.7468C20.3448 41.8926 19.8929 42.0397 19.4415 42.1881C19.3691 42.2122 19.3933 42.172 19.6018 41.8432C20.5404 40.375 21.9684 37.4949 22.7707 35.4571C22.9071 35.1041 23.0435 34.7512 23.0676 34.6709C23.0997 34.5585 23.1398 34.5185 23.244 34.4623C23.3002 34.4464 23.3564 34.4302 23.3804 34.4302ZM21.776 35.0961C21.8001 35.1122 21.3909 35.9706 20.9897 36.7568C20.2115 38.273 19.3611 39.7654 18.2219 41.5784C18.0294 41.8913 17.845 42.1802 17.8208 42.2122C17.7808 42.2684 17.7646 42.2523 17.6363 42.0037C17.3635 41.4661 17.1388 40.7761 17.0185 40.1423C16.8981 39.5165 16.9223 38.4255 17.0587 37.7516C17.1629 37.2543 17.155 37.2623 17.3956 37.1419C18.4225 36.6205 21.7439 35.064 21.776 35.0961ZM35.615 35.6578V35.9947C35.615 37.7837 35.4224 40.2386 35.1415 42.0278C35.0934 42.3406 35.0532 42.5972 35.0453 42.6054C35.0453 42.6054 34.8127 42.5413 34.5399 42.4609C33.3365 42.0838 32.0288 41.5303 30.8495 40.8805C30.0712 40.4553 28.9401 39.7573 28.9722 39.7252C28.9801 39.7172 29.3171 39.5407 29.7102 39.3321C31.2828 38.5138 32.7909 37.6313 34.0986 36.7569C34.588 36.4279 35.326 35.8985 35.4866 35.754L35.615 35.6578ZM15.7188 38.0323C15.7509 38.0323 15.7429 38.0965 15.6948 38.3853C15.6626 38.594 15.6226 38.9791 15.6066 39.2437C15.5423 40.415 15.735 41.2815 16.3126 42.4688C16.473 42.7978 16.6015 43.0706 16.5933 43.0785C16.5371 43.1267 11.2263 44.6832 9.55747 45.1404C9.0601 45.2767 8.62696 45.3971 8.5947 45.405C8.53865 45.4212 8.53059 45.4132 8.55464 45.2767C8.73913 44.0974 9.63771 42.5571 10.8892 41.2573C11.7236 40.391 12.3895 39.8856 13.5287 39.2356C14.347 38.7704 15.6065 38.0725 15.7028 38.0403C15.7029 38.0323 15.7109 38.0323 15.7188 38.0323ZM28.2342 40.2706C28.2421 40.2627 28.4347 40.367 28.6673 40.5033C30.3842 41.4982 32.7749 42.4208 34.8125 42.8941L34.9972 42.9343L34.7404 43.0785C33.6734 43.6722 30.1675 45.1323 26.5815 46.4722C26.0599 46.6646 25.5466 46.8572 25.4502 46.8973C25.3539 46.9374 25.2656 46.9615 25.2656 46.9535C25.2656 46.9454 25.4101 46.6646 25.5945 46.3197C26.5973 44.4424 27.6083 42.156 28.1217 40.5675C28.186 40.4151 28.226 40.2787 28.2342 40.2706ZM26.9586 40.6879C26.9667 40.6961 26.9024 40.8644 26.8222 41.0569C26.1242 42.7497 25.2095 44.595 24.0383 46.6648C23.7415 47.1943 23.4928 47.6195 23.4846 47.6195C23.4767 47.6195 23.236 47.475 22.9472 47.2986C21.2463 46.2556 19.7381 44.972 18.7514 43.7285L18.607 43.552L19.3369 43.3514C21.9524 42.6375 24.1745 41.8673 26.3808 40.9207C26.6938 40.7922 26.9506 40.6879 26.9586 40.6879ZM34.8849 43.4557C34.8929 43.6402 34.4837 45.2929 34.1467 46.4881C33.866 47.491 33.6252 48.2773 33.184 49.6651C32.9915 50.2749 32.8232 50.7802 32.815 50.7802C32.807 50.7802 32.7589 50.7722 32.7108 50.7563C30.3281 50.3229 28.1941 49.7213 26.1884 48.9191C25.6267 48.6944 24.8245 48.3333 24.7764 48.2933C24.7604 48.2771 25.2418 48.0526 25.8515 47.7878C29.5018 46.1913 33.2884 44.3782 34.588 43.6001C34.7404 43.5038 34.8608 43.4557 34.8849 43.4557ZM16.5853 44.0815C16.6014 44.0975 15.5825 45.5657 14.1544 47.5633C13.6571 48.2613 13.0795 49.0795 12.8629 49.3844C12.6462 49.6892 12.3173 50.1706 12.1328 50.4594L11.7957 50.9809L11.4347 50.6761C11.0095 50.323 10.2715 49.5689 9.94255 49.1517C9.25255 48.2934 8.78734 47.3868 8.6028 46.5606C8.51453 46.1754 8.51453 45.9828 8.59466 45.9589C8.71497 45.9268 10.857 45.4213 12.8628 44.9559C13.978 44.6993 15.2695 44.3944 15.7348 44.2821C16.2002 44.1696 16.5774 44.0815 16.5853 44.0815ZM17.6122 44.4746L17.8688 44.7634C19.0242 46.055 20.2035 47.0099 21.6315 47.8441C21.8883 47.9886 22.0808 48.1168 22.0647 48.125C22.0087 48.1651 17.1067 49.9058 14.8364 50.6921C13.5608 51.1413 12.5098 51.5023 12.5019 51.5023C12.4939 51.5023 12.4216 51.4542 12.3413 51.398L12.197 51.2937L12.4296 50.9568C13.1837 49.8657 14.1305 48.6704 16.1923 46.1834L17.6122 44.4746ZM24.0143 49.0554C24.0222 49.0475 24.3752 49.1757 24.8084 49.3364C25.8515 49.7294 26.6777 49.9781 27.7849 50.2589C29.1488 50.6039 31.1223 50.9409 32.2856 51.0371C32.4621 51.0531 32.5584 51.0692 32.5263 51.0933C32.47 51.1254 31.2908 51.5185 30.4244 51.7913C29.0444 52.2244 24.8326 53.4679 21.3989 54.4547C20.7651 54.6392 20.2195 54.7917 20.1875 54.7996C20.1073 54.8158 19.8425 54.7435 19.8425 54.7114C19.8425 54.6954 20.035 54.4468 20.2677 54.1739C21.4229 52.794 22.5702 51.2537 23.5249 49.7936C23.7896 49.3923 24.0143 49.0635 24.0143 49.0554ZM22.6022 49.0956C22.6102 49.1036 22.0407 50.0182 21.046 51.5906C20.6207 52.2564 20.1473 53.0106 19.9788 53.2753C19.8184 53.532 19.5777 53.9333 19.4414 54.1578L19.2087 54.567L19.0884 54.5349C18.7995 54.4547 16.7698 53.7406 16.2323 53.524C15.5663 53.2592 14.8764 52.9384 14.3629 52.6657C13.7212 52.3206 12.919 51.8071 12.9831 51.7912C12.9991 51.7832 14.0983 51.4862 15.4219 51.1253C18.9359 50.1705 20.8853 49.617 22.161 49.2159C22.3937 49.1437 22.5942 49.0875 22.6022 49.0956ZM32.5904 51.4381H32.5984C32.6305 51.5184 31.3309 55.1286 30.8574 56.2677C30.7532 56.5244 30.7132 56.5887 30.657 56.5806C30.5206 56.5727 28.6353 56.3079 27.488 56.1394C25.4904 55.8346 22.1369 55.2488 21.2946 55.0564L21.1021 55.0163L22.2973 54.7433C24.8646 54.1657 26.1001 53.8529 27.3516 53.4678C28.9321 52.9865 30.4966 52.3847 32.0769 51.6467C32.3256 51.5344 32.5342 51.4461 32.5904 51.4381Z" fill="url(#paint0_linear_946_14413)"/>
<path d="M26.6296 4.00041C26.4531 3.97647 23.605 5.00335 21.7679 5.74936C19.2889 6.76033 17.3635 7.7231 16.1761 8.55727C15.735 8.87028 15.1813 9.42377 15.0932 9.64034C15.0611 9.72058 15.045 9.81684 15.045 9.91311L16.1201 10.932L18.6792 11.7503L24.7684 12.8414L31.732 14.0368L31.8042 13.4351C31.7802 13.4351 31.7641 13.4271 31.7402 13.4271L30.8254 13.2826L30.641 12.9537C29.6943 11.285 28.6514 9.21515 28.0417 7.81921C27.5684 6.73614 27.1191 5.48473 26.8703 4.58616C26.7339 4.04062 26.7179 4.00855 26.6298 4.00056V4.00037H26.6296V4.00041ZM26.5011 4.40969H26.5094C26.5173 4.41761 26.5494 4.64239 26.5815 4.90698C26.7178 6.0303 26.9667 7.11319 27.3597 8.28454C27.6565 9.16706 27.6565 9.11897 27.3116 9.0146C26.4933 8.79004 22.827 8.15624 20.1715 7.78721C19.7463 7.73101 19.3852 7.67489 19.3852 7.6669C19.3532 7.63483 21.3026 6.61586 22.161 6.21484C23.2601 5.7093 26.2766 4.44976 26.5011 4.40969ZM18.7674 8.00378L19.0804 8.10796C20.7811 8.68568 25.057 9.50401 27.4158 9.69653C27.6805 9.72062 27.9052 9.74474 27.9131 9.74474C27.9211 9.75273 27.6966 9.87308 27.4077 10.0094C26.2686 10.579 25.017 11.277 24.1506 11.8146C23.8939 11.9749 23.6611 12.1034 23.6291 12.1034C23.597 12.1034 23.4286 12.0713 23.2521 12.0472L22.9312 11.999L22.1291 11.2127C20.7171 9.84093 19.6099 8.78197 19.1847 8.38076L18.7674 8.00378ZM18.4466 8.25242L19.5778 9.66446C20.1954 10.4427 20.8212 11.2048 20.9577 11.3732C21.094 11.5417 21.2064 11.6782 21.1984 11.6862C21.1663 11.7102 19.5618 11.3973 18.7113 11.2048C17.8369 11.0042 17.4759 10.9079 16.9384 10.7395L16.4971 10.5951V10.4827C16.5051 9.94514 17.1871 9.14294 18.3423 8.32471L18.4466 8.25242ZM28.0576 10.1779C28.0898 10.1779 28.1298 10.2501 28.226 10.4667C28.4988 11.0683 29.3493 12.689 29.5577 13.0018C29.6221 13.1062 29.7342 13.1142 28.6032 12.9297C25.8836 12.4883 25.009 12.3441 25.009 12.328C25.009 12.32 25.0893 12.2638 25.1936 12.2076C26.036 11.7424 26.8863 11.1487 27.6405 10.5149C27.825 10.3624 27.9935 10.218 28.0255 10.1939C28.0335 10.1779 28.0496 10.1699 28.0576 10.1779Z" fill="url(#paint1_linear_946_14413)"/>
<path d="M15.1492 9.52803C15.1492 9.52803 14.9728 9.80894 15.1413 10.2261C15.2457 10.4828 15.5505 10.7956 15.8954 11.1166C15.8954 11.1166 19.4654 14.5983 19.8987 15.0958C21.8721 17.3742 22.7306 19.6205 22.8109 22.7173C22.859 24.7069 22.4818 26.4558 21.5432 28.4856C19.8745 32.1278 16.3526 36.1472 10.9213 40.6078L11.7156 40.343C12.2291 39.9579 12.927 39.5488 14.5636 38.6503C18.3422 36.5803 22.5942 34.679 27.809 32.7215C35.3179 29.8974 47.6649 26.5921 54.6925 25.5172L55.4227 25.4048L55.3103 25.2283C54.6686 24.2334 54.2272 23.6158 53.6977 22.9579C52.1575 21.0485 50.2883 19.5002 48.0017 18.2166C44.8569 16.4597 40.7893 15.0878 35.6389 14.0689C34.6682 13.8763 32.5342 13.5073 30.8013 13.2426C27.1269 12.6731 24.7522 12.2799 22.1369 11.8307C21.1983 11.6701 19.7943 11.4295 18.8636 11.229C18.3823 11.1246 17.4598 10.908 16.7377 10.6593C16.1601 10.4346 15.3257 10.21 15.1492 9.52803ZM17.2192 11.5338C17.2271 11.5258 17.3554 11.5738 17.524 11.63C17.8288 11.7342 18.2219 11.8546 18.6874 11.983C19.0395 12.0799 19.3925 12.1735 19.7463 12.2638C20.2277 12.3841 20.6287 12.4964 20.6367 12.4964C20.693 12.5526 21.5033 15.1437 21.7761 16.1386C21.8802 16.5157 21.9606 16.8366 21.9526 16.8366C21.9443 16.8447 21.8562 16.7082 21.7519 16.5237C20.8133 14.871 19.3291 13.1943 17.6122 11.8465C17.3877 11.6862 17.2192 11.5418 17.2192 11.5338ZM21.1663 12.6248C21.2064 12.6248 21.3829 12.6489 21.5994 12.697C22.9633 13.0018 25.4102 13.4672 26.9746 13.732C27.2393 13.772 27.448 13.8203 27.448 13.8362C27.448 13.8523 27.3516 13.9084 27.2312 13.9726C26.9666 14.109 25.8995 14.7427 25.5466 14.9834C24.656 15.5771 23.8539 16.2189 23.2762 16.7965C23.0436 17.0292 22.8429 17.2217 22.8429 17.2217C22.8429 17.2217 22.7949 17.0854 22.7546 16.9168C22.466 15.8017 21.8642 14.149 21.3186 12.9858C21.2304 12.8013 21.1581 12.6328 21.1581 12.6168C21.1581 12.6328 21.1581 12.6248 21.1663 12.6248ZM28.1138 13.9486C28.1619 13.9645 28.2422 14.2373 28.4026 14.839C28.6995 16.0024 28.8359 17.302 28.7877 18.5134C28.7716 18.8504 28.7556 19.1632 28.7395 19.2034L28.7155 19.2835L28.2983 19.1472C27.4399 18.8744 26.044 18.4652 24.8487 18.1283C24.1667 17.9438 23.6132 17.7753 23.6132 17.7593C23.6132 17.7111 24.6081 16.7163 25.0332 16.3393C25.8434 15.6252 28.0415 13.9244 28.1138 13.9486ZM28.6674 14.0287C28.6915 14.0048 31.9887 14.5742 33.489 14.8631C34.6042 15.0797 36.2247 15.4166 36.3209 15.4568C36.3691 15.4728 36.2005 15.5691 35.663 15.8097C33.5451 16.7645 31.9726 17.6228 30.4083 18.6658C29.9992 18.9386 29.6542 19.1632 29.6462 19.1632C29.6382 19.1632 29.6302 18.9306 29.6302 18.6498C29.6302 17.1255 29.3253 15.5852 28.7636 14.2855C28.7075 14.1571 28.6593 14.0368 28.6674 14.0287ZM37.1954 15.7135C37.2195 15.7376 37.1151 16.3875 37.0188 16.7725C36.7301 17.9679 35.9519 19.741 34.9973 21.4096C34.8287 21.7064 34.6763 21.9471 34.6601 21.9551C34.6443 21.9631 34.4276 21.8427 34.1789 21.6983C33.2483 21.1528 32.1893 20.6394 31.034 20.158C30.7132 20.0216 30.4324 19.9092 30.4243 19.8933C30.3681 19.8451 32.9514 18.1363 34.3153 17.318C35.3983 16.6602 37.1632 15.6814 37.1954 15.7135ZM37.805 15.8098C37.8773 15.8098 39.3374 16.2109 40.0994 16.4356C41.9848 16.9972 44.1509 17.7914 45.5629 18.4332L46.1484 18.698L45.7394 18.7942C42.2898 19.5884 39.3374 20.5031 36.4893 21.6583C36.2567 21.7546 36.0481 21.8348 36.0322 21.8348C36.0161 21.8348 36.0963 21.6503 36.2006 21.4256C37.059 19.6045 37.6126 17.7031 37.7488 16.0825C37.757 15.93 37.7809 15.8098 37.805 15.8098ZM23.2682 19.1472C23.2922 19.1231 24.4074 19.3879 25.0091 19.5562C25.9236 19.8131 27.865 20.4628 27.865 20.511C27.865 20.519 27.6485 20.7035 27.3919 20.9282C26.3409 21.8027 25.33 22.7252 24.1185 23.8965C23.7575 24.2416 23.4527 24.5224 23.4367 24.5224C23.4206 24.5224 23.4127 24.4741 23.4206 24.41C23.6051 23.0621 23.5651 21.3293 23.3083 19.5724C23.2842 19.3476 23.2602 19.1552 23.2682 19.1472ZM46.7022 19.1713C46.7181 19.1873 46.1887 20.0216 45.8518 20.4949C45.3705 21.1848 44.6643 22.0996 43.0678 24.1052C42.2256 25.1641 41.2788 26.3595 40.966 26.7606C40.645 27.1618 40.3803 27.4986 40.3722 27.4986C40.3642 27.4986 40.2601 27.3543 40.1477 27.1778C39.2491 25.83 38.174 24.6507 36.8984 23.5917C36.6578 23.3911 36.3932 23.1745 36.3049 23.1103C36.2166 23.0461 36.1444 22.982 36.1444 22.974C36.1444 22.95 37.5081 22.3642 38.5432 21.9471C40.3563 21.209 42.827 20.3265 44.6804 19.7569C45.6511 19.452 46.6861 19.1552 46.7022 19.1713ZM47.3199 19.3317C47.3519 19.3237 47.5445 19.42 47.7772 19.5562C49.7267 20.6714 51.636 22.1075 53.1443 23.5837C53.5695 24.0009 54.6205 25.092 54.6043 25.1C54.6043 25.1 54.2353 25.132 53.8022 25.1641C50.4246 25.4209 46.1006 26.1348 41.9448 27.1376C41.664 27.2017 41.4154 27.2579 41.3992 27.2579C41.3834 27.2579 41.6961 26.9451 42.0893 26.5681C44.5281 24.2174 45.6433 22.7333 46.9589 20.0857C47.1434 19.6927 47.3039 19.3558 47.3199 19.3317C47.3119 19.3317 47.3119 19.3317 47.3199 19.3317ZM29.4535 21.1609C29.5659 21.1849 30.6089 21.6744 31.395 22.0674C32.1171 22.4283 33.2002 23.0061 33.2563 23.0541C33.2643 23.0621 32.8792 23.2627 32.406 23.4954C30.8976 24.2495 29.6061 24.9635 28.2582 25.7818C27.8731 26.0145 27.5522 26.2071 27.5442 26.2071C27.5121 26.2071 27.5201 26.1749 27.7368 25.7818C28.4588 24.4662 29.0364 22.8938 29.3654 21.3614C29.3974 21.2411 29.4295 21.1609 29.4535 21.1609ZM28.4106 21.3534C28.4347 21.3775 28.1619 22.3642 27.9935 22.9017C27.6645 23.9206 27.111 25.1962 26.5735 26.1589C26.445 26.3834 26.2525 26.7124 26.1482 26.8969L25.9477 27.2178L25.4984 26.7847C24.977 26.2792 24.5517 25.9664 24.0063 25.6855C23.7896 25.5733 23.6212 25.4769 23.6212 25.461C23.6212 25.3968 24.993 24.1533 26.044 23.2548C26.7981 22.6049 28.3866 21.3293 28.4106 21.3534ZM34.7887 23.9768L35.1818 24.2335C36.0802 24.8192 37.1391 25.5973 37.9496 26.2792C38.4067 26.6562 39.2892 27.4506 39.4658 27.6431L39.5619 27.7475L38.9123 27.932C35.2379 28.9507 32.3979 29.8573 29.0845 31.0768C28.7155 31.2131 28.4026 31.3255 28.3785 31.3255C28.3305 31.3255 28.2902 31.3655 29.1167 30.6033C31.2347 28.654 33.1119 26.5038 34.5078 24.4099L34.7887 23.9768ZM33.1119 24.394C33.1279 24.41 32.0289 25.9583 31.3709 26.8328C30.5847 27.8758 29.1888 29.6246 28.2261 30.7638C27.825 31.2372 27.4801 31.6303 27.464 31.6383C27.4399 31.6463 27.4319 31.526 27.4319 31.3415C27.4319 30.3706 27.1832 29.3357 26.75 28.4533C26.5654 28.0843 26.5333 27.996 26.5736 27.956C26.7259 27.8195 29.0605 26.4878 30.5366 25.6936C31.5314 25.1641 33.0877 24.3779 33.1119 24.394ZM22.9713 26.881C22.9954 26.881 23.1799 26.9772 23.3885 27.0896C23.902 27.3703 24.3593 27.6832 24.7684 28.0202C24.7844 28.0362 24.5759 28.2048 24.3031 28.4052C23.5409 28.9507 22.3857 29.8253 21.7119 30.3628C21.0057 30.9244 20.9818 30.9404 21.062 30.8201C21.5915 30.0098 21.8562 29.5525 22.1371 28.9669C22.3857 28.4455 22.6343 27.8277 22.8109 27.2902C22.875 27.0575 22.9553 26.881 22.9713 26.881ZM25.675 28.9989C25.715 28.991 25.7633 29.0631 25.9798 29.3841C26.4371 30.0658 26.7901 30.9806 26.8784 31.7186L26.8943 31.8791L25.7954 32.3044C23.8297 33.0664 22.0167 33.8206 20.7891 34.3821C20.4442 34.5426 19.8425 34.8314 19.4495 35.024C19.0563 35.2245 18.7354 35.3769 18.7354 35.3689C18.7354 35.3609 18.9841 35.1764 19.2889 34.9517C21.6878 33.2109 23.7656 31.3014 25.3219 29.3921C25.4905 29.1915 25.643 29.0069 25.6589 28.9989L25.675 28.9989ZM24.4315 29.3038C24.4636 29.3359 23.5491 30.3708 22.9233 31.0045C21.3749 32.5851 19.8426 33.8206 17.9412 35.024C17.7005 35.1764 17.4839 35.3127 17.4598 35.3289C17.4036 35.3609 17.4758 35.2807 18.3102 34.3741C18.8397 33.8045 19.2408 33.3231 19.6981 32.7295C20.0029 32.3365 20.0591 32.2803 20.5005 31.9673C21.6798 31.1169 24.3994 29.2717 24.4315 29.3038Z" fill="#6D6E71"/>
<defs>
<linearGradient id="paint0_linear_946_14413" x1="14.9853" y1="51.7572" x2="18.8233" y2="49.4894" gradientUnits="userSpaceOnUse">
<stop stop-color="#909CA9"/>
<stop offset="1" stop-color="#EDEDEE"/>
</linearGradient>
<linearGradient id="paint1_linear_946_14413" x1="15.0731" y1="9.00291" x2="18.1613" y2="9.00291" gradientUnits="userSpaceOnUse">
<stop stop-color="#939FAB"/>
<stop offset="1" stop-color="#DCDEE1"/>
</linearGradient>
</defs>
</svg>
